M48
; DRILL file {KiCad (6.0.2)} date Tue Mar 15 10:05:23 2022
; FORMAT={-:-/ absolute / metric / decimal}
; #@! TF.CreationDate,2022-03-15T10:05:23+02:00
; #@! TF.GenerationSoftware,Kicad,Pcbnew,(6.0.2)
; #@! TF.FileFunction,Plated,1,2,PTH
FMAT,2
METRIC
; #@! TA.AperFunction,Plated,PTH,ViaDrill
T1C0.700
; #@! TA.AperFunction,Plated,PTH,ComponentDrill
T2C0.800
; #@! TA.AperFunction,Plated,PTH,ComponentDrill
T3C0.900
; #@! TA.AperFunction,Plated,PTH,ComponentDrill
T4C0.991
; #@! TA.AperFunction,Plated,PTH,ComponentDrill
T5C1.000
; #@! TA.AperFunction,Plated,PTH,ComponentDrill
T6C1.100
; #@! TA.AperFunction,Plated,PTH,ComponentDrill
T7C1.295
; #@! TA.AperFunction,Plated,PTH,ComponentDrill
T8C1.400
; #@! TA.AperFunction,Plated,PTH,ComponentDrill
T9C3.200
%
G90
G05
T1
X118.237Y-67.818
X119.38Y-70.104
X123.952Y-80.01
X124.079Y-112.649
X124.206Y-109.347
X126.365Y-57.023
X128.397Y-84.709
X128.778Y-102.997
X129.921Y-83.312
X130.302Y-61.468
X131.826Y-85.598
X132.715Y-62.992
X133.731Y-83.947
X134.493Y-81.661
X137.0Y-101.0
X139.446Y-62.484
X140.716Y-65.532
X141.986Y-99.822
X146.05Y-95.377
X147.447Y-89.662
X147.955Y-104.521
X151.003Y-99.822
T2
X128.6Y-112.18
X128.6Y-119.8
X130.6Y-130.59
X130.6Y-138.21
X131.14Y-112.18
X131.14Y-119.8
X133.68Y-112.18
X133.68Y-119.8
X136.22Y-112.18
X136.22Y-119.8
T3
X118.0Y-76.48
X118.0Y-79.02
X118.0Y-86.48
X118.0Y-89.02
X118.0Y-96.48
X118.0Y-99.02
T4
X112.0Y-75.5
X112.0Y-79.996
X112.0Y-85.5
X112.0Y-89.996
X112.0Y-95.5
X112.0Y-99.996
X113.364Y-114.721
X113.364Y-119.216
T5
X117.46Y-104.92
X117.46Y-107.46
X117.46Y-110.0
X120.0Y-104.92
X120.0Y-107.46
X120.0Y-110.0
X150.0Y-131.0
X150.0Y-133.54
X150.0Y-136.08
X150.0Y-138.62
X150.0Y-141.16
X152.54Y-131.0
X152.54Y-133.54
X152.54Y-136.08
X152.54Y-138.62
X152.54Y-141.16
T6
X144.46Y-118.055
X147.0Y-118.055
X149.54Y-118.055
T7
X114.489Y-74.243
X114.489Y-81.253
X114.489Y-84.243
X114.489Y-91.253
X114.489Y-94.243
X114.489Y-101.253
X115.853Y-113.463
X115.853Y-120.474
T8
X108.3Y-128.2
X108.3Y-138.2
X109.4Y-60.3
X109.4Y-69.7
X113.2Y-60.3
X113.2Y-69.7
X118.3Y-125.7
X118.3Y-133.2
X118.3Y-140.7
X120.8Y-128.2
X120.8Y-138.2
T9
X110.0Y-54.0
X110.0Y-148.0
X154.0Y-54.0
X154.0Y-148.0
T0
M30
