%TF.GenerationSoftware,KiCad,Pcbnew,(6.0.2)*%
%TF.CreationDate,2022-03-15T10:04:13+02:00*%
%TF.ProjectId,C-DAO,432d4441-4f2e-46b6-9963-61645f706362,0.1*%
%TF.SameCoordinates,Original*%
%TF.FileFunction,Paste,Top*%
%TF.FilePolarity,Positive*%
%FSLAX46Y46*%
G04 Gerber Fmt 4.6, Leading zero omitted, Abs format (unit mm)*
G04 Created by KiCad (PCBNEW (6.0.2)) date 2022-03-15 10:04:13*
%MOMM*%
%LPD*%
G01*
G04 APERTURE LIST*
G04 Aperture macros list*
%AMRoundRect*
0 Rectangle with rounded corners*
0 $1 Rounding radius*
0 $2 $3 $4 $5 $6 $7 $8 $9 X,Y pos of 4 corners*
0 Add a 4 corners polygon primitive as box body*
4,1,4,$2,$3,$4,$5,$6,$7,$8,$9,$2,$3,0*
0 Add four circle primitives for the rounded corners*
1,1,$1+$1,$2,$3*
1,1,$1+$1,$4,$5*
1,1,$1+$1,$6,$7*
1,1,$1+$1,$8,$9*
0 Add four rect primitives between the rounded corners*
20,1,$1+$1,$2,$3,$4,$5,0*
20,1,$1+$1,$4,$5,$6,$7,0*
20,1,$1+$1,$6,$7,$8,$9,0*
20,1,$1+$1,$8,$9,$2,$3,0*%
G04 Aperture macros list end*
%ADD10R,1.600000X0.550000*%
%ADD11R,0.550000X1.600000*%
%ADD12RoundRect,0.237500X0.237500X-0.250000X0.237500X0.250000X-0.237500X0.250000X-0.237500X-0.250000X0*%
%ADD13RoundRect,0.237500X0.250000X0.237500X-0.250000X0.237500X-0.250000X-0.237500X0.250000X-0.237500X0*%
%ADD14RoundRect,0.237500X0.237500X-0.300000X0.237500X0.300000X-0.237500X0.300000X-0.237500X-0.300000X0*%
%ADD15RoundRect,0.237500X-0.237500X0.300000X-0.237500X-0.300000X0.237500X-0.300000X0.237500X0.300000X0*%
%ADD16RoundRect,0.237500X-0.250000X-0.237500X0.250000X-0.237500X0.250000X0.237500X-0.250000X0.237500X0*%
%ADD17RoundRect,0.237500X0.300000X0.237500X-0.300000X0.237500X-0.300000X-0.237500X0.300000X-0.237500X0*%
%ADD18RoundRect,0.237500X-0.237500X0.250000X-0.237500X-0.250000X0.237500X-0.250000X0.237500X0.250000X0*%
%ADD19RoundRect,0.250000X1.050000X0.550000X-1.050000X0.550000X-1.050000X-0.550000X1.050000X-0.550000X0*%
%ADD20RoundRect,0.237500X-0.300000X-0.237500X0.300000X-0.237500X0.300000X0.237500X-0.300000X0.237500X0*%
%ADD21RoundRect,0.237500X-0.287500X-0.237500X0.287500X-0.237500X0.287500X0.237500X-0.287500X0.237500X0*%
%ADD22R,1.500000X2.000000*%
%ADD23R,3.800000X2.000000*%
%ADD24R,2.000000X4.500000*%
%ADD25RoundRect,0.250000X-1.050000X-0.550000X1.050000X-0.550000X1.050000X0.550000X-1.050000X0.550000X0*%
%ADD26RoundRect,0.250000X0.550000X-1.050000X0.550000X1.050000X-0.550000X1.050000X-0.550000X-1.050000X0*%
%ADD27RoundRect,0.150000X0.825000X0.150000X-0.825000X0.150000X-0.825000X-0.150000X0.825000X-0.150000X0*%
G04 APERTURE END LIST*
D10*
X142299000Y-92843000D03*
X142299000Y-92043000D03*
X142299000Y-91243000D03*
X142299000Y-90443000D03*
X142299000Y-89643000D03*
X142299000Y-88843000D03*
X142299000Y-88043000D03*
X142299000Y-87243000D03*
D11*
X140849000Y-85793000D03*
X140049000Y-85793000D03*
X139249000Y-85793000D03*
X138449000Y-85793000D03*
X137649000Y-85793000D03*
X136849000Y-85793000D03*
X136049000Y-85793000D03*
X135249000Y-85793000D03*
D10*
X133799000Y-87243000D03*
X133799000Y-88043000D03*
X133799000Y-88843000D03*
X133799000Y-89643000D03*
X133799000Y-90443000D03*
X133799000Y-91243000D03*
X133799000Y-92043000D03*
X133799000Y-92843000D03*
D11*
X135249000Y-94293000D03*
X136049000Y-94293000D03*
X136849000Y-94293000D03*
X137649000Y-94293000D03*
X138449000Y-94293000D03*
X139249000Y-94293000D03*
X140049000Y-94293000D03*
X140849000Y-94293000D03*
D12*
X130500000Y-76412500D03*
X130500000Y-74587500D03*
X130500000Y-72787500D03*
X130500000Y-70962500D03*
D13*
X133858000Y-106553000D03*
X132033000Y-106553000D03*
D14*
X126200000Y-60325000D03*
X126200000Y-58600000D03*
D12*
X133100000Y-72812500D03*
X133100000Y-70987500D03*
D13*
X121212500Y-116000000D03*
X119387500Y-116000000D03*
D15*
X121200000Y-67775000D03*
X121200000Y-69500000D03*
D14*
X126400000Y-125700000D03*
X126400000Y-123975000D03*
D12*
X138300000Y-72812500D03*
X138300000Y-70987500D03*
D16*
X129375000Y-128200000D03*
X131200000Y-128200000D03*
D13*
X122112500Y-79000000D03*
X120287500Y-79000000D03*
D12*
X146100000Y-76287500D03*
X146100000Y-74462500D03*
D17*
X130762500Y-89600000D03*
X129037500Y-89600000D03*
D18*
X128700000Y-64975000D03*
X128700000Y-66800000D03*
D12*
X143700000Y-72812500D03*
X143700000Y-70987500D03*
D19*
X144675000Y-59563000D03*
X141075000Y-59563000D03*
D18*
X118600000Y-63487500D03*
X118600000Y-65312500D03*
D12*
X135700000Y-72812500D03*
X135700000Y-70987500D03*
D14*
X118000000Y-94062500D03*
X118000000Y-92337500D03*
D20*
X142475000Y-107600000D03*
X144200000Y-107600000D03*
D21*
X125950000Y-128200000D03*
X127700000Y-128200000D03*
D15*
X144526000Y-90424000D03*
X144526000Y-92149000D03*
D13*
X126700000Y-67800000D03*
X124875000Y-67800000D03*
X122100000Y-89000000D03*
X120275000Y-89000000D03*
D12*
X123200000Y-69612500D03*
X123200000Y-67787500D03*
D20*
X144526000Y-88900000D03*
X146251000Y-88900000D03*
D21*
X125950000Y-138200000D03*
X127700000Y-138200000D03*
D22*
X149400000Y-115250000D03*
X147100000Y-115250000D03*
D23*
X147100000Y-121550000D03*
D22*
X144800000Y-115250000D03*
D12*
X141000000Y-72787500D03*
X141000000Y-70962500D03*
D15*
X146100000Y-82037500D03*
X146100000Y-83762500D03*
D12*
X148700000Y-72787500D03*
X148700000Y-70962500D03*
D18*
X121200000Y-58600000D03*
X121200000Y-60425000D03*
D24*
X149700000Y-80300000D03*
X149700000Y-88800000D03*
D14*
X128600000Y-109425000D03*
X128600000Y-107700000D03*
D15*
X119400000Y-118075000D03*
X119400000Y-119800000D03*
D13*
X122125000Y-99000000D03*
X120300000Y-99000000D03*
D12*
X135700000Y-76400000D03*
X135700000Y-74575000D03*
D25*
X141200000Y-111100000D03*
X144800000Y-111100000D03*
D17*
X130800000Y-88000000D03*
X129075000Y-88000000D03*
D14*
X118000000Y-84100000D03*
X118000000Y-82375000D03*
D26*
X134874000Y-62147000D03*
X134874000Y-58547000D03*
D12*
X146100000Y-72800000D03*
X146100000Y-70975000D03*
D19*
X151800000Y-111100000D03*
X148200000Y-111100000D03*
D18*
X128700000Y-61487500D03*
X128700000Y-63312500D03*
D27*
X126175000Y-66017500D03*
X126175000Y-64747500D03*
X126175000Y-63477500D03*
X126175000Y-62207500D03*
X121225000Y-62207500D03*
X121225000Y-63477500D03*
X121225000Y-64747500D03*
X121225000Y-66017500D03*
D14*
X146100000Y-87225000D03*
X146100000Y-85500000D03*
D12*
X141000000Y-76312500D03*
X141000000Y-74487500D03*
D14*
X118000000Y-74162500D03*
X118000000Y-72437500D03*
M02*
