%FSLAX45Y45*%
G04 Gerber Fmt 4.5, Leading zero omitted, Abs format (unit mm)*
G04 Created by KiCad (PCBNEW (6.0.2)) date 2022-03-15 10:05:38*
%MOMM*%
%LPD*%
G01*
G04 APERTURE LIST*
%TA.AperFunction,Profile*%
%ADD10C,0.100000*%
%TD*%
%ADD11C,0.200000*%
%ADD12C,0.070000*%
%ADD13C,0.080000*%
%ADD14C,0.090000*%
%ADD15C,0.099060*%
%ADD16C,0.100000*%
%ADD17C,0.110000*%
%ADD18C,0.129540*%
%ADD19C,0.140000*%
%ADD20C,0.320000*%
G04 APERTURE END LIST*
D10*
X15600000Y-15100000D02*
G75*
G03*
X15700000Y-15000000I0J100000D01*
G01*
X15700000Y-5200000D02*
G75*
G03*
X15600000Y-5100000I-100000J0D01*
G01*
X10800000Y-5100000D02*
G75*
G03*
X10700000Y-5200000I0J-100000D01*
G01*
X15600000Y-15100000D02*
X10800000Y-15100000D01*
X15700000Y-5200000D02*
X15700000Y-15000000D01*
X10700000Y-15000000D02*
G75*
G03*
X10800000Y-15100000I100000J0D01*
G01*
X10700000Y-15000000D02*
X10700000Y-5200000D01*
X10800000Y-5100000D02*
X15600000Y-5100000D01*
D11*
D12*
X11788700Y-6746800D02*
X11858700Y-6816800D01*
X11858700Y-6746800D02*
X11788700Y-6816800D01*
X11903000Y-6975400D02*
X11973000Y-7045400D01*
X11973000Y-6975400D02*
X11903000Y-7045400D01*
X12360200Y-7966000D02*
X12430200Y-8036000D01*
X12430200Y-7966000D02*
X12360200Y-8036000D01*
X12372900Y-11229900D02*
X12442900Y-11299900D01*
X12442900Y-11229900D02*
X12372900Y-11299900D01*
X12385600Y-10899700D02*
X12455600Y-10969700D01*
X12455600Y-10899700D02*
X12385600Y-10969700D01*
X12601500Y-5667300D02*
X12671500Y-5737300D01*
X12671500Y-5667300D02*
X12601500Y-5737300D01*
X12804700Y-8435900D02*
X12874700Y-8505900D01*
X12874700Y-8435900D02*
X12804700Y-8505900D01*
X12842800Y-10264700D02*
X12912800Y-10334700D01*
X12912800Y-10264700D02*
X12842800Y-10334700D01*
X12957100Y-8296200D02*
X13027100Y-8366200D01*
X13027100Y-8296200D02*
X12957100Y-8366200D01*
X12995200Y-6111800D02*
X13065200Y-6181800D01*
X13065200Y-6111800D02*
X12995200Y-6181800D01*
X13147600Y-8524800D02*
X13217600Y-8594800D01*
X13217600Y-8524800D02*
X13147600Y-8594800D01*
X13236500Y-6264200D02*
X13306500Y-6334200D01*
X13306500Y-6264200D02*
X13236500Y-6334200D01*
X13338100Y-8359700D02*
X13408100Y-8429700D01*
X13408100Y-8359700D02*
X13338100Y-8429700D01*
X13414300Y-8131100D02*
X13484300Y-8201100D01*
X13484300Y-8131100D02*
X13414300Y-8201100D01*
X13665000Y-10065000D02*
X13735000Y-10135000D01*
X13735000Y-10065000D02*
X13665000Y-10135000D01*
X13909600Y-6213400D02*
X13979600Y-6283400D01*
X13979600Y-6213400D02*
X13909600Y-6283400D01*
X14036600Y-6518200D02*
X14106600Y-6588200D01*
X14106600Y-6518200D02*
X14036600Y-6588200D01*
X14163600Y-9947200D02*
X14233600Y-10017200D01*
X14233600Y-9947200D02*
X14163600Y-10017200D01*
X14570000Y-9502700D02*
X14640000Y-9572700D01*
X14640000Y-9502700D02*
X14570000Y-9572700D01*
X14709700Y-8931200D02*
X14779700Y-9001200D01*
X14779700Y-8931200D02*
X14709700Y-9001200D01*
X14760500Y-10417100D02*
X14830500Y-10487100D01*
X14830500Y-10417100D02*
X14760500Y-10487100D01*
X15065300Y-9947200D02*
X15135300Y-10017200D01*
X15135300Y-9947200D02*
X15065300Y-10017200D01*
D13*
X12900000Y-11218000D02*
G75*
G03*
X12900000Y-11218000I-40000J0D01*
G01*
X12900000Y-11980000D02*
G75*
G03*
X12900000Y-11980000I-40000J0D01*
G01*
X13100000Y-13059000D02*
G75*
G03*
X13100000Y-13059000I-40000J0D01*
G01*
X13100000Y-13821000D02*
G75*
G03*
X13100000Y-13821000I-40000J0D01*
G01*
X13154000Y-11218000D02*
G75*
G03*
X13154000Y-11218000I-40000J0D01*
G01*
X13154000Y-11980000D02*
G75*
G03*
X13154000Y-11980000I-40000J0D01*
G01*
X13408000Y-11218000D02*
G75*
G03*
X13408000Y-11218000I-40000J0D01*
G01*
X13408000Y-11980000D02*
G75*
G03*
X13408000Y-11980000I-40000J0D01*
G01*
X13662000Y-11218000D02*
G75*
G03*
X13662000Y-11218000I-40000J0D01*
G01*
X13662000Y-11980000D02*
G75*
G03*
X13662000Y-11980000I-40000J0D01*
G01*
D14*
X11800000Y-7603000D02*
X11800000Y-7693000D01*
X11755000Y-7648000D02*
X11845000Y-7648000D01*
X11800000Y-7857000D02*
X11800000Y-7947000D01*
X11755000Y-7902000D02*
X11845000Y-7902000D01*
X11800000Y-8603000D02*
X11800000Y-8693000D01*
X11755000Y-8648000D02*
X11845000Y-8648000D01*
X11800000Y-8857000D02*
X11800000Y-8947000D01*
X11755000Y-8902000D02*
X11845000Y-8902000D01*
X11800000Y-9603000D02*
X11800000Y-9693000D01*
X11755000Y-9648000D02*
X11845000Y-9648000D01*
X11800000Y-9857000D02*
X11800000Y-9947000D01*
X11755000Y-9902000D02*
X11845000Y-9902000D01*
D15*
X11235023Y-7585023D02*
X11235023Y-7514977D01*
X11164977Y-7514977D01*
X11164977Y-7585023D01*
X11235023Y-7585023D01*
X11235023Y-8034603D02*
X11235023Y-7964557D01*
X11164977Y-7964557D01*
X11164977Y-8034603D01*
X11235023Y-8034603D01*
X11235023Y-8585023D02*
X11235023Y-8514977D01*
X11164977Y-8514977D01*
X11164977Y-8585023D01*
X11235023Y-8585023D01*
X11235023Y-9034603D02*
X11235023Y-8964557D01*
X11164977Y-8964557D01*
X11164977Y-9034603D01*
X11235023Y-9034603D01*
X11235023Y-9585023D02*
X11235023Y-9514977D01*
X11164977Y-9514977D01*
X11164977Y-9585023D01*
X11235023Y-9585023D01*
X11235023Y-10034603D02*
X11235023Y-9964557D01*
X11164977Y-9964557D01*
X11164977Y-10034603D01*
X11235023Y-10034603D01*
X11371403Y-11507083D02*
X11371403Y-11437037D01*
X11301357Y-11437037D01*
X11301357Y-11507083D01*
X11371403Y-11507083D01*
X11371403Y-11956663D02*
X11371403Y-11886617D01*
X11301357Y-11886617D01*
X11301357Y-11956663D01*
X11371403Y-11956663D01*
D16*
X11746000Y-10542000D02*
X11796000Y-10492000D01*
X11746000Y-10442000D01*
X11696000Y-10492000D01*
X11746000Y-10542000D01*
X11746000Y-10796000D02*
X11796000Y-10746000D01*
X11746000Y-10696000D01*
X11696000Y-10746000D01*
X11746000Y-10796000D01*
X11746000Y-11050000D02*
X11796000Y-11000000D01*
X11746000Y-10950000D01*
X11696000Y-11000000D01*
X11746000Y-11050000D01*
X12000000Y-10542000D02*
X12050000Y-10492000D01*
X12000000Y-10442000D01*
X11950000Y-10492000D01*
X12000000Y-10542000D01*
X12000000Y-10796000D02*
X12050000Y-10746000D01*
X12000000Y-10696000D01*
X11950000Y-10746000D01*
X12000000Y-10796000D01*
X12000000Y-11050000D02*
X12050000Y-11000000D01*
X12000000Y-10950000D01*
X11950000Y-11000000D01*
X12000000Y-11050000D01*
X15000000Y-13150000D02*
X15050000Y-13100000D01*
X15000000Y-13050000D01*
X14950000Y-13100000D01*
X15000000Y-13150000D01*
X15000000Y-13404000D02*
X15050000Y-13354000D01*
X15000000Y-13304000D01*
X14950000Y-13354000D01*
X15000000Y-13404000D01*
X15000000Y-13658000D02*
X15050000Y-13608000D01*
X15000000Y-13558000D01*
X14950000Y-13608000D01*
X15000000Y-13658000D01*
X15000000Y-13912000D02*
X15050000Y-13862000D01*
X15000000Y-13812000D01*
X14950000Y-13862000D01*
X15000000Y-13912000D01*
X15000000Y-14166000D02*
X15050000Y-14116000D01*
X15000000Y-14066000D01*
X14950000Y-14116000D01*
X15000000Y-14166000D01*
X15254000Y-13150000D02*
X15304000Y-13100000D01*
X15254000Y-13050000D01*
X15204000Y-13100000D01*
X15254000Y-13150000D01*
X15254000Y-13404000D02*
X15304000Y-13354000D01*
X15254000Y-13304000D01*
X15204000Y-13354000D01*
X15254000Y-13404000D01*
X15254000Y-13658000D02*
X15304000Y-13608000D01*
X15254000Y-13558000D01*
X15204000Y-13608000D01*
X15254000Y-13658000D01*
X15254000Y-13912000D02*
X15304000Y-13862000D01*
X15254000Y-13812000D01*
X15204000Y-13862000D01*
X15254000Y-13912000D01*
X15254000Y-14166000D02*
X15304000Y-14116000D01*
X15254000Y-14066000D01*
X15204000Y-14116000D01*
X15254000Y-14166000D01*
D17*
X14391000Y-11750500D02*
X14501000Y-11860500D01*
X14501000Y-11750500D02*
X14391000Y-11860500D01*
X14501000Y-11805500D02*
G75*
G03*
X14501000Y-11805500I-55000J0D01*
G01*
X14645000Y-11750500D02*
X14755000Y-11860500D01*
X14755000Y-11750500D02*
X14645000Y-11860500D01*
X14755000Y-11805500D02*
G75*
G03*
X14755000Y-11805500I-55000J0D01*
G01*
X14899000Y-11750500D02*
X15009000Y-11860500D01*
X15009000Y-11750500D02*
X14899000Y-11860500D01*
X15009000Y-11805500D02*
G75*
G03*
X15009000Y-11805500I-55000J0D01*
G01*
D18*
X11384150Y-7359500D02*
X11513690Y-7489040D01*
X11513690Y-7359500D02*
X11384150Y-7489040D01*
X11448920Y-7359500D02*
X11448920Y-7489040D01*
X11384150Y-7424270D02*
X11513690Y-7424270D01*
X11384150Y-8060540D02*
X11513690Y-8190080D01*
X11513690Y-8060540D02*
X11384150Y-8190080D01*
X11448920Y-8060540D02*
X11448920Y-8190080D01*
X11384150Y-8125310D02*
X11513690Y-8125310D01*
X11384150Y-8359500D02*
X11513690Y-8489040D01*
X11513690Y-8359500D02*
X11384150Y-8489040D01*
X11448920Y-8359500D02*
X11448920Y-8489040D01*
X11384150Y-8424270D02*
X11513690Y-8424270D01*
X11384150Y-9060540D02*
X11513690Y-9190080D01*
X11513690Y-9060540D02*
X11384150Y-9190080D01*
X11448920Y-9060540D02*
X11448920Y-9190080D01*
X11384150Y-9125310D02*
X11513690Y-9125310D01*
X11384150Y-9359500D02*
X11513690Y-9489040D01*
X11513690Y-9359500D02*
X11384150Y-9489040D01*
X11448920Y-9359500D02*
X11448920Y-9489040D01*
X11384150Y-9424270D02*
X11513690Y-9424270D01*
X11384150Y-10060540D02*
X11513690Y-10190080D01*
X11513690Y-10060540D02*
X11384150Y-10190080D01*
X11448920Y-10060540D02*
X11448920Y-10190080D01*
X11384150Y-10125310D02*
X11513690Y-10125310D01*
X11520530Y-11281560D02*
X11650070Y-11411100D01*
X11650070Y-11281560D02*
X11520530Y-11411100D01*
X11585300Y-11281560D02*
X11585300Y-11411100D01*
X11520530Y-11346330D02*
X11650070Y-11346330D01*
X11520530Y-11982600D02*
X11650070Y-12112140D01*
X11650070Y-11982600D02*
X11520530Y-12112140D01*
X11585300Y-11982600D02*
X11585300Y-12112140D01*
X11520530Y-12047370D02*
X11650070Y-12047370D01*
D19*
X10760000Y-12750000D02*
X10900000Y-12890000D01*
X10900000Y-12750000D02*
X10760000Y-12890000D01*
X10879498Y-12869498D02*
X10879498Y-12770502D01*
X10780502Y-12770502D01*
X10780502Y-12869498D01*
X10879498Y-12869498D01*
X10760000Y-13750000D02*
X10900000Y-13890000D01*
X10900000Y-13750000D02*
X10760000Y-13890000D01*
X10879498Y-13869498D02*
X10879498Y-13770502D01*
X10780502Y-13770502D01*
X10780502Y-13869498D01*
X10879498Y-13869498D01*
X10870000Y-5960000D02*
X11010000Y-6100000D01*
X11010000Y-5960000D02*
X10870000Y-6100000D01*
X10989498Y-6079498D02*
X10989498Y-5980502D01*
X10890502Y-5980502D01*
X10890502Y-6079498D01*
X10989498Y-6079498D01*
X10870000Y-6900000D02*
X11010000Y-7040000D01*
X11010000Y-6900000D02*
X10870000Y-7040000D01*
X10989498Y-7019498D02*
X10989498Y-6920502D01*
X10890502Y-6920502D01*
X10890502Y-7019498D01*
X10989498Y-7019498D01*
X11250000Y-5960000D02*
X11390000Y-6100000D01*
X11390000Y-5960000D02*
X11250000Y-6100000D01*
X11369498Y-6079498D02*
X11369498Y-5980502D01*
X11270502Y-5980502D01*
X11270502Y-6079498D01*
X11369498Y-6079498D01*
X11250000Y-6900000D02*
X11390000Y-7040000D01*
X11390000Y-6900000D02*
X11250000Y-7040000D01*
X11369498Y-7019498D02*
X11369498Y-6920502D01*
X11270502Y-6920502D01*
X11270502Y-7019498D01*
X11369498Y-7019498D01*
X11760000Y-12500000D02*
X11900000Y-12640000D01*
X11900000Y-12500000D02*
X11760000Y-12640000D01*
X11879498Y-12619498D02*
X11879498Y-12520502D01*
X11780502Y-12520502D01*
X11780502Y-12619498D01*
X11879498Y-12619498D01*
X11760000Y-13250000D02*
X11900000Y-13390000D01*
X11900000Y-13250000D02*
X11760000Y-13390000D01*
X11879498Y-13369498D02*
X11879498Y-13270502D01*
X11780502Y-13270502D01*
X11780502Y-13369498D01*
X11879498Y-13369498D01*
X11760000Y-14000000D02*
X11900000Y-14140000D01*
X11900000Y-14000000D02*
X11760000Y-14140000D01*
X11879498Y-14119498D02*
X11879498Y-14020502D01*
X11780502Y-14020502D01*
X11780502Y-14119498D01*
X11879498Y-14119498D01*
X12010000Y-12750000D02*
X12150000Y-12890000D01*
X12150000Y-12750000D02*
X12010000Y-12890000D01*
X12129498Y-12869498D02*
X12129498Y-12770502D01*
X12030502Y-12770502D01*
X12030502Y-12869498D01*
X12129498Y-12869498D01*
X12010000Y-13750000D02*
X12150000Y-13890000D01*
X12150000Y-13750000D02*
X12010000Y-13890000D01*
X12129498Y-13869498D02*
X12129498Y-13770502D01*
X12030502Y-13770502D01*
X12030502Y-13869498D01*
X12129498Y-13869498D01*
D20*
X10840000Y-5240000D02*
X11160000Y-5560000D01*
X11160000Y-5240000D02*
X10840000Y-5560000D01*
X11000000Y-5560000D02*
X11160000Y-5400000D01*
X11000000Y-5240000D01*
X10840000Y-5400000D01*
X11000000Y-5560000D01*
X10840000Y-14640000D02*
X11160000Y-14960000D01*
X11160000Y-14640000D02*
X10840000Y-14960000D01*
X11000000Y-14960000D02*
X11160000Y-14800000D01*
X11000000Y-14640000D01*
X10840000Y-14800000D01*
X11000000Y-14960000D01*
X15240000Y-5240000D02*
X15560000Y-5560000D01*
X15560000Y-5240000D02*
X15240000Y-5560000D01*
X15400000Y-5560000D02*
X15560000Y-5400000D01*
X15400000Y-5240000D01*
X15240000Y-5400000D01*
X15400000Y-5560000D01*
X15240000Y-14640000D02*
X15560000Y-14960000D01*
X15560000Y-14640000D02*
X15240000Y-14960000D01*
X15400000Y-14960000D02*
X15560000Y-14800000D01*
X15400000Y-14640000D01*
X15240000Y-14800000D01*
X15400000Y-14960000D01*
D11*
X10952619Y-15415476D02*
X10952619Y-15215476D01*
X11000238Y-15215476D01*
X11028810Y-15225000D01*
X11047857Y-15244048D01*
X11057381Y-15263095D01*
X11066905Y-15301190D01*
X11066905Y-15329762D01*
X11057381Y-15367857D01*
X11047857Y-15386905D01*
X11028810Y-15405952D01*
X11000238Y-15415476D01*
X10952619Y-15415476D01*
X11152619Y-15415476D02*
X11152619Y-15282143D01*
X11152619Y-15320238D02*
X11162143Y-15301190D01*
X11171667Y-15291667D01*
X11190714Y-15282143D01*
X11209762Y-15282143D01*
X11276428Y-15415476D02*
X11276428Y-15282143D01*
X11276428Y-15215476D02*
X11266905Y-15225000D01*
X11276428Y-15234524D01*
X11285952Y-15225000D01*
X11276428Y-15215476D01*
X11276428Y-15234524D01*
X11400238Y-15415476D02*
X11381190Y-15405952D01*
X11371667Y-15386905D01*
X11371667Y-15215476D01*
X11505000Y-15415476D02*
X11485952Y-15405952D01*
X11476428Y-15386905D01*
X11476428Y-15215476D01*
X11733571Y-15415476D02*
X11733571Y-15215476D01*
X11800238Y-15358333D01*
X11866905Y-15215476D01*
X11866905Y-15415476D01*
X12047857Y-15415476D02*
X12047857Y-15310714D01*
X12038333Y-15291667D01*
X12019286Y-15282143D01*
X11981190Y-15282143D01*
X11962143Y-15291667D01*
X12047857Y-15405952D02*
X12028809Y-15415476D01*
X11981190Y-15415476D01*
X11962143Y-15405952D01*
X11952619Y-15386905D01*
X11952619Y-15367857D01*
X11962143Y-15348809D01*
X11981190Y-15339286D01*
X12028809Y-15339286D01*
X12047857Y-15329762D01*
X12143095Y-15282143D02*
X12143095Y-15482143D01*
X12143095Y-15291667D02*
X12162143Y-15282143D01*
X12200238Y-15282143D01*
X12219286Y-15291667D01*
X12228809Y-15301190D01*
X12238333Y-15320238D01*
X12238333Y-15377381D01*
X12228809Y-15396428D01*
X12219286Y-15405952D01*
X12200238Y-15415476D01*
X12162143Y-15415476D01*
X12143095Y-15405952D01*
X12324048Y-15396428D02*
X12333571Y-15405952D01*
X12324048Y-15415476D01*
X12314524Y-15405952D01*
X12324048Y-15396428D01*
X12324048Y-15415476D01*
X12324048Y-15291667D02*
X12333571Y-15301190D01*
X12324048Y-15310714D01*
X12314524Y-15301190D01*
X12324048Y-15291667D01*
X12324048Y-15310714D01*
D12*
X10625000Y-15710000D02*
X10695000Y-15780000D01*
X10695000Y-15710000D02*
X10625000Y-15780000D01*
D11*
X10990714Y-15635476D02*
X11009762Y-15635476D01*
X11028810Y-15645000D01*
X11038333Y-15654524D01*
X11047857Y-15673571D01*
X11057381Y-15711667D01*
X11057381Y-15759286D01*
X11047857Y-15797381D01*
X11038333Y-15816428D01*
X11028810Y-15825952D01*
X11009762Y-15835476D01*
X10990714Y-15835476D01*
X10971667Y-15825952D01*
X10962143Y-15816428D01*
X10952619Y-15797381D01*
X10943095Y-15759286D01*
X10943095Y-15711667D01*
X10952619Y-15673571D01*
X10962143Y-15654524D01*
X10971667Y-15645000D01*
X10990714Y-15635476D01*
X11143095Y-15816428D02*
X11152619Y-15825952D01*
X11143095Y-15835476D01*
X11133571Y-15825952D01*
X11143095Y-15816428D01*
X11143095Y-15835476D01*
X11219286Y-15635476D02*
X11352619Y-15635476D01*
X11266905Y-15835476D01*
X11466905Y-15635476D02*
X11485952Y-15635476D01*
X11505000Y-15645000D01*
X11514524Y-15654524D01*
X11524048Y-15673571D01*
X11533571Y-15711667D01*
X11533571Y-15759286D01*
X11524048Y-15797381D01*
X11514524Y-15816428D01*
X11505000Y-15825952D01*
X11485952Y-15835476D01*
X11466905Y-15835476D01*
X11447857Y-15825952D01*
X11438333Y-15816428D01*
X11428809Y-15797381D01*
X11419286Y-15759286D01*
X11419286Y-15711667D01*
X11428809Y-15673571D01*
X11438333Y-15654524D01*
X11447857Y-15645000D01*
X11466905Y-15635476D01*
X11657381Y-15635476D02*
X11676428Y-15635476D01*
X11695476Y-15645000D01*
X11705000Y-15654524D01*
X11714524Y-15673571D01*
X11724048Y-15711667D01*
X11724048Y-15759286D01*
X11714524Y-15797381D01*
X11705000Y-15816428D01*
X11695476Y-15825952D01*
X11676428Y-15835476D01*
X11657381Y-15835476D01*
X11638333Y-15825952D01*
X11628809Y-15816428D01*
X11619286Y-15797381D01*
X11609762Y-15759286D01*
X11609762Y-15711667D01*
X11619286Y-15673571D01*
X11628809Y-15654524D01*
X11638333Y-15645000D01*
X11657381Y-15635476D01*
X11809762Y-15835476D02*
X11809762Y-15702143D01*
X11809762Y-15721190D02*
X11819286Y-15711667D01*
X11838333Y-15702143D01*
X11866905Y-15702143D01*
X11885952Y-15711667D01*
X11895476Y-15730714D01*
X11895476Y-15835476D01*
X11895476Y-15730714D02*
X11905000Y-15711667D01*
X11924048Y-15702143D01*
X11952619Y-15702143D01*
X11971667Y-15711667D01*
X11981190Y-15730714D01*
X11981190Y-15835476D01*
X12076428Y-15835476D02*
X12076428Y-15702143D01*
X12076428Y-15721190D02*
X12085952Y-15711667D01*
X12105000Y-15702143D01*
X12133571Y-15702143D01*
X12152619Y-15711667D01*
X12162143Y-15730714D01*
X12162143Y-15835476D01*
X12162143Y-15730714D02*
X12171667Y-15711667D01*
X12190714Y-15702143D01*
X12219286Y-15702143D01*
X12238333Y-15711667D01*
X12247857Y-15730714D01*
X12247857Y-15835476D01*
X12638333Y-15625952D02*
X12466905Y-15883095D01*
X12895476Y-15635476D02*
X12914524Y-15635476D01*
X12933571Y-15645000D01*
X12943095Y-15654524D01*
X12952619Y-15673571D01*
X12962143Y-15711667D01*
X12962143Y-15759286D01*
X12952619Y-15797381D01*
X12943095Y-15816428D01*
X12933571Y-15825952D01*
X12914524Y-15835476D01*
X12895476Y-15835476D01*
X12876428Y-15825952D01*
X12866905Y-15816428D01*
X12857381Y-15797381D01*
X12847857Y-15759286D01*
X12847857Y-15711667D01*
X12857381Y-15673571D01*
X12866905Y-15654524D01*
X12876428Y-15645000D01*
X12895476Y-15635476D01*
X13047857Y-15816428D02*
X13057381Y-15825952D01*
X13047857Y-15835476D01*
X13038333Y-15825952D01*
X13047857Y-15816428D01*
X13047857Y-15835476D01*
X13181190Y-15635476D02*
X13200238Y-15635476D01*
X13219286Y-15645000D01*
X13228809Y-15654524D01*
X13238333Y-15673571D01*
X13247857Y-15711667D01*
X13247857Y-15759286D01*
X13238333Y-15797381D01*
X13228809Y-15816428D01*
X13219286Y-15825952D01*
X13200238Y-15835476D01*
X13181190Y-15835476D01*
X13162143Y-15825952D01*
X13152619Y-15816428D01*
X13143095Y-15797381D01*
X13133571Y-15759286D01*
X13133571Y-15711667D01*
X13143095Y-15673571D01*
X13152619Y-15654524D01*
X13162143Y-15645000D01*
X13181190Y-15635476D01*
X13324048Y-15654524D02*
X13333571Y-15645000D01*
X13352619Y-15635476D01*
X13400238Y-15635476D01*
X13419286Y-15645000D01*
X13428809Y-15654524D01*
X13438333Y-15673571D01*
X13438333Y-15692619D01*
X13428809Y-15721190D01*
X13314524Y-15835476D01*
X13438333Y-15835476D01*
X13505000Y-15635476D02*
X13638333Y-15635476D01*
X13552619Y-15835476D01*
X13800238Y-15635476D02*
X13762143Y-15635476D01*
X13743095Y-15645000D01*
X13733571Y-15654524D01*
X13714524Y-15683095D01*
X13705000Y-15721190D01*
X13705000Y-15797381D01*
X13714524Y-15816428D01*
X13724048Y-15825952D01*
X13743095Y-15835476D01*
X13781190Y-15835476D01*
X13800238Y-15825952D01*
X13809762Y-15816428D01*
X13819286Y-15797381D01*
X13819286Y-15749762D01*
X13809762Y-15730714D01*
X13800238Y-15721190D01*
X13781190Y-15711667D01*
X13743095Y-15711667D01*
X13724048Y-15721190D01*
X13714524Y-15730714D01*
X13705000Y-15749762D01*
X13895476Y-15635476D02*
X13895476Y-15673571D01*
X13971667Y-15635476D02*
X13971667Y-15673571D01*
X14266905Y-15911667D02*
X14257381Y-15902143D01*
X14238333Y-15873571D01*
X14228809Y-15854524D01*
X14219286Y-15825952D01*
X14209762Y-15778333D01*
X14209762Y-15740238D01*
X14219286Y-15692619D01*
X14228809Y-15664048D01*
X14238333Y-15645000D01*
X14257381Y-15616428D01*
X14266905Y-15606905D01*
X14333571Y-15654524D02*
X14343095Y-15645000D01*
X14362143Y-15635476D01*
X14409762Y-15635476D01*
X14428809Y-15645000D01*
X14438333Y-15654524D01*
X14447857Y-15673571D01*
X14447857Y-15692619D01*
X14438333Y-15721190D01*
X14324048Y-15835476D01*
X14447857Y-15835476D01*
X14524048Y-15654524D02*
X14533571Y-15645000D01*
X14552619Y-15635476D01*
X14600238Y-15635476D01*
X14619286Y-15645000D01*
X14628809Y-15654524D01*
X14638333Y-15673571D01*
X14638333Y-15692619D01*
X14628809Y-15721190D01*
X14514524Y-15835476D01*
X14638333Y-15835476D01*
X14876428Y-15835476D02*
X14876428Y-15635476D01*
X14962143Y-15835476D02*
X14962143Y-15730714D01*
X14952619Y-15711667D01*
X14933571Y-15702143D01*
X14905000Y-15702143D01*
X14885952Y-15711667D01*
X14876428Y-15721190D01*
X15085952Y-15835476D02*
X15066905Y-15825952D01*
X15057381Y-15816428D01*
X15047857Y-15797381D01*
X15047857Y-15740238D01*
X15057381Y-15721190D01*
X15066905Y-15711667D01*
X15085952Y-15702143D01*
X15114524Y-15702143D01*
X15133571Y-15711667D01*
X15143095Y-15721190D01*
X15152619Y-15740238D01*
X15152619Y-15797381D01*
X15143095Y-15816428D01*
X15133571Y-15825952D01*
X15114524Y-15835476D01*
X15085952Y-15835476D01*
X15266905Y-15835476D02*
X15247857Y-15825952D01*
X15238333Y-15806905D01*
X15238333Y-15635476D01*
X15419286Y-15825952D02*
X15400238Y-15835476D01*
X15362143Y-15835476D01*
X15343095Y-15825952D01*
X15333571Y-15806905D01*
X15333571Y-15730714D01*
X15343095Y-15711667D01*
X15362143Y-15702143D01*
X15400238Y-15702143D01*
X15419286Y-15711667D01*
X15428809Y-15730714D01*
X15428809Y-15749762D01*
X15333571Y-15768809D01*
X15505000Y-15825952D02*
X15524048Y-15835476D01*
X15562143Y-15835476D01*
X15581190Y-15825952D01*
X15590714Y-15806905D01*
X15590714Y-15797381D01*
X15581190Y-15778333D01*
X15562143Y-15768809D01*
X15533571Y-15768809D01*
X15514524Y-15759286D01*
X15505000Y-15740238D01*
X15505000Y-15730714D01*
X15514524Y-15711667D01*
X15533571Y-15702143D01*
X15562143Y-15702143D01*
X15581190Y-15711667D01*
X15657381Y-15911667D02*
X15666905Y-15902143D01*
X15685952Y-15873571D01*
X15695476Y-15854524D01*
X15705000Y-15825952D01*
X15714524Y-15778333D01*
X15714524Y-15740238D01*
X15705000Y-15692619D01*
X15695476Y-15664048D01*
X15685952Y-15645000D01*
X15666905Y-15616428D01*
X15657381Y-15606905D01*
D13*
X10695000Y-16009000D02*
G75*
G03*
X10695000Y-16009000I-40000J0D01*
G01*
D11*
X10990714Y-15899476D02*
X11009762Y-15899476D01*
X11028810Y-15909000D01*
X11038333Y-15918524D01*
X11047857Y-15937571D01*
X11057381Y-15975667D01*
X11057381Y-16023286D01*
X11047857Y-16061381D01*
X11038333Y-16080428D01*
X11028810Y-16089952D01*
X11009762Y-16099476D01*
X10990714Y-16099476D01*
X10971667Y-16089952D01*
X10962143Y-16080428D01*
X10952619Y-16061381D01*
X10943095Y-16023286D01*
X10943095Y-15975667D01*
X10952619Y-15937571D01*
X10962143Y-15918524D01*
X10971667Y-15909000D01*
X10990714Y-15899476D01*
X11143095Y-16080428D02*
X11152619Y-16089952D01*
X11143095Y-16099476D01*
X11133571Y-16089952D01*
X11143095Y-16080428D01*
X11143095Y-16099476D01*
X11266905Y-15985190D02*
X11247857Y-15975667D01*
X11238333Y-15966143D01*
X11228809Y-15947095D01*
X11228809Y-15937571D01*
X11238333Y-15918524D01*
X11247857Y-15909000D01*
X11266905Y-15899476D01*
X11305000Y-15899476D01*
X11324048Y-15909000D01*
X11333571Y-15918524D01*
X11343095Y-15937571D01*
X11343095Y-15947095D01*
X11333571Y-15966143D01*
X11324048Y-15975667D01*
X11305000Y-15985190D01*
X11266905Y-15985190D01*
X11247857Y-15994714D01*
X11238333Y-16004238D01*
X11228809Y-16023286D01*
X11228809Y-16061381D01*
X11238333Y-16080428D01*
X11247857Y-16089952D01*
X11266905Y-16099476D01*
X11305000Y-16099476D01*
X11324048Y-16089952D01*
X11333571Y-16080428D01*
X11343095Y-16061381D01*
X11343095Y-16023286D01*
X11333571Y-16004238D01*
X11324048Y-15994714D01*
X11305000Y-15985190D01*
X11466905Y-15899476D02*
X11485952Y-15899476D01*
X11505000Y-15909000D01*
X11514524Y-15918524D01*
X11524048Y-15937571D01*
X11533571Y-15975667D01*
X11533571Y-16023286D01*
X11524048Y-16061381D01*
X11514524Y-16080428D01*
X11505000Y-16089952D01*
X11485952Y-16099476D01*
X11466905Y-16099476D01*
X11447857Y-16089952D01*
X11438333Y-16080428D01*
X11428809Y-16061381D01*
X11419286Y-16023286D01*
X11419286Y-15975667D01*
X11428809Y-15937571D01*
X11438333Y-15918524D01*
X11447857Y-15909000D01*
X11466905Y-15899476D01*
X11657381Y-15899476D02*
X11676428Y-15899476D01*
X11695476Y-15909000D01*
X11705000Y-15918524D01*
X11714524Y-15937571D01*
X11724048Y-15975667D01*
X11724048Y-16023286D01*
X11714524Y-16061381D01*
X11705000Y-16080428D01*
X11695476Y-16089952D01*
X11676428Y-16099476D01*
X11657381Y-16099476D01*
X11638333Y-16089952D01*
X11628809Y-16080428D01*
X11619286Y-16061381D01*
X11609762Y-16023286D01*
X11609762Y-15975667D01*
X11619286Y-15937571D01*
X11628809Y-15918524D01*
X11638333Y-15909000D01*
X11657381Y-15899476D01*
X11809762Y-16099476D02*
X11809762Y-15966143D01*
X11809762Y-15985190D02*
X11819286Y-15975667D01*
X11838333Y-15966143D01*
X11866905Y-15966143D01*
X11885952Y-15975667D01*
X11895476Y-15994714D01*
X11895476Y-16099476D01*
X11895476Y-15994714D02*
X11905000Y-15975667D01*
X11924048Y-15966143D01*
X11952619Y-15966143D01*
X11971667Y-15975667D01*
X11981190Y-15994714D01*
X11981190Y-16099476D01*
X12076428Y-16099476D02*
X12076428Y-15966143D01*
X12076428Y-15985190D02*
X12085952Y-15975667D01*
X12105000Y-15966143D01*
X12133571Y-15966143D01*
X12152619Y-15975667D01*
X12162143Y-15994714D01*
X12162143Y-16099476D01*
X12162143Y-15994714D02*
X12171667Y-15975667D01*
X12190714Y-15966143D01*
X12219286Y-15966143D01*
X12238333Y-15975667D01*
X12247857Y-15994714D01*
X12247857Y-16099476D01*
X12638333Y-15889952D02*
X12466905Y-16147095D01*
X12895476Y-15899476D02*
X12914524Y-15899476D01*
X12933571Y-15909000D01*
X12943095Y-15918524D01*
X12952619Y-15937571D01*
X12962143Y-15975667D01*
X12962143Y-16023286D01*
X12952619Y-16061381D01*
X12943095Y-16080428D01*
X12933571Y-16089952D01*
X12914524Y-16099476D01*
X12895476Y-16099476D01*
X12876428Y-16089952D01*
X12866905Y-16080428D01*
X12857381Y-16061381D01*
X12847857Y-16023286D01*
X12847857Y-15975667D01*
X12857381Y-15937571D01*
X12866905Y-15918524D01*
X12876428Y-15909000D01*
X12895476Y-15899476D01*
X13047857Y-16080428D02*
X13057381Y-16089952D01*
X13047857Y-16099476D01*
X13038333Y-16089952D01*
X13047857Y-16080428D01*
X13047857Y-16099476D01*
X13181190Y-15899476D02*
X13200238Y-15899476D01*
X13219286Y-15909000D01*
X13228809Y-15918524D01*
X13238333Y-15937571D01*
X13247857Y-15975667D01*
X13247857Y-16023286D01*
X13238333Y-16061381D01*
X13228809Y-16080428D01*
X13219286Y-16089952D01*
X13200238Y-16099476D01*
X13181190Y-16099476D01*
X13162143Y-16089952D01*
X13152619Y-16080428D01*
X13143095Y-16061381D01*
X13133571Y-16023286D01*
X13133571Y-15975667D01*
X13143095Y-15937571D01*
X13152619Y-15918524D01*
X13162143Y-15909000D01*
X13181190Y-15899476D01*
X13314524Y-15899476D02*
X13438333Y-15899476D01*
X13371667Y-15975667D01*
X13400238Y-15975667D01*
X13419286Y-15985190D01*
X13428809Y-15994714D01*
X13438333Y-16013762D01*
X13438333Y-16061381D01*
X13428809Y-16080428D01*
X13419286Y-16089952D01*
X13400238Y-16099476D01*
X13343095Y-16099476D01*
X13324048Y-16089952D01*
X13314524Y-16080428D01*
X13628809Y-16099476D02*
X13514524Y-16099476D01*
X13571667Y-16099476D02*
X13571667Y-15899476D01*
X13552619Y-15928048D01*
X13533571Y-15947095D01*
X13514524Y-15956619D01*
X13809762Y-15899476D02*
X13714524Y-15899476D01*
X13705000Y-15994714D01*
X13714524Y-15985190D01*
X13733571Y-15975667D01*
X13781190Y-15975667D01*
X13800238Y-15985190D01*
X13809762Y-15994714D01*
X13819286Y-16013762D01*
X13819286Y-16061381D01*
X13809762Y-16080428D01*
X13800238Y-16089952D01*
X13781190Y-16099476D01*
X13733571Y-16099476D01*
X13714524Y-16089952D01*
X13705000Y-16080428D01*
X13895476Y-15899476D02*
X13895476Y-15937571D01*
X13971667Y-15899476D02*
X13971667Y-15937571D01*
X14266905Y-16175667D02*
X14257381Y-16166143D01*
X14238333Y-16137571D01*
X14228809Y-16118524D01*
X14219286Y-16089952D01*
X14209762Y-16042333D01*
X14209762Y-16004238D01*
X14219286Y-15956619D01*
X14228809Y-15928048D01*
X14238333Y-15909000D01*
X14257381Y-15880428D01*
X14266905Y-15870905D01*
X14447857Y-16099476D02*
X14333571Y-16099476D01*
X14390714Y-16099476D02*
X14390714Y-15899476D01*
X14371667Y-15928048D01*
X14352619Y-15947095D01*
X14333571Y-15956619D01*
X14571667Y-15899476D02*
X14590714Y-15899476D01*
X14609762Y-15909000D01*
X14619286Y-15918524D01*
X14628809Y-15937571D01*
X14638333Y-15975667D01*
X14638333Y-16023286D01*
X14628809Y-16061381D01*
X14619286Y-16080428D01*
X14609762Y-16089952D01*
X14590714Y-16099476D01*
X14571667Y-16099476D01*
X14552619Y-16089952D01*
X14543095Y-16080428D01*
X14533571Y-16061381D01*
X14524048Y-16023286D01*
X14524048Y-15975667D01*
X14533571Y-15937571D01*
X14543095Y-15918524D01*
X14552619Y-15909000D01*
X14571667Y-15899476D01*
X14876428Y-16099476D02*
X14876428Y-15899476D01*
X14962143Y-16099476D02*
X14962143Y-15994714D01*
X14952619Y-15975667D01*
X14933571Y-15966143D01*
X14905000Y-15966143D01*
X14885952Y-15975667D01*
X14876428Y-15985190D01*
X15085952Y-16099476D02*
X15066905Y-16089952D01*
X15057381Y-16080428D01*
X15047857Y-16061381D01*
X15047857Y-16004238D01*
X15057381Y-15985190D01*
X15066905Y-15975667D01*
X15085952Y-15966143D01*
X15114524Y-15966143D01*
X15133571Y-15975667D01*
X15143095Y-15985190D01*
X15152619Y-16004238D01*
X15152619Y-16061381D01*
X15143095Y-16080428D01*
X15133571Y-16089952D01*
X15114524Y-16099476D01*
X15085952Y-16099476D01*
X15266905Y-16099476D02*
X15247857Y-16089952D01*
X15238333Y-16070905D01*
X15238333Y-15899476D01*
X15419286Y-16089952D02*
X15400238Y-16099476D01*
X15362143Y-16099476D01*
X15343095Y-16089952D01*
X15333571Y-16070905D01*
X15333571Y-15994714D01*
X15343095Y-15975667D01*
X15362143Y-15966143D01*
X15400238Y-15966143D01*
X15419286Y-15975667D01*
X15428809Y-15994714D01*
X15428809Y-16013762D01*
X15333571Y-16032809D01*
X15505000Y-16089952D02*
X15524048Y-16099476D01*
X15562143Y-16099476D01*
X15581190Y-16089952D01*
X15590714Y-16070905D01*
X15590714Y-16061381D01*
X15581190Y-16042333D01*
X15562143Y-16032809D01*
X15533571Y-16032809D01*
X15514524Y-16023286D01*
X15505000Y-16004238D01*
X15505000Y-15994714D01*
X15514524Y-15975667D01*
X15533571Y-15966143D01*
X15562143Y-15966143D01*
X15581190Y-15975667D01*
X15657381Y-16175667D02*
X15666905Y-16166143D01*
X15685952Y-16137571D01*
X15695476Y-16118524D01*
X15705000Y-16089952D01*
X15714524Y-16042333D01*
X15714524Y-16004238D01*
X15705000Y-15956619D01*
X15695476Y-15928048D01*
X15685952Y-15909000D01*
X15666905Y-15880428D01*
X15657381Y-15870905D01*
D14*
X10650000Y-16228000D02*
X10650000Y-16318000D01*
X10605000Y-16273000D02*
X10695000Y-16273000D01*
D11*
X10990714Y-16163476D02*
X11009762Y-16163476D01*
X11028810Y-16173000D01*
X11038333Y-16182524D01*
X11047857Y-16201571D01*
X11057381Y-16239667D01*
X11057381Y-16287286D01*
X11047857Y-16325381D01*
X11038333Y-16344428D01*
X11028810Y-16353952D01*
X11009762Y-16363476D01*
X10990714Y-16363476D01*
X10971667Y-16353952D01*
X10962143Y-16344428D01*
X10952619Y-16325381D01*
X10943095Y-16287286D01*
X10943095Y-16239667D01*
X10952619Y-16201571D01*
X10962143Y-16182524D01*
X10971667Y-16173000D01*
X10990714Y-16163476D01*
X11143095Y-16344428D02*
X11152619Y-16353952D01*
X11143095Y-16363476D01*
X11133571Y-16353952D01*
X11143095Y-16344428D01*
X11143095Y-16363476D01*
X11247857Y-16363476D02*
X11285952Y-16363476D01*
X11305000Y-16353952D01*
X11314524Y-16344428D01*
X11333571Y-16315857D01*
X11343095Y-16277762D01*
X11343095Y-16201571D01*
X11333571Y-16182524D01*
X11324048Y-16173000D01*
X11305000Y-16163476D01*
X11266905Y-16163476D01*
X11247857Y-16173000D01*
X11238333Y-16182524D01*
X11228809Y-16201571D01*
X11228809Y-16249190D01*
X11238333Y-16268238D01*
X11247857Y-16277762D01*
X11266905Y-16287286D01*
X11305000Y-16287286D01*
X11324048Y-16277762D01*
X11333571Y-16268238D01*
X11343095Y-16249190D01*
X11466905Y-16163476D02*
X11485952Y-16163476D01*
X11505000Y-16173000D01*
X11514524Y-16182524D01*
X11524048Y-16201571D01*
X11533571Y-16239667D01*
X11533571Y-16287286D01*
X11524048Y-16325381D01*
X11514524Y-16344428D01*
X11505000Y-16353952D01*
X11485952Y-16363476D01*
X11466905Y-16363476D01*
X11447857Y-16353952D01*
X11438333Y-16344428D01*
X11428809Y-16325381D01*
X11419286Y-16287286D01*
X11419286Y-16239667D01*
X11428809Y-16201571D01*
X11438333Y-16182524D01*
X11447857Y-16173000D01*
X11466905Y-16163476D01*
X11657381Y-16163476D02*
X11676428Y-16163476D01*
X11695476Y-16173000D01*
X11705000Y-16182524D01*
X11714524Y-16201571D01*
X11724048Y-16239667D01*
X11724048Y-16287286D01*
X11714524Y-16325381D01*
X11705000Y-16344428D01*
X11695476Y-16353952D01*
X11676428Y-16363476D01*
X11657381Y-16363476D01*
X11638333Y-16353952D01*
X11628809Y-16344428D01*
X11619286Y-16325381D01*
X11609762Y-16287286D01*
X11609762Y-16239667D01*
X11619286Y-16201571D01*
X11628809Y-16182524D01*
X11638333Y-16173000D01*
X11657381Y-16163476D01*
X11809762Y-16363476D02*
X11809762Y-16230143D01*
X11809762Y-16249190D02*
X11819286Y-16239667D01*
X11838333Y-16230143D01*
X11866905Y-16230143D01*
X11885952Y-16239667D01*
X11895476Y-16258714D01*
X11895476Y-16363476D01*
X11895476Y-16258714D02*
X11905000Y-16239667D01*
X11924048Y-16230143D01*
X11952619Y-16230143D01*
X11971667Y-16239667D01*
X11981190Y-16258714D01*
X11981190Y-16363476D01*
X12076428Y-16363476D02*
X12076428Y-16230143D01*
X12076428Y-16249190D02*
X12085952Y-16239667D01*
X12105000Y-16230143D01*
X12133571Y-16230143D01*
X12152619Y-16239667D01*
X12162143Y-16258714D01*
X12162143Y-16363476D01*
X12162143Y-16258714D02*
X12171667Y-16239667D01*
X12190714Y-16230143D01*
X12219286Y-16230143D01*
X12238333Y-16239667D01*
X12247857Y-16258714D01*
X12247857Y-16363476D01*
X12638333Y-16153952D02*
X12466905Y-16411095D01*
X12895476Y-16163476D02*
X12914524Y-16163476D01*
X12933571Y-16173000D01*
X12943095Y-16182524D01*
X12952619Y-16201571D01*
X12962143Y-16239667D01*
X12962143Y-16287286D01*
X12952619Y-16325381D01*
X12943095Y-16344428D01*
X12933571Y-16353952D01*
X12914524Y-16363476D01*
X12895476Y-16363476D01*
X12876428Y-16353952D01*
X12866905Y-16344428D01*
X12857381Y-16325381D01*
X12847857Y-16287286D01*
X12847857Y-16239667D01*
X12857381Y-16201571D01*
X12866905Y-16182524D01*
X12876428Y-16173000D01*
X12895476Y-16163476D01*
X13047857Y-16344428D02*
X13057381Y-16353952D01*
X13047857Y-16363476D01*
X13038333Y-16353952D01*
X13047857Y-16344428D01*
X13047857Y-16363476D01*
X13181190Y-16163476D02*
X13200238Y-16163476D01*
X13219286Y-16173000D01*
X13228809Y-16182524D01*
X13238333Y-16201571D01*
X13247857Y-16239667D01*
X13247857Y-16287286D01*
X13238333Y-16325381D01*
X13228809Y-16344428D01*
X13219286Y-16353952D01*
X13200238Y-16363476D01*
X13181190Y-16363476D01*
X13162143Y-16353952D01*
X13152619Y-16344428D01*
X13143095Y-16325381D01*
X13133571Y-16287286D01*
X13133571Y-16239667D01*
X13143095Y-16201571D01*
X13152619Y-16182524D01*
X13162143Y-16173000D01*
X13181190Y-16163476D01*
X13314524Y-16163476D02*
X13438333Y-16163476D01*
X13371667Y-16239667D01*
X13400238Y-16239667D01*
X13419286Y-16249190D01*
X13428809Y-16258714D01*
X13438333Y-16277762D01*
X13438333Y-16325381D01*
X13428809Y-16344428D01*
X13419286Y-16353952D01*
X13400238Y-16363476D01*
X13343095Y-16363476D01*
X13324048Y-16353952D01*
X13314524Y-16344428D01*
X13619286Y-16163476D02*
X13524048Y-16163476D01*
X13514524Y-16258714D01*
X13524048Y-16249190D01*
X13543095Y-16239667D01*
X13590714Y-16239667D01*
X13609762Y-16249190D01*
X13619286Y-16258714D01*
X13628809Y-16277762D01*
X13628809Y-16325381D01*
X13619286Y-16344428D01*
X13609762Y-16353952D01*
X13590714Y-16363476D01*
X13543095Y-16363476D01*
X13524048Y-16353952D01*
X13514524Y-16344428D01*
X13800238Y-16230143D02*
X13800238Y-16363476D01*
X13752619Y-16153952D02*
X13705000Y-16296809D01*
X13828809Y-16296809D01*
X13895476Y-16163476D02*
X13895476Y-16201571D01*
X13971667Y-16163476D02*
X13971667Y-16201571D01*
X14266905Y-16439667D02*
X14257381Y-16430143D01*
X14238333Y-16401571D01*
X14228809Y-16382524D01*
X14219286Y-16353952D01*
X14209762Y-16306333D01*
X14209762Y-16268238D01*
X14219286Y-16220619D01*
X14228809Y-16192048D01*
X14238333Y-16173000D01*
X14257381Y-16144428D01*
X14266905Y-16134905D01*
X14428809Y-16163476D02*
X14390714Y-16163476D01*
X14371667Y-16173000D01*
X14362143Y-16182524D01*
X14343095Y-16211095D01*
X14333571Y-16249190D01*
X14333571Y-16325381D01*
X14343095Y-16344428D01*
X14352619Y-16353952D01*
X14371667Y-16363476D01*
X14409762Y-16363476D01*
X14428809Y-16353952D01*
X14438333Y-16344428D01*
X14447857Y-16325381D01*
X14447857Y-16277762D01*
X14438333Y-16258714D01*
X14428809Y-16249190D01*
X14409762Y-16239667D01*
X14371667Y-16239667D01*
X14352619Y-16249190D01*
X14343095Y-16258714D01*
X14333571Y-16277762D01*
X14685952Y-16363476D02*
X14685952Y-16163476D01*
X14771667Y-16363476D02*
X14771667Y-16258714D01*
X14762143Y-16239667D01*
X14743095Y-16230143D01*
X14714524Y-16230143D01*
X14695476Y-16239667D01*
X14685952Y-16249190D01*
X14895476Y-16363476D02*
X14876428Y-16353952D01*
X14866905Y-16344428D01*
X14857381Y-16325381D01*
X14857381Y-16268238D01*
X14866905Y-16249190D01*
X14876428Y-16239667D01*
X14895476Y-16230143D01*
X14924048Y-16230143D01*
X14943095Y-16239667D01*
X14952619Y-16249190D01*
X14962143Y-16268238D01*
X14962143Y-16325381D01*
X14952619Y-16344428D01*
X14943095Y-16353952D01*
X14924048Y-16363476D01*
X14895476Y-16363476D01*
X15076428Y-16363476D02*
X15057381Y-16353952D01*
X15047857Y-16334905D01*
X15047857Y-16163476D01*
X15228809Y-16353952D02*
X15209762Y-16363476D01*
X15171667Y-16363476D01*
X15152619Y-16353952D01*
X15143095Y-16334905D01*
X15143095Y-16258714D01*
X15152619Y-16239667D01*
X15171667Y-16230143D01*
X15209762Y-16230143D01*
X15228809Y-16239667D01*
X15238333Y-16258714D01*
X15238333Y-16277762D01*
X15143095Y-16296809D01*
X15314524Y-16353952D02*
X15333571Y-16363476D01*
X15371667Y-16363476D01*
X15390714Y-16353952D01*
X15400238Y-16334905D01*
X15400238Y-16325381D01*
X15390714Y-16306333D01*
X15371667Y-16296809D01*
X15343095Y-16296809D01*
X15324048Y-16287286D01*
X15314524Y-16268238D01*
X15314524Y-16258714D01*
X15324048Y-16239667D01*
X15343095Y-16230143D01*
X15371667Y-16230143D01*
X15390714Y-16239667D01*
X15466905Y-16439667D02*
X15476428Y-16430143D01*
X15495476Y-16401571D01*
X15505000Y-16382524D01*
X15514524Y-16353952D01*
X15524048Y-16306333D01*
X15524048Y-16268238D01*
X15514524Y-16220619D01*
X15505000Y-16192048D01*
X15495476Y-16173000D01*
X15476428Y-16144428D01*
X15466905Y-16134905D01*
D15*
X10680493Y-16572023D02*
X10680493Y-16501977D01*
X10610447Y-16501977D01*
X10610447Y-16572023D01*
X10680493Y-16572023D01*
D11*
X10990714Y-16427476D02*
X11009762Y-16427476D01*
X11028810Y-16437000D01*
X11038333Y-16446524D01*
X11047857Y-16465571D01*
X11057381Y-16503667D01*
X11057381Y-16551286D01*
X11047857Y-16589381D01*
X11038333Y-16608428D01*
X11028810Y-16617952D01*
X11009762Y-16627476D01*
X10990714Y-16627476D01*
X10971667Y-16617952D01*
X10962143Y-16608428D01*
X10952619Y-16589381D01*
X10943095Y-16551286D01*
X10943095Y-16503667D01*
X10952619Y-16465571D01*
X10962143Y-16446524D01*
X10971667Y-16437000D01*
X10990714Y-16427476D01*
X11143095Y-16608428D02*
X11152619Y-16617952D01*
X11143095Y-16627476D01*
X11133571Y-16617952D01*
X11143095Y-16608428D01*
X11143095Y-16627476D01*
X11247857Y-16627476D02*
X11285952Y-16627476D01*
X11305000Y-16617952D01*
X11314524Y-16608428D01*
X11333571Y-16579857D01*
X11343095Y-16541762D01*
X11343095Y-16465571D01*
X11333571Y-16446524D01*
X11324048Y-16437000D01*
X11305000Y-16427476D01*
X11266905Y-16427476D01*
X11247857Y-16437000D01*
X11238333Y-16446524D01*
X11228809Y-16465571D01*
X11228809Y-16513190D01*
X11238333Y-16532238D01*
X11247857Y-16541762D01*
X11266905Y-16551286D01*
X11305000Y-16551286D01*
X11324048Y-16541762D01*
X11333571Y-16532238D01*
X11343095Y-16513190D01*
X11438333Y-16627476D02*
X11476428Y-16627476D01*
X11495476Y-16617952D01*
X11505000Y-16608428D01*
X11524048Y-16579857D01*
X11533571Y-16541762D01*
X11533571Y-16465571D01*
X11524048Y-16446524D01*
X11514524Y-16437000D01*
X11495476Y-16427476D01*
X11457381Y-16427476D01*
X11438333Y-16437000D01*
X11428809Y-16446524D01*
X11419286Y-16465571D01*
X11419286Y-16513190D01*
X11428809Y-16532238D01*
X11438333Y-16541762D01*
X11457381Y-16551286D01*
X11495476Y-16551286D01*
X11514524Y-16541762D01*
X11524048Y-16532238D01*
X11533571Y-16513190D01*
X11724048Y-16627476D02*
X11609762Y-16627476D01*
X11666905Y-16627476D02*
X11666905Y-16427476D01*
X11647857Y-16456048D01*
X11628809Y-16475095D01*
X11609762Y-16484619D01*
X11809762Y-16627476D02*
X11809762Y-16494143D01*
X11809762Y-16513190D02*
X11819286Y-16503667D01*
X11838333Y-16494143D01*
X11866905Y-16494143D01*
X11885952Y-16503667D01*
X11895476Y-16522714D01*
X11895476Y-16627476D01*
X11895476Y-16522714D02*
X11905000Y-16503667D01*
X11924048Y-16494143D01*
X11952619Y-16494143D01*
X11971667Y-16503667D01*
X11981190Y-16522714D01*
X11981190Y-16627476D01*
X12076428Y-16627476D02*
X12076428Y-16494143D01*
X12076428Y-16513190D02*
X12085952Y-16503667D01*
X12105000Y-16494143D01*
X12133571Y-16494143D01*
X12152619Y-16503667D01*
X12162143Y-16522714D01*
X12162143Y-16627476D01*
X12162143Y-16522714D02*
X12171667Y-16503667D01*
X12190714Y-16494143D01*
X12219286Y-16494143D01*
X12238333Y-16503667D01*
X12247857Y-16522714D01*
X12247857Y-16627476D01*
X12638333Y-16417952D02*
X12466905Y-16675095D01*
X12895476Y-16427476D02*
X12914524Y-16427476D01*
X12933571Y-16437000D01*
X12943095Y-16446524D01*
X12952619Y-16465571D01*
X12962143Y-16503667D01*
X12962143Y-16551286D01*
X12952619Y-16589381D01*
X12943095Y-16608428D01*
X12933571Y-16617952D01*
X12914524Y-16627476D01*
X12895476Y-16627476D01*
X12876428Y-16617952D01*
X12866905Y-16608428D01*
X12857381Y-16589381D01*
X12847857Y-16551286D01*
X12847857Y-16503667D01*
X12857381Y-16465571D01*
X12866905Y-16446524D01*
X12876428Y-16437000D01*
X12895476Y-16427476D01*
X13047857Y-16608428D02*
X13057381Y-16617952D01*
X13047857Y-16627476D01*
X13038333Y-16617952D01*
X13047857Y-16608428D01*
X13047857Y-16627476D01*
X13181190Y-16427476D02*
X13200238Y-16427476D01*
X13219286Y-16437000D01*
X13228809Y-16446524D01*
X13238333Y-16465571D01*
X13247857Y-16503667D01*
X13247857Y-16551286D01*
X13238333Y-16589381D01*
X13228809Y-16608428D01*
X13219286Y-16617952D01*
X13200238Y-16627476D01*
X13181190Y-16627476D01*
X13162143Y-16617952D01*
X13152619Y-16608428D01*
X13143095Y-16589381D01*
X13133571Y-16551286D01*
X13133571Y-16503667D01*
X13143095Y-16465571D01*
X13152619Y-16446524D01*
X13162143Y-16437000D01*
X13181190Y-16427476D01*
X13314524Y-16427476D02*
X13438333Y-16427476D01*
X13371667Y-16503667D01*
X13400238Y-16503667D01*
X13419286Y-16513190D01*
X13428809Y-16522714D01*
X13438333Y-16541762D01*
X13438333Y-16589381D01*
X13428809Y-16608428D01*
X13419286Y-16617952D01*
X13400238Y-16627476D01*
X13343095Y-16627476D01*
X13324048Y-16617952D01*
X13314524Y-16608428D01*
X13533571Y-16627476D02*
X13571667Y-16627476D01*
X13590714Y-16617952D01*
X13600238Y-16608428D01*
X13619286Y-16579857D01*
X13628809Y-16541762D01*
X13628809Y-16465571D01*
X13619286Y-16446524D01*
X13609762Y-16437000D01*
X13590714Y-16427476D01*
X13552619Y-16427476D01*
X13533571Y-16437000D01*
X13524048Y-16446524D01*
X13514524Y-16465571D01*
X13514524Y-16513190D01*
X13524048Y-16532238D01*
X13533571Y-16541762D01*
X13552619Y-16551286D01*
X13590714Y-16551286D01*
X13609762Y-16541762D01*
X13619286Y-16532238D01*
X13628809Y-16513190D01*
X13752619Y-16427476D02*
X13771667Y-16427476D01*
X13790714Y-16437000D01*
X13800238Y-16446524D01*
X13809762Y-16465571D01*
X13819286Y-16503667D01*
X13819286Y-16551286D01*
X13809762Y-16589381D01*
X13800238Y-16608428D01*
X13790714Y-16617952D01*
X13771667Y-16627476D01*
X13752619Y-16627476D01*
X13733571Y-16617952D01*
X13724048Y-16608428D01*
X13714524Y-16589381D01*
X13705000Y-16551286D01*
X13705000Y-16503667D01*
X13714524Y-16465571D01*
X13724048Y-16446524D01*
X13733571Y-16437000D01*
X13752619Y-16427476D01*
X13895476Y-16427476D02*
X13895476Y-16465571D01*
X13971667Y-16427476D02*
X13971667Y-16465571D01*
X14266905Y-16703667D02*
X14257381Y-16694143D01*
X14238333Y-16665571D01*
X14228809Y-16646524D01*
X14219286Y-16617952D01*
X14209762Y-16570333D01*
X14209762Y-16532238D01*
X14219286Y-16484619D01*
X14228809Y-16456048D01*
X14238333Y-16437000D01*
X14257381Y-16408428D01*
X14266905Y-16398905D01*
X14371667Y-16513190D02*
X14352619Y-16503667D01*
X14343095Y-16494143D01*
X14333571Y-16475095D01*
X14333571Y-16465571D01*
X14343095Y-16446524D01*
X14352619Y-16437000D01*
X14371667Y-16427476D01*
X14409762Y-16427476D01*
X14428809Y-16437000D01*
X14438333Y-16446524D01*
X14447857Y-16465571D01*
X14447857Y-16475095D01*
X14438333Y-16494143D01*
X14428809Y-16503667D01*
X14409762Y-16513190D01*
X14371667Y-16513190D01*
X14352619Y-16522714D01*
X14343095Y-16532238D01*
X14333571Y-16551286D01*
X14333571Y-16589381D01*
X14343095Y-16608428D01*
X14352619Y-16617952D01*
X14371667Y-16627476D01*
X14409762Y-16627476D01*
X14428809Y-16617952D01*
X14438333Y-16608428D01*
X14447857Y-16589381D01*
X14447857Y-16551286D01*
X14438333Y-16532238D01*
X14428809Y-16522714D01*
X14409762Y-16513190D01*
X14685952Y-16627476D02*
X14685952Y-16427476D01*
X14771667Y-16627476D02*
X14771667Y-16522714D01*
X14762143Y-16503667D01*
X14743095Y-16494143D01*
X14714524Y-16494143D01*
X14695476Y-16503667D01*
X14685952Y-16513190D01*
X14895476Y-16627476D02*
X14876428Y-16617952D01*
X14866905Y-16608428D01*
X14857381Y-16589381D01*
X14857381Y-16532238D01*
X14866905Y-16513190D01*
X14876428Y-16503667D01*
X14895476Y-16494143D01*
X14924048Y-16494143D01*
X14943095Y-16503667D01*
X14952619Y-16513190D01*
X14962143Y-16532238D01*
X14962143Y-16589381D01*
X14952619Y-16608428D01*
X14943095Y-16617952D01*
X14924048Y-16627476D01*
X14895476Y-16627476D01*
X15076428Y-16627476D02*
X15057381Y-16617952D01*
X15047857Y-16598905D01*
X15047857Y-16427476D01*
X15228809Y-16617952D02*
X15209762Y-16627476D01*
X15171667Y-16627476D01*
X15152619Y-16617952D01*
X15143095Y-16598905D01*
X15143095Y-16522714D01*
X15152619Y-16503667D01*
X15171667Y-16494143D01*
X15209762Y-16494143D01*
X15228809Y-16503667D01*
X15238333Y-16522714D01*
X15238333Y-16541762D01*
X15143095Y-16560809D01*
X15314524Y-16617952D02*
X15333571Y-16627476D01*
X15371667Y-16627476D01*
X15390714Y-16617952D01*
X15400238Y-16598905D01*
X15400238Y-16589381D01*
X15390714Y-16570333D01*
X15371667Y-16560809D01*
X15343095Y-16560809D01*
X15324048Y-16551286D01*
X15314524Y-16532238D01*
X15314524Y-16522714D01*
X15324048Y-16503667D01*
X15343095Y-16494143D01*
X15371667Y-16494143D01*
X15390714Y-16503667D01*
X15466905Y-16703667D02*
X15476428Y-16694143D01*
X15495476Y-16665571D01*
X15505000Y-16646524D01*
X15514524Y-16617952D01*
X15524048Y-16570333D01*
X15524048Y-16532238D01*
X15514524Y-16484619D01*
X15505000Y-16456048D01*
X15495476Y-16437000D01*
X15476428Y-16408428D01*
X15466905Y-16398905D01*
D16*
X10645000Y-16851000D02*
X10695000Y-16801000D01*
X10645000Y-16751000D01*
X10595000Y-16801000D01*
X10645000Y-16851000D01*
D11*
X11057381Y-16891476D02*
X10943095Y-16891476D01*
X11000238Y-16891476D02*
X11000238Y-16691476D01*
X10981190Y-16720048D01*
X10962143Y-16739095D01*
X10943095Y-16748619D01*
X11143095Y-16872429D02*
X11152619Y-16881952D01*
X11143095Y-16891476D01*
X11133571Y-16881952D01*
X11143095Y-16872429D01*
X11143095Y-16891476D01*
X11276428Y-16691476D02*
X11295476Y-16691476D01*
X11314524Y-16701000D01*
X11324048Y-16710524D01*
X11333571Y-16729571D01*
X11343095Y-16767667D01*
X11343095Y-16815286D01*
X11333571Y-16853381D01*
X11324048Y-16872429D01*
X11314524Y-16881952D01*
X11295476Y-16891476D01*
X11276428Y-16891476D01*
X11257381Y-16881952D01*
X11247857Y-16872429D01*
X11238333Y-16853381D01*
X11228809Y-16815286D01*
X11228809Y-16767667D01*
X11238333Y-16729571D01*
X11247857Y-16710524D01*
X11257381Y-16701000D01*
X11276428Y-16691476D01*
X11466905Y-16691476D02*
X11485952Y-16691476D01*
X11505000Y-16701000D01*
X11514524Y-16710524D01*
X11524048Y-16729571D01*
X11533571Y-16767667D01*
X11533571Y-16815286D01*
X11524048Y-16853381D01*
X11514524Y-16872429D01*
X11505000Y-16881952D01*
X11485952Y-16891476D01*
X11466905Y-16891476D01*
X11447857Y-16881952D01*
X11438333Y-16872429D01*
X11428809Y-16853381D01*
X11419286Y-16815286D01*
X11419286Y-16767667D01*
X11428809Y-16729571D01*
X11438333Y-16710524D01*
X11447857Y-16701000D01*
X11466905Y-16691476D01*
X11657381Y-16691476D02*
X11676428Y-16691476D01*
X11695476Y-16701000D01*
X11705000Y-16710524D01*
X11714524Y-16729571D01*
X11724048Y-16767667D01*
X11724048Y-16815286D01*
X11714524Y-16853381D01*
X11705000Y-16872429D01*
X11695476Y-16881952D01*
X11676428Y-16891476D01*
X11657381Y-16891476D01*
X11638333Y-16881952D01*
X11628809Y-16872429D01*
X11619286Y-16853381D01*
X11609762Y-16815286D01*
X11609762Y-16767667D01*
X11619286Y-16729571D01*
X11628809Y-16710524D01*
X11638333Y-16701000D01*
X11657381Y-16691476D01*
X11809762Y-16891476D02*
X11809762Y-16758143D01*
X11809762Y-16777190D02*
X11819286Y-16767667D01*
X11838333Y-16758143D01*
X11866905Y-16758143D01*
X11885952Y-16767667D01*
X11895476Y-16786714D01*
X11895476Y-16891476D01*
X11895476Y-16786714D02*
X11905000Y-16767667D01*
X11924048Y-16758143D01*
X11952619Y-16758143D01*
X11971667Y-16767667D01*
X11981190Y-16786714D01*
X11981190Y-16891476D01*
X12076428Y-16891476D02*
X12076428Y-16758143D01*
X12076428Y-16777190D02*
X12085952Y-16767667D01*
X12105000Y-16758143D01*
X12133571Y-16758143D01*
X12152619Y-16767667D01*
X12162143Y-16786714D01*
X12162143Y-16891476D01*
X12162143Y-16786714D02*
X12171667Y-16767667D01*
X12190714Y-16758143D01*
X12219286Y-16758143D01*
X12238333Y-16767667D01*
X12247857Y-16786714D01*
X12247857Y-16891476D01*
X12638333Y-16681952D02*
X12466905Y-16939095D01*
X12895476Y-16691476D02*
X12914524Y-16691476D01*
X12933571Y-16701000D01*
X12943095Y-16710524D01*
X12952619Y-16729571D01*
X12962143Y-16767667D01*
X12962143Y-16815286D01*
X12952619Y-16853381D01*
X12943095Y-16872429D01*
X12933571Y-16881952D01*
X12914524Y-16891476D01*
X12895476Y-16891476D01*
X12876428Y-16881952D01*
X12866905Y-16872429D01*
X12857381Y-16853381D01*
X12847857Y-16815286D01*
X12847857Y-16767667D01*
X12857381Y-16729571D01*
X12866905Y-16710524D01*
X12876428Y-16701000D01*
X12895476Y-16691476D01*
X13047857Y-16872429D02*
X13057381Y-16881952D01*
X13047857Y-16891476D01*
X13038333Y-16881952D01*
X13047857Y-16872429D01*
X13047857Y-16891476D01*
X13181190Y-16691476D02*
X13200238Y-16691476D01*
X13219286Y-16701000D01*
X13228809Y-16710524D01*
X13238333Y-16729571D01*
X13247857Y-16767667D01*
X13247857Y-16815286D01*
X13238333Y-16853381D01*
X13228809Y-16872429D01*
X13219286Y-16881952D01*
X13200238Y-16891476D01*
X13181190Y-16891476D01*
X13162143Y-16881952D01*
X13152619Y-16872429D01*
X13143095Y-16853381D01*
X13133571Y-16815286D01*
X13133571Y-16767667D01*
X13143095Y-16729571D01*
X13152619Y-16710524D01*
X13162143Y-16701000D01*
X13181190Y-16691476D01*
X13314524Y-16691476D02*
X13438333Y-16691476D01*
X13371667Y-16767667D01*
X13400238Y-16767667D01*
X13419286Y-16777190D01*
X13428809Y-16786714D01*
X13438333Y-16805762D01*
X13438333Y-16853381D01*
X13428809Y-16872429D01*
X13419286Y-16881952D01*
X13400238Y-16891476D01*
X13343095Y-16891476D01*
X13324048Y-16881952D01*
X13314524Y-16872429D01*
X13533571Y-16891476D02*
X13571667Y-16891476D01*
X13590714Y-16881952D01*
X13600238Y-16872429D01*
X13619286Y-16843857D01*
X13628809Y-16805762D01*
X13628809Y-16729571D01*
X13619286Y-16710524D01*
X13609762Y-16701000D01*
X13590714Y-16691476D01*
X13552619Y-16691476D01*
X13533571Y-16701000D01*
X13524048Y-16710524D01*
X13514524Y-16729571D01*
X13514524Y-16777190D01*
X13524048Y-16796238D01*
X13533571Y-16805762D01*
X13552619Y-16815286D01*
X13590714Y-16815286D01*
X13609762Y-16805762D01*
X13619286Y-16796238D01*
X13628809Y-16777190D01*
X13800238Y-16758143D02*
X13800238Y-16891476D01*
X13752619Y-16681952D02*
X13705000Y-16824810D01*
X13828809Y-16824810D01*
X13895476Y-16691476D02*
X13895476Y-16729571D01*
X13971667Y-16691476D02*
X13971667Y-16729571D01*
X14266905Y-16967667D02*
X14257381Y-16958143D01*
X14238333Y-16929571D01*
X14228809Y-16910524D01*
X14219286Y-16881952D01*
X14209762Y-16834333D01*
X14209762Y-16796238D01*
X14219286Y-16748619D01*
X14228809Y-16720048D01*
X14238333Y-16701000D01*
X14257381Y-16672428D01*
X14266905Y-16662905D01*
X14447857Y-16891476D02*
X14333571Y-16891476D01*
X14390714Y-16891476D02*
X14390714Y-16691476D01*
X14371667Y-16720048D01*
X14352619Y-16739095D01*
X14333571Y-16748619D01*
X14619286Y-16691476D02*
X14581190Y-16691476D01*
X14562143Y-16701000D01*
X14552619Y-16710524D01*
X14533571Y-16739095D01*
X14524048Y-16777190D01*
X14524048Y-16853381D01*
X14533571Y-16872429D01*
X14543095Y-16881952D01*
X14562143Y-16891476D01*
X14600238Y-16891476D01*
X14619286Y-16881952D01*
X14628809Y-16872429D01*
X14638333Y-16853381D01*
X14638333Y-16805762D01*
X14628809Y-16786714D01*
X14619286Y-16777190D01*
X14600238Y-16767667D01*
X14562143Y-16767667D01*
X14543095Y-16777190D01*
X14533571Y-16786714D01*
X14524048Y-16805762D01*
X14876428Y-16891476D02*
X14876428Y-16691476D01*
X14962143Y-16891476D02*
X14962143Y-16786714D01*
X14952619Y-16767667D01*
X14933571Y-16758143D01*
X14905000Y-16758143D01*
X14885952Y-16767667D01*
X14876428Y-16777190D01*
X15085952Y-16891476D02*
X15066905Y-16881952D01*
X15057381Y-16872429D01*
X15047857Y-16853381D01*
X15047857Y-16796238D01*
X15057381Y-16777190D01*
X15066905Y-16767667D01*
X15085952Y-16758143D01*
X15114524Y-16758143D01*
X15133571Y-16767667D01*
X15143095Y-16777190D01*
X15152619Y-16796238D01*
X15152619Y-16853381D01*
X15143095Y-16872429D01*
X15133571Y-16881952D01*
X15114524Y-16891476D01*
X15085952Y-16891476D01*
X15266905Y-16891476D02*
X15247857Y-16881952D01*
X15238333Y-16862905D01*
X15238333Y-16691476D01*
X15419286Y-16881952D02*
X15400238Y-16891476D01*
X15362143Y-16891476D01*
X15343095Y-16881952D01*
X15333571Y-16862905D01*
X15333571Y-16786714D01*
X15343095Y-16767667D01*
X15362143Y-16758143D01*
X15400238Y-16758143D01*
X15419286Y-16767667D01*
X15428809Y-16786714D01*
X15428809Y-16805762D01*
X15333571Y-16824810D01*
X15505000Y-16881952D02*
X15524048Y-16891476D01*
X15562143Y-16891476D01*
X15581190Y-16881952D01*
X15590714Y-16862905D01*
X15590714Y-16853381D01*
X15581190Y-16834333D01*
X15562143Y-16824810D01*
X15533571Y-16824810D01*
X15514524Y-16815286D01*
X15505000Y-16796238D01*
X15505000Y-16786714D01*
X15514524Y-16767667D01*
X15533571Y-16758143D01*
X15562143Y-16758143D01*
X15581190Y-16767667D01*
X15657381Y-16967667D02*
X15666905Y-16958143D01*
X15685952Y-16929571D01*
X15695476Y-16910524D01*
X15705000Y-16881952D01*
X15714524Y-16834333D01*
X15714524Y-16796238D01*
X15705000Y-16748619D01*
X15695476Y-16720048D01*
X15685952Y-16701000D01*
X15666905Y-16672428D01*
X15657381Y-16662905D01*
D17*
X10585000Y-17010000D02*
X10695000Y-17120000D01*
X10695000Y-17010000D02*
X10585000Y-17120000D01*
X10695000Y-17065000D02*
G75*
G03*
X10695000Y-17065000I-55000J0D01*
G01*
D11*
X11057381Y-17155476D02*
X10943095Y-17155476D01*
X11000238Y-17155476D02*
X11000238Y-16955476D01*
X10981190Y-16984048D01*
X10962143Y-17003095D01*
X10943095Y-17012619D01*
X11143095Y-17136429D02*
X11152619Y-17145952D01*
X11143095Y-17155476D01*
X11133571Y-17145952D01*
X11143095Y-17136429D01*
X11143095Y-17155476D01*
X11343095Y-17155476D02*
X11228809Y-17155476D01*
X11285952Y-17155476D02*
X11285952Y-16955476D01*
X11266905Y-16984048D01*
X11247857Y-17003095D01*
X11228809Y-17012619D01*
X11466905Y-16955476D02*
X11485952Y-16955476D01*
X11505000Y-16965000D01*
X11514524Y-16974524D01*
X11524048Y-16993571D01*
X11533571Y-17031667D01*
X11533571Y-17079286D01*
X11524048Y-17117381D01*
X11514524Y-17136429D01*
X11505000Y-17145952D01*
X11485952Y-17155476D01*
X11466905Y-17155476D01*
X11447857Y-17145952D01*
X11438333Y-17136429D01*
X11428809Y-17117381D01*
X11419286Y-17079286D01*
X11419286Y-17031667D01*
X11428809Y-16993571D01*
X11438333Y-16974524D01*
X11447857Y-16965000D01*
X11466905Y-16955476D01*
X11657381Y-16955476D02*
X11676428Y-16955476D01*
X11695476Y-16965000D01*
X11705000Y-16974524D01*
X11714524Y-16993571D01*
X11724048Y-17031667D01*
X11724048Y-17079286D01*
X11714524Y-17117381D01*
X11705000Y-17136429D01*
X11695476Y-17145952D01*
X11676428Y-17155476D01*
X11657381Y-17155476D01*
X11638333Y-17145952D01*
X11628809Y-17136429D01*
X11619286Y-17117381D01*
X11609762Y-17079286D01*
X11609762Y-17031667D01*
X11619286Y-16993571D01*
X11628809Y-16974524D01*
X11638333Y-16965000D01*
X11657381Y-16955476D01*
X11809762Y-17155476D02*
X11809762Y-17022143D01*
X11809762Y-17041190D02*
X11819286Y-17031667D01*
X11838333Y-17022143D01*
X11866905Y-17022143D01*
X11885952Y-17031667D01*
X11895476Y-17050714D01*
X11895476Y-17155476D01*
X11895476Y-17050714D02*
X11905000Y-17031667D01*
X11924048Y-17022143D01*
X11952619Y-17022143D01*
X11971667Y-17031667D01*
X11981190Y-17050714D01*
X11981190Y-17155476D01*
X12076428Y-17155476D02*
X12076428Y-17022143D01*
X12076428Y-17041190D02*
X12085952Y-17031667D01*
X12105000Y-17022143D01*
X12133571Y-17022143D01*
X12152619Y-17031667D01*
X12162143Y-17050714D01*
X12162143Y-17155476D01*
X12162143Y-17050714D02*
X12171667Y-17031667D01*
X12190714Y-17022143D01*
X12219286Y-17022143D01*
X12238333Y-17031667D01*
X12247857Y-17050714D01*
X12247857Y-17155476D01*
X12638333Y-16945952D02*
X12466905Y-17203095D01*
X12895476Y-16955476D02*
X12914524Y-16955476D01*
X12933571Y-16965000D01*
X12943095Y-16974524D01*
X12952619Y-16993571D01*
X12962143Y-17031667D01*
X12962143Y-17079286D01*
X12952619Y-17117381D01*
X12943095Y-17136429D01*
X12933571Y-17145952D01*
X12914524Y-17155476D01*
X12895476Y-17155476D01*
X12876428Y-17145952D01*
X12866905Y-17136429D01*
X12857381Y-17117381D01*
X12847857Y-17079286D01*
X12847857Y-17031667D01*
X12857381Y-16993571D01*
X12866905Y-16974524D01*
X12876428Y-16965000D01*
X12895476Y-16955476D01*
X13047857Y-17136429D02*
X13057381Y-17145952D01*
X13047857Y-17155476D01*
X13038333Y-17145952D01*
X13047857Y-17136429D01*
X13047857Y-17155476D01*
X13181190Y-16955476D02*
X13200238Y-16955476D01*
X13219286Y-16965000D01*
X13228809Y-16974524D01*
X13238333Y-16993571D01*
X13247857Y-17031667D01*
X13247857Y-17079286D01*
X13238333Y-17117381D01*
X13228809Y-17136429D01*
X13219286Y-17145952D01*
X13200238Y-17155476D01*
X13181190Y-17155476D01*
X13162143Y-17145952D01*
X13152619Y-17136429D01*
X13143095Y-17117381D01*
X13133571Y-17079286D01*
X13133571Y-17031667D01*
X13143095Y-16993571D01*
X13152619Y-16974524D01*
X13162143Y-16965000D01*
X13181190Y-16955476D01*
X13419286Y-17022143D02*
X13419286Y-17155476D01*
X13371667Y-16945952D02*
X13324048Y-17088810D01*
X13447857Y-17088810D01*
X13505000Y-16955476D02*
X13628809Y-16955476D01*
X13562143Y-17031667D01*
X13590714Y-17031667D01*
X13609762Y-17041190D01*
X13619286Y-17050714D01*
X13628809Y-17069762D01*
X13628809Y-17117381D01*
X13619286Y-17136429D01*
X13609762Y-17145952D01*
X13590714Y-17155476D01*
X13533571Y-17155476D01*
X13514524Y-17145952D01*
X13505000Y-17136429D01*
X13695476Y-16955476D02*
X13819286Y-16955476D01*
X13752619Y-17031667D01*
X13781190Y-17031667D01*
X13800238Y-17041190D01*
X13809762Y-17050714D01*
X13819286Y-17069762D01*
X13819286Y-17117381D01*
X13809762Y-17136429D01*
X13800238Y-17145952D01*
X13781190Y-17155476D01*
X13724048Y-17155476D01*
X13705000Y-17145952D01*
X13695476Y-17136429D01*
X13895476Y-16955476D02*
X13895476Y-16993571D01*
X13971667Y-16955476D02*
X13971667Y-16993571D01*
X14266905Y-17231667D02*
X14257381Y-17222143D01*
X14238333Y-17193571D01*
X14228809Y-17174524D01*
X14219286Y-17145952D01*
X14209762Y-17098333D01*
X14209762Y-17060238D01*
X14219286Y-17012619D01*
X14228809Y-16984048D01*
X14238333Y-16965000D01*
X14257381Y-16936429D01*
X14266905Y-16926905D01*
X14324048Y-16955476D02*
X14447857Y-16955476D01*
X14381190Y-17031667D01*
X14409762Y-17031667D01*
X14428809Y-17041190D01*
X14438333Y-17050714D01*
X14447857Y-17069762D01*
X14447857Y-17117381D01*
X14438333Y-17136429D01*
X14428809Y-17145952D01*
X14409762Y-17155476D01*
X14352619Y-17155476D01*
X14333571Y-17145952D01*
X14324048Y-17136429D01*
X14685952Y-17155476D02*
X14685952Y-16955476D01*
X14771667Y-17155476D02*
X14771667Y-17050714D01*
X14762143Y-17031667D01*
X14743095Y-17022143D01*
X14714524Y-17022143D01*
X14695476Y-17031667D01*
X14685952Y-17041190D01*
X14895476Y-17155476D02*
X14876428Y-17145952D01*
X14866905Y-17136429D01*
X14857381Y-17117381D01*
X14857381Y-17060238D01*
X14866905Y-17041190D01*
X14876428Y-17031667D01*
X14895476Y-17022143D01*
X14924048Y-17022143D01*
X14943095Y-17031667D01*
X14952619Y-17041190D01*
X14962143Y-17060238D01*
X14962143Y-17117381D01*
X14952619Y-17136429D01*
X14943095Y-17145952D01*
X14924048Y-17155476D01*
X14895476Y-17155476D01*
X15076428Y-17155476D02*
X15057381Y-17145952D01*
X15047857Y-17126905D01*
X15047857Y-16955476D01*
X15228809Y-17145952D02*
X15209762Y-17155476D01*
X15171667Y-17155476D01*
X15152619Y-17145952D01*
X15143095Y-17126905D01*
X15143095Y-17050714D01*
X15152619Y-17031667D01*
X15171667Y-17022143D01*
X15209762Y-17022143D01*
X15228809Y-17031667D01*
X15238333Y-17050714D01*
X15238333Y-17069762D01*
X15143095Y-17088810D01*
X15314524Y-17145952D02*
X15333571Y-17155476D01*
X15371667Y-17155476D01*
X15390714Y-17145952D01*
X15400238Y-17126905D01*
X15400238Y-17117381D01*
X15390714Y-17098333D01*
X15371667Y-17088810D01*
X15343095Y-17088810D01*
X15324048Y-17079286D01*
X15314524Y-17060238D01*
X15314524Y-17050714D01*
X15324048Y-17031667D01*
X15343095Y-17022143D01*
X15371667Y-17022143D01*
X15390714Y-17031667D01*
X15466905Y-17231667D02*
X15476428Y-17222143D01*
X15495476Y-17193571D01*
X15505000Y-17174524D01*
X15514524Y-17145952D01*
X15524048Y-17098333D01*
X15524048Y-17060238D01*
X15514524Y-17012619D01*
X15505000Y-16984048D01*
X15495476Y-16965000D01*
X15476428Y-16936429D01*
X15466905Y-16926905D01*
D18*
X10565460Y-17264230D02*
X10695000Y-17393770D01*
X10695000Y-17264230D02*
X10565460Y-17393770D01*
X10630230Y-17264230D02*
X10630230Y-17393770D01*
X10565460Y-17329000D02*
X10695000Y-17329000D01*
D11*
X11057381Y-17419476D02*
X10943095Y-17419476D01*
X11000238Y-17419476D02*
X11000238Y-17219476D01*
X10981190Y-17248048D01*
X10962143Y-17267095D01*
X10943095Y-17276619D01*
X11143095Y-17400429D02*
X11152619Y-17409952D01*
X11143095Y-17419476D01*
X11133571Y-17409952D01*
X11143095Y-17400429D01*
X11143095Y-17419476D01*
X11228809Y-17238524D02*
X11238333Y-17229000D01*
X11257381Y-17219476D01*
X11305000Y-17219476D01*
X11324048Y-17229000D01*
X11333571Y-17238524D01*
X11343095Y-17257571D01*
X11343095Y-17276619D01*
X11333571Y-17305190D01*
X11219286Y-17419476D01*
X11343095Y-17419476D01*
X11438333Y-17419476D02*
X11476428Y-17419476D01*
X11495476Y-17409952D01*
X11505000Y-17400429D01*
X11524048Y-17371857D01*
X11533571Y-17333762D01*
X11533571Y-17257571D01*
X11524048Y-17238524D01*
X11514524Y-17229000D01*
X11495476Y-17219476D01*
X11457381Y-17219476D01*
X11438333Y-17229000D01*
X11428809Y-17238524D01*
X11419286Y-17257571D01*
X11419286Y-17305190D01*
X11428809Y-17324238D01*
X11438333Y-17333762D01*
X11457381Y-17343286D01*
X11495476Y-17343286D01*
X11514524Y-17333762D01*
X11524048Y-17324238D01*
X11533571Y-17305190D01*
X11714524Y-17219476D02*
X11619286Y-17219476D01*
X11609762Y-17314714D01*
X11619286Y-17305190D01*
X11638333Y-17295667D01*
X11685952Y-17295667D01*
X11705000Y-17305190D01*
X11714524Y-17314714D01*
X11724048Y-17333762D01*
X11724048Y-17381381D01*
X11714524Y-17400429D01*
X11705000Y-17409952D01*
X11685952Y-17419476D01*
X11638333Y-17419476D01*
X11619286Y-17409952D01*
X11609762Y-17400429D01*
X11809762Y-17419476D02*
X11809762Y-17286143D01*
X11809762Y-17305190D02*
X11819286Y-17295667D01*
X11838333Y-17286143D01*
X11866905Y-17286143D01*
X11885952Y-17295667D01*
X11895476Y-17314714D01*
X11895476Y-17419476D01*
X11895476Y-17314714D02*
X11905000Y-17295667D01*
X11924048Y-17286143D01*
X11952619Y-17286143D01*
X11971667Y-17295667D01*
X11981190Y-17314714D01*
X11981190Y-17419476D01*
X12076428Y-17419476D02*
X12076428Y-17286143D01*
X12076428Y-17305190D02*
X12085952Y-17295667D01*
X12105000Y-17286143D01*
X12133571Y-17286143D01*
X12152619Y-17295667D01*
X12162143Y-17314714D01*
X12162143Y-17419476D01*
X12162143Y-17314714D02*
X12171667Y-17295667D01*
X12190714Y-17286143D01*
X12219286Y-17286143D01*
X12238333Y-17295667D01*
X12247857Y-17314714D01*
X12247857Y-17419476D01*
X12638333Y-17209952D02*
X12466905Y-17467095D01*
X12895476Y-17219476D02*
X12914524Y-17219476D01*
X12933571Y-17229000D01*
X12943095Y-17238524D01*
X12952619Y-17257571D01*
X12962143Y-17295667D01*
X12962143Y-17343286D01*
X12952619Y-17381381D01*
X12943095Y-17400429D01*
X12933571Y-17409952D01*
X12914524Y-17419476D01*
X12895476Y-17419476D01*
X12876428Y-17409952D01*
X12866905Y-17400429D01*
X12857381Y-17381381D01*
X12847857Y-17343286D01*
X12847857Y-17295667D01*
X12857381Y-17257571D01*
X12866905Y-17238524D01*
X12876428Y-17229000D01*
X12895476Y-17219476D01*
X13047857Y-17400429D02*
X13057381Y-17409952D01*
X13047857Y-17419476D01*
X13038333Y-17409952D01*
X13047857Y-17400429D01*
X13047857Y-17419476D01*
X13181190Y-17219476D02*
X13200238Y-17219476D01*
X13219286Y-17229000D01*
X13228809Y-17238524D01*
X13238333Y-17257571D01*
X13247857Y-17295667D01*
X13247857Y-17343286D01*
X13238333Y-17381381D01*
X13228809Y-17400429D01*
X13219286Y-17409952D01*
X13200238Y-17419476D01*
X13181190Y-17419476D01*
X13162143Y-17409952D01*
X13152619Y-17400429D01*
X13143095Y-17381381D01*
X13133571Y-17343286D01*
X13133571Y-17295667D01*
X13143095Y-17257571D01*
X13152619Y-17238524D01*
X13162143Y-17229000D01*
X13181190Y-17219476D01*
X13428809Y-17219476D02*
X13333571Y-17219476D01*
X13324048Y-17314714D01*
X13333571Y-17305190D01*
X13352619Y-17295667D01*
X13400238Y-17295667D01*
X13419286Y-17305190D01*
X13428809Y-17314714D01*
X13438333Y-17333762D01*
X13438333Y-17381381D01*
X13428809Y-17400429D01*
X13419286Y-17409952D01*
X13400238Y-17419476D01*
X13352619Y-17419476D01*
X13333571Y-17409952D01*
X13324048Y-17400429D01*
X13628809Y-17419476D02*
X13514524Y-17419476D01*
X13571667Y-17419476D02*
X13571667Y-17219476D01*
X13552619Y-17248048D01*
X13533571Y-17267095D01*
X13514524Y-17276619D01*
X13752619Y-17219476D02*
X13771667Y-17219476D01*
X13790714Y-17229000D01*
X13800238Y-17238524D01*
X13809762Y-17257571D01*
X13819286Y-17295667D01*
X13819286Y-17343286D01*
X13809762Y-17381381D01*
X13800238Y-17400429D01*
X13790714Y-17409952D01*
X13771667Y-17419476D01*
X13752619Y-17419476D01*
X13733571Y-17409952D01*
X13724048Y-17400429D01*
X13714524Y-17381381D01*
X13705000Y-17343286D01*
X13705000Y-17295667D01*
X13714524Y-17257571D01*
X13724048Y-17238524D01*
X13733571Y-17229000D01*
X13752619Y-17219476D01*
X13895476Y-17219476D02*
X13895476Y-17257571D01*
X13971667Y-17219476D02*
X13971667Y-17257571D01*
X14266905Y-17495667D02*
X14257381Y-17486143D01*
X14238333Y-17457571D01*
X14228809Y-17438524D01*
X14219286Y-17409952D01*
X14209762Y-17362333D01*
X14209762Y-17324238D01*
X14219286Y-17276619D01*
X14228809Y-17248048D01*
X14238333Y-17229000D01*
X14257381Y-17200429D01*
X14266905Y-17190905D01*
X14371667Y-17305190D02*
X14352619Y-17295667D01*
X14343095Y-17286143D01*
X14333571Y-17267095D01*
X14333571Y-17257571D01*
X14343095Y-17238524D01*
X14352619Y-17229000D01*
X14371667Y-17219476D01*
X14409762Y-17219476D01*
X14428809Y-17229000D01*
X14438333Y-17238524D01*
X14447857Y-17257571D01*
X14447857Y-17267095D01*
X14438333Y-17286143D01*
X14428809Y-17295667D01*
X14409762Y-17305190D01*
X14371667Y-17305190D01*
X14352619Y-17314714D01*
X14343095Y-17324238D01*
X14333571Y-17343286D01*
X14333571Y-17381381D01*
X14343095Y-17400429D01*
X14352619Y-17409952D01*
X14371667Y-17419476D01*
X14409762Y-17419476D01*
X14428809Y-17409952D01*
X14438333Y-17400429D01*
X14447857Y-17381381D01*
X14447857Y-17343286D01*
X14438333Y-17324238D01*
X14428809Y-17314714D01*
X14409762Y-17305190D01*
X14685952Y-17419476D02*
X14685952Y-17219476D01*
X14771667Y-17419476D02*
X14771667Y-17314714D01*
X14762143Y-17295667D01*
X14743095Y-17286143D01*
X14714524Y-17286143D01*
X14695476Y-17295667D01*
X14685952Y-17305190D01*
X14895476Y-17419476D02*
X14876428Y-17409952D01*
X14866905Y-17400429D01*
X14857381Y-17381381D01*
X14857381Y-17324238D01*
X14866905Y-17305190D01*
X14876428Y-17295667D01*
X14895476Y-17286143D01*
X14924048Y-17286143D01*
X14943095Y-17295667D01*
X14952619Y-17305190D01*
X14962143Y-17324238D01*
X14962143Y-17381381D01*
X14952619Y-17400429D01*
X14943095Y-17409952D01*
X14924048Y-17419476D01*
X14895476Y-17419476D01*
X15076428Y-17419476D02*
X15057381Y-17409952D01*
X15047857Y-17390905D01*
X15047857Y-17219476D01*
X15228809Y-17409952D02*
X15209762Y-17419476D01*
X15171667Y-17419476D01*
X15152619Y-17409952D01*
X15143095Y-17390905D01*
X15143095Y-17314714D01*
X15152619Y-17295667D01*
X15171667Y-17286143D01*
X15209762Y-17286143D01*
X15228809Y-17295667D01*
X15238333Y-17314714D01*
X15238333Y-17333762D01*
X15143095Y-17352810D01*
X15314524Y-17409952D02*
X15333571Y-17419476D01*
X15371667Y-17419476D01*
X15390714Y-17409952D01*
X15400238Y-17390905D01*
X15400238Y-17381381D01*
X15390714Y-17362333D01*
X15371667Y-17352810D01*
X15343095Y-17352810D01*
X15324048Y-17343286D01*
X15314524Y-17324238D01*
X15314524Y-17314714D01*
X15324048Y-17295667D01*
X15343095Y-17286143D01*
X15371667Y-17286143D01*
X15390714Y-17295667D01*
X15466905Y-17495667D02*
X15476428Y-17486143D01*
X15495476Y-17457571D01*
X15505000Y-17438524D01*
X15514524Y-17409952D01*
X15524048Y-17362333D01*
X15524048Y-17324238D01*
X15514524Y-17276619D01*
X15505000Y-17248048D01*
X15495476Y-17229000D01*
X15476428Y-17200429D01*
X15466905Y-17190905D01*
D19*
X10555000Y-17523000D02*
X10695000Y-17663000D01*
X10695000Y-17523000D02*
X10555000Y-17663000D01*
X10674498Y-17642498D02*
X10674498Y-17543502D01*
X10575502Y-17543502D01*
X10575502Y-17642498D01*
X10674498Y-17642498D01*
D11*
X11057381Y-17683476D02*
X10943095Y-17683476D01*
X11000238Y-17683476D02*
X11000238Y-17483476D01*
X10981190Y-17512048D01*
X10962143Y-17531095D01*
X10943095Y-17540619D01*
X11143095Y-17664429D02*
X11152619Y-17673952D01*
X11143095Y-17683476D01*
X11133571Y-17673952D01*
X11143095Y-17664429D01*
X11143095Y-17683476D01*
X11324048Y-17550143D02*
X11324048Y-17683476D01*
X11276428Y-17473952D02*
X11228809Y-17616810D01*
X11352619Y-17616810D01*
X11466905Y-17483476D02*
X11485952Y-17483476D01*
X11505000Y-17493000D01*
X11514524Y-17502524D01*
X11524048Y-17521571D01*
X11533571Y-17559667D01*
X11533571Y-17607286D01*
X11524048Y-17645381D01*
X11514524Y-17664429D01*
X11505000Y-17673952D01*
X11485952Y-17683476D01*
X11466905Y-17683476D01*
X11447857Y-17673952D01*
X11438333Y-17664429D01*
X11428809Y-17645381D01*
X11419286Y-17607286D01*
X11419286Y-17559667D01*
X11428809Y-17521571D01*
X11438333Y-17502524D01*
X11447857Y-17493000D01*
X11466905Y-17483476D01*
X11657381Y-17483476D02*
X11676428Y-17483476D01*
X11695476Y-17493000D01*
X11705000Y-17502524D01*
X11714524Y-17521571D01*
X11724048Y-17559667D01*
X11724048Y-17607286D01*
X11714524Y-17645381D01*
X11705000Y-17664429D01*
X11695476Y-17673952D01*
X11676428Y-17683476D01*
X11657381Y-17683476D01*
X11638333Y-17673952D01*
X11628809Y-17664429D01*
X11619286Y-17645381D01*
X11609762Y-17607286D01*
X11609762Y-17559667D01*
X11619286Y-17521571D01*
X11628809Y-17502524D01*
X11638333Y-17493000D01*
X11657381Y-17483476D01*
X11809762Y-17683476D02*
X11809762Y-17550143D01*
X11809762Y-17569190D02*
X11819286Y-17559667D01*
X11838333Y-17550143D01*
X11866905Y-17550143D01*
X11885952Y-17559667D01*
X11895476Y-17578714D01*
X11895476Y-17683476D01*
X11895476Y-17578714D02*
X11905000Y-17559667D01*
X11924048Y-17550143D01*
X11952619Y-17550143D01*
X11971667Y-17559667D01*
X11981190Y-17578714D01*
X11981190Y-17683476D01*
X12076428Y-17683476D02*
X12076428Y-17550143D01*
X12076428Y-17569190D02*
X12085952Y-17559667D01*
X12105000Y-17550143D01*
X12133571Y-17550143D01*
X12152619Y-17559667D01*
X12162143Y-17578714D01*
X12162143Y-17683476D01*
X12162143Y-17578714D02*
X12171667Y-17559667D01*
X12190714Y-17550143D01*
X12219286Y-17550143D01*
X12238333Y-17559667D01*
X12247857Y-17578714D01*
X12247857Y-17683476D01*
X12638333Y-17473952D02*
X12466905Y-17731095D01*
X12895476Y-17483476D02*
X12914524Y-17483476D01*
X12933571Y-17493000D01*
X12943095Y-17502524D01*
X12952619Y-17521571D01*
X12962143Y-17559667D01*
X12962143Y-17607286D01*
X12952619Y-17645381D01*
X12943095Y-17664429D01*
X12933571Y-17673952D01*
X12914524Y-17683476D01*
X12895476Y-17683476D01*
X12876428Y-17673952D01*
X12866905Y-17664429D01*
X12857381Y-17645381D01*
X12847857Y-17607286D01*
X12847857Y-17559667D01*
X12857381Y-17521571D01*
X12866905Y-17502524D01*
X12876428Y-17493000D01*
X12895476Y-17483476D01*
X13047857Y-17664429D02*
X13057381Y-17673952D01*
X13047857Y-17683476D01*
X13038333Y-17673952D01*
X13047857Y-17664429D01*
X13047857Y-17683476D01*
X13181190Y-17483476D02*
X13200238Y-17483476D01*
X13219286Y-17493000D01*
X13228809Y-17502524D01*
X13238333Y-17521571D01*
X13247857Y-17559667D01*
X13247857Y-17607286D01*
X13238333Y-17645381D01*
X13228809Y-17664429D01*
X13219286Y-17673952D01*
X13200238Y-17683476D01*
X13181190Y-17683476D01*
X13162143Y-17673952D01*
X13152619Y-17664429D01*
X13143095Y-17645381D01*
X13133571Y-17607286D01*
X13133571Y-17559667D01*
X13143095Y-17521571D01*
X13152619Y-17502524D01*
X13162143Y-17493000D01*
X13181190Y-17483476D01*
X13428809Y-17483476D02*
X13333571Y-17483476D01*
X13324048Y-17578714D01*
X13333571Y-17569190D01*
X13352619Y-17559667D01*
X13400238Y-17559667D01*
X13419286Y-17569190D01*
X13428809Y-17578714D01*
X13438333Y-17597762D01*
X13438333Y-17645381D01*
X13428809Y-17664429D01*
X13419286Y-17673952D01*
X13400238Y-17683476D01*
X13352619Y-17683476D01*
X13333571Y-17673952D01*
X13324048Y-17664429D01*
X13619286Y-17483476D02*
X13524048Y-17483476D01*
X13514524Y-17578714D01*
X13524048Y-17569190D01*
X13543095Y-17559667D01*
X13590714Y-17559667D01*
X13609762Y-17569190D01*
X13619286Y-17578714D01*
X13628809Y-17597762D01*
X13628809Y-17645381D01*
X13619286Y-17664429D01*
X13609762Y-17673952D01*
X13590714Y-17683476D01*
X13543095Y-17683476D01*
X13524048Y-17673952D01*
X13514524Y-17664429D01*
X13819286Y-17683476D02*
X13705000Y-17683476D01*
X13762143Y-17683476D02*
X13762143Y-17483476D01*
X13743095Y-17512048D01*
X13724048Y-17531095D01*
X13705000Y-17540619D01*
X13895476Y-17483476D02*
X13895476Y-17521571D01*
X13971667Y-17483476D02*
X13971667Y-17521571D01*
X14266905Y-17759667D02*
X14257381Y-17750143D01*
X14238333Y-17721571D01*
X14228809Y-17702524D01*
X14219286Y-17673952D01*
X14209762Y-17626333D01*
X14209762Y-17588238D01*
X14219286Y-17540619D01*
X14228809Y-17512048D01*
X14238333Y-17493000D01*
X14257381Y-17464429D01*
X14266905Y-17454905D01*
X14447857Y-17683476D02*
X14333571Y-17683476D01*
X14390714Y-17683476D02*
X14390714Y-17483476D01*
X14371667Y-17512048D01*
X14352619Y-17531095D01*
X14333571Y-17540619D01*
X14638333Y-17683476D02*
X14524048Y-17683476D01*
X14581190Y-17683476D02*
X14581190Y-17483476D01*
X14562143Y-17512048D01*
X14543095Y-17531095D01*
X14524048Y-17540619D01*
X14876428Y-17683476D02*
X14876428Y-17483476D01*
X14962143Y-17683476D02*
X14962143Y-17578714D01*
X14952619Y-17559667D01*
X14933571Y-17550143D01*
X14905000Y-17550143D01*
X14885952Y-17559667D01*
X14876428Y-17569190D01*
X15085952Y-17683476D02*
X15066905Y-17673952D01*
X15057381Y-17664429D01*
X15047857Y-17645381D01*
X15047857Y-17588238D01*
X15057381Y-17569190D01*
X15066905Y-17559667D01*
X15085952Y-17550143D01*
X15114524Y-17550143D01*
X15133571Y-17559667D01*
X15143095Y-17569190D01*
X15152619Y-17588238D01*
X15152619Y-17645381D01*
X15143095Y-17664429D01*
X15133571Y-17673952D01*
X15114524Y-17683476D01*
X15085952Y-17683476D01*
X15266905Y-17683476D02*
X15247857Y-17673952D01*
X15238333Y-17654905D01*
X15238333Y-17483476D01*
X15419286Y-17673952D02*
X15400238Y-17683476D01*
X15362143Y-17683476D01*
X15343095Y-17673952D01*
X15333571Y-17654905D01*
X15333571Y-17578714D01*
X15343095Y-17559667D01*
X15362143Y-17550143D01*
X15400238Y-17550143D01*
X15419286Y-17559667D01*
X15428809Y-17578714D01*
X15428809Y-17597762D01*
X15333571Y-17616810D01*
X15505000Y-17673952D02*
X15524048Y-17683476D01*
X15562143Y-17683476D01*
X15581190Y-17673952D01*
X15590714Y-17654905D01*
X15590714Y-17645381D01*
X15581190Y-17626333D01*
X15562143Y-17616810D01*
X15533571Y-17616810D01*
X15514524Y-17607286D01*
X15505000Y-17588238D01*
X15505000Y-17578714D01*
X15514524Y-17559667D01*
X15533571Y-17550143D01*
X15562143Y-17550143D01*
X15581190Y-17559667D01*
X15657381Y-17759667D02*
X15666905Y-17750143D01*
X15685952Y-17721571D01*
X15695476Y-17702524D01*
X15705000Y-17673952D01*
X15714524Y-17626333D01*
X15714524Y-17588238D01*
X15705000Y-17540619D01*
X15695476Y-17512048D01*
X15685952Y-17493000D01*
X15666905Y-17464429D01*
X15657381Y-17454905D01*
X10495000Y-17757000D02*
X10695000Y-17957000D01*
X10695000Y-17757000D02*
X10495000Y-17957000D01*
X10595000Y-17957000D02*
X10695000Y-17857000D01*
X10595000Y-17757000D01*
X10495000Y-17857000D01*
X10595000Y-17957000D01*
X10933571Y-17747476D02*
X11057381Y-17747476D01*
X10990714Y-17823667D01*
X11019286Y-17823667D01*
X11038333Y-17833190D01*
X11047857Y-17842714D01*
X11057381Y-17861762D01*
X11057381Y-17909381D01*
X11047857Y-17928429D01*
X11038333Y-17937952D01*
X11019286Y-17947476D01*
X10962143Y-17947476D01*
X10943095Y-17937952D01*
X10933571Y-17928429D01*
X11143095Y-17928429D02*
X11152619Y-17937952D01*
X11143095Y-17947476D01*
X11133571Y-17937952D01*
X11143095Y-17928429D01*
X11143095Y-17947476D01*
X11228809Y-17766524D02*
X11238333Y-17757000D01*
X11257381Y-17747476D01*
X11305000Y-17747476D01*
X11324048Y-17757000D01*
X11333571Y-17766524D01*
X11343095Y-17785571D01*
X11343095Y-17804619D01*
X11333571Y-17833190D01*
X11219286Y-17947476D01*
X11343095Y-17947476D01*
X11466905Y-17747476D02*
X11485952Y-17747476D01*
X11505000Y-17757000D01*
X11514524Y-17766524D01*
X11524048Y-17785571D01*
X11533571Y-17823667D01*
X11533571Y-17871286D01*
X11524048Y-17909381D01*
X11514524Y-17928429D01*
X11505000Y-17937952D01*
X11485952Y-17947476D01*
X11466905Y-17947476D01*
X11447857Y-17937952D01*
X11438333Y-17928429D01*
X11428809Y-17909381D01*
X11419286Y-17871286D01*
X11419286Y-17823667D01*
X11428809Y-17785571D01*
X11438333Y-17766524D01*
X11447857Y-17757000D01*
X11466905Y-17747476D01*
X11657381Y-17747476D02*
X11676428Y-17747476D01*
X11695476Y-17757000D01*
X11705000Y-17766524D01*
X11714524Y-17785571D01*
X11724048Y-17823667D01*
X11724048Y-17871286D01*
X11714524Y-17909381D01*
X11705000Y-17928429D01*
X11695476Y-17937952D01*
X11676428Y-17947476D01*
X11657381Y-17947476D01*
X11638333Y-17937952D01*
X11628809Y-17928429D01*
X11619286Y-17909381D01*
X11609762Y-17871286D01*
X11609762Y-17823667D01*
X11619286Y-17785571D01*
X11628809Y-17766524D01*
X11638333Y-17757000D01*
X11657381Y-17747476D01*
X11809762Y-17947476D02*
X11809762Y-17814143D01*
X11809762Y-17833190D02*
X11819286Y-17823667D01*
X11838333Y-17814143D01*
X11866905Y-17814143D01*
X11885952Y-17823667D01*
X11895476Y-17842714D01*
X11895476Y-17947476D01*
X11895476Y-17842714D02*
X11905000Y-17823667D01*
X11924048Y-17814143D01*
X11952619Y-17814143D01*
X11971667Y-17823667D01*
X11981190Y-17842714D01*
X11981190Y-17947476D01*
X12076428Y-17947476D02*
X12076428Y-17814143D01*
X12076428Y-17833190D02*
X12085952Y-17823667D01*
X12105000Y-17814143D01*
X12133571Y-17814143D01*
X12152619Y-17823667D01*
X12162143Y-17842714D01*
X12162143Y-17947476D01*
X12162143Y-17842714D02*
X12171667Y-17823667D01*
X12190714Y-17814143D01*
X12219286Y-17814143D01*
X12238333Y-17823667D01*
X12247857Y-17842714D01*
X12247857Y-17947476D01*
X12638333Y-17737952D02*
X12466905Y-17995095D01*
X12895476Y-17747476D02*
X12914524Y-17747476D01*
X12933571Y-17757000D01*
X12943095Y-17766524D01*
X12952619Y-17785571D01*
X12962143Y-17823667D01*
X12962143Y-17871286D01*
X12952619Y-17909381D01*
X12943095Y-17928429D01*
X12933571Y-17937952D01*
X12914524Y-17947476D01*
X12895476Y-17947476D01*
X12876428Y-17937952D01*
X12866905Y-17928429D01*
X12857381Y-17909381D01*
X12847857Y-17871286D01*
X12847857Y-17823667D01*
X12857381Y-17785571D01*
X12866905Y-17766524D01*
X12876428Y-17757000D01*
X12895476Y-17747476D01*
X13047857Y-17928429D02*
X13057381Y-17937952D01*
X13047857Y-17947476D01*
X13038333Y-17937952D01*
X13047857Y-17928429D01*
X13047857Y-17947476D01*
X13247857Y-17947476D02*
X13133571Y-17947476D01*
X13190714Y-17947476D02*
X13190714Y-17747476D01*
X13171667Y-17776048D01*
X13152619Y-17795095D01*
X13133571Y-17804619D01*
X13324048Y-17766524D02*
X13333571Y-17757000D01*
X13352619Y-17747476D01*
X13400238Y-17747476D01*
X13419286Y-17757000D01*
X13428809Y-17766524D01*
X13438333Y-17785571D01*
X13438333Y-17804619D01*
X13428809Y-17833190D01*
X13314524Y-17947476D01*
X13438333Y-17947476D01*
X13609762Y-17747476D02*
X13571667Y-17747476D01*
X13552619Y-17757000D01*
X13543095Y-17766524D01*
X13524048Y-17795095D01*
X13514524Y-17833190D01*
X13514524Y-17909381D01*
X13524048Y-17928429D01*
X13533571Y-17937952D01*
X13552619Y-17947476D01*
X13590714Y-17947476D01*
X13609762Y-17937952D01*
X13619286Y-17928429D01*
X13628809Y-17909381D01*
X13628809Y-17861762D01*
X13619286Y-17842714D01*
X13609762Y-17833190D01*
X13590714Y-17823667D01*
X13552619Y-17823667D01*
X13533571Y-17833190D01*
X13524048Y-17842714D01*
X13514524Y-17861762D01*
X13752619Y-17747476D02*
X13771667Y-17747476D01*
X13790714Y-17757000D01*
X13800238Y-17766524D01*
X13809762Y-17785571D01*
X13819286Y-17823667D01*
X13819286Y-17871286D01*
X13809762Y-17909381D01*
X13800238Y-17928429D01*
X13790714Y-17937952D01*
X13771667Y-17947476D01*
X13752619Y-17947476D01*
X13733571Y-17937952D01*
X13724048Y-17928429D01*
X13714524Y-17909381D01*
X13705000Y-17871286D01*
X13705000Y-17823667D01*
X13714524Y-17785571D01*
X13724048Y-17766524D01*
X13733571Y-17757000D01*
X13752619Y-17747476D01*
X13895476Y-17747476D02*
X13895476Y-17785571D01*
X13971667Y-17747476D02*
X13971667Y-17785571D01*
X14266905Y-18023667D02*
X14257381Y-18014143D01*
X14238333Y-17985571D01*
X14228809Y-17966524D01*
X14219286Y-17937952D01*
X14209762Y-17890333D01*
X14209762Y-17852238D01*
X14219286Y-17804619D01*
X14228809Y-17776048D01*
X14238333Y-17757000D01*
X14257381Y-17728429D01*
X14266905Y-17718905D01*
X14428809Y-17814143D02*
X14428809Y-17947476D01*
X14381190Y-17737952D02*
X14333571Y-17880810D01*
X14457381Y-17880810D01*
X14685952Y-17947476D02*
X14685952Y-17747476D01*
X14771667Y-17947476D02*
X14771667Y-17842714D01*
X14762143Y-17823667D01*
X14743095Y-17814143D01*
X14714524Y-17814143D01*
X14695476Y-17823667D01*
X14685952Y-17833190D01*
X14895476Y-17947476D02*
X14876428Y-17937952D01*
X14866905Y-17928429D01*
X14857381Y-17909381D01*
X14857381Y-17852238D01*
X14866905Y-17833190D01*
X14876428Y-17823667D01*
X14895476Y-17814143D01*
X14924048Y-17814143D01*
X14943095Y-17823667D01*
X14952619Y-17833190D01*
X14962143Y-17852238D01*
X14962143Y-17909381D01*
X14952619Y-17928429D01*
X14943095Y-17937952D01*
X14924048Y-17947476D01*
X14895476Y-17947476D01*
X15076428Y-17947476D02*
X15057381Y-17937952D01*
X15047857Y-17918905D01*
X15047857Y-17747476D01*
X15228809Y-17937952D02*
X15209762Y-17947476D01*
X15171667Y-17947476D01*
X15152619Y-17937952D01*
X15143095Y-17918905D01*
X15143095Y-17842714D01*
X15152619Y-17823667D01*
X15171667Y-17814143D01*
X15209762Y-17814143D01*
X15228809Y-17823667D01*
X15238333Y-17842714D01*
X15238333Y-17861762D01*
X15143095Y-17880810D01*
X15314524Y-17937952D02*
X15333571Y-17947476D01*
X15371667Y-17947476D01*
X15390714Y-17937952D01*
X15400238Y-17918905D01*
X15400238Y-17909381D01*
X15390714Y-17890333D01*
X15371667Y-17880810D01*
X15343095Y-17880810D01*
X15324048Y-17871286D01*
X15314524Y-17852238D01*
X15314524Y-17842714D01*
X15324048Y-17823667D01*
X15343095Y-17814143D01*
X15371667Y-17814143D01*
X15390714Y-17823667D01*
X15466905Y-18023667D02*
X15476428Y-18014143D01*
X15495476Y-17985571D01*
X15505000Y-17966524D01*
X15514524Y-17937952D01*
X15524048Y-17890333D01*
X15524048Y-17852238D01*
X15514524Y-17804619D01*
X15505000Y-17776048D01*
X15495476Y-17757000D01*
X15476428Y-17728429D01*
X15466905Y-17718905D01*
M02*
