%TF.GenerationSoftware,KiCad,Pcbnew,(6.0.2)*%
%TF.CreationDate,2022-03-15T10:04:13+02:00*%
%TF.ProjectId,C-DAO,432d4441-4f2e-46b6-9963-61645f706362,0.1*%
%TF.SameCoordinates,Original*%
%TF.FileFunction,Copper,L2,Bot*%
%TF.FilePolarity,Positive*%
%FSLAX46Y46*%
G04 Gerber Fmt 4.6, Leading zero omitted, Abs format (unit mm)*
G04 Created by KiCad (PCBNEW (6.0.2)) date 2022-03-15 10:04:13*
%MOMM*%
%LPD*%
G01*
G04 APERTURE LIST*
%TA.AperFunction,ComponentPad*%
%ADD10C,1.498600*%
%TD*%
%TA.AperFunction,ComponentPad*%
%ADD11C,1.803400*%
%TD*%
%TA.AperFunction,ComponentPad*%
%ADD12R,1.800000X1.800000*%
%TD*%
%TA.AperFunction,ComponentPad*%
%ADD13C,1.800000*%
%TD*%
%TA.AperFunction,ConnectorPad*%
%ADD14C,5.600000*%
%TD*%
%TA.AperFunction,ComponentPad*%
%ADD15C,3.600000*%
%TD*%
%TA.AperFunction,ComponentPad*%
%ADD16C,2.800000*%
%TD*%
%TA.AperFunction,ComponentPad*%
%ADD17R,1.700000X1.700000*%
%TD*%
%TA.AperFunction,ComponentPad*%
%ADD18O,1.700000X1.700000*%
%TD*%
%TA.AperFunction,ComponentPad*%
%ADD19R,1.905000X2.000000*%
%TD*%
%TA.AperFunction,ComponentPad*%
%ADD20O,1.905000X2.000000*%
%TD*%
%TA.AperFunction,ComponentPad*%
%ADD21R,1.600000X2.400000*%
%TD*%
%TA.AperFunction,ComponentPad*%
%ADD22O,1.600000X2.400000*%
%TD*%
%TA.AperFunction,ComponentPad*%
%ADD23R,1.600000X1.600000*%
%TD*%
%TA.AperFunction,ComponentPad*%
%ADD24O,1.600000X1.600000*%
%TD*%
%TA.AperFunction,ComponentPad*%
%ADD25C,2.400000*%
%TD*%
%TA.AperFunction,ViaPad*%
%ADD26C,1.200000*%
%TD*%
%TA.AperFunction,Conductor*%
%ADD27C,0.800000*%
%TD*%
%TA.AperFunction,Conductor*%
%ADD28C,0.400000*%
%TD*%
G04 APERTURE END LIST*
D10*
X112000000Y-95500000D03*
X112000000Y-99995800D03*
D11*
X114489200Y-94242700D03*
X114489200Y-101253100D03*
D10*
X112000000Y-85500000D03*
X112000000Y-89995800D03*
D11*
X114489200Y-84242700D03*
X114489200Y-91253100D03*
D10*
X112000000Y-75500000D03*
X112000000Y-79995800D03*
D11*
X114489200Y-74242700D03*
X114489200Y-81253100D03*
D10*
X113363800Y-114720600D03*
X113363800Y-119216400D03*
D11*
X115853000Y-113463300D03*
X115853000Y-120473700D03*
D12*
X118000000Y-76480000D03*
D13*
X118000000Y-79020000D03*
D12*
X118000000Y-96480000D03*
D13*
X118000000Y-99020000D03*
D12*
X118000000Y-86480000D03*
D13*
X118000000Y-89020000D03*
D14*
X110000000Y-148000000D03*
D15*
X110000000Y-148000000D03*
D14*
X154000000Y-54000000D03*
D15*
X154000000Y-54000000D03*
D16*
X109400000Y-60300000D03*
X109400000Y-69700000D03*
X113200000Y-69700000D03*
X113200000Y-60300000D03*
D17*
X120000000Y-110000000D03*
D18*
X117460000Y-110000000D03*
X120000000Y-107460000D03*
X117460000Y-107460000D03*
X120000000Y-104920000D03*
X117460000Y-104920000D03*
D15*
X154000000Y-148000000D03*
D14*
X154000000Y-148000000D03*
D17*
X150000000Y-131000000D03*
D18*
X152540000Y-131000000D03*
X150000000Y-133540000D03*
X152540000Y-133540000D03*
X150000000Y-136080000D03*
X152540000Y-136080000D03*
X150000000Y-138620000D03*
X152540000Y-138620000D03*
X150000000Y-141160000D03*
X152540000Y-141160000D03*
D19*
X149540000Y-118055000D03*
D20*
X147000000Y-118055000D03*
X144460000Y-118055000D03*
D21*
X128600000Y-119800000D03*
D22*
X131140000Y-119800000D03*
X133680000Y-119800000D03*
X136220000Y-119800000D03*
X136220000Y-112180000D03*
X133680000Y-112180000D03*
X131140000Y-112180000D03*
X128600000Y-112180000D03*
D15*
X110000000Y-54000000D03*
D14*
X110000000Y-54000000D03*
D23*
X130600000Y-130590000D03*
D24*
X130600000Y-138210000D03*
D25*
X118300000Y-133200000D03*
X118300000Y-125700000D03*
X118300000Y-140700000D03*
X120800000Y-128200000D03*
X120800000Y-138200000D03*
X108300000Y-138200000D03*
X108300000Y-128200000D03*
D26*
X147447000Y-89662000D03*
X118237000Y-67818000D03*
X140716000Y-65532000D03*
X124079000Y-112649000D03*
X124206000Y-109347000D03*
X130302000Y-61468000D03*
X147955000Y-104521000D03*
X139446000Y-62484000D03*
X126365000Y-57023000D03*
X128397000Y-84709000D03*
X146050000Y-95377000D03*
X119380000Y-70104000D03*
X141986000Y-99822000D03*
X132715000Y-62992000D03*
X137000000Y-101000000D03*
X151003000Y-99822000D03*
X128778000Y-102997000D03*
X123952000Y-80010000D03*
X129921000Y-83312000D03*
X133731000Y-83947000D03*
X131826000Y-85598000D03*
X134493000Y-81661000D03*
D27*
X137795000Y-65532000D02*
X137160000Y-65532000D01*
X137160000Y-65532000D02*
X136144000Y-65532000D01*
X133477000Y-68199000D02*
X118618000Y-68199000D01*
X138176000Y-65532000D02*
X137795000Y-65532000D01*
X136144000Y-65532000D02*
X133477000Y-68199000D01*
X140716000Y-65532000D02*
X138176000Y-65532000D01*
X118618000Y-68199000D02*
X118237000Y-67818000D01*
D28*
X128600000Y-105461000D02*
X128600000Y-112180000D01*
X136000000Y-81000000D02*
X135000000Y-80000000D01*
X129921000Y-83312000D02*
X127254000Y-83312000D01*
X136000000Y-95775000D02*
X136000000Y-81000000D01*
X127254000Y-83312000D02*
X123952000Y-80010000D01*
X128778000Y-102997000D02*
X136000000Y-95775000D01*
X128778000Y-102997000D02*
X128778000Y-105283000D01*
X133233000Y-80000000D02*
X129921000Y-83312000D01*
X135000000Y-80000000D02*
X133233000Y-80000000D01*
X128778000Y-105283000D02*
X128600000Y-105461000D01*
X120000000Y-110000000D02*
X133731000Y-96269000D01*
X133731000Y-96269000D02*
X133731000Y-83947000D01*
X124079000Y-104775000D02*
X121394000Y-107460000D01*
X131826000Y-85598000D02*
X124079000Y-93345000D01*
X121394000Y-107460000D02*
X120000000Y-107460000D01*
X124079000Y-93345000D02*
X124079000Y-104775000D01*
X133477000Y-81661000D02*
X122682000Y-92456000D01*
X134493000Y-81661000D02*
X133477000Y-81661000D01*
X118745000Y-106175000D02*
X117460000Y-107460000D01*
X122682000Y-100470924D02*
X118745000Y-104407924D01*
X122682000Y-92456000D02*
X122682000Y-100470924D01*
X118745000Y-104407924D02*
X118745000Y-106175000D01*
%TA.AperFunction,Conductor*%
G36*
X151883142Y-51528002D02*
G01*
X151904116Y-51544905D01*
X153987190Y-53627980D01*
X154001131Y-53635592D01*
X154002966Y-53635461D01*
X154009580Y-53631210D01*
X155391587Y-52249203D01*
X155453899Y-52215177D01*
X155524714Y-52220242D01*
X155569777Y-52249203D01*
X155750797Y-52430223D01*
X155784823Y-52492535D01*
X155779758Y-52563350D01*
X155750797Y-52608413D01*
X154372022Y-53987188D01*
X154364408Y-54001132D01*
X154364539Y-54002965D01*
X154368790Y-54009580D01*
X156455095Y-56095884D01*
X156489120Y-56158196D01*
X156492000Y-56184979D01*
X156492000Y-145815021D01*
X156471998Y-145883142D01*
X156455095Y-145904116D01*
X154372020Y-147987190D01*
X154364408Y-148001131D01*
X154364539Y-148002966D01*
X154368790Y-148009580D01*
X155750797Y-149391587D01*
X155784823Y-149453899D01*
X155779758Y-149524714D01*
X155750797Y-149569777D01*
X155569777Y-149750797D01*
X155507465Y-149784823D01*
X155436650Y-149779758D01*
X155391587Y-149750797D01*
X154012812Y-148372022D01*
X153998868Y-148364408D01*
X153997035Y-148364539D01*
X153990420Y-148368790D01*
X151904116Y-150455095D01*
X151841804Y-150489120D01*
X151815021Y-150492000D01*
X112184979Y-150492000D01*
X112116858Y-150471998D01*
X112095884Y-150455095D01*
X110012810Y-148372020D01*
X109998869Y-148364408D01*
X109997034Y-148364539D01*
X109990420Y-148368790D01*
X108608413Y-149750797D01*
X108546101Y-149784823D01*
X108475286Y-149779758D01*
X108430223Y-149750797D01*
X108249203Y-149569777D01*
X108215177Y-149507465D01*
X108220242Y-149436650D01*
X108249203Y-149391587D01*
X109627978Y-148012812D01*
X109634356Y-148001131D01*
X110364408Y-148001131D01*
X110364539Y-148002966D01*
X110368790Y-148009580D01*
X112499009Y-150139798D01*
X112512605Y-150147223D01*
X112522218Y-150140522D01*
X112622518Y-150023912D01*
X112626676Y-150018514D01*
X112825762Y-149728840D01*
X112829310Y-149723029D01*
X112995942Y-149413559D01*
X112998849Y-149407381D01*
X113131090Y-149081713D01*
X113133304Y-149075283D01*
X113229598Y-148737237D01*
X113231105Y-148730607D01*
X113290332Y-148384118D01*
X113291112Y-148377378D01*
X113312668Y-148024925D01*
X113312784Y-148021323D01*
X113312853Y-148001819D01*
X113312761Y-147998194D01*
X113312416Y-147991832D01*
X150687333Y-147991832D01*
X150705117Y-148342893D01*
X150705827Y-148349649D01*
X150761420Y-148696723D01*
X150762859Y-148703378D01*
X150855608Y-149042410D01*
X150857757Y-149048871D01*
X150986581Y-149375912D01*
X150989412Y-149382095D01*
X151152803Y-149693310D01*
X151156286Y-149699152D01*
X151352330Y-149990896D01*
X151356433Y-149996340D01*
X151476425Y-150138836D01*
X151489164Y-150147279D01*
X151499608Y-150141181D01*
X153627980Y-148012810D01*
X153635592Y-147998869D01*
X153635461Y-147997034D01*
X153631210Y-147990420D01*
X151500992Y-145860203D01*
X151487455Y-145852811D01*
X151477753Y-145859599D01*
X151370430Y-145985257D01*
X151366296Y-145990664D01*
X151168215Y-146281041D01*
X151164697Y-146286851D01*
X150999134Y-146596922D01*
X150996259Y-146603087D01*
X150865155Y-146929218D01*
X150862962Y-146935658D01*
X150767846Y-147274044D01*
X150766363Y-147280679D01*
X150708350Y-147627354D01*
X150707591Y-147634126D01*
X150687357Y-147985037D01*
X150687333Y-147991832D01*
X113312416Y-147991832D01*
X113293666Y-147645615D01*
X113292931Y-147638849D01*
X113236130Y-147291985D01*
X113234663Y-147285313D01*
X113140736Y-146946627D01*
X113138562Y-146940163D01*
X113008598Y-146613578D01*
X113005742Y-146607398D01*
X112841269Y-146296763D01*
X112837769Y-146290937D01*
X112640697Y-145999862D01*
X112636590Y-145994453D01*
X112523565Y-145861179D01*
X112510740Y-145852743D01*
X112500416Y-145858795D01*
X110372020Y-147987190D01*
X110364408Y-148001131D01*
X109634356Y-148001131D01*
X109635592Y-147998868D01*
X109635461Y-147997035D01*
X109631210Y-147990420D01*
X107544905Y-145904116D01*
X107510880Y-145841804D01*
X107508000Y-145815021D01*
X107508000Y-145486862D01*
X107849950Y-145486862D01*
X107849986Y-145487704D01*
X107855037Y-145495826D01*
X109291589Y-146932379D01*
X109987190Y-147627980D01*
X110001131Y-147635592D01*
X110002966Y-147635461D01*
X110009580Y-147631210D01*
X112142798Y-145497991D01*
X112148875Y-145486862D01*
X151849950Y-145486862D01*
X151849986Y-145487704D01*
X151855037Y-145495826D01*
X153987190Y-147627980D01*
X154001131Y-147635592D01*
X154002966Y-147635461D01*
X154009580Y-147631210D01*
X156142798Y-145497991D01*
X156150412Y-145484047D01*
X156150344Y-145483089D01*
X156145836Y-145476272D01*
X156144418Y-145475065D01*
X155864813Y-145262064D01*
X155859187Y-145258240D01*
X155558214Y-145076681D01*
X155552202Y-145073484D01*
X155233370Y-144925487D01*
X155227070Y-144922967D01*
X154894129Y-144810273D01*
X154887551Y-144808437D01*
X154544417Y-144732367D01*
X154537678Y-144731251D01*
X154188310Y-144692680D01*
X154181529Y-144692301D01*
X153830015Y-144691687D01*
X153823242Y-144692042D01*
X153473720Y-144729395D01*
X153467010Y-144730482D01*
X153123586Y-144805361D01*
X153117011Y-144807172D01*
X152783683Y-144918702D01*
X152777361Y-144921205D01*
X152458034Y-145068079D01*
X152451991Y-145071265D01*
X152150401Y-145251763D01*
X152144755Y-145255571D01*
X151864408Y-145467596D01*
X151859211Y-145471987D01*
X151857972Y-145473155D01*
X151849950Y-145486862D01*
X112148875Y-145486862D01*
X112150412Y-145484047D01*
X112150344Y-145483089D01*
X112145836Y-145476272D01*
X112144418Y-145475065D01*
X111864813Y-145262064D01*
X111859187Y-145258240D01*
X111558214Y-145076681D01*
X111552202Y-145073484D01*
X111233370Y-144925487D01*
X111227070Y-144922967D01*
X110894129Y-144810273D01*
X110887551Y-144808437D01*
X110544417Y-144732367D01*
X110537678Y-144731251D01*
X110188310Y-144692680D01*
X110181529Y-144692301D01*
X109830015Y-144691687D01*
X109823242Y-144692042D01*
X109473720Y-144729395D01*
X109467010Y-144730482D01*
X109123586Y-144805361D01*
X109117011Y-144807172D01*
X108783683Y-144918702D01*
X108777361Y-144921205D01*
X108458034Y-145068079D01*
X108451991Y-145071265D01*
X108150401Y-145251763D01*
X108144755Y-145255571D01*
X107864408Y-145467596D01*
X107859211Y-145471987D01*
X107857972Y-145473155D01*
X107849950Y-145486862D01*
X107508000Y-145486862D01*
X107508000Y-140655151D01*
X116587296Y-140655151D01*
X116587520Y-140659817D01*
X116587520Y-140659822D01*
X116590445Y-140720702D01*
X116599480Y-140908798D01*
X116649021Y-141157857D01*
X116650600Y-141162255D01*
X116650602Y-141162262D01*
X116695022Y-141285980D01*
X116734831Y-141396858D01*
X116737048Y-141400984D01*
X116762348Y-141448069D01*
X116855025Y-141620551D01*
X116857820Y-141624294D01*
X116857822Y-141624297D01*
X117004171Y-141820282D01*
X117004176Y-141820288D01*
X117006963Y-141824020D01*
X117010272Y-141827300D01*
X117010277Y-141827306D01*
X117183990Y-141999509D01*
X117187307Y-142002797D01*
X117191069Y-142005555D01*
X117191072Y-142005558D01*
X117237080Y-142039292D01*
X117392094Y-142152953D01*
X117396229Y-142155129D01*
X117396233Y-142155131D01*
X117476819Y-142197529D01*
X117616827Y-142271191D01*
X117856568Y-142354912D01*
X118106050Y-142402278D01*
X118226532Y-142407011D01*
X118355125Y-142412064D01*
X118355130Y-142412064D01*
X118359793Y-142412247D01*
X118458774Y-142401407D01*
X118607569Y-142385112D01*
X118607575Y-142385111D01*
X118612222Y-142384602D01*
X118721680Y-142355784D01*
X118853273Y-142321138D01*
X118857793Y-142319948D01*
X118976353Y-142269011D01*
X119086807Y-142221557D01*
X119086810Y-142221555D01*
X119091110Y-142219708D01*
X119095090Y-142217245D01*
X119095094Y-142217243D01*
X119303064Y-142088547D01*
X119303066Y-142088545D01*
X119307047Y-142086082D01*
X119405428Y-142002797D01*
X119497289Y-141925031D01*
X119497291Y-141925029D01*
X119500862Y-141922006D01*
X119668295Y-141731084D01*
X119716040Y-141656857D01*
X119803141Y-141521442D01*
X119805669Y-141517512D01*
X119909967Y-141285980D01*
X119954890Y-141126695D01*
X148637251Y-141126695D01*
X148637548Y-141131848D01*
X148637548Y-141131851D01*
X148643011Y-141226590D01*
X148650110Y-141349715D01*
X148651247Y-141354761D01*
X148651248Y-141354767D01*
X148660734Y-141396858D01*
X148699222Y-141567639D01*
X148783266Y-141774616D01*
X148834019Y-141857438D01*
X148897291Y-141960688D01*
X148899987Y-141965088D01*
X149046250Y-142133938D01*
X149218126Y-142276632D01*
X149411000Y-142389338D01*
X149415825Y-142391180D01*
X149415826Y-142391181D01*
X149488612Y-142418975D01*
X149619692Y-142469030D01*
X149624760Y-142470061D01*
X149624763Y-142470062D01*
X149732017Y-142491883D01*
X149838597Y-142513567D01*
X149843772Y-142513757D01*
X149843774Y-142513757D01*
X150056673Y-142521564D01*
X150056677Y-142521564D01*
X150061837Y-142521753D01*
X150066957Y-142521097D01*
X150066959Y-142521097D01*
X150278288Y-142494025D01*
X150278289Y-142494025D01*
X150283416Y-142493368D01*
X150288366Y-142491883D01*
X150492429Y-142430661D01*
X150492434Y-142430659D01*
X150497384Y-142429174D01*
X150697994Y-142330896D01*
X150879860Y-142201173D01*
X150931024Y-142150188D01*
X151034435Y-142047137D01*
X151038096Y-142043489D01*
X151097594Y-141960689D01*
X151168453Y-141862077D01*
X151169776Y-141863028D01*
X151216645Y-141819857D01*
X151286580Y-141807625D01*
X151352026Y-141835144D01*
X151379875Y-141866994D01*
X151439987Y-141965088D01*
X151586250Y-142133938D01*
X151758126Y-142276632D01*
X151951000Y-142389338D01*
X151955825Y-142391180D01*
X151955826Y-142391181D01*
X152028612Y-142418975D01*
X152159692Y-142469030D01*
X152164760Y-142470061D01*
X152164763Y-142470062D01*
X152272017Y-142491883D01*
X152378597Y-142513567D01*
X152383772Y-142513757D01*
X152383774Y-142513757D01*
X152596673Y-142521564D01*
X152596677Y-142521564D01*
X152601837Y-142521753D01*
X152606957Y-142521097D01*
X152606959Y-142521097D01*
X152818288Y-142494025D01*
X152818289Y-142494025D01*
X152823416Y-142493368D01*
X152828366Y-142491883D01*
X153032429Y-142430661D01*
X153032434Y-142430659D01*
X153037384Y-142429174D01*
X153237994Y-142330896D01*
X153419860Y-142201173D01*
X153471024Y-142150188D01*
X153574435Y-142047137D01*
X153578096Y-142043489D01*
X153637594Y-141960689D01*
X153705435Y-141866277D01*
X153708453Y-141862077D01*
X153729110Y-141820282D01*
X153805136Y-141666453D01*
X153805137Y-141666451D01*
X153807430Y-141661811D01*
X153872370Y-141448069D01*
X153901529Y-141226590D01*
X153903156Y-141160000D01*
X153884852Y-140937361D01*
X153830431Y-140720702D01*
X153741354Y-140515840D01*
X153620014Y-140328277D01*
X153469670Y-140163051D01*
X153465619Y-140159852D01*
X153465615Y-140159848D01*
X153298414Y-140027800D01*
X153298410Y-140027798D01*
X153294359Y-140024598D01*
X153252569Y-140001529D01*
X153202598Y-139951097D01*
X153187826Y-139881654D01*
X153212942Y-139815248D01*
X153240294Y-139788641D01*
X153415328Y-139663792D01*
X153423200Y-139657139D01*
X153574052Y-139506812D01*
X153580730Y-139498965D01*
X153705003Y-139326020D01*
X153710313Y-139317183D01*
X153804670Y-139126267D01*
X153808469Y-139116672D01*
X153870377Y-138912910D01*
X153872555Y-138902837D01*
X153873986Y-138891962D01*
X153871775Y-138877778D01*
X153858617Y-138874000D01*
X148683225Y-138874000D01*
X148669694Y-138877973D01*
X148668257Y-138887966D01*
X148698565Y-139022446D01*
X148701645Y-139032275D01*
X148781770Y-139229603D01*
X148786413Y-139238794D01*
X148897694Y-139420388D01*
X148903777Y-139428699D01*
X149043213Y-139589667D01*
X149050580Y-139596883D01*
X149214434Y-139732916D01*
X149222881Y-139738831D01*
X149291969Y-139779203D01*
X149340693Y-139830842D01*
X149353764Y-139900625D01*
X149327033Y-139966396D01*
X149286584Y-139999752D01*
X149273607Y-140006507D01*
X149269474Y-140009610D01*
X149269471Y-140009612D01*
X149245247Y-140027800D01*
X149094965Y-140140635D01*
X148940629Y-140302138D01*
X148937720Y-140306403D01*
X148937714Y-140306411D01*
X148868996Y-140407148D01*
X148814743Y-140486680D01*
X148799003Y-140520590D01*
X148736542Y-140655151D01*
X148720688Y-140689305D01*
X148660989Y-140904570D01*
X148637251Y-141126695D01*
X119954890Y-141126695D01*
X119978896Y-141041575D01*
X120010943Y-140789667D01*
X120013291Y-140700000D01*
X119999379Y-140512792D01*
X119994818Y-140451411D01*
X119994817Y-140451407D01*
X119994472Y-140446759D01*
X119962713Y-140306403D01*
X119939459Y-140203639D01*
X119938428Y-140199082D01*
X119936735Y-140194728D01*
X119848084Y-139966762D01*
X119848083Y-139966760D01*
X119846391Y-139962409D01*
X119788321Y-139860807D01*
X119771884Y-139791741D01*
X119795397Y-139724751D01*
X119851395Y-139681108D01*
X119922099Y-139674667D01*
X119956381Y-139686777D01*
X120112679Y-139769009D01*
X120112683Y-139769011D01*
X120116827Y-139771191D01*
X120356568Y-139854912D01*
X120606050Y-139902278D01*
X120726532Y-139907011D01*
X120855125Y-139912064D01*
X120855130Y-139912064D01*
X120859793Y-139912247D01*
X120965915Y-139900625D01*
X121107569Y-139885112D01*
X121107575Y-139885111D01*
X121112222Y-139884602D01*
X121221680Y-139855784D01*
X121353273Y-139821138D01*
X121357793Y-139819948D01*
X121476358Y-139769009D01*
X121586807Y-139721557D01*
X121586810Y-139721555D01*
X121591110Y-139719708D01*
X121595090Y-139717245D01*
X121595094Y-139717243D01*
X121803064Y-139588547D01*
X121803066Y-139588545D01*
X121807047Y-139586082D01*
X121858508Y-139542517D01*
X121997289Y-139425031D01*
X121997291Y-139425029D01*
X122000862Y-139422006D01*
X122168295Y-139231084D01*
X122174614Y-139221261D01*
X122296173Y-139032275D01*
X122305669Y-139017512D01*
X122409967Y-138785980D01*
X122478896Y-138541575D01*
X122501738Y-138362027D01*
X122510545Y-138292798D01*
X122510545Y-138292792D01*
X122510943Y-138289667D01*
X122513029Y-138210000D01*
X129286502Y-138210000D01*
X129306457Y-138438087D01*
X129365716Y-138659243D01*
X129368039Y-138664224D01*
X129368039Y-138664225D01*
X129460151Y-138861762D01*
X129460154Y-138861767D01*
X129462477Y-138866749D01*
X129535902Y-138971611D01*
X129579621Y-139034047D01*
X129593802Y-139054300D01*
X129755700Y-139216198D01*
X129760208Y-139219355D01*
X129760211Y-139219357D01*
X129774844Y-139229603D01*
X129943251Y-139347523D01*
X129948233Y-139349846D01*
X129948238Y-139349849D01*
X130145775Y-139441961D01*
X130150757Y-139444284D01*
X130156065Y-139445706D01*
X130156067Y-139445707D01*
X130366598Y-139502119D01*
X130366600Y-139502119D01*
X130371913Y-139503543D01*
X130600000Y-139523498D01*
X130828087Y-139503543D01*
X130833400Y-139502119D01*
X130833402Y-139502119D01*
X131043933Y-139445707D01*
X131043935Y-139445706D01*
X131049243Y-139444284D01*
X131054225Y-139441961D01*
X131251762Y-139349849D01*
X131251767Y-139349846D01*
X131256749Y-139347523D01*
X131425156Y-139229603D01*
X131439789Y-139219357D01*
X131439792Y-139219355D01*
X131444300Y-139216198D01*
X131606198Y-139054300D01*
X131620380Y-139034047D01*
X131664098Y-138971611D01*
X131737523Y-138866749D01*
X131739846Y-138861767D01*
X131739849Y-138861762D01*
X131831961Y-138664225D01*
X131831961Y-138664224D01*
X131834284Y-138659243D01*
X131893543Y-138438087D01*
X131900884Y-138354183D01*
X148664389Y-138354183D01*
X148665912Y-138362607D01*
X148678292Y-138366000D01*
X149727885Y-138366000D01*
X149743124Y-138361525D01*
X149744329Y-138360135D01*
X149746000Y-138352452D01*
X149746000Y-138347885D01*
X150254000Y-138347885D01*
X150258475Y-138363124D01*
X150259865Y-138364329D01*
X150267548Y-138366000D01*
X152267885Y-138366000D01*
X152283124Y-138361525D01*
X152284329Y-138360135D01*
X152286000Y-138352452D01*
X152286000Y-138347885D01*
X152794000Y-138347885D01*
X152798475Y-138363124D01*
X152799865Y-138364329D01*
X152807548Y-138366000D01*
X153858344Y-138366000D01*
X153871875Y-138362027D01*
X153873180Y-138352947D01*
X153831214Y-138185875D01*
X153827894Y-138176124D01*
X153742972Y-137980814D01*
X153738105Y-137971739D01*
X153622426Y-137792926D01*
X153616136Y-137784757D01*
X153472806Y-137627240D01*
X153465273Y-137620215D01*
X153298139Y-137488222D01*
X153289552Y-137482517D01*
X153252116Y-137461851D01*
X153202146Y-137411419D01*
X153187374Y-137341976D01*
X153212490Y-137275571D01*
X153239842Y-137248964D01*
X153415327Y-137123792D01*
X153423200Y-137117139D01*
X153574052Y-136966812D01*
X153580730Y-136958965D01*
X153705003Y-136786020D01*
X153710313Y-136777183D01*
X153804670Y-136586267D01*
X153808469Y-136576672D01*
X153870377Y-136372910D01*
X153872555Y-136362837D01*
X153873986Y-136351962D01*
X153871775Y-136337778D01*
X153858617Y-136334000D01*
X152812115Y-136334000D01*
X152796876Y-136338475D01*
X152795671Y-136339865D01*
X152794000Y-136347548D01*
X152794000Y-138347885D01*
X152286000Y-138347885D01*
X152286000Y-136352115D01*
X152281525Y-136336876D01*
X152280135Y-136335671D01*
X152272452Y-136334000D01*
X150272115Y-136334000D01*
X150256876Y-136338475D01*
X150255671Y-136339865D01*
X150254000Y-136347548D01*
X150254000Y-138347885D01*
X149746000Y-138347885D01*
X149746000Y-136352115D01*
X149741525Y-136336876D01*
X149740135Y-136335671D01*
X149732452Y-136334000D01*
X148683225Y-136334000D01*
X148669694Y-136337973D01*
X148668257Y-136347966D01*
X148698565Y-136482446D01*
X148701645Y-136492275D01*
X148781770Y-136689603D01*
X148786413Y-136698794D01*
X148897694Y-136880388D01*
X148903777Y-136888699D01*
X149043213Y-137049667D01*
X149050580Y-137056883D01*
X149214434Y-137192916D01*
X149222881Y-137198831D01*
X149292479Y-137239501D01*
X149341203Y-137291140D01*
X149354274Y-137360923D01*
X149327543Y-137426694D01*
X149287087Y-137460053D01*
X149278462Y-137464542D01*
X149269738Y-137470036D01*
X149099433Y-137597905D01*
X149091726Y-137604748D01*
X148944590Y-137758717D01*
X148938104Y-137766727D01*
X148818098Y-137942649D01*
X148813000Y-137951623D01*
X148723338Y-138144783D01*
X148719775Y-138154470D01*
X148664389Y-138354183D01*
X131900884Y-138354183D01*
X131913498Y-138210000D01*
X131893543Y-137981913D01*
X131885370Y-137951411D01*
X131835707Y-137766067D01*
X131835706Y-137766065D01*
X131834284Y-137760757D01*
X131805525Y-137699082D01*
X131739849Y-137558238D01*
X131739846Y-137558233D01*
X131737523Y-137553251D01*
X131606198Y-137365700D01*
X131444300Y-137203802D01*
X131439792Y-137200645D01*
X131439789Y-137200643D01*
X131330034Y-137123792D01*
X131256749Y-137072477D01*
X131251767Y-137070154D01*
X131251762Y-137070151D01*
X131054225Y-136978039D01*
X131054224Y-136978039D01*
X131049243Y-136975716D01*
X131043935Y-136974294D01*
X131043933Y-136974293D01*
X130833402Y-136917881D01*
X130833400Y-136917881D01*
X130828087Y-136916457D01*
X130600000Y-136896502D01*
X130371913Y-136916457D01*
X130366600Y-136917881D01*
X130366598Y-136917881D01*
X130156067Y-136974293D01*
X130156065Y-136974294D01*
X130150757Y-136975716D01*
X130145776Y-136978039D01*
X130145775Y-136978039D01*
X129948238Y-137070151D01*
X129948233Y-137070154D01*
X129943251Y-137072477D01*
X129869966Y-137123792D01*
X129760211Y-137200643D01*
X129760208Y-137200645D01*
X129755700Y-137203802D01*
X129593802Y-137365700D01*
X129462477Y-137553251D01*
X129460154Y-137558233D01*
X129460151Y-137558238D01*
X129394475Y-137699082D01*
X129365716Y-137760757D01*
X129364294Y-137766065D01*
X129364293Y-137766067D01*
X129314630Y-137951411D01*
X129306457Y-137981913D01*
X129286502Y-138210000D01*
X122513029Y-138210000D01*
X122513291Y-138200000D01*
X122497492Y-137987393D01*
X122494818Y-137951411D01*
X122494817Y-137951407D01*
X122494472Y-137946759D01*
X122438428Y-137699082D01*
X122410490Y-137627240D01*
X122348084Y-137466762D01*
X122348083Y-137466760D01*
X122346391Y-137462409D01*
X122325866Y-137426498D01*
X122222702Y-137245997D01*
X122222700Y-137245995D01*
X122220383Y-137241940D01*
X122063171Y-137042517D01*
X121974352Y-136958965D01*
X121881610Y-136871722D01*
X121881608Y-136871720D01*
X121878209Y-136868523D01*
X121754390Y-136782627D01*
X121673393Y-136726437D01*
X121673390Y-136726435D01*
X121669561Y-136723779D01*
X121665384Y-136721719D01*
X121665377Y-136721715D01*
X121445996Y-136613528D01*
X121445992Y-136613527D01*
X121441810Y-136611464D01*
X121199960Y-136534047D01*
X121195355Y-136533297D01*
X120953935Y-136493980D01*
X120953934Y-136493980D01*
X120949323Y-136493229D01*
X120822365Y-136491567D01*
X120700083Y-136489966D01*
X120700080Y-136489966D01*
X120695406Y-136489905D01*
X120443787Y-136524149D01*
X120199993Y-136595208D01*
X119969380Y-136701522D01*
X119965471Y-136704085D01*
X119760928Y-136838189D01*
X119760923Y-136838193D01*
X119757015Y-136840755D01*
X119567562Y-137009848D01*
X119405183Y-137205087D01*
X119273447Y-137422182D01*
X119271638Y-137426496D01*
X119271637Y-137426498D01*
X119196891Y-137604748D01*
X119175246Y-137656365D01*
X119174095Y-137660897D01*
X119174094Y-137660900D01*
X119143017Y-137783267D01*
X119112738Y-137902490D01*
X119087296Y-138155151D01*
X119087520Y-138159817D01*
X119087520Y-138159822D01*
X119093033Y-138274579D01*
X119099480Y-138408798D01*
X119149021Y-138657857D01*
X119150600Y-138662255D01*
X119150602Y-138662262D01*
X119195022Y-138785980D01*
X119234831Y-138896858D01*
X119303930Y-139025457D01*
X119311038Y-139038686D01*
X119325660Y-139108161D01*
X119300401Y-139174512D01*
X119243280Y-139216674D01*
X119172432Y-139221261D01*
X119144320Y-139211331D01*
X119020714Y-139150375D01*
X118945996Y-139113528D01*
X118945992Y-139113527D01*
X118941810Y-139111464D01*
X118699960Y-139034047D01*
X118695355Y-139033297D01*
X118453935Y-138993980D01*
X118453934Y-138993980D01*
X118449323Y-138993229D01*
X118322364Y-138991567D01*
X118200083Y-138989966D01*
X118200080Y-138989966D01*
X118195406Y-138989905D01*
X117943787Y-139024149D01*
X117699993Y-139095208D01*
X117469380Y-139201522D01*
X117424291Y-139231084D01*
X117260928Y-139338189D01*
X117260923Y-139338193D01*
X117257015Y-139340755D01*
X117249432Y-139347523D01*
X117076222Y-139502119D01*
X117067562Y-139509848D01*
X116905183Y-139705087D01*
X116773447Y-139922182D01*
X116771638Y-139926496D01*
X116771637Y-139926498D01*
X116680275Y-140144373D01*
X116675246Y-140156365D01*
X116612738Y-140402490D01*
X116587296Y-140655151D01*
X107508000Y-140655151D01*
X107508000Y-139910650D01*
X107528002Y-139842529D01*
X107581658Y-139796036D01*
X107651932Y-139785932D01*
X107675541Y-139791695D01*
X107796556Y-139833955D01*
X107856568Y-139854912D01*
X108106050Y-139902278D01*
X108226532Y-139907011D01*
X108355125Y-139912064D01*
X108355130Y-139912064D01*
X108359793Y-139912247D01*
X108465915Y-139900625D01*
X108607569Y-139885112D01*
X108607575Y-139885111D01*
X108612222Y-139884602D01*
X108721680Y-139855784D01*
X108853273Y-139821138D01*
X108857793Y-139819948D01*
X108976358Y-139769009D01*
X109086807Y-139721557D01*
X109086810Y-139721555D01*
X109091110Y-139719708D01*
X109095090Y-139717245D01*
X109095094Y-139717243D01*
X109303064Y-139588547D01*
X109303066Y-139588545D01*
X109307047Y-139586082D01*
X109358508Y-139542517D01*
X109497289Y-139425031D01*
X109497291Y-139425029D01*
X109500862Y-139422006D01*
X109668295Y-139231084D01*
X109674614Y-139221261D01*
X109796173Y-139032275D01*
X109805669Y-139017512D01*
X109909967Y-138785980D01*
X109978896Y-138541575D01*
X110001738Y-138362027D01*
X110010545Y-138292798D01*
X110010545Y-138292792D01*
X110010943Y-138289667D01*
X110013291Y-138200000D01*
X109997492Y-137987393D01*
X109994818Y-137951411D01*
X109994817Y-137951407D01*
X109994472Y-137946759D01*
X109938428Y-137699082D01*
X109910490Y-137627240D01*
X109848084Y-137466762D01*
X109848083Y-137466760D01*
X109846391Y-137462409D01*
X109825866Y-137426498D01*
X109722702Y-137245997D01*
X109722700Y-137245995D01*
X109720383Y-137241940D01*
X109563171Y-137042517D01*
X109474352Y-136958965D01*
X109381610Y-136871722D01*
X109381608Y-136871720D01*
X109378209Y-136868523D01*
X109254390Y-136782627D01*
X109173393Y-136726437D01*
X109173390Y-136726435D01*
X109169561Y-136723779D01*
X109165384Y-136721719D01*
X109165377Y-136721715D01*
X108945996Y-136613528D01*
X108945992Y-136613527D01*
X108941810Y-136611464D01*
X108699960Y-136534047D01*
X108695355Y-136533297D01*
X108453935Y-136493980D01*
X108453934Y-136493980D01*
X108449323Y-136493229D01*
X108322365Y-136491567D01*
X108200083Y-136489966D01*
X108200080Y-136489966D01*
X108195406Y-136489905D01*
X107943787Y-136524149D01*
X107699993Y-136595208D01*
X107686752Y-136601312D01*
X107616516Y-136611668D01*
X107551830Y-136582407D01*
X107513232Y-136522819D01*
X107508000Y-136486887D01*
X107508000Y-135814183D01*
X148664389Y-135814183D01*
X148665912Y-135822607D01*
X148678292Y-135826000D01*
X149727885Y-135826000D01*
X149743124Y-135821525D01*
X149744329Y-135820135D01*
X149746000Y-135812452D01*
X149746000Y-135807885D01*
X150254000Y-135807885D01*
X150258475Y-135823124D01*
X150259865Y-135824329D01*
X150267548Y-135826000D01*
X152267885Y-135826000D01*
X152283124Y-135821525D01*
X152284329Y-135820135D01*
X152286000Y-135812452D01*
X152286000Y-135807885D01*
X152794000Y-135807885D01*
X152798475Y-135823124D01*
X152799865Y-135824329D01*
X152807548Y-135826000D01*
X153858344Y-135826000D01*
X153871875Y-135822027D01*
X153873180Y-135812947D01*
X153831214Y-135645875D01*
X153827894Y-135636124D01*
X153742972Y-135440814D01*
X153738105Y-135431739D01*
X153622426Y-135252926D01*
X153616136Y-135244757D01*
X153472806Y-135087240D01*
X153465273Y-135080215D01*
X153298139Y-134948222D01*
X153289552Y-134942517D01*
X153252116Y-134921851D01*
X153202146Y-134871419D01*
X153187374Y-134801976D01*
X153212490Y-134735571D01*
X153239842Y-134708964D01*
X153415327Y-134583792D01*
X153423200Y-134577139D01*
X153574052Y-134426812D01*
X153580730Y-134418965D01*
X153705003Y-134246020D01*
X153710313Y-134237183D01*
X153804670Y-134046267D01*
X153808469Y-134036672D01*
X153870377Y-133832910D01*
X153872555Y-133822837D01*
X153873986Y-133811962D01*
X153871775Y-133797778D01*
X153858617Y-133794000D01*
X152812115Y-133794000D01*
X152796876Y-133798475D01*
X152795671Y-133799865D01*
X152794000Y-133807548D01*
X152794000Y-135807885D01*
X152286000Y-135807885D01*
X152286000Y-133812115D01*
X152281525Y-133796876D01*
X152280135Y-133795671D01*
X152272452Y-133794000D01*
X150272115Y-133794000D01*
X150256876Y-133798475D01*
X150255671Y-133799865D01*
X150254000Y-133807548D01*
X150254000Y-135807885D01*
X149746000Y-135807885D01*
X149746000Y-133812115D01*
X149741525Y-133796876D01*
X149740135Y-133795671D01*
X149732452Y-133794000D01*
X148683225Y-133794000D01*
X148669694Y-133797973D01*
X148668257Y-133807966D01*
X148698565Y-133942446D01*
X148701645Y-133952275D01*
X148781770Y-134149603D01*
X148786413Y-134158794D01*
X148897694Y-134340388D01*
X148903777Y-134348699D01*
X149043213Y-134509667D01*
X149050580Y-134516883D01*
X149214434Y-134652916D01*
X149222881Y-134658831D01*
X149292479Y-134699501D01*
X149341203Y-134751140D01*
X149354274Y-134820923D01*
X149327543Y-134886694D01*
X149287087Y-134920053D01*
X149278462Y-134924542D01*
X149269738Y-134930036D01*
X149099433Y-135057905D01*
X149091726Y-135064748D01*
X148944590Y-135218717D01*
X148938104Y-135226727D01*
X148818098Y-135402649D01*
X148813000Y-135411623D01*
X148723338Y-135604783D01*
X148719775Y-135614470D01*
X148664389Y-135814183D01*
X107508000Y-135814183D01*
X107508000Y-133155151D01*
X116587296Y-133155151D01*
X116599480Y-133408798D01*
X116649021Y-133657857D01*
X116650600Y-133662255D01*
X116650602Y-133662262D01*
X116704350Y-133811962D01*
X116734831Y-133896858D01*
X116855025Y-134120551D01*
X116857820Y-134124294D01*
X116857822Y-134124297D01*
X117004171Y-134320282D01*
X117004176Y-134320288D01*
X117006963Y-134324020D01*
X117010272Y-134327300D01*
X117010277Y-134327306D01*
X117108859Y-134425031D01*
X117187307Y-134502797D01*
X117191069Y-134505555D01*
X117191072Y-134505558D01*
X117296764Y-134583054D01*
X117392094Y-134652953D01*
X117396229Y-134655129D01*
X117396233Y-134655131D01*
X117403266Y-134658831D01*
X117616827Y-134771191D01*
X117856568Y-134854912D01*
X118106050Y-134902278D01*
X118226532Y-134907011D01*
X118355125Y-134912064D01*
X118355130Y-134912064D01*
X118359793Y-134912247D01*
X118458774Y-134901407D01*
X118607569Y-134885112D01*
X118607575Y-134885111D01*
X118612222Y-134884602D01*
X118721680Y-134855784D01*
X118853273Y-134821138D01*
X118857793Y-134819948D01*
X118976353Y-134769011D01*
X119086807Y-134721557D01*
X119086810Y-134721555D01*
X119091110Y-134719708D01*
X119095090Y-134717245D01*
X119095094Y-134717243D01*
X119303064Y-134588547D01*
X119303066Y-134588545D01*
X119307047Y-134586082D01*
X119317611Y-134577139D01*
X119497289Y-134425031D01*
X119497291Y-134425029D01*
X119500862Y-134422006D01*
X119668295Y-134231084D01*
X119714794Y-134158794D01*
X119803141Y-134021442D01*
X119805669Y-134017512D01*
X119909967Y-133785980D01*
X119978896Y-133541575D01*
X120010943Y-133289667D01*
X120011349Y-133274183D01*
X120013208Y-133203160D01*
X120013291Y-133200000D01*
X119994472Y-132946759D01*
X119977471Y-132871623D01*
X119952562Y-132761543D01*
X119938428Y-132699082D01*
X119936735Y-132694728D01*
X119848084Y-132466762D01*
X119848083Y-132466760D01*
X119846391Y-132462409D01*
X119825866Y-132426498D01*
X119722702Y-132245997D01*
X119722700Y-132245995D01*
X119720383Y-132241940D01*
X119563171Y-132042517D01*
X119409687Y-131898134D01*
X119381610Y-131871722D01*
X119381608Y-131871720D01*
X119378209Y-131868523D01*
X119219816Y-131758642D01*
X119173393Y-131726437D01*
X119173390Y-131726435D01*
X119169561Y-131723779D01*
X119165384Y-131721719D01*
X119165377Y-131721715D01*
X118945996Y-131613528D01*
X118945992Y-131613527D01*
X118941810Y-131611464D01*
X118699960Y-131534047D01*
X118695355Y-131533297D01*
X118453935Y-131493980D01*
X118453934Y-131493980D01*
X118449323Y-131493229D01*
X118322365Y-131491567D01*
X118200083Y-131489966D01*
X118200080Y-131489966D01*
X118195406Y-131489905D01*
X117943787Y-131524149D01*
X117699993Y-131595208D01*
X117469380Y-131701522D01*
X117438581Y-131721715D01*
X117260928Y-131838189D01*
X117260923Y-131838193D01*
X117257015Y-131840755D01*
X117067562Y-132009848D01*
X116905183Y-132205087D01*
X116773447Y-132422182D01*
X116771638Y-132426496D01*
X116771637Y-132426498D01*
X116719950Y-132549759D01*
X116675246Y-132656365D01*
X116612738Y-132902490D01*
X116587296Y-133155151D01*
X107508000Y-133155151D01*
X107508000Y-131438134D01*
X129291500Y-131438134D01*
X129298255Y-131500316D01*
X129349385Y-131636705D01*
X129436739Y-131753261D01*
X129553295Y-131840615D01*
X129689684Y-131891745D01*
X129751866Y-131898500D01*
X131448134Y-131898500D01*
X131451503Y-131898134D01*
X148641500Y-131898134D01*
X148648255Y-131960316D01*
X148699385Y-132096705D01*
X148786739Y-132213261D01*
X148903295Y-132300615D01*
X148911704Y-132303767D01*
X148911705Y-132303768D01*
X149020960Y-132344726D01*
X149077725Y-132387367D01*
X149102425Y-132453929D01*
X149087218Y-132523278D01*
X149067825Y-132549759D01*
X148944590Y-132678717D01*
X148938104Y-132686727D01*
X148818098Y-132862649D01*
X148813000Y-132871623D01*
X148723338Y-133064783D01*
X148719775Y-133074470D01*
X148664389Y-133274183D01*
X148665912Y-133282607D01*
X148678292Y-133286000D01*
X153858344Y-133286000D01*
X153871875Y-133282027D01*
X153873180Y-133272947D01*
X153831214Y-133105875D01*
X153827894Y-133096124D01*
X153742972Y-132900814D01*
X153738105Y-132891739D01*
X153622426Y-132712926D01*
X153616136Y-132704757D01*
X153472806Y-132547240D01*
X153465273Y-132540215D01*
X153298139Y-132408222D01*
X153289556Y-132402520D01*
X153252602Y-132382120D01*
X153202631Y-132331687D01*
X153187859Y-132262245D01*
X153212975Y-132195839D01*
X153240327Y-132169232D01*
X153263797Y-132152491D01*
X153419860Y-132041173D01*
X153578096Y-131883489D01*
X153586552Y-131871722D01*
X153705435Y-131706277D01*
X153708453Y-131702077D01*
X153752217Y-131613528D01*
X153805136Y-131506453D01*
X153805137Y-131506451D01*
X153807430Y-131501811D01*
X153872370Y-131288069D01*
X153901529Y-131066590D01*
X153903156Y-131000000D01*
X153884852Y-130777361D01*
X153830431Y-130560702D01*
X153741354Y-130355840D01*
X153620014Y-130168277D01*
X153469670Y-130003051D01*
X153465619Y-129999852D01*
X153465615Y-129999848D01*
X153298414Y-129867800D01*
X153298410Y-129867798D01*
X153294359Y-129864598D01*
X153278393Y-129855784D01*
X153210131Y-129818102D01*
X153098789Y-129756638D01*
X153093920Y-129754914D01*
X153093916Y-129754912D01*
X152893087Y-129683795D01*
X152893083Y-129683794D01*
X152888212Y-129682069D01*
X152883119Y-129681162D01*
X152883116Y-129681161D01*
X152673373Y-129643800D01*
X152673367Y-129643799D01*
X152668284Y-129642894D01*
X152594452Y-129641992D01*
X152450081Y-129640228D01*
X152450079Y-129640228D01*
X152444911Y-129640165D01*
X152224091Y-129673955D01*
X152011756Y-129743357D01*
X151955323Y-129772734D01*
X151821249Y-129842529D01*
X151813607Y-129846507D01*
X151809474Y-129849610D01*
X151809471Y-129849612D01*
X151726727Y-129911738D01*
X151634965Y-129980635D01*
X151578537Y-130039684D01*
X151554283Y-130065064D01*
X151492759Y-130100494D01*
X151421846Y-130097037D01*
X151364060Y-130055791D01*
X151345207Y-130022243D01*
X151303767Y-129911703D01*
X151300615Y-129903295D01*
X151213261Y-129786739D01*
X151096705Y-129699385D01*
X150960316Y-129648255D01*
X150898134Y-129641500D01*
X149101866Y-129641500D01*
X149039684Y-129648255D01*
X148903295Y-129699385D01*
X148786739Y-129786739D01*
X148699385Y-129903295D01*
X148648255Y-130039684D01*
X148641500Y-130101866D01*
X148641500Y-131898134D01*
X131451503Y-131898134D01*
X131510316Y-131891745D01*
X131646705Y-131840615D01*
X131763261Y-131753261D01*
X131850615Y-131636705D01*
X131901745Y-131500316D01*
X131908500Y-131438134D01*
X131908500Y-129741866D01*
X131901745Y-129679684D01*
X131850615Y-129543295D01*
X131763261Y-129426739D01*
X131646705Y-129339385D01*
X131510316Y-129288255D01*
X131448134Y-129281500D01*
X129751866Y-129281500D01*
X129689684Y-129288255D01*
X129553295Y-129339385D01*
X129436739Y-129426739D01*
X129349385Y-129543295D01*
X129298255Y-129679684D01*
X129291500Y-129741866D01*
X129291500Y-131438134D01*
X107508000Y-131438134D01*
X107508000Y-129910650D01*
X107528002Y-129842529D01*
X107581658Y-129796036D01*
X107651932Y-129785932D01*
X107675541Y-129791695D01*
X107841391Y-129849612D01*
X107856568Y-129854912D01*
X108106050Y-129902278D01*
X108226532Y-129907011D01*
X108355125Y-129912064D01*
X108355130Y-129912064D01*
X108359793Y-129912247D01*
X108458774Y-129901407D01*
X108607569Y-129885112D01*
X108607575Y-129885111D01*
X108612222Y-129884602D01*
X108721680Y-129855784D01*
X108853273Y-129821138D01*
X108857793Y-129819948D01*
X108999336Y-129759137D01*
X109086807Y-129721557D01*
X109086810Y-129721555D01*
X109091110Y-129719708D01*
X109095090Y-129717245D01*
X109095094Y-129717243D01*
X109303064Y-129588547D01*
X109303066Y-129588545D01*
X109307047Y-129586082D01*
X109405428Y-129502797D01*
X109497289Y-129425031D01*
X109497291Y-129425029D01*
X109500862Y-129422006D01*
X109668295Y-129231084D01*
X109805669Y-129017512D01*
X109909967Y-128785980D01*
X109978896Y-128541575D01*
X110010943Y-128289667D01*
X110013291Y-128200000D01*
X109994472Y-127946759D01*
X109938428Y-127699082D01*
X109846391Y-127462409D01*
X109825866Y-127426498D01*
X109722702Y-127245997D01*
X109722700Y-127245995D01*
X109720383Y-127241940D01*
X109563171Y-127042517D01*
X109479625Y-126963925D01*
X109381610Y-126871722D01*
X109381608Y-126871720D01*
X109378209Y-126868523D01*
X109308670Y-126820282D01*
X109173393Y-126726437D01*
X109173390Y-126726435D01*
X109169561Y-126723779D01*
X109165384Y-126721719D01*
X109165377Y-126721715D01*
X108945996Y-126613528D01*
X108945992Y-126613527D01*
X108941810Y-126611464D01*
X108699960Y-126534047D01*
X108695355Y-126533297D01*
X108453935Y-126493980D01*
X108453934Y-126493980D01*
X108449323Y-126493229D01*
X108322365Y-126491567D01*
X108200083Y-126489966D01*
X108200080Y-126489966D01*
X108195406Y-126489905D01*
X107943787Y-126524149D01*
X107699993Y-126595208D01*
X107686752Y-126601312D01*
X107616516Y-126611668D01*
X107551830Y-126582407D01*
X107513232Y-126522819D01*
X107508000Y-126486887D01*
X107508000Y-125655151D01*
X116587296Y-125655151D01*
X116599480Y-125908798D01*
X116649021Y-126157857D01*
X116650600Y-126162255D01*
X116650602Y-126162262D01*
X116695022Y-126285980D01*
X116734831Y-126396858D01*
X116737048Y-126400984D01*
X116844688Y-126601312D01*
X116855025Y-126620551D01*
X116857820Y-126624294D01*
X116857822Y-126624297D01*
X117004171Y-126820282D01*
X117004176Y-126820288D01*
X117006963Y-126824020D01*
X117010272Y-126827300D01*
X117010277Y-126827306D01*
X117183990Y-126999509D01*
X117187307Y-127002797D01*
X117191069Y-127005555D01*
X117191072Y-127005558D01*
X117300893Y-127086082D01*
X117392094Y-127152953D01*
X117396229Y-127155129D01*
X117396233Y-127155131D01*
X117469068Y-127193451D01*
X117616827Y-127271191D01*
X117856568Y-127354912D01*
X118106050Y-127402278D01*
X118226532Y-127407011D01*
X118355125Y-127412064D01*
X118355130Y-127412064D01*
X118359793Y-127412247D01*
X118458774Y-127401407D01*
X118607569Y-127385112D01*
X118607575Y-127385111D01*
X118612222Y-127384602D01*
X118721680Y-127355784D01*
X118853273Y-127321138D01*
X118857793Y-127319948D01*
X118976353Y-127269011D01*
X119086807Y-127221557D01*
X119086810Y-127221555D01*
X119091110Y-127219708D01*
X119095090Y-127217245D01*
X119095094Y-127217243D01*
X119133541Y-127193451D01*
X119201993Y-127174613D01*
X119269763Y-127195774D01*
X119315334Y-127250215D01*
X119324237Y-127320651D01*
X119307563Y-127365960D01*
X119288233Y-127397816D01*
X119273447Y-127422182D01*
X119175246Y-127656365D01*
X119112738Y-127902490D01*
X119087296Y-128155151D01*
X119099480Y-128408798D01*
X119149021Y-128657857D01*
X119150600Y-128662255D01*
X119150602Y-128662262D01*
X119195022Y-128785980D01*
X119234831Y-128896858D01*
X119355025Y-129120551D01*
X119357820Y-129124294D01*
X119357822Y-129124297D01*
X119504171Y-129320282D01*
X119504176Y-129320288D01*
X119506963Y-129324020D01*
X119510272Y-129327300D01*
X119510277Y-129327306D01*
X119608859Y-129425031D01*
X119687307Y-129502797D01*
X119691069Y-129505555D01*
X119691072Y-129505558D01*
X119742539Y-129543295D01*
X119892094Y-129652953D01*
X119896229Y-129655129D01*
X119896233Y-129655131D01*
X120014289Y-129717243D01*
X120116827Y-129771191D01*
X120251160Y-129818102D01*
X120332500Y-129846507D01*
X120356568Y-129854912D01*
X120606050Y-129902278D01*
X120726532Y-129907011D01*
X120855125Y-129912064D01*
X120855130Y-129912064D01*
X120859793Y-129912247D01*
X120958774Y-129901407D01*
X121107569Y-129885112D01*
X121107575Y-129885111D01*
X121112222Y-129884602D01*
X121221680Y-129855784D01*
X121353273Y-129821138D01*
X121357793Y-129819948D01*
X121499336Y-129759137D01*
X121586807Y-129721557D01*
X121586810Y-129721555D01*
X121591110Y-129719708D01*
X121595090Y-129717245D01*
X121595094Y-129717243D01*
X121803064Y-129588547D01*
X121803066Y-129588545D01*
X121807047Y-129586082D01*
X121905428Y-129502797D01*
X121997289Y-129425031D01*
X121997291Y-129425029D01*
X122000862Y-129422006D01*
X122168295Y-129231084D01*
X122305669Y-129017512D01*
X122409967Y-128785980D01*
X122478896Y-128541575D01*
X122510943Y-128289667D01*
X122513291Y-128200000D01*
X122494472Y-127946759D01*
X122438428Y-127699082D01*
X122346391Y-127462409D01*
X122325866Y-127426498D01*
X122222702Y-127245997D01*
X122222700Y-127245995D01*
X122220383Y-127241940D01*
X122063171Y-127042517D01*
X121979625Y-126963925D01*
X121881610Y-126871722D01*
X121881608Y-126871720D01*
X121878209Y-126868523D01*
X121808670Y-126820282D01*
X121673393Y-126726437D01*
X121673390Y-126726435D01*
X121669561Y-126723779D01*
X121665384Y-126721719D01*
X121665377Y-126721715D01*
X121445996Y-126613528D01*
X121445992Y-126613527D01*
X121441810Y-126611464D01*
X121199960Y-126534047D01*
X121195355Y-126533297D01*
X120953935Y-126493980D01*
X120953934Y-126493980D01*
X120949323Y-126493229D01*
X120822365Y-126491567D01*
X120700083Y-126489966D01*
X120700080Y-126489966D01*
X120695406Y-126489905D01*
X120443787Y-126524149D01*
X120199993Y-126595208D01*
X119969380Y-126701522D01*
X119967819Y-126702545D01*
X119899262Y-126717914D01*
X119832586Y-126693525D01*
X119789680Y-126636960D01*
X119784167Y-126566177D01*
X119801486Y-126524016D01*
X119803138Y-126521448D01*
X119803142Y-126521441D01*
X119805669Y-126517512D01*
X119909967Y-126285980D01*
X119978896Y-126041575D01*
X120010943Y-125789667D01*
X120013291Y-125700000D01*
X119994472Y-125446759D01*
X119938428Y-125199082D01*
X119846391Y-124962409D01*
X119825866Y-124926498D01*
X119722702Y-124745997D01*
X119722700Y-124745995D01*
X119720383Y-124741940D01*
X119563171Y-124542517D01*
X119378209Y-124368523D01*
X119334483Y-124338189D01*
X119173393Y-124226437D01*
X119173390Y-124226435D01*
X119169561Y-124223779D01*
X119165384Y-124221719D01*
X119165377Y-124221715D01*
X118945996Y-124113528D01*
X118945992Y-124113527D01*
X118941810Y-124111464D01*
X118699960Y-124034047D01*
X118695355Y-124033297D01*
X118453935Y-123993980D01*
X118453934Y-123993980D01*
X118449323Y-123993229D01*
X118322365Y-123991567D01*
X118200083Y-123989966D01*
X118200080Y-123989966D01*
X118195406Y-123989905D01*
X117943787Y-124024149D01*
X117699993Y-124095208D01*
X117469380Y-124201522D01*
X117465471Y-124204085D01*
X117260928Y-124338189D01*
X117260923Y-124338193D01*
X117257015Y-124340755D01*
X117067562Y-124509848D01*
X116905183Y-124705087D01*
X116773447Y-124922182D01*
X116675246Y-125156365D01*
X116612738Y-125402490D01*
X116587296Y-125655151D01*
X107508000Y-125655151D01*
X107508000Y-121636349D01*
X115055181Y-121636349D01*
X115060462Y-121643404D01*
X115237343Y-121746765D01*
X115246626Y-121751212D01*
X115453527Y-121830220D01*
X115463425Y-121833096D01*
X115680452Y-121877250D01*
X115690681Y-121878469D01*
X115912003Y-121886586D01*
X115922289Y-121886119D01*
X116141970Y-121857977D01*
X116152048Y-121855835D01*
X116364175Y-121792194D01*
X116373782Y-121788428D01*
X116572653Y-121691002D01*
X116581512Y-121685722D01*
X116639315Y-121644491D01*
X116647715Y-121633791D01*
X116640728Y-121620638D01*
X115865812Y-120845722D01*
X115851868Y-120838108D01*
X115850035Y-120838239D01*
X115843420Y-120842490D01*
X115061941Y-121623969D01*
X115055181Y-121636349D01*
X107508000Y-121636349D01*
X107508000Y-120266059D01*
X112678696Y-120266059D01*
X112687992Y-120278074D01*
X112728240Y-120306256D01*
X112737735Y-120311739D01*
X112927153Y-120400066D01*
X112937445Y-120403812D01*
X113139323Y-120457905D01*
X113150118Y-120459808D01*
X113358325Y-120478024D01*
X113369275Y-120478024D01*
X113577482Y-120459808D01*
X113588277Y-120457905D01*
X113790155Y-120403812D01*
X113800447Y-120400066D01*
X113989865Y-120311739D01*
X113999360Y-120306256D01*
X114040446Y-120277487D01*
X114048821Y-120267010D01*
X114041753Y-120253563D01*
X113376612Y-119588422D01*
X113362668Y-119580808D01*
X113360835Y-119580939D01*
X113354220Y-119585190D01*
X112685126Y-120254284D01*
X112678696Y-120266059D01*
X107508000Y-120266059D01*
X107508000Y-119221875D01*
X112102176Y-119221875D01*
X112120392Y-119430082D01*
X112122295Y-119440877D01*
X112176388Y-119642755D01*
X112180134Y-119653047D01*
X112268461Y-119842464D01*
X112273944Y-119851960D01*
X112302713Y-119893046D01*
X112313190Y-119901421D01*
X112326638Y-119894352D01*
X112991778Y-119229212D01*
X112998156Y-119217532D01*
X113728208Y-119217532D01*
X113728339Y-119219365D01*
X113732590Y-119225980D01*
X114401684Y-119895074D01*
X114443166Y-119917726D01*
X114493368Y-119967929D01*
X114508458Y-120037304D01*
X114504196Y-120061985D01*
X114464906Y-120203660D01*
X114462975Y-120213780D01*
X114439440Y-120434007D01*
X114439188Y-120444296D01*
X114451937Y-120665396D01*
X114453373Y-120675617D01*
X114502060Y-120891655D01*
X114505144Y-120901496D01*
X114588464Y-121106687D01*
X114593114Y-121115892D01*
X114681862Y-121260715D01*
X114692320Y-121270177D01*
X114701096Y-121266394D01*
X115480978Y-120486512D01*
X115487356Y-120474832D01*
X116217408Y-120474832D01*
X116217539Y-120476665D01*
X116221790Y-120483280D01*
X117000520Y-121262010D01*
X117012531Y-121268569D01*
X117024269Y-121259601D01*
X117062469Y-121206441D01*
X117067784Y-121197595D01*
X117141653Y-121048134D01*
X127291500Y-121048134D01*
X127298255Y-121110316D01*
X127349385Y-121246705D01*
X127436739Y-121363261D01*
X127553295Y-121450615D01*
X127689684Y-121501745D01*
X127751866Y-121508500D01*
X129448134Y-121508500D01*
X129510316Y-121501745D01*
X129646705Y-121450615D01*
X129763261Y-121363261D01*
X129850615Y-121246705D01*
X129901745Y-121110316D01*
X129902917Y-121099526D01*
X129903803Y-121097394D01*
X129904425Y-121094778D01*
X129904848Y-121094879D01*
X129930155Y-121033965D01*
X129988517Y-120993537D01*
X130059471Y-120991078D01*
X130120490Y-121027371D01*
X130127489Y-121036031D01*
X130130643Y-121039789D01*
X130133802Y-121044300D01*
X130295700Y-121206198D01*
X130300208Y-121209355D01*
X130300211Y-121209357D01*
X130341542Y-121238297D01*
X130483251Y-121337523D01*
X130488233Y-121339846D01*
X130488238Y-121339849D01*
X130685775Y-121431961D01*
X130690757Y-121434284D01*
X130696065Y-121435706D01*
X130696067Y-121435707D01*
X130906598Y-121492119D01*
X130906600Y-121492119D01*
X130911913Y-121493543D01*
X131140000Y-121513498D01*
X131368087Y-121493543D01*
X131373400Y-121492119D01*
X131373402Y-121492119D01*
X131583933Y-121435707D01*
X131583935Y-121435706D01*
X131589243Y-121434284D01*
X131594225Y-121431961D01*
X131791762Y-121339849D01*
X131791767Y-121339846D01*
X131796749Y-121337523D01*
X131938458Y-121238297D01*
X131979789Y-121209357D01*
X131979792Y-121209355D01*
X131984300Y-121206198D01*
X132146198Y-121044300D01*
X132184589Y-120989473D01*
X132204098Y-120961611D01*
X132277523Y-120856749D01*
X132279846Y-120851767D01*
X132279849Y-120851762D01*
X132295805Y-120817543D01*
X132342722Y-120764258D01*
X132410999Y-120744797D01*
X132478959Y-120765339D01*
X132524195Y-120817543D01*
X132540151Y-120851762D01*
X132540154Y-120851767D01*
X132542477Y-120856749D01*
X132615902Y-120961611D01*
X132635412Y-120989473D01*
X132673802Y-121044300D01*
X132835700Y-121206198D01*
X132840208Y-121209355D01*
X132840211Y-121209357D01*
X132881542Y-121238297D01*
X133023251Y-121337523D01*
X133028233Y-121339846D01*
X133028238Y-121339849D01*
X133225775Y-121431961D01*
X133230757Y-121434284D01*
X133236065Y-121435706D01*
X133236067Y-121435707D01*
X133446598Y-121492119D01*
X133446600Y-121492119D01*
X133451913Y-121493543D01*
X133680000Y-121513498D01*
X133908087Y-121493543D01*
X133913400Y-121492119D01*
X133913402Y-121492119D01*
X134123933Y-121435707D01*
X134123935Y-121435706D01*
X134129243Y-121434284D01*
X134134225Y-121431961D01*
X134331762Y-121339849D01*
X134331767Y-121339846D01*
X134336749Y-121337523D01*
X134478458Y-121238297D01*
X134519789Y-121209357D01*
X134519792Y-121209355D01*
X134524300Y-121206198D01*
X134686198Y-121044300D01*
X134724589Y-120989473D01*
X134744098Y-120961611D01*
X134817523Y-120856749D01*
X134819846Y-120851767D01*
X134819849Y-120851762D01*
X134835805Y-120817543D01*
X134882722Y-120764258D01*
X134950999Y-120744797D01*
X135018959Y-120765339D01*
X135064195Y-120817543D01*
X135080151Y-120851762D01*
X135080154Y-120851767D01*
X135082477Y-120856749D01*
X135155902Y-120961611D01*
X135175412Y-120989473D01*
X135213802Y-121044300D01*
X135375700Y-121206198D01*
X135380208Y-121209355D01*
X135380211Y-121209357D01*
X135421542Y-121238297D01*
X135563251Y-121337523D01*
X135568233Y-121339846D01*
X135568238Y-121339849D01*
X135765775Y-121431961D01*
X135770757Y-121434284D01*
X135776065Y-121435706D01*
X135776067Y-121435707D01*
X135986598Y-121492119D01*
X135986600Y-121492119D01*
X135991913Y-121493543D01*
X136220000Y-121513498D01*
X136448087Y-121493543D01*
X136453400Y-121492119D01*
X136453402Y-121492119D01*
X136663933Y-121435707D01*
X136663935Y-121435706D01*
X136669243Y-121434284D01*
X136674225Y-121431961D01*
X136871762Y-121339849D01*
X136871767Y-121339846D01*
X136876749Y-121337523D01*
X137018458Y-121238297D01*
X137059789Y-121209357D01*
X137059792Y-121209355D01*
X137064300Y-121206198D01*
X137226198Y-121044300D01*
X137264589Y-120989473D01*
X137284098Y-120961611D01*
X137357523Y-120856749D01*
X137359846Y-120851767D01*
X137359849Y-120851762D01*
X137451961Y-120654225D01*
X137451961Y-120654224D01*
X137454284Y-120649243D01*
X137481916Y-120546122D01*
X137512119Y-120433402D01*
X137512119Y-120433400D01*
X137513543Y-120428087D01*
X137524202Y-120306256D01*
X137528262Y-120259851D01*
X137528262Y-120259844D01*
X137528500Y-120257127D01*
X137528500Y-119342873D01*
X137528242Y-119339915D01*
X137518556Y-119229212D01*
X137513543Y-119171913D01*
X137496024Y-119106531D01*
X137455707Y-118956067D01*
X137455706Y-118956065D01*
X137454284Y-118950757D01*
X137409727Y-118855203D01*
X137359849Y-118748238D01*
X137359846Y-118748233D01*
X137357523Y-118743251D01*
X137259648Y-118603471D01*
X137229357Y-118560211D01*
X137229355Y-118560208D01*
X137226198Y-118555700D01*
X137064300Y-118393802D01*
X137059792Y-118390645D01*
X137059789Y-118390643D01*
X136981611Y-118335902D01*
X136876749Y-118262477D01*
X136871767Y-118260154D01*
X136871762Y-118260151D01*
X136674225Y-118168039D01*
X136674224Y-118168039D01*
X136669243Y-118165716D01*
X136663935Y-118164294D01*
X136663933Y-118164293D01*
X136660608Y-118163402D01*
X142999000Y-118163402D01*
X142999212Y-118165975D01*
X142999212Y-118165986D01*
X143006954Y-118260151D01*
X143013678Y-118341937D01*
X143057786Y-118517538D01*
X143069564Y-118564424D01*
X143072206Y-118574944D01*
X143074267Y-118579683D01*
X143143428Y-118738743D01*
X143168003Y-118795263D01*
X143298498Y-118996977D01*
X143460186Y-119174670D01*
X143514459Y-119217532D01*
X143644670Y-119320367D01*
X143644675Y-119320370D01*
X143648724Y-119323568D01*
X143653240Y-119326061D01*
X143653243Y-119326063D01*
X143854526Y-119437177D01*
X143854530Y-119437179D01*
X143859050Y-119439674D01*
X143863919Y-119441398D01*
X143863923Y-119441400D01*
X144080640Y-119518144D01*
X144080644Y-119518145D01*
X144085515Y-119519870D01*
X144090608Y-119520777D01*
X144090611Y-119520778D01*
X144316948Y-119561095D01*
X144316954Y-119561096D01*
X144322037Y-119562001D01*
X144409400Y-119563068D01*
X144557093Y-119564873D01*
X144557095Y-119564873D01*
X144562263Y-119564936D01*
X144799744Y-119528596D01*
X144911997Y-119491906D01*
X145023183Y-119455566D01*
X145023189Y-119455563D01*
X145028101Y-119453958D01*
X145032687Y-119451571D01*
X145032691Y-119451569D01*
X145236607Y-119345416D01*
X145241200Y-119343025D01*
X145343367Y-119266316D01*
X145429185Y-119201882D01*
X145429188Y-119201880D01*
X145433320Y-119198777D01*
X145599301Y-119025088D01*
X145624840Y-118987649D01*
X145679751Y-118942648D01*
X145750275Y-118934477D01*
X145814022Y-118965731D01*
X145834716Y-118990210D01*
X145836085Y-118992326D01*
X145842378Y-119000498D01*
X145997050Y-119170480D01*
X146004583Y-119177506D01*
X146184944Y-119319945D01*
X146193531Y-119325650D01*
X146394722Y-119436714D01*
X146404134Y-119440944D01*
X146620768Y-119517659D01*
X146630739Y-119520293D01*
X146728163Y-119537647D01*
X146741460Y-119536187D01*
X146745543Y-119523096D01*
X147254000Y-119523096D01*
X147257918Y-119536440D01*
X147272194Y-119538427D01*
X147334515Y-119528890D01*
X147344543Y-119526501D01*
X147562988Y-119455102D01*
X147572497Y-119451105D01*
X147776344Y-119344989D01*
X147785061Y-119339500D01*
X147936099Y-119226098D01*
X148002584Y-119201193D01*
X148071980Y-119216186D01*
X148122253Y-119266316D01*
X148129732Y-119282625D01*
X148136885Y-119301705D01*
X148224239Y-119418261D01*
X148340795Y-119505615D01*
X148477184Y-119556745D01*
X148539366Y-119563500D01*
X150540634Y-119563500D01*
X150602816Y-119556745D01*
X150739205Y-119505615D01*
X150855761Y-119418261D01*
X150943115Y-119301705D01*
X150994245Y-119165316D01*
X151001000Y-119103134D01*
X151001000Y-117006866D01*
X150994245Y-116944684D01*
X150943115Y-116808295D01*
X150855761Y-116691739D01*
X150739205Y-116604385D01*
X150602816Y-116553255D01*
X150540634Y-116546500D01*
X148539366Y-116546500D01*
X148477184Y-116553255D01*
X148340795Y-116604385D01*
X148224239Y-116691739D01*
X148136885Y-116808295D01*
X148133734Y-116816701D01*
X148129242Y-116828683D01*
X148086599Y-116885447D01*
X148020038Y-116910146D01*
X147950689Y-116894938D01*
X147933168Y-116883334D01*
X147815056Y-116790055D01*
X147806469Y-116784350D01*
X147605278Y-116673286D01*
X147595866Y-116669056D01*
X147379232Y-116592341D01*
X147369261Y-116589707D01*
X147271837Y-116572353D01*
X147258540Y-116573813D01*
X147254000Y-116588370D01*
X147254000Y-119523096D01*
X146745543Y-119523096D01*
X146746000Y-119521630D01*
X146746000Y-116586904D01*
X146742082Y-116573560D01*
X146727806Y-116571573D01*
X146665485Y-116581110D01*
X146655457Y-116583499D01*
X146437012Y-116654898D01*
X146427503Y-116658895D01*
X146223656Y-116765011D01*
X146214931Y-116770505D01*
X146031148Y-116908493D01*
X146023441Y-116915336D01*
X145864661Y-117081491D01*
X145858177Y-117089498D01*
X145835763Y-117122356D01*
X145780852Y-117167359D01*
X145710328Y-117175532D01*
X145646580Y-117144278D01*
X145625884Y-117119796D01*
X145624311Y-117117365D01*
X145621502Y-117113023D01*
X145459814Y-116935330D01*
X145382983Y-116874653D01*
X145275330Y-116789633D01*
X145275325Y-116789630D01*
X145271276Y-116786432D01*
X145266760Y-116783939D01*
X145266757Y-116783937D01*
X145065474Y-116672823D01*
X145065470Y-116672821D01*
X145060950Y-116670326D01*
X145056081Y-116668602D01*
X145056077Y-116668600D01*
X144839360Y-116591856D01*
X144839356Y-116591855D01*
X144834485Y-116590130D01*
X144829392Y-116589223D01*
X144829389Y-116589222D01*
X144603052Y-116548905D01*
X144603046Y-116548904D01*
X144597963Y-116547999D01*
X144505474Y-116546869D01*
X144362907Y-116545127D01*
X144362905Y-116545127D01*
X144357737Y-116545064D01*
X144120256Y-116581404D01*
X144008003Y-116618094D01*
X143896817Y-116654434D01*
X143896811Y-116654437D01*
X143891899Y-116656042D01*
X143887313Y-116658429D01*
X143887309Y-116658431D01*
X143683393Y-116764584D01*
X143678800Y-116766975D01*
X143656209Y-116783937D01*
X143508370Y-116894938D01*
X143486680Y-116911223D01*
X143320699Y-117084912D01*
X143185314Y-117283378D01*
X143183140Y-117288061D01*
X143183138Y-117288065D01*
X143086342Y-117496595D01*
X143084163Y-117501290D01*
X143019960Y-117732798D01*
X142999000Y-117928928D01*
X142999000Y-118163402D01*
X136660608Y-118163402D01*
X136453402Y-118107881D01*
X136453400Y-118107881D01*
X136448087Y-118106457D01*
X136220000Y-118086502D01*
X135991913Y-118106457D01*
X135986600Y-118107881D01*
X135986598Y-118107881D01*
X135776067Y-118164293D01*
X135776065Y-118164294D01*
X135770757Y-118165716D01*
X135765776Y-118168039D01*
X135765775Y-118168039D01*
X135568238Y-118260151D01*
X135568233Y-118260154D01*
X135563251Y-118262477D01*
X135458389Y-118335902D01*
X135380211Y-118390643D01*
X135380208Y-118390645D01*
X135375700Y-118393802D01*
X135213802Y-118555700D01*
X135210645Y-118560208D01*
X135210643Y-118560211D01*
X135180352Y-118603471D01*
X135082477Y-118743251D01*
X135080154Y-118748233D01*
X135080151Y-118748238D01*
X135064195Y-118782457D01*
X135017278Y-118835742D01*
X134949001Y-118855203D01*
X134881041Y-118834661D01*
X134835805Y-118782457D01*
X134819849Y-118748238D01*
X134819846Y-118748233D01*
X134817523Y-118743251D01*
X134719648Y-118603471D01*
X134689357Y-118560211D01*
X134689355Y-118560208D01*
X134686198Y-118555700D01*
X134524300Y-118393802D01*
X134519792Y-118390645D01*
X134519789Y-118390643D01*
X134441611Y-118335902D01*
X134336749Y-118262477D01*
X134331767Y-118260154D01*
X134331762Y-118260151D01*
X134134225Y-118168039D01*
X134134224Y-118168039D01*
X134129243Y-118165716D01*
X134123935Y-118164294D01*
X134123933Y-118164293D01*
X133913402Y-118107881D01*
X133913400Y-118107881D01*
X133908087Y-118106457D01*
X133680000Y-118086502D01*
X133451913Y-118106457D01*
X133446600Y-118107881D01*
X133446598Y-118107881D01*
X133236067Y-118164293D01*
X133236065Y-118164294D01*
X133230757Y-118165716D01*
X133225776Y-118168039D01*
X133225775Y-118168039D01*
X133028238Y-118260151D01*
X133028233Y-118260154D01*
X133023251Y-118262477D01*
X132918389Y-118335902D01*
X132840211Y-118390643D01*
X132840208Y-118390645D01*
X132835700Y-118393802D01*
X132673802Y-118555700D01*
X132670645Y-118560208D01*
X132670643Y-118560211D01*
X132640352Y-118603471D01*
X132542477Y-118743251D01*
X132540154Y-118748233D01*
X132540151Y-118748238D01*
X132524195Y-118782457D01*
X132477278Y-118835742D01*
X132409001Y-118855203D01*
X132341041Y-118834661D01*
X132295805Y-118782457D01*
X132279849Y-118748238D01*
X132279846Y-118748233D01*
X132277523Y-118743251D01*
X132179648Y-118603471D01*
X132149357Y-118560211D01*
X132149355Y-118560208D01*
X132146198Y-118555700D01*
X131984300Y-118393802D01*
X131979792Y-118390645D01*
X131979789Y-118390643D01*
X131901611Y-118335902D01*
X131796749Y-118262477D01*
X131791767Y-118260154D01*
X131791762Y-118260151D01*
X131594225Y-118168039D01*
X131594224Y-118168039D01*
X131589243Y-118165716D01*
X131583935Y-118164294D01*
X131583933Y-118164293D01*
X131373402Y-118107881D01*
X131373400Y-118107881D01*
X131368087Y-118106457D01*
X131140000Y-118086502D01*
X130911913Y-118106457D01*
X130906600Y-118107881D01*
X130906598Y-118107881D01*
X130696067Y-118164293D01*
X130696065Y-118164294D01*
X130690757Y-118165716D01*
X130685776Y-118168039D01*
X130685775Y-118168039D01*
X130488238Y-118260151D01*
X130488233Y-118260154D01*
X130483251Y-118262477D01*
X130378389Y-118335902D01*
X130300211Y-118390643D01*
X130300208Y-118390645D01*
X130295700Y-118393802D01*
X130133802Y-118555700D01*
X130130643Y-118560211D01*
X130127108Y-118564424D01*
X130125974Y-118563473D01*
X130075929Y-118603471D01*
X130005310Y-118610776D01*
X129941951Y-118578742D01*
X129905970Y-118517538D01*
X129902918Y-118500483D01*
X129901745Y-118489684D01*
X129850615Y-118353295D01*
X129763261Y-118236739D01*
X129646705Y-118149385D01*
X129510316Y-118098255D01*
X129448134Y-118091500D01*
X127751866Y-118091500D01*
X127689684Y-118098255D01*
X127553295Y-118149385D01*
X127436739Y-118236739D01*
X127349385Y-118353295D01*
X127298255Y-118489684D01*
X127291500Y-118551866D01*
X127291500Y-121048134D01*
X117141653Y-121048134D01*
X117165904Y-120999066D01*
X117169702Y-120989473D01*
X117234083Y-120777569D01*
X117236260Y-120767499D01*
X117265405Y-120546122D01*
X117265924Y-120539447D01*
X117267449Y-120477064D01*
X117267255Y-120470346D01*
X117248961Y-120247821D01*
X117247278Y-120237659D01*
X117193324Y-120022859D01*
X117190005Y-120013108D01*
X117101689Y-119809996D01*
X117096825Y-119800925D01*
X117023453Y-119687510D01*
X117012766Y-119678306D01*
X117003201Y-119682709D01*
X116225022Y-120460888D01*
X116217408Y-120474832D01*
X115487356Y-120474832D01*
X115488592Y-120472568D01*
X115488461Y-120470735D01*
X115484210Y-120464120D01*
X114705643Y-119685553D01*
X114670890Y-119666576D01*
X114645972Y-119661155D01*
X114595770Y-119610953D01*
X114580679Y-119541578D01*
X114584651Y-119517956D01*
X114605305Y-119440874D01*
X114607208Y-119430082D01*
X114617434Y-119313198D01*
X115057294Y-119313198D01*
X115064038Y-119325528D01*
X115840188Y-120101678D01*
X115854132Y-120109292D01*
X115855965Y-120109161D01*
X115862580Y-120104910D01*
X116643200Y-119324290D01*
X116650220Y-119311434D01*
X116642446Y-119300764D01*
X116639848Y-119298712D01*
X116631265Y-119293009D01*
X116437375Y-119185977D01*
X116427976Y-119181752D01*
X116219211Y-119107824D01*
X116209240Y-119105190D01*
X115991208Y-119066353D01*
X115980955Y-119065384D01*
X115759496Y-119062678D01*
X115749213Y-119063398D01*
X115530297Y-119096896D01*
X115520270Y-119099285D01*
X115309766Y-119168088D01*
X115300257Y-119172085D01*
X115103820Y-119274345D01*
X115095092Y-119279841D01*
X115065747Y-119301873D01*
X115057294Y-119313198D01*
X114617434Y-119313198D01*
X114625424Y-119221875D01*
X114625424Y-119210925D01*
X114607208Y-119002718D01*
X114605305Y-118991923D01*
X114551212Y-118790045D01*
X114547466Y-118779753D01*
X114459139Y-118590336D01*
X114453656Y-118580840D01*
X114424887Y-118539754D01*
X114414410Y-118531379D01*
X114400962Y-118538448D01*
X113735822Y-119203588D01*
X113728208Y-119217532D01*
X112998156Y-119217532D01*
X112999392Y-119215268D01*
X112999261Y-119213435D01*
X112995010Y-119206820D01*
X112325916Y-118537726D01*
X112314141Y-118531296D01*
X112302126Y-118540592D01*
X112273944Y-118580840D01*
X112268461Y-118590336D01*
X112180134Y-118779753D01*
X112176388Y-118790045D01*
X112122295Y-118991923D01*
X112120392Y-119002718D01*
X112102176Y-119210925D01*
X112102176Y-119221875D01*
X107508000Y-119221875D01*
X107508000Y-118165790D01*
X112678779Y-118165790D01*
X112685848Y-118179238D01*
X113350988Y-118844378D01*
X113364932Y-118851992D01*
X113366765Y-118851861D01*
X113373380Y-118847610D01*
X114042474Y-118178516D01*
X114048904Y-118166741D01*
X114039608Y-118154726D01*
X113999360Y-118126544D01*
X113989865Y-118121061D01*
X113800447Y-118032734D01*
X113790155Y-118028988D01*
X113588277Y-117974895D01*
X113577482Y-117972992D01*
X113369275Y-117954776D01*
X113358325Y-117954776D01*
X113150118Y-117972992D01*
X113139323Y-117974895D01*
X112937445Y-118028988D01*
X112927153Y-118032734D01*
X112737736Y-118121061D01*
X112728240Y-118126544D01*
X112687154Y-118155313D01*
X112678779Y-118165790D01*
X107508000Y-118165790D01*
X107508000Y-114720600D01*
X112101195Y-114720600D01*
X112120377Y-114939849D01*
X112177339Y-115152436D01*
X112270352Y-115351902D01*
X112396588Y-115532187D01*
X112552213Y-115687812D01*
X112556721Y-115690969D01*
X112556724Y-115690971D01*
X112727988Y-115810891D01*
X112732497Y-115814048D01*
X112737479Y-115816371D01*
X112737484Y-115816374D01*
X112926982Y-115904738D01*
X112931964Y-115907061D01*
X112937272Y-115908483D01*
X112937274Y-115908484D01*
X113139236Y-115962599D01*
X113139237Y-115962599D01*
X113144551Y-115964023D01*
X113363800Y-115983205D01*
X113583049Y-115964023D01*
X113588363Y-115962599D01*
X113588364Y-115962599D01*
X113790326Y-115908484D01*
X113790328Y-115908483D01*
X113795636Y-115907061D01*
X113800618Y-115904738D01*
X113990116Y-115816374D01*
X113990121Y-115816371D01*
X113995103Y-115814048D01*
X113999612Y-115810891D01*
X114170876Y-115690971D01*
X114170879Y-115690969D01*
X114175387Y-115687812D01*
X114331012Y-115532187D01*
X114457248Y-115351902D01*
X114550261Y-115152436D01*
X114607223Y-114939849D01*
X114626405Y-114720600D01*
X114618124Y-114625949D01*
X115055181Y-114625949D01*
X115060462Y-114633004D01*
X115237343Y-114736365D01*
X115246626Y-114740812D01*
X115453527Y-114819820D01*
X115463425Y-114822696D01*
X115680452Y-114866850D01*
X115690681Y-114868069D01*
X115912003Y-114876186D01*
X115922289Y-114875719D01*
X116141970Y-114847577D01*
X116152048Y-114845435D01*
X116364175Y-114781794D01*
X116373782Y-114778028D01*
X116572653Y-114680602D01*
X116581512Y-114675322D01*
X116639315Y-114634091D01*
X116647715Y-114623391D01*
X116640728Y-114610238D01*
X115865812Y-113835322D01*
X115851868Y-113827708D01*
X115850035Y-113827839D01*
X115843420Y-113832090D01*
X115061941Y-114613569D01*
X115055181Y-114625949D01*
X114618124Y-114625949D01*
X114607223Y-114501351D01*
X114586196Y-114422877D01*
X114587886Y-114351902D01*
X114627680Y-114293106D01*
X114658027Y-114274559D01*
X114701096Y-114255994D01*
X115480978Y-113476112D01*
X115487356Y-113464432D01*
X116217408Y-113464432D01*
X116217539Y-113466265D01*
X116221790Y-113472880D01*
X117000520Y-114251610D01*
X117012531Y-114258169D01*
X117024269Y-114249201D01*
X117062469Y-114196041D01*
X117067784Y-114187195D01*
X117165904Y-113988666D01*
X117169702Y-113979073D01*
X117234083Y-113767169D01*
X117236260Y-113757099D01*
X117265405Y-113535722D01*
X117265924Y-113529047D01*
X117267449Y-113466664D01*
X117267255Y-113459946D01*
X117248961Y-113237421D01*
X117247278Y-113227259D01*
X117193324Y-113012459D01*
X117190005Y-113002708D01*
X117101689Y-112799596D01*
X117096825Y-112790525D01*
X117023453Y-112677110D01*
X117012766Y-112667906D01*
X117003201Y-112672309D01*
X116225022Y-113450488D01*
X116217408Y-113464432D01*
X115487356Y-113464432D01*
X115488592Y-113462168D01*
X115488461Y-113460335D01*
X115484210Y-113453720D01*
X114705643Y-112675153D01*
X114694107Y-112668853D01*
X114681824Y-112678477D01*
X114625991Y-112760325D01*
X114620893Y-112769299D01*
X114527652Y-112970170D01*
X114524089Y-112979857D01*
X114464906Y-113193261D01*
X114462975Y-113203380D01*
X114439440Y-113423607D01*
X114439188Y-113433896D01*
X114451937Y-113654996D01*
X114453374Y-113665220D01*
X114464239Y-113713433D01*
X114459703Y-113784284D01*
X114417581Y-113841436D01*
X114351247Y-113866741D01*
X114281763Y-113852168D01*
X114252227Y-113830228D01*
X114175387Y-113753388D01*
X114170879Y-113750231D01*
X114170876Y-113750229D01*
X113999612Y-113630309D01*
X113999609Y-113630307D01*
X113995103Y-113627152D01*
X113990121Y-113624829D01*
X113990116Y-113624826D01*
X113800618Y-113536462D01*
X113800617Y-113536461D01*
X113795636Y-113534139D01*
X113790328Y-113532717D01*
X113790326Y-113532716D01*
X113588364Y-113478601D01*
X113588363Y-113478601D01*
X113583049Y-113477177D01*
X113363800Y-113457995D01*
X113144551Y-113477177D01*
X113139237Y-113478601D01*
X113139236Y-113478601D01*
X112937274Y-113532716D01*
X112937272Y-113532717D01*
X112931964Y-113534139D01*
X112926984Y-113536461D01*
X112926982Y-113536462D01*
X112737479Y-113624829D01*
X112737476Y-113624831D01*
X112732498Y-113627152D01*
X112552213Y-113753388D01*
X112396588Y-113909013D01*
X112270352Y-114089298D01*
X112268031Y-114094276D01*
X112268029Y-114094279D01*
X112194664Y-114251610D01*
X112177339Y-114288764D01*
X112120377Y-114501351D01*
X112101195Y-114720600D01*
X107508000Y-114720600D01*
X107508000Y-112302798D01*
X115057294Y-112302798D01*
X115064038Y-112315128D01*
X115840188Y-113091278D01*
X115854132Y-113098892D01*
X115855965Y-113098761D01*
X115862580Y-113094510D01*
X116643200Y-112313890D01*
X116650220Y-112301034D01*
X116642446Y-112290364D01*
X116639848Y-112288312D01*
X116631265Y-112282609D01*
X116437375Y-112175577D01*
X116427976Y-112171352D01*
X116219211Y-112097424D01*
X116209240Y-112094790D01*
X115991208Y-112055953D01*
X115980955Y-112054984D01*
X115759496Y-112052278D01*
X115749213Y-112052998D01*
X115530297Y-112086496D01*
X115520270Y-112088885D01*
X115309766Y-112157688D01*
X115300257Y-112161685D01*
X115103820Y-112263945D01*
X115095092Y-112269441D01*
X115065747Y-112291473D01*
X115057294Y-112302798D01*
X107508000Y-112302798D01*
X107508000Y-109966695D01*
X116097251Y-109966695D01*
X116110110Y-110189715D01*
X116111247Y-110194761D01*
X116111248Y-110194767D01*
X116135304Y-110301508D01*
X116159222Y-110407639D01*
X116243266Y-110614616D01*
X116359987Y-110805088D01*
X116506250Y-110973938D01*
X116678126Y-111116632D01*
X116871000Y-111229338D01*
X117079692Y-111309030D01*
X117084760Y-111310061D01*
X117084763Y-111310062D01*
X117162841Y-111325947D01*
X117298597Y-111353567D01*
X117303772Y-111353757D01*
X117303774Y-111353757D01*
X117516673Y-111361564D01*
X117516677Y-111361564D01*
X117521837Y-111361753D01*
X117526957Y-111361097D01*
X117526959Y-111361097D01*
X117738288Y-111334025D01*
X117738289Y-111334025D01*
X117743416Y-111333368D01*
X117752119Y-111330757D01*
X117952429Y-111270661D01*
X117952434Y-111270659D01*
X117957384Y-111269174D01*
X118157994Y-111170896D01*
X118339860Y-111041173D01*
X118448091Y-110933319D01*
X118510462Y-110899404D01*
X118581268Y-110904592D01*
X118638030Y-110947238D01*
X118655012Y-110978341D01*
X118699385Y-111096705D01*
X118786739Y-111213261D01*
X118903295Y-111300615D01*
X119039684Y-111351745D01*
X119101866Y-111358500D01*
X120898134Y-111358500D01*
X120960316Y-111351745D01*
X121096705Y-111300615D01*
X121213261Y-111213261D01*
X121300615Y-111096705D01*
X121351745Y-110960316D01*
X121358500Y-110898134D01*
X121358500Y-109695660D01*
X121378502Y-109627539D01*
X121395405Y-109606565D01*
X127570718Y-103431252D01*
X127633030Y-103397226D01*
X127703845Y-103402291D01*
X127760681Y-103444838D01*
X127774236Y-103467591D01*
X127813898Y-103553624D01*
X127931479Y-103719997D01*
X127977206Y-103764542D01*
X128031422Y-103817357D01*
X128066259Y-103879218D01*
X128069500Y-103907611D01*
X128069500Y-104943754D01*
X128046586Y-105016206D01*
X128032871Y-105035720D01*
X128028939Y-105041014D01*
X127989524Y-105091282D01*
X127986401Y-105098198D01*
X127985017Y-105100484D01*
X127976643Y-105115165D01*
X127975378Y-105117525D01*
X127971010Y-105123739D01*
X127968250Y-105130818D01*
X127968249Y-105130820D01*
X127947798Y-105183275D01*
X127945247Y-105189344D01*
X127918955Y-105247573D01*
X127917571Y-105255040D01*
X127916770Y-105257595D01*
X127912141Y-105273848D01*
X127911478Y-105276428D01*
X127908718Y-105283509D01*
X127907727Y-105291040D01*
X127907726Y-105291042D01*
X127900379Y-105346852D01*
X127899348Y-105353359D01*
X127887704Y-105416186D01*
X127888141Y-105423766D01*
X127888141Y-105423767D01*
X127891291Y-105478392D01*
X127891500Y-105485646D01*
X127891500Y-110613122D01*
X127871498Y-110681243D01*
X127837771Y-110716335D01*
X127760211Y-110770643D01*
X127760208Y-110770645D01*
X127755700Y-110773802D01*
X127593802Y-110935700D01*
X127590645Y-110940208D01*
X127590643Y-110940211D01*
X127571385Y-110967715D01*
X127462477Y-111123251D01*
X127460154Y-111128233D01*
X127460151Y-111128238D01*
X127376708Y-111307185D01*
X127365716Y-111330757D01*
X127364294Y-111336065D01*
X127364293Y-111336067D01*
X127330000Y-111464050D01*
X127306457Y-111551913D01*
X127291500Y-111722873D01*
X127291500Y-112637127D01*
X127291738Y-112639844D01*
X127291738Y-112639851D01*
X127294578Y-112672309D01*
X127306457Y-112808087D01*
X127365716Y-113029243D01*
X127368039Y-113034224D01*
X127368039Y-113034225D01*
X127460151Y-113231762D01*
X127460154Y-113231767D01*
X127462477Y-113236749D01*
X127593802Y-113424300D01*
X127755700Y-113586198D01*
X127760208Y-113589355D01*
X127760211Y-113589357D01*
X127814188Y-113627152D01*
X127943251Y-113717523D01*
X127948233Y-113719846D01*
X127948238Y-113719849D01*
X128086421Y-113784284D01*
X128150757Y-113814284D01*
X128156065Y-113815706D01*
X128156067Y-113815707D01*
X128366598Y-113872119D01*
X128366600Y-113872119D01*
X128371913Y-113873543D01*
X128600000Y-113893498D01*
X128828087Y-113873543D01*
X128833400Y-113872119D01*
X128833402Y-113872119D01*
X129043933Y-113815707D01*
X129043935Y-113815706D01*
X129049243Y-113814284D01*
X129113579Y-113784284D01*
X129251762Y-113719849D01*
X129251767Y-113719846D01*
X129256749Y-113717523D01*
X129385812Y-113627152D01*
X129439789Y-113589357D01*
X129439792Y-113589355D01*
X129444300Y-113586198D01*
X129606198Y-113424300D01*
X129737523Y-113236749D01*
X129739846Y-113231767D01*
X129739849Y-113231762D01*
X129755805Y-113197543D01*
X129802722Y-113144258D01*
X129870999Y-113124797D01*
X129938959Y-113145339D01*
X129984195Y-113197543D01*
X130000151Y-113231762D01*
X130000154Y-113231767D01*
X130002477Y-113236749D01*
X130133802Y-113424300D01*
X130295700Y-113586198D01*
X130300208Y-113589355D01*
X130300211Y-113589357D01*
X130354188Y-113627152D01*
X130483251Y-113717523D01*
X130488233Y-113719846D01*
X130488238Y-113719849D01*
X130626421Y-113784284D01*
X130690757Y-113814284D01*
X130696065Y-113815706D01*
X130696067Y-113815707D01*
X130906598Y-113872119D01*
X130906600Y-113872119D01*
X130911913Y-113873543D01*
X131140000Y-113893498D01*
X131368087Y-113873543D01*
X131373400Y-113872119D01*
X131373402Y-113872119D01*
X131583933Y-113815707D01*
X131583935Y-113815706D01*
X131589243Y-113814284D01*
X131653579Y-113784284D01*
X131791762Y-113719849D01*
X131791767Y-113719846D01*
X131796749Y-113717523D01*
X131925812Y-113627152D01*
X131979789Y-113589357D01*
X131979792Y-113589355D01*
X131984300Y-113586198D01*
X132146198Y-113424300D01*
X132277523Y-113236749D01*
X132279846Y-113231767D01*
X132279849Y-113231762D01*
X132295805Y-113197543D01*
X132342722Y-113144258D01*
X132410999Y-113124797D01*
X132478959Y-113145339D01*
X132524195Y-113197543D01*
X132540151Y-113231762D01*
X132540154Y-113231767D01*
X132542477Y-113236749D01*
X132673802Y-113424300D01*
X132835700Y-113586198D01*
X132840208Y-113589355D01*
X132840211Y-113589357D01*
X132894188Y-113627152D01*
X133023251Y-113717523D01*
X133028233Y-113719846D01*
X133028238Y-113719849D01*
X133166421Y-113784284D01*
X133230757Y-113814284D01*
X133236065Y-113815706D01*
X133236067Y-113815707D01*
X133446598Y-113872119D01*
X133446600Y-113872119D01*
X133451913Y-113873543D01*
X133680000Y-113893498D01*
X133908087Y-113873543D01*
X133913400Y-113872119D01*
X133913402Y-113872119D01*
X134123933Y-113815707D01*
X134123935Y-113815706D01*
X134129243Y-113814284D01*
X134193579Y-113784284D01*
X134331762Y-113719849D01*
X134331767Y-113719846D01*
X134336749Y-113717523D01*
X134465812Y-113627152D01*
X134519789Y-113589357D01*
X134519792Y-113589355D01*
X134524300Y-113586198D01*
X134686198Y-113424300D01*
X134817523Y-113236749D01*
X134819846Y-113231767D01*
X134819849Y-113231762D01*
X134836081Y-113196951D01*
X134882998Y-113143666D01*
X134951275Y-113124205D01*
X135019235Y-113144747D01*
X135064471Y-113196951D01*
X135080586Y-113231511D01*
X135086069Y-113241007D01*
X135211028Y-113419467D01*
X135218084Y-113427875D01*
X135372125Y-113581916D01*
X135380533Y-113588972D01*
X135558993Y-113713931D01*
X135568489Y-113719414D01*
X135765947Y-113811490D01*
X135776239Y-113815236D01*
X135948503Y-113861394D01*
X135962599Y-113861058D01*
X135966000Y-113853116D01*
X135966000Y-113847967D01*
X136474000Y-113847967D01*
X136477973Y-113861498D01*
X136486522Y-113862727D01*
X136663761Y-113815236D01*
X136674053Y-113811490D01*
X136871511Y-113719414D01*
X136881007Y-113713931D01*
X137059467Y-113588972D01*
X137067875Y-113581916D01*
X137221916Y-113427875D01*
X137228972Y-113419467D01*
X137353931Y-113241007D01*
X137359414Y-113231511D01*
X137451490Y-113034053D01*
X137455236Y-113023761D01*
X137511625Y-112813312D01*
X137513528Y-112802519D01*
X137527762Y-112639830D01*
X137528000Y-112634365D01*
X137528000Y-112452115D01*
X137523525Y-112436876D01*
X137522135Y-112435671D01*
X137514452Y-112434000D01*
X136492115Y-112434000D01*
X136476876Y-112438475D01*
X136475671Y-112439865D01*
X136474000Y-112447548D01*
X136474000Y-113847967D01*
X135966000Y-113847967D01*
X135966000Y-111907885D01*
X136474000Y-111907885D01*
X136478475Y-111923124D01*
X136479865Y-111924329D01*
X136487548Y-111926000D01*
X137509885Y-111926000D01*
X137525124Y-111921525D01*
X137526329Y-111920135D01*
X137528000Y-111912452D01*
X137528000Y-111725635D01*
X137527762Y-111720170D01*
X137513528Y-111557481D01*
X137511625Y-111546688D01*
X137455236Y-111336239D01*
X137451490Y-111325947D01*
X137359414Y-111128489D01*
X137353931Y-111118993D01*
X137228972Y-110940533D01*
X137221916Y-110932125D01*
X137067875Y-110778084D01*
X137059467Y-110771028D01*
X136881007Y-110646069D01*
X136871511Y-110640586D01*
X136674053Y-110548510D01*
X136663761Y-110544764D01*
X136491497Y-110498606D01*
X136477401Y-110498942D01*
X136474000Y-110506884D01*
X136474000Y-111907885D01*
X135966000Y-111907885D01*
X135966000Y-110512033D01*
X135962027Y-110498502D01*
X135953478Y-110497273D01*
X135776239Y-110544764D01*
X135765947Y-110548510D01*
X135568489Y-110640586D01*
X135558993Y-110646069D01*
X135380533Y-110771028D01*
X135372125Y-110778084D01*
X135218084Y-110932125D01*
X135211028Y-110940533D01*
X135086069Y-111118993D01*
X135080586Y-111128489D01*
X135064471Y-111163049D01*
X135017554Y-111216334D01*
X134949277Y-111235795D01*
X134881317Y-111215253D01*
X134836081Y-111163049D01*
X134819849Y-111128238D01*
X134819846Y-111128233D01*
X134817523Y-111123251D01*
X134708615Y-110967715D01*
X134689357Y-110940211D01*
X134689355Y-110940208D01*
X134686198Y-110935700D01*
X134524300Y-110773802D01*
X134519792Y-110770645D01*
X134519789Y-110770643D01*
X134392112Y-110681243D01*
X134336749Y-110642477D01*
X134331767Y-110640154D01*
X134331762Y-110640151D01*
X134134225Y-110548039D01*
X134134224Y-110548039D01*
X134129243Y-110545716D01*
X134123935Y-110544294D01*
X134123933Y-110544293D01*
X133913402Y-110487881D01*
X133913400Y-110487881D01*
X133908087Y-110486457D01*
X133680000Y-110466502D01*
X133451913Y-110486457D01*
X133446600Y-110487881D01*
X133446598Y-110487881D01*
X133236067Y-110544293D01*
X133236065Y-110544294D01*
X133230757Y-110545716D01*
X133225776Y-110548039D01*
X133225775Y-110548039D01*
X133028238Y-110640151D01*
X133028233Y-110640154D01*
X133023251Y-110642477D01*
X132967888Y-110681243D01*
X132840211Y-110770643D01*
X132840208Y-110770645D01*
X132835700Y-110773802D01*
X132673802Y-110935700D01*
X132670645Y-110940208D01*
X132670643Y-110940211D01*
X132651385Y-110967715D01*
X132542477Y-111123251D01*
X132540154Y-111128233D01*
X132540151Y-111128238D01*
X132524195Y-111162457D01*
X132477278Y-111215742D01*
X132409001Y-111235203D01*
X132341041Y-111214661D01*
X132295805Y-111162457D01*
X132279849Y-111128238D01*
X132279846Y-111128233D01*
X132277523Y-111123251D01*
X132168615Y-110967715D01*
X132149357Y-110940211D01*
X132149355Y-110940208D01*
X132146198Y-110935700D01*
X131984300Y-110773802D01*
X131979792Y-110770645D01*
X131979789Y-110770643D01*
X131852112Y-110681243D01*
X131796749Y-110642477D01*
X131791767Y-110640154D01*
X131791762Y-110640151D01*
X131594225Y-110548039D01*
X131594224Y-110548039D01*
X131589243Y-110545716D01*
X131583935Y-110544294D01*
X131583933Y-110544293D01*
X131373402Y-110487881D01*
X131373400Y-110487881D01*
X131368087Y-110486457D01*
X131140000Y-110466502D01*
X130911913Y-110486457D01*
X130906600Y-110487881D01*
X130906598Y-110487881D01*
X130696067Y-110544293D01*
X130696065Y-110544294D01*
X130690757Y-110545716D01*
X130685776Y-110548039D01*
X130685775Y-110548039D01*
X130488238Y-110640151D01*
X130488233Y-110640154D01*
X130483251Y-110642477D01*
X130427888Y-110681243D01*
X130300211Y-110770643D01*
X130300208Y-110770645D01*
X130295700Y-110773802D01*
X130133802Y-110935700D01*
X130130645Y-110940208D01*
X130130643Y-110940211D01*
X130111385Y-110967715D01*
X130002477Y-111123251D01*
X130000154Y-111128233D01*
X130000151Y-111128238D01*
X129984195Y-111162457D01*
X129937278Y-111215742D01*
X129869001Y-111235203D01*
X129801041Y-111214661D01*
X129755805Y-111162457D01*
X129739849Y-111128238D01*
X129739846Y-111128233D01*
X129737523Y-111123251D01*
X129628615Y-110967715D01*
X129609357Y-110940211D01*
X129609355Y-110940208D01*
X129606198Y-110935700D01*
X129444300Y-110773802D01*
X129439792Y-110770645D01*
X129439789Y-110770643D01*
X129362229Y-110716335D01*
X129317901Y-110660878D01*
X129308500Y-110613122D01*
X129308500Y-105800246D01*
X129331414Y-105727794D01*
X129345129Y-105708280D01*
X129349061Y-105702986D01*
X129383791Y-105658693D01*
X129388476Y-105652718D01*
X129391599Y-105645802D01*
X129392983Y-105643516D01*
X129401357Y-105628835D01*
X129402622Y-105626475D01*
X129406990Y-105620261D01*
X129430203Y-105560723D01*
X129432759Y-105554642D01*
X129455918Y-105503352D01*
X129459045Y-105496427D01*
X129460429Y-105488960D01*
X129461230Y-105486405D01*
X129465859Y-105470152D01*
X129466522Y-105467572D01*
X129469282Y-105460491D01*
X129477622Y-105397139D01*
X129478653Y-105390632D01*
X129488912Y-105335280D01*
X129490296Y-105327814D01*
X129486709Y-105265608D01*
X129486500Y-105258354D01*
X129486500Y-103908718D01*
X129506502Y-103840597D01*
X129531928Y-103811846D01*
X129565186Y-103784186D01*
X129695458Y-103627551D01*
X129795004Y-103449799D01*
X129796860Y-103444332D01*
X129796862Y-103444327D01*
X129858634Y-103262352D01*
X129858635Y-103262347D01*
X129860490Y-103256883D01*
X129889723Y-103055263D01*
X129891249Y-102997000D01*
X129887291Y-102953926D01*
X129900975Y-102884262D01*
X129923667Y-102853303D01*
X136480528Y-96296443D01*
X136486793Y-96290589D01*
X136524664Y-96257552D01*
X136524665Y-96257551D01*
X136530385Y-96252561D01*
X136567136Y-96200271D01*
X136571028Y-96195029D01*
X136610476Y-96144718D01*
X136613600Y-96137799D01*
X136614988Y-96135507D01*
X136623357Y-96120835D01*
X136624622Y-96118475D01*
X136628990Y-96112261D01*
X136652203Y-96052723D01*
X136654759Y-96046642D01*
X136662572Y-96029340D01*
X136681045Y-95988427D01*
X136682430Y-95980954D01*
X136683234Y-95978388D01*
X136687855Y-95962165D01*
X136688520Y-95959573D01*
X136691282Y-95952491D01*
X136699622Y-95889139D01*
X136700654Y-95882623D01*
X136710911Y-95827281D01*
X136712295Y-95819814D01*
X136708709Y-95757620D01*
X136708500Y-95750367D01*
X136708500Y-81028927D01*
X136708792Y-81020358D01*
X136712210Y-80970225D01*
X136712210Y-80970221D01*
X136712726Y-80962648D01*
X136701736Y-80899681D01*
X136700775Y-80893165D01*
X136700218Y-80888561D01*
X136693102Y-80829758D01*
X136690419Y-80822657D01*
X136689778Y-80820048D01*
X136685313Y-80803728D01*
X136684548Y-80801195D01*
X136683243Y-80793717D01*
X136657552Y-80735190D01*
X136655067Y-80729102D01*
X136635172Y-80676449D01*
X136635171Y-80676447D01*
X136632487Y-80669344D01*
X136628186Y-80663085D01*
X136626949Y-80660720D01*
X136618727Y-80645948D01*
X136617372Y-80643656D01*
X136614316Y-80636695D01*
X136609691Y-80630668D01*
X136609689Y-80630664D01*
X136575407Y-80585987D01*
X136571529Y-80580650D01*
X136561890Y-80566624D01*
X136535357Y-80528019D01*
X136488847Y-80486580D01*
X136483571Y-80481600D01*
X135521435Y-79519465D01*
X135515581Y-79513198D01*
X135482556Y-79475340D01*
X135482553Y-79475337D01*
X135477561Y-79469615D01*
X135425280Y-79432871D01*
X135419986Y-79428939D01*
X135375693Y-79394209D01*
X135369718Y-79389524D01*
X135362802Y-79386401D01*
X135360516Y-79385017D01*
X135345835Y-79376643D01*
X135343475Y-79375378D01*
X135337261Y-79371010D01*
X135330182Y-79368250D01*
X135330180Y-79368249D01*
X135277725Y-79347798D01*
X135271656Y-79345247D01*
X135213427Y-79318955D01*
X135205960Y-79317571D01*
X135203405Y-79316770D01*
X135187152Y-79312141D01*
X135184572Y-79311478D01*
X135177491Y-79308718D01*
X135169960Y-79307727D01*
X135169958Y-79307726D01*
X135140339Y-79303827D01*
X135114139Y-79300378D01*
X135107641Y-79299348D01*
X135044814Y-79287704D01*
X135037234Y-79288141D01*
X135037233Y-79288141D01*
X134982608Y-79291291D01*
X134975354Y-79291500D01*
X133261912Y-79291500D01*
X133253342Y-79291208D01*
X133203224Y-79287791D01*
X133203220Y-79287791D01*
X133195648Y-79287275D01*
X133188171Y-79288580D01*
X133188170Y-79288580D01*
X133171440Y-79291500D01*
X133132703Y-79298261D01*
X133126186Y-79299222D01*
X133062758Y-79306898D01*
X133055650Y-79309584D01*
X133053056Y-79310221D01*
X133036750Y-79314682D01*
X133034199Y-79315452D01*
X133026716Y-79316758D01*
X133019764Y-79319810D01*
X133019763Y-79319810D01*
X132968212Y-79342439D01*
X132962105Y-79344931D01*
X132954518Y-79347798D01*
X132902344Y-79367513D01*
X132896083Y-79371816D01*
X132893717Y-79373053D01*
X132878937Y-79381280D01*
X132876652Y-79382631D01*
X132869695Y-79385685D01*
X132863675Y-79390305D01*
X132863669Y-79390308D01*
X132839578Y-79408795D01*
X132818998Y-79424587D01*
X132813668Y-79428459D01*
X132767280Y-79460339D01*
X132767275Y-79460344D01*
X132761019Y-79464643D01*
X132755968Y-79470313D01*
X132755966Y-79470314D01*
X132719565Y-79511170D01*
X132714584Y-79516446D01*
X130063915Y-82167115D01*
X130001603Y-82201141D01*
X129973171Y-82204009D01*
X129917028Y-82203274D01*
X129833655Y-82202183D01*
X129827958Y-82203162D01*
X129827957Y-82203162D01*
X129638567Y-82235705D01*
X129632870Y-82236684D01*
X129441734Y-82307198D01*
X129436773Y-82310150D01*
X129436772Y-82310150D01*
X129280086Y-82403369D01*
X129266649Y-82411363D01*
X129113478Y-82545690D01*
X129109907Y-82550220D01*
X129109904Y-82550223D01*
X129105741Y-82555504D01*
X129047861Y-82596618D01*
X129006790Y-82603500D01*
X127599660Y-82603500D01*
X127531539Y-82583498D01*
X127510565Y-82566595D01*
X125100688Y-80156718D01*
X125066662Y-80094406D01*
X125063826Y-80064324D01*
X125065152Y-80013704D01*
X125065249Y-80010000D01*
X125046608Y-79807126D01*
X124991307Y-79611047D01*
X124980680Y-79589496D01*
X124903756Y-79433510D01*
X124901201Y-79428329D01*
X124882796Y-79403681D01*
X124782758Y-79269715D01*
X124782758Y-79269714D01*
X124779305Y-79265091D01*
X124629703Y-79126800D01*
X124465768Y-79023365D01*
X124462288Y-79021169D01*
X124462283Y-79021167D01*
X124457404Y-79018088D01*
X124268180Y-78942595D01*
X124093663Y-78907881D01*
X124074032Y-78903976D01*
X124074031Y-78903976D01*
X124068366Y-78902849D01*
X124062592Y-78902773D01*
X124062588Y-78902773D01*
X123959452Y-78901424D01*
X123864655Y-78900183D01*
X123858958Y-78901162D01*
X123858957Y-78901162D01*
X123669567Y-78933705D01*
X123663870Y-78934684D01*
X123472734Y-79005198D01*
X123297649Y-79109363D01*
X123144478Y-79243690D01*
X123140911Y-79248215D01*
X123140906Y-79248220D01*
X123066630Y-79342439D01*
X123018351Y-79403681D01*
X123015662Y-79408792D01*
X123015660Y-79408795D01*
X122980649Y-79475340D01*
X122923492Y-79583978D01*
X122863078Y-79778543D01*
X122839132Y-79980859D01*
X122852457Y-80184151D01*
X122902605Y-80381610D01*
X122987898Y-80566624D01*
X123105479Y-80732997D01*
X123251410Y-80875157D01*
X123256206Y-80878362D01*
X123256209Y-80878364D01*
X123367162Y-80952500D01*
X123420803Y-80988342D01*
X123426106Y-80990620D01*
X123426109Y-80990622D01*
X123555959Y-81046410D01*
X123607987Y-81068763D01*
X123680817Y-81085243D01*
X123801055Y-81112450D01*
X123801060Y-81112451D01*
X123806692Y-81113725D01*
X123812463Y-81113952D01*
X123812465Y-81113952D01*
X124010263Y-81121723D01*
X124010198Y-81123384D01*
X124071729Y-81137996D01*
X124098354Y-81158324D01*
X125431968Y-82491939D01*
X126732557Y-83792528D01*
X126738411Y-83798793D01*
X126776439Y-83842385D01*
X126828729Y-83879136D01*
X126833971Y-83883028D01*
X126884282Y-83922476D01*
X126891201Y-83925600D01*
X126893493Y-83926988D01*
X126908165Y-83935357D01*
X126910525Y-83936622D01*
X126916739Y-83940990D01*
X126923818Y-83943750D01*
X126923820Y-83943751D01*
X126976275Y-83964202D01*
X126982344Y-83966753D01*
X127040573Y-83993045D01*
X127048046Y-83994430D01*
X127050612Y-83995234D01*
X127066835Y-83999855D01*
X127069427Y-84000520D01*
X127076509Y-84003282D01*
X127084044Y-84004274D01*
X127139861Y-84011622D01*
X127146377Y-84012654D01*
X127168860Y-84016821D01*
X127209186Y-84024295D01*
X127216766Y-84023858D01*
X127216767Y-84023858D01*
X127271380Y-84020709D01*
X127278633Y-84020500D01*
X129008370Y-84020500D01*
X129076491Y-84040502D01*
X129096290Y-84056245D01*
X129220410Y-84177157D01*
X129225206Y-84180362D01*
X129225209Y-84180364D01*
X129320196Y-84243832D01*
X129389803Y-84290342D01*
X129395106Y-84292620D01*
X129395109Y-84292622D01*
X129537858Y-84353952D01*
X129592551Y-84399221D01*
X129614088Y-84466872D01*
X129595631Y-84535427D01*
X129577215Y-84558815D01*
X122201480Y-91934550D01*
X122195215Y-91940404D01*
X122151615Y-91978439D01*
X122147248Y-91984653D01*
X122114872Y-92030719D01*
X122110939Y-92036014D01*
X122071524Y-92086282D01*
X122068401Y-92093198D01*
X122067017Y-92095484D01*
X122058643Y-92110165D01*
X122057378Y-92112525D01*
X122053010Y-92118739D01*
X122050250Y-92125818D01*
X122050249Y-92125820D01*
X122029798Y-92178275D01*
X122027247Y-92184344D01*
X122000955Y-92242573D01*
X121999571Y-92250040D01*
X121998770Y-92252595D01*
X121994141Y-92268848D01*
X121993478Y-92271428D01*
X121990718Y-92278509D01*
X121989727Y-92286040D01*
X121989726Y-92286042D01*
X121982379Y-92341852D01*
X121981348Y-92348359D01*
X121969704Y-92411186D01*
X121970141Y-92418766D01*
X121970141Y-92418767D01*
X121973291Y-92473392D01*
X121973500Y-92480646D01*
X121973500Y-100125264D01*
X121953498Y-100193385D01*
X121936595Y-100214359D01*
X118377937Y-103773017D01*
X118315625Y-103807043D01*
X118244810Y-103801978D01*
X118219116Y-103788871D01*
X118209552Y-103782517D01*
X118023117Y-103679599D01*
X118013705Y-103675369D01*
X117812959Y-103604280D01*
X117802988Y-103601646D01*
X117731837Y-103588972D01*
X117718540Y-103590432D01*
X117714000Y-103604989D01*
X117714000Y-105048000D01*
X117693998Y-105116121D01*
X117640342Y-105162614D01*
X117588000Y-105174000D01*
X116143225Y-105174000D01*
X116129694Y-105177973D01*
X116128257Y-105187966D01*
X116158565Y-105322446D01*
X116161645Y-105332275D01*
X116241770Y-105529603D01*
X116246413Y-105538794D01*
X116357694Y-105720388D01*
X116363777Y-105728699D01*
X116503213Y-105889667D01*
X116510580Y-105896883D01*
X116674434Y-106032916D01*
X116682881Y-106038831D01*
X116751969Y-106079203D01*
X116800693Y-106130842D01*
X116813764Y-106200625D01*
X116787033Y-106266396D01*
X116746584Y-106299752D01*
X116733607Y-106306507D01*
X116729474Y-106309610D01*
X116729471Y-106309612D01*
X116705247Y-106327800D01*
X116554965Y-106440635D01*
X116400629Y-106602138D01*
X116274743Y-106786680D01*
X116180688Y-106989305D01*
X116120989Y-107204570D01*
X116097251Y-107426695D01*
X116110110Y-107649715D01*
X116111247Y-107654761D01*
X116111248Y-107654767D01*
X116135304Y-107761508D01*
X116159222Y-107867639D01*
X116243266Y-108074616D01*
X116294942Y-108158944D01*
X116357291Y-108260688D01*
X116359987Y-108265088D01*
X116506250Y-108433938D01*
X116678126Y-108576632D01*
X116748595Y-108617811D01*
X116751445Y-108619476D01*
X116800169Y-108671114D01*
X116813240Y-108740897D01*
X116786509Y-108806669D01*
X116746055Y-108840027D01*
X116733607Y-108846507D01*
X116729474Y-108849610D01*
X116729471Y-108849612D01*
X116559100Y-108977530D01*
X116554965Y-108980635D01*
X116515525Y-109021907D01*
X116461280Y-109078671D01*
X116400629Y-109142138D01*
X116274743Y-109326680D01*
X116180688Y-109529305D01*
X116120989Y-109744570D01*
X116097251Y-109966695D01*
X107508000Y-109966695D01*
X107508000Y-104654183D01*
X116124389Y-104654183D01*
X116125912Y-104662607D01*
X116138292Y-104666000D01*
X117187885Y-104666000D01*
X117203124Y-104661525D01*
X117204329Y-104660135D01*
X117206000Y-104652452D01*
X117206000Y-103603102D01*
X117202082Y-103589758D01*
X117187806Y-103587771D01*
X117149324Y-103593660D01*
X117139288Y-103596051D01*
X116936868Y-103662212D01*
X116927359Y-103666209D01*
X116738463Y-103764542D01*
X116729738Y-103770036D01*
X116559433Y-103897905D01*
X116551726Y-103904748D01*
X116404590Y-104058717D01*
X116398104Y-104066727D01*
X116278098Y-104242649D01*
X116273000Y-104251623D01*
X116183338Y-104444783D01*
X116179775Y-104454470D01*
X116124389Y-104654183D01*
X107508000Y-104654183D01*
X107508000Y-102415749D01*
X113691381Y-102415749D01*
X113696662Y-102422804D01*
X113873543Y-102526165D01*
X113882826Y-102530612D01*
X114089727Y-102609620D01*
X114099625Y-102612496D01*
X114316652Y-102656650D01*
X114326881Y-102657869D01*
X114548203Y-102665986D01*
X114558489Y-102665519D01*
X114778170Y-102637377D01*
X114788248Y-102635235D01*
X115000375Y-102571594D01*
X115009982Y-102567828D01*
X115208853Y-102470402D01*
X115217712Y-102465122D01*
X115275515Y-102423891D01*
X115283915Y-102413191D01*
X115276928Y-102400038D01*
X114502012Y-101625122D01*
X114488068Y-101617508D01*
X114486235Y-101617639D01*
X114479620Y-101621890D01*
X113698141Y-102403369D01*
X113691381Y-102415749D01*
X107508000Y-102415749D01*
X107508000Y-101045459D01*
X111314896Y-101045459D01*
X111324192Y-101057474D01*
X111364440Y-101085656D01*
X111373935Y-101091139D01*
X111563353Y-101179466D01*
X111573645Y-101183212D01*
X111775523Y-101237305D01*
X111786318Y-101239208D01*
X111994525Y-101257424D01*
X112005475Y-101257424D01*
X112213682Y-101239208D01*
X112224477Y-101237305D01*
X112426355Y-101183212D01*
X112436647Y-101179466D01*
X112626065Y-101091139D01*
X112635560Y-101085656D01*
X112676646Y-101056887D01*
X112685021Y-101046410D01*
X112677953Y-101032963D01*
X112012812Y-100367822D01*
X111998868Y-100360208D01*
X111997035Y-100360339D01*
X111990420Y-100364590D01*
X111321326Y-101033684D01*
X111314896Y-101045459D01*
X107508000Y-101045459D01*
X107508000Y-100001275D01*
X110738376Y-100001275D01*
X110756592Y-100209482D01*
X110758495Y-100220277D01*
X110812588Y-100422155D01*
X110816334Y-100432447D01*
X110904661Y-100621864D01*
X110910144Y-100631360D01*
X110938913Y-100672446D01*
X110949390Y-100680821D01*
X110962838Y-100673752D01*
X111627978Y-100008612D01*
X111634356Y-99996932D01*
X112364408Y-99996932D01*
X112364539Y-99998765D01*
X112368790Y-100005380D01*
X113037884Y-100674474D01*
X113079366Y-100697126D01*
X113129568Y-100747329D01*
X113144658Y-100816704D01*
X113140396Y-100841385D01*
X113101106Y-100983060D01*
X113099175Y-100993180D01*
X113075640Y-101213407D01*
X113075388Y-101223696D01*
X113088137Y-101444796D01*
X113089573Y-101455017D01*
X113138260Y-101671055D01*
X113141344Y-101680896D01*
X113224664Y-101886087D01*
X113229314Y-101895292D01*
X113318062Y-102040115D01*
X113328520Y-102049577D01*
X113337296Y-102045794D01*
X114117178Y-101265912D01*
X114123556Y-101254232D01*
X114853608Y-101254232D01*
X114853739Y-101256065D01*
X114857990Y-101262680D01*
X115636720Y-102041410D01*
X115648731Y-102047969D01*
X115660469Y-102039001D01*
X115698669Y-101985841D01*
X115703984Y-101976995D01*
X115802104Y-101778466D01*
X115805902Y-101768873D01*
X115870283Y-101556969D01*
X115872460Y-101546899D01*
X115901605Y-101325522D01*
X115902124Y-101318847D01*
X115903649Y-101256464D01*
X115903455Y-101249746D01*
X115885161Y-101027221D01*
X115883478Y-101017059D01*
X115829524Y-100802259D01*
X115826205Y-100792508D01*
X115737889Y-100589396D01*
X115733025Y-100580325D01*
X115659653Y-100466910D01*
X115648966Y-100457706D01*
X115639401Y-100462109D01*
X114861222Y-101240288D01*
X114853608Y-101254232D01*
X114123556Y-101254232D01*
X114124792Y-101251968D01*
X114124661Y-101250135D01*
X114120410Y-101243520D01*
X113341843Y-100464953D01*
X113307090Y-100445976D01*
X113282172Y-100440555D01*
X113231970Y-100390353D01*
X113216879Y-100320978D01*
X113220851Y-100297356D01*
X113241505Y-100220274D01*
X113243408Y-100209482D01*
X113253634Y-100092598D01*
X113693494Y-100092598D01*
X113700238Y-100104928D01*
X114476388Y-100881078D01*
X114490332Y-100888692D01*
X114492165Y-100888561D01*
X114498780Y-100884310D01*
X115279400Y-100103690D01*
X115286420Y-100090834D01*
X115278646Y-100080164D01*
X115276048Y-100078112D01*
X115267465Y-100072409D01*
X115073575Y-99965377D01*
X115064176Y-99961152D01*
X114855411Y-99887224D01*
X114845440Y-99884590D01*
X114627408Y-99845753D01*
X114617155Y-99844784D01*
X114395696Y-99842078D01*
X114385413Y-99842798D01*
X114166497Y-99876296D01*
X114156470Y-99878685D01*
X113945966Y-99947488D01*
X113936457Y-99951485D01*
X113740020Y-100053745D01*
X113731292Y-100059241D01*
X113701947Y-100081273D01*
X113693494Y-100092598D01*
X113253634Y-100092598D01*
X113261624Y-100001275D01*
X113261624Y-99990325D01*
X113243408Y-99782118D01*
X113241505Y-99771323D01*
X113187412Y-99569445D01*
X113183666Y-99559153D01*
X113095339Y-99369736D01*
X113089856Y-99360240D01*
X113061087Y-99319154D01*
X113050610Y-99310779D01*
X113037162Y-99317848D01*
X112372022Y-99982988D01*
X112364408Y-99996932D01*
X111634356Y-99996932D01*
X111635592Y-99994668D01*
X111635461Y-99992835D01*
X111631210Y-99986220D01*
X110962116Y-99317126D01*
X110950341Y-99310696D01*
X110938326Y-99319992D01*
X110910144Y-99360240D01*
X110904661Y-99369736D01*
X110816334Y-99559153D01*
X110812588Y-99569445D01*
X110758495Y-99771323D01*
X110756592Y-99782118D01*
X110738376Y-99990325D01*
X110738376Y-100001275D01*
X107508000Y-100001275D01*
X107508000Y-98945190D01*
X111314979Y-98945190D01*
X111322048Y-98958638D01*
X111987188Y-99623778D01*
X112001132Y-99631392D01*
X112002965Y-99631261D01*
X112009580Y-99627010D01*
X112651121Y-98985469D01*
X116587095Y-98985469D01*
X116587392Y-98990622D01*
X116587392Y-98990625D01*
X116593067Y-99089041D01*
X116600427Y-99216697D01*
X116601564Y-99221743D01*
X116601565Y-99221749D01*
X116632776Y-99360240D01*
X116651346Y-99442642D01*
X116653288Y-99447424D01*
X116653289Y-99447428D01*
X116726210Y-99627010D01*
X116738484Y-99657237D01*
X116859501Y-99854719D01*
X117011147Y-100029784D01*
X117189349Y-100177730D01*
X117389322Y-100294584D01*
X117605694Y-100377209D01*
X117610760Y-100378240D01*
X117610761Y-100378240D01*
X117663846Y-100389040D01*
X117832656Y-100423385D01*
X117963324Y-100428176D01*
X118058949Y-100431683D01*
X118058953Y-100431683D01*
X118064113Y-100431872D01*
X118069233Y-100431216D01*
X118069235Y-100431216D01*
X118142270Y-100421860D01*
X118293847Y-100402442D01*
X118298795Y-100400957D01*
X118298802Y-100400956D01*
X118510747Y-100337369D01*
X118515690Y-100335886D01*
X118596236Y-100296427D01*
X118719049Y-100236262D01*
X118719052Y-100236260D01*
X118723684Y-100233991D01*
X118912243Y-100099494D01*
X119076303Y-99936005D01*
X119211458Y-99747917D01*
X119258641Y-99652450D01*
X119311784Y-99544922D01*
X119311785Y-99544920D01*
X119314078Y-99540280D01*
X119381408Y-99318671D01*
X119411640Y-99089041D01*
X119413327Y-99020000D01*
X119403499Y-98900461D01*
X119394773Y-98794318D01*
X119394772Y-98794312D01*
X119394349Y-98789167D01*
X119337925Y-98564533D01*
X119335866Y-98559797D01*
X119247630Y-98356868D01*
X119247628Y-98356865D01*
X119245570Y-98352131D01*
X119119764Y-98157665D01*
X119029848Y-98058848D01*
X118998796Y-97995002D01*
X119007192Y-97924504D01*
X119052369Y-97869736D01*
X119078812Y-97856067D01*
X119138297Y-97833767D01*
X119146705Y-97830615D01*
X119263261Y-97743261D01*
X119350615Y-97626705D01*
X119401745Y-97490316D01*
X119408500Y-97428134D01*
X119408500Y-95531866D01*
X119401745Y-95469684D01*
X119350615Y-95333295D01*
X119263261Y-95216739D01*
X119146705Y-95129385D01*
X119010316Y-95078255D01*
X118948134Y-95071500D01*
X117051866Y-95071500D01*
X116989684Y-95078255D01*
X116853295Y-95129385D01*
X116736739Y-95216739D01*
X116649385Y-95333295D01*
X116598255Y-95469684D01*
X116591500Y-95531866D01*
X116591500Y-97428134D01*
X116598255Y-97490316D01*
X116649385Y-97626705D01*
X116736739Y-97743261D01*
X116853295Y-97830615D01*
X116861704Y-97833767D01*
X116861705Y-97833768D01*
X116921164Y-97856058D01*
X116977929Y-97898699D01*
X117002629Y-97965261D01*
X116987422Y-98034609D01*
X116968029Y-98061091D01*
X116901639Y-98130564D01*
X116898725Y-98134836D01*
X116898724Y-98134837D01*
X116883152Y-98157665D01*
X116771119Y-98321899D01*
X116673602Y-98531981D01*
X116611707Y-98755169D01*
X116587095Y-98985469D01*
X112651121Y-98985469D01*
X112678674Y-98957916D01*
X112685104Y-98946141D01*
X112675808Y-98934126D01*
X112635560Y-98905944D01*
X112626065Y-98900461D01*
X112436647Y-98812134D01*
X112426355Y-98808388D01*
X112224477Y-98754295D01*
X112213682Y-98752392D01*
X112005475Y-98734176D01*
X111994525Y-98734176D01*
X111786318Y-98752392D01*
X111775523Y-98754295D01*
X111573645Y-98808388D01*
X111563353Y-98812134D01*
X111373936Y-98900461D01*
X111364440Y-98905944D01*
X111323354Y-98934713D01*
X111314979Y-98945190D01*
X107508000Y-98945190D01*
X107508000Y-95500000D01*
X110737395Y-95500000D01*
X110756577Y-95719249D01*
X110758001Y-95724563D01*
X110758001Y-95724564D01*
X110811263Y-95923340D01*
X110813539Y-95931836D01*
X110815861Y-95936816D01*
X110815862Y-95936818D01*
X110894217Y-96104849D01*
X110906552Y-96131302D01*
X111032788Y-96311587D01*
X111188413Y-96467212D01*
X111192921Y-96470369D01*
X111192924Y-96470371D01*
X111364188Y-96590291D01*
X111368697Y-96593448D01*
X111373679Y-96595771D01*
X111373684Y-96595774D01*
X111563182Y-96684138D01*
X111568164Y-96686461D01*
X111573472Y-96687883D01*
X111573474Y-96687884D01*
X111775436Y-96741999D01*
X111775437Y-96741999D01*
X111780751Y-96743423D01*
X112000000Y-96762605D01*
X112219249Y-96743423D01*
X112224563Y-96741999D01*
X112224564Y-96741999D01*
X112426526Y-96687884D01*
X112426528Y-96687883D01*
X112431836Y-96686461D01*
X112436818Y-96684138D01*
X112626316Y-96595774D01*
X112626321Y-96595771D01*
X112631303Y-96593448D01*
X112635812Y-96590291D01*
X112807076Y-96470371D01*
X112807079Y-96470369D01*
X112811587Y-96467212D01*
X112967212Y-96311587D01*
X113093448Y-96131302D01*
X113105784Y-96104849D01*
X113184138Y-95936818D01*
X113184139Y-95936816D01*
X113186461Y-95931836D01*
X113188738Y-95923340D01*
X113241999Y-95724564D01*
X113241999Y-95724563D01*
X113243423Y-95719249D01*
X113262605Y-95500000D01*
X113254324Y-95405349D01*
X113691381Y-95405349D01*
X113696662Y-95412404D01*
X113873543Y-95515765D01*
X113882826Y-95520212D01*
X114089727Y-95599220D01*
X114099625Y-95602096D01*
X114316652Y-95646250D01*
X114326881Y-95647469D01*
X114548203Y-95655586D01*
X114558489Y-95655119D01*
X114778170Y-95626977D01*
X114788248Y-95624835D01*
X115000375Y-95561194D01*
X115009982Y-95557428D01*
X115208853Y-95460002D01*
X115217712Y-95454722D01*
X115275515Y-95413491D01*
X115283915Y-95402791D01*
X115276928Y-95389638D01*
X114502012Y-94614722D01*
X114488068Y-94607108D01*
X114486235Y-94607239D01*
X114479620Y-94611490D01*
X113698141Y-95392969D01*
X113691381Y-95405349D01*
X113254324Y-95405349D01*
X113243423Y-95280751D01*
X113222396Y-95202277D01*
X113224086Y-95131302D01*
X113263880Y-95072506D01*
X113294227Y-95053959D01*
X113337296Y-95035394D01*
X114117178Y-94255512D01*
X114123556Y-94243832D01*
X114853608Y-94243832D01*
X114853739Y-94245665D01*
X114857990Y-94252280D01*
X115636720Y-95031010D01*
X115648731Y-95037569D01*
X115660469Y-95028601D01*
X115698669Y-94975441D01*
X115703984Y-94966595D01*
X115802104Y-94768066D01*
X115805902Y-94758473D01*
X115870283Y-94546569D01*
X115872460Y-94536499D01*
X115901605Y-94315122D01*
X115902124Y-94308447D01*
X115903649Y-94246064D01*
X115903455Y-94239346D01*
X115885161Y-94016821D01*
X115883478Y-94006659D01*
X115829524Y-93791859D01*
X115826205Y-93782108D01*
X115737889Y-93578996D01*
X115733025Y-93569925D01*
X115659653Y-93456510D01*
X115648966Y-93447306D01*
X115639401Y-93451709D01*
X114861222Y-94229888D01*
X114853608Y-94243832D01*
X114123556Y-94243832D01*
X114124792Y-94241568D01*
X114124661Y-94239735D01*
X114120410Y-94233120D01*
X113341843Y-93454553D01*
X113330307Y-93448253D01*
X113318024Y-93457877D01*
X113262191Y-93539725D01*
X113257093Y-93548699D01*
X113163852Y-93749570D01*
X113160289Y-93759257D01*
X113101106Y-93972661D01*
X113099175Y-93982780D01*
X113075640Y-94203007D01*
X113075388Y-94213296D01*
X113088137Y-94434396D01*
X113089574Y-94444620D01*
X113100439Y-94492833D01*
X113095903Y-94563684D01*
X113053781Y-94620836D01*
X112987447Y-94646141D01*
X112917963Y-94631568D01*
X112888427Y-94609628D01*
X112811587Y-94532788D01*
X112807079Y-94529631D01*
X112807076Y-94529629D01*
X112635812Y-94409709D01*
X112635809Y-94409707D01*
X112631303Y-94406552D01*
X112626321Y-94404229D01*
X112626316Y-94404226D01*
X112436818Y-94315862D01*
X112436817Y-94315861D01*
X112431836Y-94313539D01*
X112426528Y-94312117D01*
X112426526Y-94312116D01*
X112224564Y-94258001D01*
X112224563Y-94258001D01*
X112219249Y-94256577D01*
X112000000Y-94237395D01*
X111780751Y-94256577D01*
X111775437Y-94258001D01*
X111775436Y-94258001D01*
X111573474Y-94312116D01*
X111573472Y-94312117D01*
X111568164Y-94313539D01*
X111563184Y-94315861D01*
X111563182Y-94315862D01*
X111373679Y-94404229D01*
X111373676Y-94404231D01*
X111368698Y-94406552D01*
X111188413Y-94532788D01*
X111032788Y-94688413D01*
X110906552Y-94868698D01*
X110904231Y-94873676D01*
X110904229Y-94873679D01*
X110830864Y-95031010D01*
X110813539Y-95068164D01*
X110812117Y-95073472D01*
X110812116Y-95073474D01*
X110773729Y-95216739D01*
X110756577Y-95280751D01*
X110737395Y-95500000D01*
X107508000Y-95500000D01*
X107508000Y-92415749D01*
X113691381Y-92415749D01*
X113696662Y-92422804D01*
X113873543Y-92526165D01*
X113882826Y-92530612D01*
X114089727Y-92609620D01*
X114099624Y-92612496D01*
X114150155Y-92622776D01*
X114212920Y-92655958D01*
X114247783Y-92717805D01*
X114243674Y-92788683D01*
X114201898Y-92846087D01*
X114161026Y-92865579D01*
X114161385Y-92866678D01*
X113945966Y-92937088D01*
X113936457Y-92941085D01*
X113740020Y-93043345D01*
X113731292Y-93048841D01*
X113701947Y-93070873D01*
X113693494Y-93082198D01*
X113700238Y-93094528D01*
X114476388Y-93870678D01*
X114490332Y-93878292D01*
X114492165Y-93878161D01*
X114498780Y-93873910D01*
X115279400Y-93093290D01*
X115286420Y-93080434D01*
X115278646Y-93069764D01*
X115276048Y-93067712D01*
X115267465Y-93062009D01*
X115073575Y-92954977D01*
X115064176Y-92950752D01*
X114855411Y-92876824D01*
X114845449Y-92874193D01*
X114830494Y-92871529D01*
X114766936Y-92839892D01*
X114730572Y-92778915D01*
X114732947Y-92707958D01*
X114773307Y-92649549D01*
X114816380Y-92626795D01*
X115000375Y-92571594D01*
X115009982Y-92567828D01*
X115208853Y-92470402D01*
X115217712Y-92465122D01*
X115275515Y-92423891D01*
X115283915Y-92413191D01*
X115276928Y-92400038D01*
X114502012Y-91625122D01*
X114488068Y-91617508D01*
X114486235Y-91617639D01*
X114479620Y-91621890D01*
X113698141Y-92403369D01*
X113691381Y-92415749D01*
X107508000Y-92415749D01*
X107508000Y-91045459D01*
X111314896Y-91045459D01*
X111324192Y-91057474D01*
X111364440Y-91085656D01*
X111373935Y-91091139D01*
X111563353Y-91179466D01*
X111573645Y-91183212D01*
X111775523Y-91237305D01*
X111786318Y-91239208D01*
X111994525Y-91257424D01*
X112005475Y-91257424D01*
X112213682Y-91239208D01*
X112224477Y-91237305D01*
X112426355Y-91183212D01*
X112436647Y-91179466D01*
X112626065Y-91091139D01*
X112635560Y-91085656D01*
X112676646Y-91056887D01*
X112685021Y-91046410D01*
X112677953Y-91032963D01*
X112012812Y-90367822D01*
X111998868Y-90360208D01*
X111997035Y-90360339D01*
X111990420Y-90364590D01*
X111321326Y-91033684D01*
X111314896Y-91045459D01*
X107508000Y-91045459D01*
X107508000Y-90001275D01*
X110738376Y-90001275D01*
X110756592Y-90209482D01*
X110758495Y-90220277D01*
X110812588Y-90422155D01*
X110816334Y-90432447D01*
X110904661Y-90621864D01*
X110910144Y-90631360D01*
X110938913Y-90672446D01*
X110949390Y-90680821D01*
X110962838Y-90673752D01*
X111627978Y-90008612D01*
X111634356Y-89996932D01*
X112364408Y-89996932D01*
X112364539Y-89998765D01*
X112368790Y-90005380D01*
X113037884Y-90674474D01*
X113079366Y-90697126D01*
X113129568Y-90747329D01*
X113144658Y-90816704D01*
X113140396Y-90841385D01*
X113101106Y-90983060D01*
X113099175Y-90993180D01*
X113075640Y-91213407D01*
X113075388Y-91223696D01*
X113088137Y-91444796D01*
X113089573Y-91455017D01*
X113138260Y-91671055D01*
X113141344Y-91680896D01*
X113224664Y-91886087D01*
X113229314Y-91895292D01*
X113318062Y-92040115D01*
X113328520Y-92049577D01*
X113337296Y-92045794D01*
X114117178Y-91265912D01*
X114123556Y-91254232D01*
X114853608Y-91254232D01*
X114853739Y-91256065D01*
X114857990Y-91262680D01*
X115636720Y-92041410D01*
X115648731Y-92047969D01*
X115660469Y-92039001D01*
X115698669Y-91985841D01*
X115703984Y-91976995D01*
X115802104Y-91778466D01*
X115805902Y-91768873D01*
X115870283Y-91556969D01*
X115872460Y-91546899D01*
X115901605Y-91325522D01*
X115902124Y-91318847D01*
X115903649Y-91256464D01*
X115903455Y-91249746D01*
X115885161Y-91027221D01*
X115883478Y-91017059D01*
X115829524Y-90802259D01*
X115826205Y-90792508D01*
X115737889Y-90589396D01*
X115733025Y-90580325D01*
X115659653Y-90466910D01*
X115648966Y-90457706D01*
X115639401Y-90462109D01*
X114861222Y-91240288D01*
X114853608Y-91254232D01*
X114123556Y-91254232D01*
X114124792Y-91251968D01*
X114124661Y-91250135D01*
X114120410Y-91243520D01*
X113341843Y-90464953D01*
X113307090Y-90445976D01*
X113282172Y-90440555D01*
X113231970Y-90390353D01*
X113216879Y-90320978D01*
X113220851Y-90297356D01*
X113241505Y-90220274D01*
X113243408Y-90209482D01*
X113253634Y-90092598D01*
X113693494Y-90092598D01*
X113700238Y-90104928D01*
X114476388Y-90881078D01*
X114490332Y-90888692D01*
X114492165Y-90888561D01*
X114498780Y-90884310D01*
X115279400Y-90103690D01*
X115286420Y-90090834D01*
X115278646Y-90080164D01*
X115276048Y-90078112D01*
X115267465Y-90072409D01*
X115073575Y-89965377D01*
X115064176Y-89961152D01*
X114855411Y-89887224D01*
X114845440Y-89884590D01*
X114627408Y-89845753D01*
X114617155Y-89844784D01*
X114395696Y-89842078D01*
X114385413Y-89842798D01*
X114166497Y-89876296D01*
X114156470Y-89878685D01*
X113945966Y-89947488D01*
X113936457Y-89951485D01*
X113740020Y-90053745D01*
X113731292Y-90059241D01*
X113701947Y-90081273D01*
X113693494Y-90092598D01*
X113253634Y-90092598D01*
X113261624Y-90001275D01*
X113261624Y-89990325D01*
X113243408Y-89782118D01*
X113241505Y-89771323D01*
X113187412Y-89569445D01*
X113183666Y-89559153D01*
X113095339Y-89369736D01*
X113089856Y-89360240D01*
X113061087Y-89319154D01*
X113050610Y-89310779D01*
X113037162Y-89317848D01*
X112372022Y-89982988D01*
X112364408Y-89996932D01*
X111634356Y-89996932D01*
X111635592Y-89994668D01*
X111635461Y-89992835D01*
X111631210Y-89986220D01*
X110962116Y-89317126D01*
X110950341Y-89310696D01*
X110938326Y-89319992D01*
X110910144Y-89360240D01*
X110904661Y-89369736D01*
X110816334Y-89559153D01*
X110812588Y-89569445D01*
X110758495Y-89771323D01*
X110756592Y-89782118D01*
X110738376Y-89990325D01*
X110738376Y-90001275D01*
X107508000Y-90001275D01*
X107508000Y-88945190D01*
X111314979Y-88945190D01*
X111322048Y-88958638D01*
X111987188Y-89623778D01*
X112001132Y-89631392D01*
X112002965Y-89631261D01*
X112009580Y-89627010D01*
X112651121Y-88985469D01*
X116587095Y-88985469D01*
X116587392Y-88990622D01*
X116587392Y-88990625D01*
X116593067Y-89089041D01*
X116600427Y-89216697D01*
X116601564Y-89221743D01*
X116601565Y-89221749D01*
X116632776Y-89360240D01*
X116651346Y-89442642D01*
X116653288Y-89447424D01*
X116653289Y-89447428D01*
X116726210Y-89627010D01*
X116738484Y-89657237D01*
X116859501Y-89854719D01*
X117011147Y-90029784D01*
X117189349Y-90177730D01*
X117389322Y-90294584D01*
X117605694Y-90377209D01*
X117610760Y-90378240D01*
X117610761Y-90378240D01*
X117663846Y-90389040D01*
X117832656Y-90423385D01*
X117963324Y-90428176D01*
X118058949Y-90431683D01*
X118058953Y-90431683D01*
X118064113Y-90431872D01*
X118069233Y-90431216D01*
X118069235Y-90431216D01*
X118142270Y-90421860D01*
X118293847Y-90402442D01*
X118298795Y-90400957D01*
X118298802Y-90400956D01*
X118510747Y-90337369D01*
X118515690Y-90335886D01*
X118596236Y-90296427D01*
X118719049Y-90236262D01*
X118719052Y-90236260D01*
X118723684Y-90233991D01*
X118912243Y-90099494D01*
X119076303Y-89936005D01*
X119211458Y-89747917D01*
X119258641Y-89652450D01*
X119311784Y-89544922D01*
X119311785Y-89544920D01*
X119314078Y-89540280D01*
X119381408Y-89318671D01*
X119411640Y-89089041D01*
X119413327Y-89020000D01*
X119403499Y-88900461D01*
X119394773Y-88794318D01*
X119394772Y-88794312D01*
X119394349Y-88789167D01*
X119337925Y-88564533D01*
X119335866Y-88559797D01*
X119247630Y-88356868D01*
X119247628Y-88356865D01*
X119245570Y-88352131D01*
X119119764Y-88157665D01*
X119029848Y-88058848D01*
X118998796Y-87995002D01*
X119007192Y-87924504D01*
X119052369Y-87869736D01*
X119078812Y-87856067D01*
X119138297Y-87833767D01*
X119146705Y-87830615D01*
X119263261Y-87743261D01*
X119350615Y-87626705D01*
X119401745Y-87490316D01*
X119408500Y-87428134D01*
X119408500Y-85531866D01*
X119401745Y-85469684D01*
X119350615Y-85333295D01*
X119263261Y-85216739D01*
X119146705Y-85129385D01*
X119010316Y-85078255D01*
X118948134Y-85071500D01*
X117051866Y-85071500D01*
X116989684Y-85078255D01*
X116853295Y-85129385D01*
X116736739Y-85216739D01*
X116649385Y-85333295D01*
X116598255Y-85469684D01*
X116591500Y-85531866D01*
X116591500Y-87428134D01*
X116598255Y-87490316D01*
X116649385Y-87626705D01*
X116736739Y-87743261D01*
X116853295Y-87830615D01*
X116861704Y-87833767D01*
X116861705Y-87833768D01*
X116921164Y-87856058D01*
X116977929Y-87898699D01*
X117002629Y-87965261D01*
X116987422Y-88034609D01*
X116968029Y-88061091D01*
X116901639Y-88130564D01*
X116898725Y-88134836D01*
X116898724Y-88134837D01*
X116883152Y-88157665D01*
X116771119Y-88321899D01*
X116673602Y-88531981D01*
X116611707Y-88755169D01*
X116587095Y-88985469D01*
X112651121Y-88985469D01*
X112678674Y-88957916D01*
X112685104Y-88946141D01*
X112675808Y-88934126D01*
X112635560Y-88905944D01*
X112626065Y-88900461D01*
X112436647Y-88812134D01*
X112426355Y-88808388D01*
X112224477Y-88754295D01*
X112213682Y-88752392D01*
X112005475Y-88734176D01*
X111994525Y-88734176D01*
X111786318Y-88752392D01*
X111775523Y-88754295D01*
X111573645Y-88808388D01*
X111563353Y-88812134D01*
X111373936Y-88900461D01*
X111364440Y-88905944D01*
X111323354Y-88934713D01*
X111314979Y-88945190D01*
X107508000Y-88945190D01*
X107508000Y-85500000D01*
X110737395Y-85500000D01*
X110756577Y-85719249D01*
X110758001Y-85724563D01*
X110758001Y-85724564D01*
X110793724Y-85857883D01*
X110813539Y-85931836D01*
X110815861Y-85936816D01*
X110815862Y-85936818D01*
X110898059Y-86113088D01*
X110906552Y-86131302D01*
X111032788Y-86311587D01*
X111188413Y-86467212D01*
X111192921Y-86470369D01*
X111192924Y-86470371D01*
X111261351Y-86518284D01*
X111368697Y-86593448D01*
X111373679Y-86595771D01*
X111373684Y-86595774D01*
X111563182Y-86684138D01*
X111568164Y-86686461D01*
X111573472Y-86687883D01*
X111573474Y-86687884D01*
X111775436Y-86741999D01*
X111775437Y-86741999D01*
X111780751Y-86743423D01*
X112000000Y-86762605D01*
X112219249Y-86743423D01*
X112224563Y-86741999D01*
X112224564Y-86741999D01*
X112426526Y-86687884D01*
X112426528Y-86687883D01*
X112431836Y-86686461D01*
X112436818Y-86684138D01*
X112626316Y-86595774D01*
X112626321Y-86595771D01*
X112631303Y-86593448D01*
X112738649Y-86518284D01*
X112807076Y-86470371D01*
X112807079Y-86470369D01*
X112811587Y-86467212D01*
X112967212Y-86311587D01*
X113093448Y-86131302D01*
X113101942Y-86113088D01*
X113184138Y-85936818D01*
X113184139Y-85936816D01*
X113186461Y-85931836D01*
X113206277Y-85857883D01*
X113241999Y-85724564D01*
X113241999Y-85724563D01*
X113243423Y-85719249D01*
X113262605Y-85500000D01*
X113254324Y-85405349D01*
X113691381Y-85405349D01*
X113696662Y-85412404D01*
X113873543Y-85515765D01*
X113882826Y-85520212D01*
X114089727Y-85599220D01*
X114099625Y-85602096D01*
X114316652Y-85646250D01*
X114326881Y-85647469D01*
X114548203Y-85655586D01*
X114558489Y-85655119D01*
X114778170Y-85626977D01*
X114788248Y-85624835D01*
X115000375Y-85561194D01*
X115009982Y-85557428D01*
X115208853Y-85460002D01*
X115217712Y-85454722D01*
X115275515Y-85413491D01*
X115283915Y-85402791D01*
X115276928Y-85389638D01*
X114502012Y-84614722D01*
X114488068Y-84607108D01*
X114486235Y-84607239D01*
X114479620Y-84611490D01*
X113698141Y-85392969D01*
X113691381Y-85405349D01*
X113254324Y-85405349D01*
X113243423Y-85280751D01*
X113222396Y-85202277D01*
X113224086Y-85131302D01*
X113263880Y-85072506D01*
X113294227Y-85053959D01*
X113337296Y-85035394D01*
X114117178Y-84255512D01*
X114123556Y-84243832D01*
X114853608Y-84243832D01*
X114853739Y-84245665D01*
X114857990Y-84252280D01*
X115636720Y-85031010D01*
X115648731Y-85037569D01*
X115660469Y-85028601D01*
X115698669Y-84975441D01*
X115703984Y-84966595D01*
X115802104Y-84768066D01*
X115805902Y-84758473D01*
X115870283Y-84546569D01*
X115872460Y-84536499D01*
X115901605Y-84315122D01*
X115902124Y-84308447D01*
X115903649Y-84246064D01*
X115903455Y-84239346D01*
X115885161Y-84016821D01*
X115883478Y-84006659D01*
X115829524Y-83791859D01*
X115826205Y-83782108D01*
X115737889Y-83578996D01*
X115733025Y-83569925D01*
X115659653Y-83456510D01*
X115648966Y-83447306D01*
X115639401Y-83451709D01*
X114861222Y-84229888D01*
X114853608Y-84243832D01*
X114123556Y-84243832D01*
X114124792Y-84241568D01*
X114124661Y-84239735D01*
X114120410Y-84233120D01*
X113341843Y-83454553D01*
X113330307Y-83448253D01*
X113318024Y-83457877D01*
X113262191Y-83539725D01*
X113257093Y-83548699D01*
X113163852Y-83749570D01*
X113160289Y-83759257D01*
X113101106Y-83972661D01*
X113099175Y-83982780D01*
X113075640Y-84203007D01*
X113075388Y-84213296D01*
X113088137Y-84434396D01*
X113089574Y-84444620D01*
X113100439Y-84492833D01*
X113095903Y-84563684D01*
X113053781Y-84620836D01*
X112987447Y-84646141D01*
X112917963Y-84631568D01*
X112888427Y-84609628D01*
X112811587Y-84532788D01*
X112807079Y-84529631D01*
X112807076Y-84529629D01*
X112635812Y-84409709D01*
X112635809Y-84409707D01*
X112631303Y-84406552D01*
X112626321Y-84404229D01*
X112626316Y-84404226D01*
X112436818Y-84315862D01*
X112436817Y-84315861D01*
X112431836Y-84313539D01*
X112426528Y-84312117D01*
X112426526Y-84312116D01*
X112224564Y-84258001D01*
X112224563Y-84258001D01*
X112219249Y-84256577D01*
X112000000Y-84237395D01*
X111780751Y-84256577D01*
X111775437Y-84258001D01*
X111775436Y-84258001D01*
X111573474Y-84312116D01*
X111573472Y-84312117D01*
X111568164Y-84313539D01*
X111563184Y-84315861D01*
X111563182Y-84315862D01*
X111373679Y-84404229D01*
X111373676Y-84404231D01*
X111368698Y-84406552D01*
X111188413Y-84532788D01*
X111032788Y-84688413D01*
X110906552Y-84868698D01*
X110904231Y-84873676D01*
X110904229Y-84873679D01*
X110830864Y-85031010D01*
X110813539Y-85068164D01*
X110812117Y-85073472D01*
X110812116Y-85073474D01*
X110773729Y-85216739D01*
X110756577Y-85280751D01*
X110737395Y-85500000D01*
X107508000Y-85500000D01*
X107508000Y-82415749D01*
X113691381Y-82415749D01*
X113696662Y-82422804D01*
X113873543Y-82526165D01*
X113882826Y-82530612D01*
X114089727Y-82609620D01*
X114099624Y-82612496D01*
X114150155Y-82622776D01*
X114212920Y-82655958D01*
X114247783Y-82717805D01*
X114243674Y-82788683D01*
X114201898Y-82846087D01*
X114161026Y-82865579D01*
X114161385Y-82866678D01*
X113945966Y-82937088D01*
X113936457Y-82941085D01*
X113740020Y-83043345D01*
X113731292Y-83048841D01*
X113701947Y-83070873D01*
X113693494Y-83082198D01*
X113700238Y-83094528D01*
X114476388Y-83870678D01*
X114490332Y-83878292D01*
X114492165Y-83878161D01*
X114498780Y-83873910D01*
X115279400Y-83093290D01*
X115286420Y-83080434D01*
X115278646Y-83069764D01*
X115276048Y-83067712D01*
X115267465Y-83062009D01*
X115073575Y-82954977D01*
X115064176Y-82950752D01*
X114855411Y-82876824D01*
X114845449Y-82874193D01*
X114830494Y-82871529D01*
X114766936Y-82839892D01*
X114730572Y-82778915D01*
X114732947Y-82707958D01*
X114773307Y-82649549D01*
X114816380Y-82626795D01*
X115000375Y-82571594D01*
X115009982Y-82567828D01*
X115208853Y-82470402D01*
X115217712Y-82465122D01*
X115275515Y-82423891D01*
X115283915Y-82413191D01*
X115276928Y-82400038D01*
X114502012Y-81625122D01*
X114488068Y-81617508D01*
X114486235Y-81617639D01*
X114479620Y-81621890D01*
X113698141Y-82403369D01*
X113691381Y-82415749D01*
X107508000Y-82415749D01*
X107508000Y-81045459D01*
X111314896Y-81045459D01*
X111324192Y-81057474D01*
X111364440Y-81085656D01*
X111373935Y-81091139D01*
X111563353Y-81179466D01*
X111573645Y-81183212D01*
X111775523Y-81237305D01*
X111786318Y-81239208D01*
X111994525Y-81257424D01*
X112005475Y-81257424D01*
X112213682Y-81239208D01*
X112224477Y-81237305D01*
X112426355Y-81183212D01*
X112436647Y-81179466D01*
X112626065Y-81091139D01*
X112635560Y-81085656D01*
X112676646Y-81056887D01*
X112685021Y-81046410D01*
X112677953Y-81032963D01*
X112012812Y-80367822D01*
X111998868Y-80360208D01*
X111997035Y-80360339D01*
X111990420Y-80364590D01*
X111321326Y-81033684D01*
X111314896Y-81045459D01*
X107508000Y-81045459D01*
X107508000Y-80001275D01*
X110738376Y-80001275D01*
X110756592Y-80209482D01*
X110758495Y-80220277D01*
X110812588Y-80422155D01*
X110816334Y-80432447D01*
X110904661Y-80621864D01*
X110910144Y-80631360D01*
X110938913Y-80672446D01*
X110949390Y-80680821D01*
X110962838Y-80673752D01*
X111627978Y-80008612D01*
X111634356Y-79996932D01*
X112364408Y-79996932D01*
X112364539Y-79998765D01*
X112368790Y-80005380D01*
X113037884Y-80674474D01*
X113079366Y-80697126D01*
X113129568Y-80747329D01*
X113144658Y-80816704D01*
X113140396Y-80841385D01*
X113101106Y-80983060D01*
X113099175Y-80993180D01*
X113075640Y-81213407D01*
X113075388Y-81223696D01*
X113088137Y-81444796D01*
X113089573Y-81455017D01*
X113138260Y-81671055D01*
X113141344Y-81680896D01*
X113224664Y-81886087D01*
X113229314Y-81895292D01*
X113318062Y-82040115D01*
X113328520Y-82049577D01*
X113337296Y-82045794D01*
X114117178Y-81265912D01*
X114123556Y-81254232D01*
X114853608Y-81254232D01*
X114853739Y-81256065D01*
X114857990Y-81262680D01*
X115636720Y-82041410D01*
X115648731Y-82047969D01*
X115660469Y-82039001D01*
X115698669Y-81985841D01*
X115703984Y-81976995D01*
X115802104Y-81778466D01*
X115805902Y-81768873D01*
X115870283Y-81556969D01*
X115872460Y-81546899D01*
X115901605Y-81325522D01*
X115902124Y-81318847D01*
X115903649Y-81256464D01*
X115903455Y-81249746D01*
X115885161Y-81027221D01*
X115883478Y-81017059D01*
X115829524Y-80802259D01*
X115826205Y-80792508D01*
X115737889Y-80589396D01*
X115733025Y-80580325D01*
X115659653Y-80466910D01*
X115648966Y-80457706D01*
X115639401Y-80462109D01*
X114861222Y-81240288D01*
X114853608Y-81254232D01*
X114123556Y-81254232D01*
X114124792Y-81251968D01*
X114124661Y-81250135D01*
X114120410Y-81243520D01*
X113341843Y-80464953D01*
X113307090Y-80445976D01*
X113282172Y-80440555D01*
X113231970Y-80390353D01*
X113216879Y-80320978D01*
X113220851Y-80297356D01*
X113241505Y-80220274D01*
X113243408Y-80209482D01*
X113253634Y-80092598D01*
X113693494Y-80092598D01*
X113700238Y-80104928D01*
X114476388Y-80881078D01*
X114490332Y-80888692D01*
X114492165Y-80888561D01*
X114498780Y-80884310D01*
X115279400Y-80103690D01*
X115286420Y-80090834D01*
X115278646Y-80080164D01*
X115276048Y-80078112D01*
X115267465Y-80072409D01*
X115073575Y-79965377D01*
X115064176Y-79961152D01*
X114855411Y-79887224D01*
X114845440Y-79884590D01*
X114627408Y-79845753D01*
X114617155Y-79844784D01*
X114395696Y-79842078D01*
X114385413Y-79842798D01*
X114166497Y-79876296D01*
X114156470Y-79878685D01*
X113945966Y-79947488D01*
X113936457Y-79951485D01*
X113740020Y-80053745D01*
X113731292Y-80059241D01*
X113701947Y-80081273D01*
X113693494Y-80092598D01*
X113253634Y-80092598D01*
X113261624Y-80001275D01*
X113261624Y-79990325D01*
X113243408Y-79782118D01*
X113241505Y-79771323D01*
X113187412Y-79569445D01*
X113183666Y-79559153D01*
X113095339Y-79369736D01*
X113089856Y-79360240D01*
X113061087Y-79319154D01*
X113050610Y-79310779D01*
X113037162Y-79317848D01*
X112372022Y-79982988D01*
X112364408Y-79996932D01*
X111634356Y-79996932D01*
X111635592Y-79994668D01*
X111635461Y-79992835D01*
X111631210Y-79986220D01*
X110962116Y-79317126D01*
X110950341Y-79310696D01*
X110938326Y-79319992D01*
X110910144Y-79360240D01*
X110904661Y-79369736D01*
X110816334Y-79559153D01*
X110812588Y-79569445D01*
X110758495Y-79771323D01*
X110756592Y-79782118D01*
X110738376Y-79990325D01*
X110738376Y-80001275D01*
X107508000Y-80001275D01*
X107508000Y-78945190D01*
X111314979Y-78945190D01*
X111322048Y-78958638D01*
X111987188Y-79623778D01*
X112001132Y-79631392D01*
X112002965Y-79631261D01*
X112009580Y-79627010D01*
X112651121Y-78985469D01*
X116587095Y-78985469D01*
X116587392Y-78990622D01*
X116587392Y-78990625D01*
X116593067Y-79089041D01*
X116600427Y-79216697D01*
X116601564Y-79221743D01*
X116601565Y-79221749D01*
X116628764Y-79342439D01*
X116651346Y-79442642D01*
X116653288Y-79447424D01*
X116653289Y-79447428D01*
X116726210Y-79627010D01*
X116738484Y-79657237D01*
X116859501Y-79854719D01*
X117011147Y-80029784D01*
X117189349Y-80177730D01*
X117389322Y-80294584D01*
X117605694Y-80377209D01*
X117610760Y-80378240D01*
X117610761Y-80378240D01*
X117653110Y-80386856D01*
X117832656Y-80423385D01*
X117963324Y-80428176D01*
X118058949Y-80431683D01*
X118058953Y-80431683D01*
X118064113Y-80431872D01*
X118069233Y-80431216D01*
X118069235Y-80431216D01*
X118142270Y-80421860D01*
X118293847Y-80402442D01*
X118298795Y-80400957D01*
X118298802Y-80400956D01*
X118510747Y-80337369D01*
X118515690Y-80335886D01*
X118596236Y-80296427D01*
X118719049Y-80236262D01*
X118719052Y-80236260D01*
X118723684Y-80233991D01*
X118912243Y-80099494D01*
X119076303Y-79936005D01*
X119211458Y-79747917D01*
X119258641Y-79652450D01*
X119311784Y-79544922D01*
X119311785Y-79544920D01*
X119314078Y-79540280D01*
X119381408Y-79318671D01*
X119411640Y-79089041D01*
X119413327Y-79020000D01*
X119403788Y-78903976D01*
X119394773Y-78794318D01*
X119394772Y-78794312D01*
X119394349Y-78789167D01*
X119337925Y-78564533D01*
X119335866Y-78559797D01*
X119247630Y-78356868D01*
X119247628Y-78356865D01*
X119245570Y-78352131D01*
X119119764Y-78157665D01*
X119029848Y-78058848D01*
X118998796Y-77995002D01*
X119007192Y-77924504D01*
X119052369Y-77869736D01*
X119078812Y-77856067D01*
X119138297Y-77833767D01*
X119146705Y-77830615D01*
X119263261Y-77743261D01*
X119350615Y-77626705D01*
X119401745Y-77490316D01*
X119408500Y-77428134D01*
X119408500Y-75531866D01*
X119401745Y-75469684D01*
X119350615Y-75333295D01*
X119263261Y-75216739D01*
X119146705Y-75129385D01*
X119010316Y-75078255D01*
X118948134Y-75071500D01*
X117051866Y-75071500D01*
X116989684Y-75078255D01*
X116853295Y-75129385D01*
X116736739Y-75216739D01*
X116649385Y-75333295D01*
X116598255Y-75469684D01*
X116591500Y-75531866D01*
X116591500Y-77428134D01*
X116598255Y-77490316D01*
X116649385Y-77626705D01*
X116736739Y-77743261D01*
X116853295Y-77830615D01*
X116861704Y-77833767D01*
X116861705Y-77833768D01*
X116921164Y-77856058D01*
X116977929Y-77898699D01*
X117002629Y-77965261D01*
X116987422Y-78034609D01*
X116968029Y-78061091D01*
X116901639Y-78130564D01*
X116898725Y-78134836D01*
X116898724Y-78134837D01*
X116883152Y-78157665D01*
X116771119Y-78321899D01*
X116673602Y-78531981D01*
X116611707Y-78755169D01*
X116587095Y-78985469D01*
X112651121Y-78985469D01*
X112678674Y-78957916D01*
X112685104Y-78946141D01*
X112675808Y-78934126D01*
X112635560Y-78905944D01*
X112626065Y-78900461D01*
X112436647Y-78812134D01*
X112426355Y-78808388D01*
X112224477Y-78754295D01*
X112213682Y-78752392D01*
X112005475Y-78734176D01*
X111994525Y-78734176D01*
X111786318Y-78752392D01*
X111775523Y-78754295D01*
X111573645Y-78808388D01*
X111563353Y-78812134D01*
X111373936Y-78900461D01*
X111364440Y-78905944D01*
X111323354Y-78934713D01*
X111314979Y-78945190D01*
X107508000Y-78945190D01*
X107508000Y-75500000D01*
X110737395Y-75500000D01*
X110756577Y-75719249D01*
X110813539Y-75931836D01*
X110906552Y-76131302D01*
X111032788Y-76311587D01*
X111188413Y-76467212D01*
X111192921Y-76470369D01*
X111192924Y-76470371D01*
X111364188Y-76590291D01*
X111368697Y-76593448D01*
X111373679Y-76595771D01*
X111373684Y-76595774D01*
X111563182Y-76684138D01*
X111568164Y-76686461D01*
X111573472Y-76687883D01*
X111573474Y-76687884D01*
X111775436Y-76741999D01*
X111775437Y-76741999D01*
X111780751Y-76743423D01*
X112000000Y-76762605D01*
X112219249Y-76743423D01*
X112224563Y-76741999D01*
X112224564Y-76741999D01*
X112426526Y-76687884D01*
X112426528Y-76687883D01*
X112431836Y-76686461D01*
X112436818Y-76684138D01*
X112626316Y-76595774D01*
X112626321Y-76595771D01*
X112631303Y-76593448D01*
X112635812Y-76590291D01*
X112807076Y-76470371D01*
X112807079Y-76470369D01*
X112811587Y-76467212D01*
X112967212Y-76311587D01*
X113093448Y-76131302D01*
X113186461Y-75931836D01*
X113243423Y-75719249D01*
X113262605Y-75500000D01*
X113254324Y-75405349D01*
X113691381Y-75405349D01*
X113696662Y-75412404D01*
X113873543Y-75515765D01*
X113882826Y-75520212D01*
X114089727Y-75599220D01*
X114099625Y-75602096D01*
X114316652Y-75646250D01*
X114326881Y-75647469D01*
X114548203Y-75655586D01*
X114558489Y-75655119D01*
X114778170Y-75626977D01*
X114788248Y-75624835D01*
X115000375Y-75561194D01*
X115009982Y-75557428D01*
X115208853Y-75460002D01*
X115217712Y-75454722D01*
X115275515Y-75413491D01*
X115283915Y-75402791D01*
X115276928Y-75389638D01*
X114502012Y-74614722D01*
X114488068Y-74607108D01*
X114486235Y-74607239D01*
X114479620Y-74611490D01*
X113698141Y-75392969D01*
X113691381Y-75405349D01*
X113254324Y-75405349D01*
X113243423Y-75280751D01*
X113222396Y-75202277D01*
X113224086Y-75131302D01*
X113263880Y-75072506D01*
X113294227Y-75053959D01*
X113337296Y-75035394D01*
X114117178Y-74255512D01*
X114123556Y-74243832D01*
X114853608Y-74243832D01*
X114853739Y-74245665D01*
X114857990Y-74252280D01*
X115636720Y-75031010D01*
X115648731Y-75037569D01*
X115660469Y-75028601D01*
X115698669Y-74975441D01*
X115703984Y-74966595D01*
X115802104Y-74768066D01*
X115805902Y-74758473D01*
X115870283Y-74546569D01*
X115872460Y-74536499D01*
X115901605Y-74315122D01*
X115902124Y-74308447D01*
X115903649Y-74246064D01*
X115903455Y-74239346D01*
X115885161Y-74016821D01*
X115883478Y-74006659D01*
X115829524Y-73791859D01*
X115826205Y-73782108D01*
X115737889Y-73578996D01*
X115733025Y-73569925D01*
X115659653Y-73456510D01*
X115648966Y-73447306D01*
X115639401Y-73451709D01*
X114861222Y-74229888D01*
X114853608Y-74243832D01*
X114123556Y-74243832D01*
X114124792Y-74241568D01*
X114124661Y-74239735D01*
X114120410Y-74233120D01*
X113341843Y-73454553D01*
X113330307Y-73448253D01*
X113318024Y-73457877D01*
X113262191Y-73539725D01*
X113257093Y-73548699D01*
X113163852Y-73749570D01*
X113160289Y-73759257D01*
X113101106Y-73972661D01*
X113099175Y-73982780D01*
X113075640Y-74203007D01*
X113075388Y-74213296D01*
X113088137Y-74434396D01*
X113089574Y-74444620D01*
X113100439Y-74492833D01*
X113095903Y-74563684D01*
X113053781Y-74620836D01*
X112987447Y-74646141D01*
X112917963Y-74631568D01*
X112888427Y-74609628D01*
X112811587Y-74532788D01*
X112807079Y-74529631D01*
X112807076Y-74529629D01*
X112635812Y-74409709D01*
X112635809Y-74409707D01*
X112631303Y-74406552D01*
X112626321Y-74404229D01*
X112626316Y-74404226D01*
X112436818Y-74315862D01*
X112436817Y-74315861D01*
X112431836Y-74313539D01*
X112426528Y-74312117D01*
X112426526Y-74312116D01*
X112224564Y-74258001D01*
X112224563Y-74258001D01*
X112219249Y-74256577D01*
X112000000Y-74237395D01*
X111780751Y-74256577D01*
X111775437Y-74258001D01*
X111775436Y-74258001D01*
X111573474Y-74312116D01*
X111573472Y-74312117D01*
X111568164Y-74313539D01*
X111563184Y-74315861D01*
X111563182Y-74315862D01*
X111373679Y-74404229D01*
X111373676Y-74404231D01*
X111368698Y-74406552D01*
X111188413Y-74532788D01*
X111032788Y-74688413D01*
X110906552Y-74868698D01*
X110904231Y-74873676D01*
X110904229Y-74873679D01*
X110830864Y-75031010D01*
X110813539Y-75068164D01*
X110812117Y-75073472D01*
X110812116Y-75073474D01*
X110773729Y-75216739D01*
X110756577Y-75280751D01*
X110737395Y-75500000D01*
X107508000Y-75500000D01*
X107508000Y-73082198D01*
X113693494Y-73082198D01*
X113700238Y-73094528D01*
X114476388Y-73870678D01*
X114490332Y-73878292D01*
X114492165Y-73878161D01*
X114498780Y-73873910D01*
X115279400Y-73093290D01*
X115286420Y-73080434D01*
X115278646Y-73069764D01*
X115276048Y-73067712D01*
X115267465Y-73062009D01*
X115073575Y-72954977D01*
X115064176Y-72950752D01*
X114855411Y-72876824D01*
X114845440Y-72874190D01*
X114627408Y-72835353D01*
X114617155Y-72834384D01*
X114395696Y-72831678D01*
X114385413Y-72832398D01*
X114166497Y-72865896D01*
X114156470Y-72868285D01*
X113945966Y-72937088D01*
X113936457Y-72941085D01*
X113740020Y-73043345D01*
X113731292Y-73048841D01*
X113701947Y-73070873D01*
X113693494Y-73082198D01*
X107508000Y-73082198D01*
X107508000Y-71217806D01*
X108247361Y-71217806D01*
X108254751Y-71228108D01*
X108296630Y-71262203D01*
X108303909Y-71267318D01*
X108527756Y-71402085D01*
X108535670Y-71406118D01*
X108776286Y-71508006D01*
X108784691Y-71510883D01*
X109037257Y-71577850D01*
X109045989Y-71579516D01*
X109305474Y-71610227D01*
X109314340Y-71610645D01*
X109575561Y-71604490D01*
X109584414Y-71603653D01*
X109842162Y-71560752D01*
X109850796Y-71558679D01*
X110099930Y-71479888D01*
X110108192Y-71476617D01*
X110343731Y-71363513D01*
X110351455Y-71359107D01*
X110545268Y-71229606D01*
X110553556Y-71219688D01*
X110546299Y-71205509D01*
X109412812Y-70072022D01*
X109398868Y-70064408D01*
X109397035Y-70064539D01*
X109390420Y-70068790D01*
X108254527Y-71204683D01*
X108247361Y-71217806D01*
X107508000Y-71217806D01*
X107508000Y-70716450D01*
X107528002Y-70648329D01*
X107581658Y-70601836D01*
X107651932Y-70591732D01*
X107716512Y-70621226D01*
X107746713Y-70660131D01*
X107751519Y-70669750D01*
X107756043Y-70677398D01*
X107871352Y-70844235D01*
X107881673Y-70852589D01*
X107895323Y-70845467D01*
X109027978Y-69712812D01*
X109034356Y-69701132D01*
X109764408Y-69701132D01*
X109764539Y-69702965D01*
X109768790Y-69709580D01*
X110905517Y-70846307D01*
X110918917Y-70853624D01*
X110928821Y-70846637D01*
X110944686Y-70827763D01*
X110949905Y-70820580D01*
X111088171Y-70598876D01*
X111092333Y-70591017D01*
X111184572Y-70382376D01*
X111230411Y-70328160D01*
X111298283Y-70307332D01*
X111366642Y-70326506D01*
X111413783Y-70379593D01*
X111419336Y-70393446D01*
X111430857Y-70427979D01*
X111430863Y-70427993D01*
X111432272Y-70432217D01*
X111434265Y-70436205D01*
X111546155Y-70660131D01*
X111553078Y-70673987D01*
X111555607Y-70677646D01*
X111671595Y-70845467D01*
X111706744Y-70896324D01*
X111890205Y-71094790D01*
X112099799Y-71265427D01*
X112103617Y-71267726D01*
X112103619Y-71267727D01*
X112256123Y-71359542D01*
X112331346Y-71404830D01*
X112335441Y-71406564D01*
X112335443Y-71406565D01*
X112576124Y-71508480D01*
X112576131Y-71508482D01*
X112580225Y-71510216D01*
X112676358Y-71535705D01*
X112837172Y-71578345D01*
X112837177Y-71578346D01*
X112841469Y-71579484D01*
X112845878Y-71580006D01*
X112845884Y-71580007D01*
X112995210Y-71597680D01*
X113109868Y-71611251D01*
X113380064Y-71604883D01*
X113384459Y-71604151D01*
X113384464Y-71604151D01*
X113642267Y-71561241D01*
X113642271Y-71561240D01*
X113646669Y-71560508D01*
X113814959Y-71507285D01*
X113900114Y-71480354D01*
X113900116Y-71480353D01*
X113904360Y-71479011D01*
X113908371Y-71477085D01*
X113908376Y-71477083D01*
X114143979Y-71363948D01*
X114143980Y-71363947D01*
X114147998Y-71362018D01*
X114348409Y-71228108D01*
X114369013Y-71214341D01*
X114369017Y-71214338D01*
X114372721Y-71211863D01*
X114376038Y-71208892D01*
X114376042Y-71208889D01*
X114570729Y-71034512D01*
X114574045Y-71031542D01*
X114747953Y-70824654D01*
X114850559Y-70660131D01*
X114888614Y-70599111D01*
X114888615Y-70599109D01*
X114890975Y-70595325D01*
X115000258Y-70348133D01*
X115073620Y-70088008D01*
X115076790Y-70064408D01*
X115109172Y-69823324D01*
X115109173Y-69823316D01*
X115109599Y-69820142D01*
X115109700Y-69816931D01*
X115113274Y-69703222D01*
X115113274Y-69703217D01*
X115113375Y-69700000D01*
X115094287Y-69430403D01*
X115037402Y-69166185D01*
X115016756Y-69110220D01*
X114945397Y-68916796D01*
X114943856Y-68912619D01*
X114913315Y-68856016D01*
X114817629Y-68678678D01*
X114817629Y-68678677D01*
X114815516Y-68674762D01*
X114654942Y-68457362D01*
X114465338Y-68264756D01*
X114343755Y-68171967D01*
X114254028Y-68103489D01*
X114254024Y-68103487D01*
X114250487Y-68100787D01*
X114014675Y-67968727D01*
X113762609Y-67871210D01*
X113758284Y-67870207D01*
X113758279Y-67870206D01*
X113652748Y-67845746D01*
X113499318Y-67810182D01*
X113253123Y-67788859D01*
X117124132Y-67788859D01*
X117137457Y-67992151D01*
X117187605Y-68189610D01*
X117272898Y-68374624D01*
X117390479Y-68540997D01*
X117536410Y-68683157D01*
X117541206Y-68686362D01*
X117541209Y-68686364D01*
X117608679Y-68731446D01*
X117705803Y-68796342D01*
X117711106Y-68798620D01*
X117711109Y-68798622D01*
X117883614Y-68872736D01*
X117892987Y-68876763D01*
X117898622Y-68878038D01*
X117898625Y-68878039D01*
X118021216Y-68905778D01*
X118069902Y-68930989D01*
X118070809Y-68929741D01*
X118076145Y-68933618D01*
X118081056Y-68938040D01*
X118086776Y-68941343D01*
X118086781Y-68941346D01*
X118093237Y-68945073D01*
X118109533Y-68956273D01*
X118120470Y-68965129D01*
X118181421Y-68996185D01*
X118187218Y-68999333D01*
X118239497Y-69029516D01*
X118246444Y-69033527D01*
X118252726Y-69035568D01*
X118252728Y-69035569D01*
X118259826Y-69037875D01*
X118278092Y-69045440D01*
X118290630Y-69051829D01*
X118297006Y-69053538D01*
X118297010Y-69053539D01*
X118356685Y-69069529D01*
X118363010Y-69071402D01*
X118428072Y-69092542D01*
X118434640Y-69093232D01*
X118434644Y-69093233D01*
X118442061Y-69094012D01*
X118461508Y-69097616D01*
X118475096Y-69101257D01*
X118481695Y-69101603D01*
X118481696Y-69101603D01*
X118543385Y-69104836D01*
X118549960Y-69105353D01*
X118564222Y-69106852D01*
X118570390Y-69107500D01*
X118590925Y-69107500D01*
X118597519Y-69107673D01*
X118659217Y-69110907D01*
X118659222Y-69110907D01*
X118665809Y-69111252D01*
X118679707Y-69109051D01*
X118699416Y-69107500D01*
X133395583Y-69107500D01*
X133415292Y-69109051D01*
X133429190Y-69111252D01*
X133435777Y-69110907D01*
X133435782Y-69110907D01*
X133497480Y-69107673D01*
X133504074Y-69107500D01*
X133524610Y-69107500D01*
X133527882Y-69107156D01*
X133527884Y-69107156D01*
X133545042Y-69105353D01*
X133551616Y-69104836D01*
X133613308Y-69101603D01*
X133613312Y-69101602D01*
X133619903Y-69101257D01*
X133626284Y-69099547D01*
X133626286Y-69099547D01*
X133633491Y-69097617D01*
X133652925Y-69094015D01*
X133660354Y-69093234D01*
X133660363Y-69093232D01*
X133666928Y-69092542D01*
X133731997Y-69071400D01*
X133738299Y-69069533D01*
X133779852Y-69058399D01*
X133797996Y-69053537D01*
X133797997Y-69053537D01*
X133804370Y-69051829D01*
X133816908Y-69045440D01*
X133835174Y-69037875D01*
X133842272Y-69035569D01*
X133842274Y-69035568D01*
X133848556Y-69033527D01*
X133855504Y-69029516D01*
X133907782Y-68999333D01*
X133913579Y-68996185D01*
X133974530Y-68965129D01*
X133985467Y-68956273D01*
X134001763Y-68945073D01*
X134008224Y-68941343D01*
X134008228Y-68941340D01*
X134013944Y-68938040D01*
X134018850Y-68933623D01*
X134018855Y-68933619D01*
X134064769Y-68892278D01*
X134069784Y-68887994D01*
X134083177Y-68877148D01*
X134085741Y-68875072D01*
X134100256Y-68860557D01*
X134105041Y-68856016D01*
X134150957Y-68814673D01*
X134155866Y-68810253D01*
X134164140Y-68798865D01*
X134176981Y-68783832D01*
X136483408Y-66477405D01*
X136545720Y-66443379D01*
X136572503Y-66440500D01*
X140042055Y-66440500D01*
X140112058Y-66461735D01*
X140184803Y-66510342D01*
X140190106Y-66512620D01*
X140190109Y-66512622D01*
X140279115Y-66550862D01*
X140371987Y-66590763D01*
X140444817Y-66607243D01*
X140565055Y-66634450D01*
X140565060Y-66634451D01*
X140570692Y-66635725D01*
X140576463Y-66635952D01*
X140576465Y-66635952D01*
X140639470Y-66638427D01*
X140774263Y-66643723D01*
X140975883Y-66614490D01*
X140981347Y-66612635D01*
X140981352Y-66612634D01*
X141163327Y-66550862D01*
X141163332Y-66550860D01*
X141168799Y-66549004D01*
X141346551Y-66449458D01*
X141503186Y-66319186D01*
X141633458Y-66162551D01*
X141733004Y-65984799D01*
X141734860Y-65979332D01*
X141734862Y-65979327D01*
X141796634Y-65797352D01*
X141796635Y-65797347D01*
X141798490Y-65791883D01*
X141827723Y-65590263D01*
X141829249Y-65532000D01*
X141810608Y-65329126D01*
X141755307Y-65133047D01*
X141665201Y-64950329D01*
X141639811Y-64916327D01*
X141546758Y-64791715D01*
X141546758Y-64791714D01*
X141543305Y-64787091D01*
X141444149Y-64695432D01*
X141397943Y-64652719D01*
X141397940Y-64652717D01*
X141393703Y-64648800D01*
X141325528Y-64605785D01*
X141226288Y-64543169D01*
X141226283Y-64543167D01*
X141221404Y-64540088D01*
X141032180Y-64464595D01*
X140832366Y-64424849D01*
X140826592Y-64424773D01*
X140826588Y-64424773D01*
X140723452Y-64423424D01*
X140628655Y-64422183D01*
X140622958Y-64423162D01*
X140622957Y-64423162D01*
X140433567Y-64455705D01*
X140427870Y-64456684D01*
X140236734Y-64527198D01*
X140231773Y-64530150D01*
X140231772Y-64530150D01*
X140104641Y-64605785D01*
X140040218Y-64623500D01*
X136225417Y-64623500D01*
X136205707Y-64621949D01*
X136198327Y-64620780D01*
X136198326Y-64620780D01*
X136191810Y-64619748D01*
X136185223Y-64620093D01*
X136185218Y-64620093D01*
X136123520Y-64623327D01*
X136116926Y-64623500D01*
X136096390Y-64623500D01*
X136093118Y-64623844D01*
X136093116Y-64623844D01*
X136075958Y-64625647D01*
X136069384Y-64626164D01*
X136007696Y-64629397D01*
X136007694Y-64629397D01*
X136001097Y-64629743D01*
X135987504Y-64633385D01*
X135968075Y-64636986D01*
X135954072Y-64638458D01*
X135889025Y-64659593D01*
X135882712Y-64661463D01*
X135862074Y-64666993D01*
X135823003Y-64677462D01*
X135823000Y-64677463D01*
X135816630Y-64679170D01*
X135804085Y-64685562D01*
X135785826Y-64693125D01*
X135772444Y-64697473D01*
X135766723Y-64700776D01*
X135713223Y-64731664D01*
X135707426Y-64734812D01*
X135652351Y-64762874D01*
X135652348Y-64762876D01*
X135646470Y-64765871D01*
X135641342Y-64770024D01*
X135641340Y-64770025D01*
X135635534Y-64774727D01*
X135619237Y-64785927D01*
X135612776Y-64789657D01*
X135612772Y-64789660D01*
X135607056Y-64792960D01*
X135602150Y-64797377D01*
X135602145Y-64797381D01*
X135556231Y-64838722D01*
X135551216Y-64843006D01*
X135542718Y-64849888D01*
X135535259Y-64855928D01*
X135520744Y-64870443D01*
X135515959Y-64874984D01*
X135465134Y-64920747D01*
X135461255Y-64926086D01*
X135461254Y-64926087D01*
X135456860Y-64932135D01*
X135444019Y-64947168D01*
X133137592Y-67253595D01*
X133075280Y-67287621D01*
X133048497Y-67290500D01*
X119289341Y-67290500D01*
X119221220Y-67270498D01*
X119187109Y-67235651D01*
X119186201Y-67236329D01*
X119067758Y-67077715D01*
X119067758Y-67077714D01*
X119064305Y-67073091D01*
X118914703Y-66934800D01*
X118868675Y-66905759D01*
X118747288Y-66829169D01*
X118747283Y-66829167D01*
X118742404Y-66826088D01*
X118553180Y-66750595D01*
X118353366Y-66710849D01*
X118347592Y-66710773D01*
X118347588Y-66710773D01*
X118244452Y-66709424D01*
X118149655Y-66708183D01*
X118143958Y-66709162D01*
X118143957Y-66709162D01*
X117954567Y-66741705D01*
X117948870Y-66742684D01*
X117757734Y-66813198D01*
X117582649Y-66917363D01*
X117429478Y-67051690D01*
X117425911Y-67056215D01*
X117425906Y-67056220D01*
X117339331Y-67166040D01*
X117303351Y-67211681D01*
X117300662Y-67216792D01*
X117300660Y-67216795D01*
X117290383Y-67236329D01*
X117208492Y-67391978D01*
X117148078Y-67586543D01*
X117124132Y-67788859D01*
X113253123Y-67788859D01*
X113230054Y-67786861D01*
X113225619Y-67787105D01*
X113225615Y-67787105D01*
X112964634Y-67801468D01*
X112964627Y-67801469D01*
X112960191Y-67801713D01*
X112828622Y-67827883D01*
X112699484Y-67853570D01*
X112699479Y-67853571D01*
X112695112Y-67854440D01*
X112690909Y-67855916D01*
X112444315Y-67942513D01*
X112444312Y-67942514D01*
X112440107Y-67943991D01*
X112436154Y-67946044D01*
X112436148Y-67946047D01*
X112358499Y-67986383D01*
X112200264Y-68068580D01*
X112196649Y-68071163D01*
X112196643Y-68071167D01*
X111983990Y-68223131D01*
X111983986Y-68223134D01*
X111980369Y-68225719D01*
X111977149Y-68228791D01*
X111829775Y-68369379D01*
X111784808Y-68412275D01*
X111617485Y-68624524D01*
X111615253Y-68628366D01*
X111615250Y-68628371D01*
X111483974Y-68854377D01*
X111483971Y-68854384D01*
X111481736Y-68858231D01*
X111424585Y-68999333D01*
X111416402Y-69019535D01*
X111372290Y-69075164D01*
X111305105Y-69098113D01*
X111236178Y-69081097D01*
X111187392Y-69029516D01*
X111181406Y-69015844D01*
X111144941Y-68917002D01*
X111141286Y-68908907D01*
X111017206Y-68678947D01*
X111012447Y-68671449D01*
X110927759Y-68556790D01*
X110916631Y-68548348D01*
X110904038Y-68555172D01*
X109772022Y-69687188D01*
X109764408Y-69701132D01*
X109034356Y-69701132D01*
X109035592Y-69698868D01*
X109035461Y-69697035D01*
X109031210Y-69690420D01*
X107895819Y-68555029D01*
X107882978Y-68548017D01*
X107872289Y-68555813D01*
X107820663Y-68621299D01*
X107815662Y-68628657D01*
X107742954Y-68753833D01*
X107691443Y-68802691D01*
X107621694Y-68815945D01*
X107555853Y-68789385D01*
X107514822Y-68731446D01*
X107508000Y-68690547D01*
X107508000Y-68182688D01*
X108248045Y-68182688D01*
X108255025Y-68195815D01*
X109387188Y-69327978D01*
X109401132Y-69335592D01*
X109402965Y-69335461D01*
X109409580Y-69331210D01*
X110544804Y-68195986D01*
X110551658Y-68183434D01*
X110543450Y-68172363D01*
X110453762Y-68103916D01*
X110446313Y-68099023D01*
X110218353Y-67971359D01*
X110210303Y-67967571D01*
X109966617Y-67873295D01*
X109958127Y-67870683D01*
X109703578Y-67811683D01*
X109694800Y-67810293D01*
X109434478Y-67787746D01*
X109425607Y-67787606D01*
X109164696Y-67801965D01*
X109155886Y-67803079D01*
X108899607Y-67854055D01*
X108891050Y-67856396D01*
X108644496Y-67942980D01*
X108636362Y-67946500D01*
X108404477Y-68066955D01*
X108396905Y-68071594D01*
X108256447Y-68171967D01*
X108248045Y-68182688D01*
X107508000Y-68182688D01*
X107508000Y-61817806D01*
X108247361Y-61817806D01*
X108254751Y-61828108D01*
X108296630Y-61862203D01*
X108303909Y-61867318D01*
X108527756Y-62002085D01*
X108535670Y-62006118D01*
X108776286Y-62108006D01*
X108784691Y-62110883D01*
X109037257Y-62177850D01*
X109045989Y-62179516D01*
X109305474Y-62210227D01*
X109314340Y-62210645D01*
X109575561Y-62204490D01*
X109584414Y-62203653D01*
X109842162Y-62160752D01*
X109850796Y-62158679D01*
X110099930Y-62079888D01*
X110108192Y-62076617D01*
X110343731Y-61963513D01*
X110351455Y-61959107D01*
X110545268Y-61829606D01*
X110553556Y-61819688D01*
X110546299Y-61805509D01*
X109412812Y-60672022D01*
X109398868Y-60664408D01*
X109397035Y-60664539D01*
X109390420Y-60668790D01*
X108254527Y-61804683D01*
X108247361Y-61817806D01*
X107508000Y-61817806D01*
X107508000Y-61316450D01*
X107528002Y-61248329D01*
X107581658Y-61201836D01*
X107651932Y-61191732D01*
X107716512Y-61221226D01*
X107746713Y-61260131D01*
X107751519Y-61269750D01*
X107756043Y-61277398D01*
X107871352Y-61444235D01*
X107881673Y-61452589D01*
X107895323Y-61445467D01*
X109027978Y-60312812D01*
X109034356Y-60301132D01*
X109764408Y-60301132D01*
X109764539Y-60302965D01*
X109768790Y-60309580D01*
X110905517Y-61446307D01*
X110918917Y-61453624D01*
X110928821Y-61446637D01*
X110944686Y-61427763D01*
X110949905Y-61420580D01*
X111088171Y-61198876D01*
X111092333Y-61191017D01*
X111184572Y-60982376D01*
X111230411Y-60928160D01*
X111298283Y-60907332D01*
X111366642Y-60926506D01*
X111413783Y-60979593D01*
X111419336Y-60993446D01*
X111430857Y-61027979D01*
X111430863Y-61027993D01*
X111432272Y-61032217D01*
X111434265Y-61036205D01*
X111546155Y-61260131D01*
X111553078Y-61273987D01*
X111555607Y-61277646D01*
X111671595Y-61445467D01*
X111706744Y-61496324D01*
X111890205Y-61694790D01*
X112099799Y-61865427D01*
X112103617Y-61867726D01*
X112103619Y-61867727D01*
X112256123Y-61959542D01*
X112331346Y-62004830D01*
X112335441Y-62006564D01*
X112335443Y-62006565D01*
X112576124Y-62108480D01*
X112576131Y-62108482D01*
X112580225Y-62110216D01*
X112676358Y-62135705D01*
X112837172Y-62178345D01*
X112837177Y-62178346D01*
X112841469Y-62179484D01*
X112845878Y-62180006D01*
X112845884Y-62180007D01*
X112995210Y-62197680D01*
X113109868Y-62211251D01*
X113380064Y-62204883D01*
X113384459Y-62204151D01*
X113384464Y-62204151D01*
X113642267Y-62161241D01*
X113642271Y-62161240D01*
X113646669Y-62160508D01*
X113814959Y-62107285D01*
X113900114Y-62080354D01*
X113900116Y-62080353D01*
X113904360Y-62079011D01*
X113908371Y-62077085D01*
X113908376Y-62077083D01*
X114143979Y-61963948D01*
X114143980Y-61963947D01*
X114147998Y-61962018D01*
X114348409Y-61828108D01*
X114369013Y-61814341D01*
X114369017Y-61814338D01*
X114372721Y-61811863D01*
X114376038Y-61808892D01*
X114376042Y-61808889D01*
X114570729Y-61634512D01*
X114574045Y-61631542D01*
X114747953Y-61424654D01*
X114850559Y-61260131D01*
X114888614Y-61199111D01*
X114888615Y-61199109D01*
X114890975Y-61195325D01*
X115000258Y-60948133D01*
X115073620Y-60688008D01*
X115076790Y-60664408D01*
X115109172Y-60423324D01*
X115109173Y-60423316D01*
X115109599Y-60420142D01*
X115109700Y-60416931D01*
X115113274Y-60303222D01*
X115113274Y-60303217D01*
X115113375Y-60300000D01*
X115094287Y-60030403D01*
X115037402Y-59766185D01*
X115016208Y-59708735D01*
X114945397Y-59516796D01*
X114943856Y-59512619D01*
X114914510Y-59458231D01*
X114817629Y-59278678D01*
X114817629Y-59278677D01*
X114815516Y-59274762D01*
X114654942Y-59057362D01*
X114465338Y-58864756D01*
X114343755Y-58771967D01*
X114254028Y-58703489D01*
X114254024Y-58703487D01*
X114250487Y-58700787D01*
X114014675Y-58568727D01*
X113762609Y-58471210D01*
X113758284Y-58470207D01*
X113758279Y-58470206D01*
X113652748Y-58445746D01*
X113499318Y-58410182D01*
X113230054Y-58386861D01*
X113225619Y-58387105D01*
X113225615Y-58387105D01*
X112964634Y-58401468D01*
X112964627Y-58401469D01*
X112960191Y-58401713D01*
X112828622Y-58427883D01*
X112699484Y-58453570D01*
X112699479Y-58453571D01*
X112695112Y-58454440D01*
X112690909Y-58455916D01*
X112444315Y-58542513D01*
X112444312Y-58542514D01*
X112440107Y-58543991D01*
X112436154Y-58546044D01*
X112436148Y-58546047D01*
X112300846Y-58616332D01*
X112200264Y-58668580D01*
X112196649Y-58671163D01*
X112196643Y-58671167D01*
X111983990Y-58823131D01*
X111983986Y-58823134D01*
X111980369Y-58825719D01*
X111784808Y-59012275D01*
X111617485Y-59224524D01*
X111615253Y-59228366D01*
X111615250Y-59228371D01*
X111483974Y-59454377D01*
X111483971Y-59454384D01*
X111481736Y-59458231D01*
X111457932Y-59517002D01*
X111416402Y-59619535D01*
X111372290Y-59675164D01*
X111305105Y-59698113D01*
X111236178Y-59681097D01*
X111187392Y-59629516D01*
X111181406Y-59615844D01*
X111144941Y-59517002D01*
X111141286Y-59508907D01*
X111017206Y-59278947D01*
X111012447Y-59271449D01*
X110927759Y-59156790D01*
X110916631Y-59148348D01*
X110904038Y-59155172D01*
X109772022Y-60287188D01*
X109764408Y-60301132D01*
X109034356Y-60301132D01*
X109035592Y-60298868D01*
X109035461Y-60297035D01*
X109031210Y-60290420D01*
X107895819Y-59155029D01*
X107882978Y-59148017D01*
X107872289Y-59155813D01*
X107820663Y-59221299D01*
X107815662Y-59228657D01*
X107742954Y-59353833D01*
X107691443Y-59402691D01*
X107621694Y-59415945D01*
X107555853Y-59389385D01*
X107514822Y-59331446D01*
X107508000Y-59290547D01*
X107508000Y-58782688D01*
X108248045Y-58782688D01*
X108255025Y-58795815D01*
X109387188Y-59927978D01*
X109401132Y-59935592D01*
X109402965Y-59935461D01*
X109409580Y-59931210D01*
X110544804Y-58795986D01*
X110551658Y-58783434D01*
X110543450Y-58772363D01*
X110453762Y-58703916D01*
X110446313Y-58699023D01*
X110218353Y-58571359D01*
X110210303Y-58567571D01*
X109966617Y-58473295D01*
X109958127Y-58470683D01*
X109703578Y-58411683D01*
X109694800Y-58410293D01*
X109434478Y-58387746D01*
X109425607Y-58387606D01*
X109164696Y-58401965D01*
X109155886Y-58403079D01*
X108899607Y-58454055D01*
X108891050Y-58456396D01*
X108644496Y-58542980D01*
X108636362Y-58546500D01*
X108404477Y-58666955D01*
X108396905Y-58671594D01*
X108256447Y-58771967D01*
X108248045Y-58782688D01*
X107508000Y-58782688D01*
X107508000Y-56516381D01*
X107849160Y-56516381D01*
X107849237Y-56517470D01*
X107851698Y-56521206D01*
X108125632Y-56731404D01*
X108131262Y-56735259D01*
X108431591Y-56917862D01*
X108437593Y-56921080D01*
X108755897Y-57070184D01*
X108762202Y-57072732D01*
X109094743Y-57186587D01*
X109101313Y-57188446D01*
X109444183Y-57265714D01*
X109450912Y-57266853D01*
X109800143Y-57306643D01*
X109806933Y-57307046D01*
X110158419Y-57308886D01*
X110165220Y-57308554D01*
X110514853Y-57272423D01*
X110521581Y-57271357D01*
X110865274Y-57197676D01*
X110871822Y-57195897D01*
X111205549Y-57085527D01*
X111211891Y-57083041D01*
X111531718Y-56937288D01*
X111537777Y-56934121D01*
X111839995Y-56754676D01*
X111845659Y-56750884D01*
X112126732Y-56539849D01*
X112131958Y-56535464D01*
X112141613Y-56526428D01*
X112147540Y-56516381D01*
X151849160Y-56516381D01*
X151849237Y-56517470D01*
X151851698Y-56521206D01*
X152125632Y-56731404D01*
X152131262Y-56735259D01*
X152431591Y-56917862D01*
X152437593Y-56921080D01*
X152755897Y-57070184D01*
X152762202Y-57072732D01*
X153094743Y-57186587D01*
X153101313Y-57188446D01*
X153444183Y-57265714D01*
X153450912Y-57266853D01*
X153800143Y-57306643D01*
X153806933Y-57307046D01*
X154158419Y-57308886D01*
X154165220Y-57308554D01*
X154514853Y-57272423D01*
X154521581Y-57271357D01*
X154865274Y-57197676D01*
X154871822Y-57195897D01*
X155205549Y-57085527D01*
X155211891Y-57083041D01*
X155531718Y-56937288D01*
X155537777Y-56934121D01*
X155839995Y-56754676D01*
X155845659Y-56750884D01*
X156126732Y-56539849D01*
X156131958Y-56535464D01*
X156141613Y-56526428D01*
X156149682Y-56512750D01*
X156149654Y-56512024D01*
X156144512Y-56503723D01*
X154012810Y-54372020D01*
X153998869Y-54364408D01*
X153997034Y-54364539D01*
X153990420Y-54368790D01*
X151856774Y-56502437D01*
X151849160Y-56516381D01*
X112147540Y-56516381D01*
X112149682Y-56512750D01*
X112149654Y-56512024D01*
X112144512Y-56503723D01*
X110012810Y-54372020D01*
X109998869Y-54364408D01*
X109997034Y-54364539D01*
X109990420Y-54368790D01*
X107856774Y-56502437D01*
X107849160Y-56516381D01*
X107508000Y-56516381D01*
X107508000Y-56184979D01*
X107528002Y-56116858D01*
X107544905Y-56095884D01*
X109627980Y-54012810D01*
X109634357Y-54001131D01*
X110364408Y-54001131D01*
X110364539Y-54002966D01*
X110368790Y-54009580D01*
X112499009Y-56139798D01*
X112512605Y-56147223D01*
X112522218Y-56140522D01*
X112622518Y-56023912D01*
X112626676Y-56018514D01*
X112825762Y-55728840D01*
X112829310Y-55723029D01*
X112995942Y-55413559D01*
X112998849Y-55407381D01*
X113131090Y-55081713D01*
X113133304Y-55075283D01*
X113229598Y-54737237D01*
X113231105Y-54730607D01*
X113290332Y-54384118D01*
X113291112Y-54377378D01*
X113312668Y-54024925D01*
X113312784Y-54021323D01*
X113312853Y-54001819D01*
X113312761Y-53998194D01*
X113312416Y-53991832D01*
X150687333Y-53991832D01*
X150705117Y-54342893D01*
X150705827Y-54349649D01*
X150761420Y-54696723D01*
X150762859Y-54703378D01*
X150855608Y-55042410D01*
X150857757Y-55048871D01*
X150986581Y-55375912D01*
X150989412Y-55382095D01*
X151152803Y-55693310D01*
X151156286Y-55699152D01*
X151352330Y-55990896D01*
X151356433Y-55996340D01*
X151476425Y-56138836D01*
X151489164Y-56147279D01*
X151499608Y-56141181D01*
X153627980Y-54012810D01*
X153635592Y-53998869D01*
X153635461Y-53997034D01*
X153631210Y-53990420D01*
X151500992Y-51860203D01*
X151487455Y-51852811D01*
X151477753Y-51859599D01*
X151370430Y-51985257D01*
X151366296Y-51990664D01*
X151168215Y-52281041D01*
X151164697Y-52286851D01*
X150999134Y-52596922D01*
X150996259Y-52603087D01*
X150865155Y-52929218D01*
X150862962Y-52935658D01*
X150767846Y-53274044D01*
X150766363Y-53280679D01*
X150708350Y-53627354D01*
X150707591Y-53634126D01*
X150687357Y-53985037D01*
X150687333Y-53991832D01*
X113312416Y-53991832D01*
X113293666Y-53645615D01*
X113292931Y-53638849D01*
X113236130Y-53291985D01*
X113234663Y-53285313D01*
X113140736Y-52946627D01*
X113138562Y-52940163D01*
X113008598Y-52613578D01*
X113005742Y-52607398D01*
X112841269Y-52296763D01*
X112837769Y-52290937D01*
X112640697Y-51999862D01*
X112636590Y-51994453D01*
X112523565Y-51861179D01*
X112510740Y-51852743D01*
X112500416Y-51858795D01*
X110372020Y-53987190D01*
X110364408Y-54001131D01*
X109634357Y-54001131D01*
X109635592Y-53998869D01*
X109635461Y-53997034D01*
X109631210Y-53990420D01*
X108249203Y-52608413D01*
X108215177Y-52546101D01*
X108220242Y-52475286D01*
X108249203Y-52430223D01*
X108430223Y-52249203D01*
X108492535Y-52215177D01*
X108563350Y-52220242D01*
X108608413Y-52249203D01*
X109987188Y-53627978D01*
X110001132Y-53635592D01*
X110002965Y-53635461D01*
X110009580Y-53631210D01*
X112095884Y-51544905D01*
X112158196Y-51510880D01*
X112184979Y-51508000D01*
X151815021Y-51508000D01*
X151883142Y-51528002D01*
G37*
%TD.AperFunction*%
M02*
