%TF.GenerationSoftware,KiCad,Pcbnew,(6.0.2)*%
%TF.CreationDate,2022-03-15T10:04:13+02:00*%
%TF.ProjectId,C-DAO,432d4441-4f2e-46b6-9963-61645f706362,0.1*%
%TF.SameCoordinates,Original*%
%TF.FileFunction,Legend,Top*%
%TF.FilePolarity,Positive*%
%FSLAX46Y46*%
G04 Gerber Fmt 4.6, Leading zero omitted, Abs format (unit mm)*
G04 Created by KiCad (PCBNEW (6.0.2)) date 2022-03-15 10:04:13*
%MOMM*%
%LPD*%
G01*
G04 APERTURE LIST*
G04 Aperture macros list*
%AMRoundRect*
0 Rectangle with rounded corners*
0 $1 Rounding radius*
0 $2 $3 $4 $5 $6 $7 $8 $9 X,Y pos of 4 corners*
0 Add a 4 corners polygon primitive as box body*
4,1,4,$2,$3,$4,$5,$6,$7,$8,$9,$2,$3,0*
0 Add four circle primitives for the rounded corners*
1,1,$1+$1,$2,$3*
1,1,$1+$1,$4,$5*
1,1,$1+$1,$6,$7*
1,1,$1+$1,$8,$9*
0 Add four rect primitives between the rounded corners*
20,1,$1+$1,$2,$3,$4,$5,0*
20,1,$1+$1,$4,$5,$6,$7,0*
20,1,$1+$1,$6,$7,$8,$9,0*
20,1,$1+$1,$8,$9,$2,$3,0*%
G04 Aperture macros list end*
%ADD10C,0.125000*%
%ADD11C,0.500000*%
%ADD12C,0.150000*%
%ADD13C,0.120000*%
%ADD14C,1.498600*%
%ADD15C,1.803400*%
%ADD16R,1.800000X1.800000*%
%ADD17C,1.800000*%
%ADD18R,1.600000X0.550000*%
%ADD19R,0.550000X1.600000*%
%ADD20R,1.500000X1.000000*%
%ADD21RoundRect,0.237500X0.237500X-0.250000X0.237500X0.250000X-0.237500X0.250000X-0.237500X-0.250000X0*%
%ADD22C,3.600000*%
%ADD23C,5.600000*%
%ADD24RoundRect,0.237500X0.250000X0.237500X-0.250000X0.237500X-0.250000X-0.237500X0.250000X-0.237500X0*%
%ADD25RoundRect,0.237500X0.237500X-0.300000X0.237500X0.300000X-0.237500X0.300000X-0.237500X-0.300000X0*%
%ADD26C,2.800000*%
%ADD27R,1.700000X1.700000*%
%ADD28O,1.700000X1.700000*%
%ADD29RoundRect,0.237500X-0.237500X0.300000X-0.237500X-0.300000X0.237500X-0.300000X0.237500X0.300000X0*%
%ADD30RoundRect,0.237500X-0.250000X-0.237500X0.250000X-0.237500X0.250000X0.237500X-0.250000X0.237500X0*%
%ADD31R,1.905000X2.000000*%
%ADD32O,1.905000X2.000000*%
%ADD33RoundRect,0.237500X0.300000X0.237500X-0.300000X0.237500X-0.300000X-0.237500X0.300000X-0.237500X0*%
%ADD34RoundRect,0.237500X-0.237500X0.250000X-0.237500X-0.250000X0.237500X-0.250000X0.237500X0.250000X0*%
%ADD35RoundRect,0.250000X1.050000X0.550000X-1.050000X0.550000X-1.050000X-0.550000X1.050000X-0.550000X0*%
%ADD36RoundRect,0.237500X-0.300000X-0.237500X0.300000X-0.237500X0.300000X0.237500X-0.300000X0.237500X0*%
%ADD37RoundRect,0.237500X-0.287500X-0.237500X0.287500X-0.237500X0.287500X0.237500X-0.287500X0.237500X0*%
%ADD38R,1.600000X2.400000*%
%ADD39O,1.600000X2.400000*%
%ADD40R,1.500000X2.000000*%
%ADD41R,3.800000X2.000000*%
%ADD42R,2.000000X4.500000*%
%ADD43R,1.600000X1.600000*%
%ADD44O,1.600000X1.600000*%
%ADD45C,2.400000*%
%ADD46RoundRect,0.250000X-1.050000X-0.550000X1.050000X-0.550000X1.050000X0.550000X-1.050000X0.550000X0*%
%ADD47RoundRect,0.250000X0.550000X-1.050000X0.550000X1.050000X-0.550000X1.050000X-0.550000X-1.050000X0*%
%ADD48RoundRect,0.150000X0.825000X0.150000X-0.825000X0.150000X-0.825000X-0.150000X0.825000X-0.150000X0*%
G04 APERTURE END LIST*
D10*
X114212619Y-128984952D02*
X113498333Y-128984952D01*
X113355476Y-128937333D01*
X113260238Y-128842095D01*
X113212619Y-128699238D01*
X113212619Y-128604000D01*
X113212619Y-129937333D02*
X113212619Y-129461142D01*
X114212619Y-129461142D01*
X113307857Y-130842095D02*
X113260238Y-130794476D01*
X113212619Y-130651619D01*
X113212619Y-130556380D01*
X113260238Y-130413523D01*
X113355476Y-130318285D01*
X113450714Y-130270666D01*
X113641190Y-130223047D01*
X113784047Y-130223047D01*
X113974523Y-130270666D01*
X114069761Y-130318285D01*
X114165000Y-130413523D01*
X114212619Y-130556380D01*
X114212619Y-130651619D01*
X114165000Y-130794476D01*
X114117380Y-130842095D01*
X114212619Y-131556380D02*
X113498333Y-131556380D01*
X113355476Y-131508761D01*
X113260238Y-131413523D01*
X113212619Y-131270666D01*
X113212619Y-131175428D01*
X113212619Y-132508761D02*
X113212619Y-132032571D01*
X114212619Y-132032571D01*
X113307857Y-133413523D02*
X113260238Y-133365904D01*
X113212619Y-133223047D01*
X113212619Y-133127809D01*
X113260238Y-132984952D01*
X113355476Y-132889714D01*
X113450714Y-132842095D01*
X113641190Y-132794476D01*
X113784047Y-132794476D01*
X113974523Y-132842095D01*
X114069761Y-132889714D01*
X114165000Y-132984952D01*
X114212619Y-133127809D01*
X114212619Y-133223047D01*
X114165000Y-133365904D01*
X114117380Y-133413523D01*
X114212619Y-134127809D02*
X113498333Y-134127809D01*
X113355476Y-134080190D01*
X113260238Y-133984952D01*
X113212619Y-133842095D01*
X113212619Y-133746857D01*
X113212619Y-135080190D02*
X113212619Y-134604000D01*
X114212619Y-134604000D01*
X113307857Y-135984952D02*
X113260238Y-135937333D01*
X113212619Y-135794476D01*
X113212619Y-135699238D01*
X113260238Y-135556380D01*
X113355476Y-135461142D01*
X113450714Y-135413523D01*
X113641190Y-135365904D01*
X113784047Y-135365904D01*
X113974523Y-135413523D01*
X114069761Y-135461142D01*
X114165000Y-135556380D01*
X114212619Y-135699238D01*
X114212619Y-135794476D01*
X114165000Y-135937333D01*
X114117380Y-135984952D01*
X114212619Y-136699238D02*
X113498333Y-136699238D01*
X113355476Y-136651619D01*
X113260238Y-136556380D01*
X113212619Y-136413523D01*
X113212619Y-136318285D01*
X113212619Y-137651619D02*
X113212619Y-137175428D01*
X114212619Y-137175428D01*
X113307857Y-138556380D02*
X113260238Y-138508761D01*
X113212619Y-138365904D01*
X113212619Y-138270666D01*
X113260238Y-138127809D01*
X113355476Y-138032571D01*
X113450714Y-137984952D01*
X113641190Y-137937333D01*
X113784047Y-137937333D01*
X113974523Y-137984952D01*
X114069761Y-138032571D01*
X114165000Y-138127809D01*
X114212619Y-138270666D01*
X114212619Y-138365904D01*
X114165000Y-138508761D01*
X114117380Y-138556380D01*
D11*
X142332714Y-124753047D02*
X142237476Y-124657809D01*
X142142238Y-124372095D01*
X142142238Y-124181619D01*
X142237476Y-123895904D01*
X142427952Y-123705428D01*
X142618428Y-123610190D01*
X142999380Y-123514952D01*
X143285095Y-123514952D01*
X143666047Y-123610190D01*
X143856523Y-123705428D01*
X144047000Y-123895904D01*
X144142238Y-124181619D01*
X144142238Y-124372095D01*
X144047000Y-124657809D01*
X143951761Y-124753047D01*
X142904142Y-125610190D02*
X142904142Y-127134000D01*
X142142238Y-128086380D02*
X144142238Y-128086380D01*
X144142238Y-128562571D01*
X144047000Y-128848285D01*
X143856523Y-129038761D01*
X143666047Y-129134000D01*
X143285095Y-129229238D01*
X142999380Y-129229238D01*
X142618428Y-129134000D01*
X142427952Y-129038761D01*
X142237476Y-128848285D01*
X142142238Y-128562571D01*
X142142238Y-128086380D01*
X142713666Y-129991142D02*
X142713666Y-130943523D01*
X142142238Y-129800666D02*
X144142238Y-130467333D01*
X142142238Y-131134000D01*
X144142238Y-132181619D02*
X144142238Y-132562571D01*
X144047000Y-132753047D01*
X143856523Y-132943523D01*
X143475571Y-133038761D01*
X142808904Y-133038761D01*
X142427952Y-132943523D01*
X142237476Y-132753047D01*
X142142238Y-132562571D01*
X142142238Y-132181619D01*
X142237476Y-131991142D01*
X142427952Y-131800666D01*
X142808904Y-131705428D01*
X143475571Y-131705428D01*
X143856523Y-131800666D01*
X144047000Y-131991142D01*
X144142238Y-132181619D01*
X144142238Y-135134000D02*
X142142238Y-135800666D01*
X144142238Y-136467333D01*
X144142238Y-137514952D02*
X144142238Y-137705428D01*
X144047000Y-137895904D01*
X143951761Y-137991142D01*
X143761285Y-138086380D01*
X143380333Y-138181619D01*
X142904142Y-138181619D01*
X142523190Y-138086380D01*
X142332714Y-137991142D01*
X142237476Y-137895904D01*
X142142238Y-137705428D01*
X142142238Y-137514952D01*
X142237476Y-137324476D01*
X142332714Y-137229238D01*
X142523190Y-137134000D01*
X142904142Y-137038761D01*
X143380333Y-137038761D01*
X143761285Y-137134000D01*
X143951761Y-137229238D01*
X144047000Y-137324476D01*
X144142238Y-137514952D01*
X142332714Y-139038761D02*
X142237476Y-139134000D01*
X142142238Y-139038761D01*
X142237476Y-138943523D01*
X142332714Y-139038761D01*
X142142238Y-139038761D01*
X142142238Y-141038761D02*
X142142238Y-139895904D01*
X142142238Y-140467333D02*
X144142238Y-140467333D01*
X143856523Y-140276857D01*
X143666047Y-140086380D01*
X143570809Y-139895904D01*
X138922238Y-123610190D02*
X140922238Y-123610190D01*
X140922238Y-124086380D01*
X140827000Y-124372095D01*
X140636523Y-124562571D01*
X140446047Y-124657809D01*
X140065095Y-124753047D01*
X139779380Y-124753047D01*
X139398428Y-124657809D01*
X139207952Y-124562571D01*
X139017476Y-124372095D01*
X138922238Y-124086380D01*
X138922238Y-123610190D01*
X138922238Y-125610190D02*
X140255571Y-125610190D01*
X140922238Y-125610190D02*
X140827000Y-125514952D01*
X140731761Y-125610190D01*
X140827000Y-125705428D01*
X140922238Y-125610190D01*
X140731761Y-125610190D01*
X140255571Y-127419714D02*
X138636523Y-127419714D01*
X138446047Y-127324476D01*
X138350809Y-127229238D01*
X138255571Y-127038761D01*
X138255571Y-126753047D01*
X138350809Y-126562571D01*
X139017476Y-127419714D02*
X138922238Y-127229238D01*
X138922238Y-126848285D01*
X139017476Y-126657809D01*
X139112714Y-126562571D01*
X139303190Y-126467333D01*
X139874619Y-126467333D01*
X140065095Y-126562571D01*
X140160333Y-126657809D01*
X140255571Y-126848285D01*
X140255571Y-127229238D01*
X140160333Y-127419714D01*
X138922238Y-128372095D02*
X140255571Y-128372095D01*
X140922238Y-128372095D02*
X140827000Y-128276857D01*
X140731761Y-128372095D01*
X140827000Y-128467333D01*
X140922238Y-128372095D01*
X140731761Y-128372095D01*
X140255571Y-129038761D02*
X140255571Y-129800666D01*
X140922238Y-129324476D02*
X139207952Y-129324476D01*
X139017476Y-129419714D01*
X138922238Y-129610190D01*
X138922238Y-129800666D01*
X138922238Y-131324476D02*
X139969857Y-131324476D01*
X140160333Y-131229238D01*
X140255571Y-131038761D01*
X140255571Y-130657809D01*
X140160333Y-130467333D01*
X139017476Y-131324476D02*
X138922238Y-131134000D01*
X138922238Y-130657809D01*
X139017476Y-130467333D01*
X139207952Y-130372095D01*
X139398428Y-130372095D01*
X139588904Y-130467333D01*
X139684142Y-130657809D01*
X139684142Y-131134000D01*
X139779380Y-131324476D01*
X138922238Y-132562571D02*
X139017476Y-132372095D01*
X139207952Y-132276857D01*
X140922238Y-132276857D01*
X140922238Y-135229238D02*
X140922238Y-135610190D01*
X140827000Y-135800666D01*
X140636523Y-135991142D01*
X140255571Y-136086380D01*
X139588904Y-136086380D01*
X139207952Y-135991142D01*
X139017476Y-135800666D01*
X138922238Y-135610190D01*
X138922238Y-135229238D01*
X139017476Y-135038761D01*
X139207952Y-134848285D01*
X139588904Y-134753047D01*
X140255571Y-134753047D01*
X140636523Y-134848285D01*
X140827000Y-135038761D01*
X140922238Y-135229238D01*
X139017476Y-136848285D02*
X138922238Y-137038761D01*
X138922238Y-137419714D01*
X139017476Y-137610190D01*
X139207952Y-137705428D01*
X139303190Y-137705428D01*
X139493666Y-137610190D01*
X139588904Y-137419714D01*
X139588904Y-137134000D01*
X139684142Y-136943523D01*
X139874619Y-136848285D01*
X139969857Y-136848285D01*
X140160333Y-136943523D01*
X140255571Y-137134000D01*
X140255571Y-137419714D01*
X140160333Y-137610190D01*
X139017476Y-139419714D02*
X138922238Y-139229238D01*
X138922238Y-138848285D01*
X139017476Y-138657809D01*
X139112714Y-138562571D01*
X139303190Y-138467333D01*
X139874619Y-138467333D01*
X140065095Y-138562571D01*
X140160333Y-138657809D01*
X140255571Y-138848285D01*
X140255571Y-139229238D01*
X140160333Y-139419714D01*
X138922238Y-140276857D02*
X140255571Y-140276857D01*
X140922238Y-140276857D02*
X140827000Y-140181619D01*
X140731761Y-140276857D01*
X140827000Y-140372095D01*
X140922238Y-140276857D01*
X140731761Y-140276857D01*
X138922238Y-141514952D02*
X139017476Y-141324476D01*
X139207952Y-141229238D01*
X140922238Y-141229238D01*
X138922238Y-142562571D02*
X139017476Y-142372095D01*
X139207952Y-142276857D01*
X140922238Y-142276857D01*
X138922238Y-144181619D02*
X139969857Y-144181619D01*
X140160333Y-144086380D01*
X140255571Y-143895904D01*
X140255571Y-143514952D01*
X140160333Y-143324476D01*
X139017476Y-144181619D02*
X138922238Y-143991142D01*
X138922238Y-143514952D01*
X139017476Y-143324476D01*
X139207952Y-143229238D01*
X139398428Y-143229238D01*
X139588904Y-143324476D01*
X139684142Y-143514952D01*
X139684142Y-143991142D01*
X139779380Y-144181619D01*
X140255571Y-144848285D02*
X140255571Y-145610190D01*
X140922238Y-145134000D02*
X139207952Y-145134000D01*
X139017476Y-145229238D01*
X138922238Y-145419714D01*
X138922238Y-145610190D01*
X138922238Y-146562571D02*
X139017476Y-146372095D01*
X139112714Y-146276857D01*
X139303190Y-146181619D01*
X139874619Y-146181619D01*
X140065095Y-146276857D01*
X140160333Y-146372095D01*
X140255571Y-146562571D01*
X140255571Y-146848285D01*
X140160333Y-147038761D01*
X140065095Y-147134000D01*
X139874619Y-147229238D01*
X139303190Y-147229238D01*
X139112714Y-147134000D01*
X139017476Y-147038761D01*
X138922238Y-146848285D01*
X138922238Y-146562571D01*
X138922238Y-148086380D02*
X140255571Y-148086380D01*
X139874619Y-148086380D02*
X140065095Y-148181619D01*
X140160333Y-148276857D01*
X140255571Y-148467333D01*
X140255571Y-148657809D01*
X137702238Y-123324476D02*
X137702238Y-124467333D01*
X135702238Y-123895904D02*
X137702238Y-123895904D01*
X135702238Y-125134000D02*
X137702238Y-125134000D01*
X136273666Y-125800666D01*
X137702238Y-126467333D01*
X135702238Y-126467333D01*
X137702238Y-127229238D02*
X135702238Y-127705428D01*
X137130809Y-128086380D01*
X135702238Y-128467333D01*
X137702238Y-128943523D01*
D12*
X110299666Y-102813761D02*
X110442523Y-102861380D01*
X110680619Y-102861380D01*
X110775857Y-102813761D01*
X110823476Y-102766142D01*
X110871095Y-102670904D01*
X110871095Y-102575666D01*
X110823476Y-102480428D01*
X110775857Y-102432809D01*
X110680619Y-102385190D01*
X110490142Y-102337571D01*
X110394904Y-102289952D01*
X110347285Y-102242333D01*
X110299666Y-102147095D01*
X110299666Y-102051857D01*
X110347285Y-101956619D01*
X110394904Y-101909000D01*
X110490142Y-101861380D01*
X110728238Y-101861380D01*
X110871095Y-101909000D01*
X111204428Y-101861380D02*
X111442523Y-102861380D01*
X111633000Y-102147095D01*
X111823476Y-102861380D01*
X112061571Y-101861380D01*
X112347285Y-101861380D02*
X112966333Y-101861380D01*
X112633000Y-102242333D01*
X112775857Y-102242333D01*
X112871095Y-102289952D01*
X112918714Y-102337571D01*
X112966333Y-102432809D01*
X112966333Y-102670904D01*
X112918714Y-102766142D01*
X112871095Y-102813761D01*
X112775857Y-102861380D01*
X112490142Y-102861380D01*
X112394904Y-102813761D01*
X112347285Y-102766142D01*
X111452380Y-95500000D02*
X111690476Y-95500000D01*
X111595238Y-95738095D02*
X111690476Y-95500000D01*
X111595238Y-95261904D01*
X111880952Y-95642857D02*
X111690476Y-95500000D01*
X111880952Y-95357142D01*
X110426666Y-93100761D02*
X110569523Y-93148380D01*
X110807619Y-93148380D01*
X110902857Y-93100761D01*
X110950476Y-93053142D01*
X110998095Y-92957904D01*
X110998095Y-92862666D01*
X110950476Y-92767428D01*
X110902857Y-92719809D01*
X110807619Y-92672190D01*
X110617142Y-92624571D01*
X110521904Y-92576952D01*
X110474285Y-92529333D01*
X110426666Y-92434095D01*
X110426666Y-92338857D01*
X110474285Y-92243619D01*
X110521904Y-92196000D01*
X110617142Y-92148380D01*
X110855238Y-92148380D01*
X110998095Y-92196000D01*
X111331428Y-92148380D02*
X111569523Y-93148380D01*
X111760000Y-92434095D01*
X111950476Y-93148380D01*
X112188571Y-92148380D01*
X112521904Y-92243619D02*
X112569523Y-92196000D01*
X112664761Y-92148380D01*
X112902857Y-92148380D01*
X112998095Y-92196000D01*
X113045714Y-92243619D01*
X113093333Y-92338857D01*
X113093333Y-92434095D01*
X113045714Y-92576952D01*
X112474285Y-93148380D01*
X113093333Y-93148380D01*
X111452380Y-85500000D02*
X111690476Y-85500000D01*
X111595238Y-85738095D02*
X111690476Y-85500000D01*
X111595238Y-85261904D01*
X111880952Y-85642857D02*
X111690476Y-85500000D01*
X111880952Y-85357142D01*
X110807666Y-83260761D02*
X110950523Y-83308380D01*
X111188619Y-83308380D01*
X111283857Y-83260761D01*
X111331476Y-83213142D01*
X111379095Y-83117904D01*
X111379095Y-83022666D01*
X111331476Y-82927428D01*
X111283857Y-82879809D01*
X111188619Y-82832190D01*
X110998142Y-82784571D01*
X110902904Y-82736952D01*
X110855285Y-82689333D01*
X110807666Y-82594095D01*
X110807666Y-82498857D01*
X110855285Y-82403619D01*
X110902904Y-82356000D01*
X110998142Y-82308380D01*
X111236238Y-82308380D01*
X111379095Y-82356000D01*
X111712428Y-82308380D02*
X111950523Y-83308380D01*
X112141000Y-82594095D01*
X112331476Y-83308380D01*
X112569571Y-82308380D01*
X113379095Y-82641714D02*
X113379095Y-83308380D01*
X113141000Y-82260761D02*
X112902904Y-82975047D01*
X113521952Y-82975047D01*
X111452380Y-75500000D02*
X111690476Y-75500000D01*
X111595238Y-75738095D02*
X111690476Y-75500000D01*
X111595238Y-75261904D01*
X111880952Y-75642857D02*
X111690476Y-75500000D01*
X111880952Y-75357142D01*
X118046666Y-114577761D02*
X118189523Y-114625380D01*
X118427619Y-114625380D01*
X118522857Y-114577761D01*
X118570476Y-114530142D01*
X118618095Y-114434904D01*
X118618095Y-114339666D01*
X118570476Y-114244428D01*
X118522857Y-114196809D01*
X118427619Y-114149190D01*
X118237142Y-114101571D01*
X118141904Y-114053952D01*
X118094285Y-114006333D01*
X118046666Y-113911095D01*
X118046666Y-113815857D01*
X118094285Y-113720619D01*
X118141904Y-113673000D01*
X118237142Y-113625380D01*
X118475238Y-113625380D01*
X118618095Y-113673000D01*
X118951428Y-113625380D02*
X119189523Y-114625380D01*
X119380000Y-113911095D01*
X119570476Y-114625380D01*
X119808571Y-113625380D01*
X120713333Y-114625380D02*
X120141904Y-114625380D01*
X120427619Y-114625380D02*
X120427619Y-113625380D01*
X120332380Y-113768238D01*
X120237142Y-113863476D01*
X120141904Y-113911095D01*
X112816180Y-114720600D02*
X113054276Y-114720600D01*
X112959038Y-114958695D02*
X113054276Y-114720600D01*
X112959038Y-114482504D01*
X113244752Y-114863457D02*
X113054276Y-114720600D01*
X113244752Y-114577742D01*
X120412380Y-78488095D02*
X119412380Y-78488095D01*
X119412380Y-78250000D01*
X119460000Y-78107142D01*
X119555238Y-78011904D01*
X119650476Y-77964285D01*
X119840952Y-77916666D01*
X119983809Y-77916666D01*
X120174285Y-77964285D01*
X120269523Y-78011904D01*
X120364761Y-78107142D01*
X120412380Y-78250000D01*
X120412380Y-78488095D01*
X119745714Y-77059523D02*
X120412380Y-77059523D01*
X119364761Y-77297619D02*
X120079047Y-77535714D01*
X120079047Y-76916666D01*
X120412380Y-98488095D02*
X119412380Y-98488095D01*
X119412380Y-98250000D01*
X119460000Y-98107142D01*
X119555238Y-98011904D01*
X119650476Y-97964285D01*
X119840952Y-97916666D01*
X119983809Y-97916666D01*
X120174285Y-97964285D01*
X120269523Y-98011904D01*
X120364761Y-98107142D01*
X120412380Y-98250000D01*
X120412380Y-98488095D01*
X119412380Y-97583333D02*
X119412380Y-96964285D01*
X119793333Y-97297619D01*
X119793333Y-97154761D01*
X119840952Y-97059523D01*
X119888571Y-97011904D01*
X119983809Y-96964285D01*
X120221904Y-96964285D01*
X120317142Y-97011904D01*
X120364761Y-97059523D01*
X120412380Y-97154761D01*
X120412380Y-97440476D01*
X120364761Y-97535714D01*
X120317142Y-97583333D01*
X120412380Y-88488095D02*
X119412380Y-88488095D01*
X119412380Y-88250000D01*
X119460000Y-88107142D01*
X119555238Y-88011904D01*
X119650476Y-87964285D01*
X119840952Y-87916666D01*
X119983809Y-87916666D01*
X120174285Y-87964285D01*
X120269523Y-88011904D01*
X120364761Y-88107142D01*
X120412380Y-88250000D01*
X120412380Y-88488095D01*
X119507619Y-87535714D02*
X119460000Y-87488095D01*
X119412380Y-87392857D01*
X119412380Y-87154761D01*
X119460000Y-87059523D01*
X119507619Y-87011904D01*
X119602857Y-86964285D01*
X119698095Y-86964285D01*
X119840952Y-87011904D01*
X120412380Y-87583333D01*
X120412380Y-86964285D01*
X137287095Y-95545380D02*
X137287095Y-96354904D01*
X137334714Y-96450142D01*
X137382333Y-96497761D01*
X137477571Y-96545380D01*
X137668047Y-96545380D01*
X137763285Y-96497761D01*
X137810904Y-96450142D01*
X137858523Y-96354904D01*
X137858523Y-95545380D01*
X138858523Y-96545380D02*
X138287095Y-96545380D01*
X138572809Y-96545380D02*
X138572809Y-95545380D01*
X138477571Y-95688238D01*
X138382333Y-95783476D01*
X138287095Y-95831095D01*
X137523380Y-108656333D02*
X138237666Y-108656333D01*
X138380523Y-108703952D01*
X138475761Y-108799190D01*
X138523380Y-108942047D01*
X138523380Y-109037285D01*
X138523380Y-108180142D02*
X137523380Y-108180142D01*
X137523380Y-107799190D01*
X137571000Y-107703952D01*
X137618619Y-107656333D01*
X137713857Y-107608714D01*
X137856714Y-107608714D01*
X137951952Y-107656333D01*
X137999571Y-107703952D01*
X138047190Y-107799190D01*
X138047190Y-108180142D01*
X137618619Y-107227761D02*
X137571000Y-107180142D01*
X137523380Y-107084904D01*
X137523380Y-106846809D01*
X137571000Y-106751571D01*
X137618619Y-106703952D01*
X137713857Y-106656333D01*
X137809095Y-106656333D01*
X137951952Y-106703952D01*
X138523380Y-107275380D01*
X138523380Y-106656333D01*
X135723380Y-110756333D02*
X135723380Y-110137285D01*
X136104333Y-110470619D01*
X136104333Y-110327761D01*
X136151952Y-110232523D01*
X136199571Y-110184904D01*
X136294809Y-110137285D01*
X136532904Y-110137285D01*
X136628142Y-110184904D01*
X136675761Y-110232523D01*
X136723380Y-110327761D01*
X136723380Y-110613476D01*
X136675761Y-110708714D01*
X136628142Y-110756333D01*
X136723380Y-104937285D02*
X136723380Y-105508714D01*
X136723380Y-105223000D02*
X135723380Y-105223000D01*
X135866238Y-105318238D01*
X135961476Y-105413476D01*
X136009095Y-105508714D01*
X129786142Y-78303380D02*
X129452809Y-77827190D01*
X129214714Y-78303380D02*
X129214714Y-77303380D01*
X129595666Y-77303380D01*
X129690904Y-77351000D01*
X129738523Y-77398619D01*
X129786142Y-77493857D01*
X129786142Y-77636714D01*
X129738523Y-77731952D01*
X129690904Y-77779571D01*
X129595666Y-77827190D01*
X129214714Y-77827190D01*
X130167095Y-77398619D02*
X130214714Y-77351000D01*
X130309952Y-77303380D01*
X130548047Y-77303380D01*
X130643285Y-77351000D01*
X130690904Y-77398619D01*
X130738523Y-77493857D01*
X130738523Y-77589095D01*
X130690904Y-77731952D01*
X130119476Y-78303380D01*
X130738523Y-78303380D01*
X131690904Y-78303380D02*
X131119476Y-78303380D01*
X131405190Y-78303380D02*
X131405190Y-77303380D01*
X131309952Y-77446238D01*
X131214714Y-77541476D01*
X131119476Y-77589095D01*
X109238095Y-144652380D02*
X109238095Y-143652380D01*
X109238095Y-144128571D02*
X109809523Y-144128571D01*
X109809523Y-144652380D02*
X109809523Y-143652380D01*
X110809523Y-144652380D02*
X110238095Y-144652380D01*
X110523809Y-144652380D02*
X110523809Y-143652380D01*
X110428571Y-143795238D01*
X110333333Y-143890476D01*
X110238095Y-143938095D01*
X129786142Y-69921380D02*
X129452809Y-69445190D01*
X129214714Y-69921380D02*
X129214714Y-68921380D01*
X129595666Y-68921380D01*
X129690904Y-68969000D01*
X129738523Y-69016619D01*
X129786142Y-69111857D01*
X129786142Y-69254714D01*
X129738523Y-69349952D01*
X129690904Y-69397571D01*
X129595666Y-69445190D01*
X129214714Y-69445190D01*
X130167095Y-69016619D02*
X130214714Y-68969000D01*
X130309952Y-68921380D01*
X130548047Y-68921380D01*
X130643285Y-68969000D01*
X130690904Y-69016619D01*
X130738523Y-69111857D01*
X130738523Y-69207095D01*
X130690904Y-69349952D01*
X130119476Y-69921380D01*
X130738523Y-69921380D01*
X131119476Y-69016619D02*
X131167095Y-68969000D01*
X131262333Y-68921380D01*
X131500428Y-68921380D01*
X131595666Y-68969000D01*
X131643285Y-69016619D01*
X131690904Y-69111857D01*
X131690904Y-69207095D01*
X131643285Y-69349952D01*
X131071857Y-69921380D01*
X131690904Y-69921380D01*
X132592333Y-105401380D02*
X132259000Y-104925190D01*
X132020904Y-105401380D02*
X132020904Y-104401380D01*
X132401857Y-104401380D01*
X132497095Y-104449000D01*
X132544714Y-104496619D01*
X132592333Y-104591857D01*
X132592333Y-104734714D01*
X132544714Y-104829952D01*
X132497095Y-104877571D01*
X132401857Y-104925190D01*
X132020904Y-104925190D01*
X133449476Y-104401380D02*
X133259000Y-104401380D01*
X133163761Y-104449000D01*
X133116142Y-104496619D01*
X133020904Y-104639476D01*
X132973285Y-104829952D01*
X132973285Y-105210904D01*
X133020904Y-105306142D01*
X133068523Y-105353761D01*
X133163761Y-105401380D01*
X133354238Y-105401380D01*
X133449476Y-105353761D01*
X133497095Y-105306142D01*
X133544714Y-105210904D01*
X133544714Y-104972809D01*
X133497095Y-104877571D01*
X133449476Y-104829952D01*
X133354238Y-104782333D01*
X133163761Y-104782333D01*
X133068523Y-104829952D01*
X133020904Y-104877571D01*
X132973285Y-104972809D01*
X125468142Y-57253142D02*
X125420523Y-57300761D01*
X125277666Y-57348380D01*
X125182428Y-57348380D01*
X125039571Y-57300761D01*
X124944333Y-57205523D01*
X124896714Y-57110285D01*
X124849095Y-56919809D01*
X124849095Y-56776952D01*
X124896714Y-56586476D01*
X124944333Y-56491238D01*
X125039571Y-56396000D01*
X125182428Y-56348380D01*
X125277666Y-56348380D01*
X125420523Y-56396000D01*
X125468142Y-56443619D01*
X126420523Y-57348380D02*
X125849095Y-57348380D01*
X126134809Y-57348380D02*
X126134809Y-56348380D01*
X126039571Y-56491238D01*
X125944333Y-56586476D01*
X125849095Y-56634095D01*
X126991952Y-56776952D02*
X126896714Y-56729333D01*
X126849095Y-56681714D01*
X126801476Y-56586476D01*
X126801476Y-56538857D01*
X126849095Y-56443619D01*
X126896714Y-56396000D01*
X126991952Y-56348380D01*
X127182428Y-56348380D01*
X127277666Y-56396000D01*
X127325285Y-56443619D01*
X127372904Y-56538857D01*
X127372904Y-56586476D01*
X127325285Y-56681714D01*
X127277666Y-56729333D01*
X127182428Y-56776952D01*
X126991952Y-56776952D01*
X126896714Y-56824571D01*
X126849095Y-56872190D01*
X126801476Y-56967428D01*
X126801476Y-57157904D01*
X126849095Y-57253142D01*
X126896714Y-57300761D01*
X126991952Y-57348380D01*
X127182428Y-57348380D01*
X127277666Y-57300761D01*
X127325285Y-57253142D01*
X127372904Y-57157904D01*
X127372904Y-56967428D01*
X127325285Y-56872190D01*
X127277666Y-56824571D01*
X127182428Y-56776952D01*
X132453142Y-69921380D02*
X132119809Y-69445190D01*
X131881714Y-69921380D02*
X131881714Y-68921380D01*
X132262666Y-68921380D01*
X132357904Y-68969000D01*
X132405523Y-69016619D01*
X132453142Y-69111857D01*
X132453142Y-69254714D01*
X132405523Y-69349952D01*
X132357904Y-69397571D01*
X132262666Y-69445190D01*
X131881714Y-69445190D01*
X133405523Y-69921380D02*
X132834095Y-69921380D01*
X133119809Y-69921380D02*
X133119809Y-68921380D01*
X133024571Y-69064238D01*
X132929333Y-69159476D01*
X132834095Y-69207095D01*
X133738857Y-68921380D02*
X134357904Y-68921380D01*
X134024571Y-69302333D01*
X134167428Y-69302333D01*
X134262666Y-69349952D01*
X134310285Y-69397571D01*
X134357904Y-69492809D01*
X134357904Y-69730904D01*
X134310285Y-69826142D01*
X134262666Y-69873761D01*
X134167428Y-69921380D01*
X133881714Y-69921380D01*
X133786476Y-69873761D01*
X133738857Y-69826142D01*
X121245333Y-117927380D02*
X120912000Y-117451190D01*
X120673904Y-117927380D02*
X120673904Y-116927380D01*
X121054857Y-116927380D01*
X121150095Y-116975000D01*
X121197714Y-117022619D01*
X121245333Y-117117857D01*
X121245333Y-117260714D01*
X121197714Y-117355952D01*
X121150095Y-117403571D01*
X121054857Y-117451190D01*
X120673904Y-117451190D01*
X122197714Y-117927380D02*
X121626285Y-117927380D01*
X121912000Y-117927380D02*
X121912000Y-116927380D01*
X121816761Y-117070238D01*
X121721523Y-117165476D01*
X121626285Y-117213095D01*
X153238095Y-50652380D02*
X153238095Y-49652380D01*
X153238095Y-50128571D02*
X153809523Y-50128571D01*
X153809523Y-50652380D02*
X153809523Y-49652380D01*
X154190476Y-49652380D02*
X154809523Y-49652380D01*
X154476190Y-50033333D01*
X154619047Y-50033333D01*
X154714285Y-50080952D01*
X154761904Y-50128571D01*
X154809523Y-50223809D01*
X154809523Y-50461904D01*
X154761904Y-50557142D01*
X154714285Y-50604761D01*
X154619047Y-50652380D01*
X154333333Y-50652380D01*
X154238095Y-50604761D01*
X154190476Y-50557142D01*
X110918666Y-57364380D02*
X110918666Y-58078666D01*
X110871047Y-58221523D01*
X110775809Y-58316761D01*
X110632952Y-58364380D01*
X110537714Y-58364380D01*
X111299619Y-57364380D02*
X111918666Y-57364380D01*
X111585333Y-57745333D01*
X111728190Y-57745333D01*
X111823428Y-57792952D01*
X111871047Y-57840571D01*
X111918666Y-57935809D01*
X111918666Y-58173904D01*
X111871047Y-58269142D01*
X111823428Y-58316761D01*
X111728190Y-58364380D01*
X111442476Y-58364380D01*
X111347238Y-58316761D01*
X111299619Y-58269142D01*
X122348666Y-106894380D02*
X122348666Y-107608666D01*
X122301047Y-107751523D01*
X122205809Y-107846761D01*
X122062952Y-107894380D01*
X121967714Y-107894380D01*
X123301047Y-106894380D02*
X122824857Y-106894380D01*
X122777238Y-107370571D01*
X122824857Y-107322952D01*
X122920095Y-107275333D01*
X123158190Y-107275333D01*
X123253428Y-107322952D01*
X123301047Y-107370571D01*
X123348666Y-107465809D01*
X123348666Y-107703904D01*
X123301047Y-107799142D01*
X123253428Y-107846761D01*
X123158190Y-107894380D01*
X122920095Y-107894380D01*
X122824857Y-107846761D01*
X122777238Y-107799142D01*
X118229142Y-69064142D02*
X118181523Y-69111761D01*
X118038666Y-69159380D01*
X117943428Y-69159380D01*
X117800571Y-69111761D01*
X117705333Y-69016523D01*
X117657714Y-68921285D01*
X117610095Y-68730809D01*
X117610095Y-68587952D01*
X117657714Y-68397476D01*
X117705333Y-68302238D01*
X117800571Y-68207000D01*
X117943428Y-68159380D01*
X118038666Y-68159380D01*
X118181523Y-68207000D01*
X118229142Y-68254619D01*
X119181523Y-69159380D02*
X118610095Y-69159380D01*
X118895809Y-69159380D02*
X118895809Y-68159380D01*
X118800571Y-68302238D01*
X118705333Y-68397476D01*
X118610095Y-68445095D01*
X119514857Y-68159380D02*
X120181523Y-68159380D01*
X119752952Y-69159380D01*
X126198333Y-122785142D02*
X126150714Y-122832761D01*
X126007857Y-122880380D01*
X125912619Y-122880380D01*
X125769761Y-122832761D01*
X125674523Y-122737523D01*
X125626904Y-122642285D01*
X125579285Y-122451809D01*
X125579285Y-122308952D01*
X125626904Y-122118476D01*
X125674523Y-122023238D01*
X125769761Y-121928000D01*
X125912619Y-121880380D01*
X126007857Y-121880380D01*
X126150714Y-121928000D01*
X126198333Y-121975619D01*
X126579285Y-121975619D02*
X126626904Y-121928000D01*
X126722142Y-121880380D01*
X126960238Y-121880380D01*
X127055476Y-121928000D01*
X127103095Y-121975619D01*
X127150714Y-122070857D01*
X127150714Y-122166095D01*
X127103095Y-122308952D01*
X126531666Y-122880380D01*
X127150714Y-122880380D01*
X153238095Y-144652380D02*
X153238095Y-143652380D01*
X153238095Y-144128571D02*
X153809523Y-144128571D01*
X153809523Y-144652380D02*
X153809523Y-143652380D01*
X154714285Y-143985714D02*
X154714285Y-144652380D01*
X154476190Y-143604761D02*
X154238095Y-144319047D01*
X154857142Y-144319047D01*
X150936666Y-128122380D02*
X150936666Y-128836666D01*
X150889047Y-128979523D01*
X150793809Y-129074761D01*
X150650952Y-129122380D01*
X150555714Y-129122380D01*
X151365238Y-128217619D02*
X151412857Y-128170000D01*
X151508095Y-128122380D01*
X151746190Y-128122380D01*
X151841428Y-128170000D01*
X151889047Y-128217619D01*
X151936666Y-128312857D01*
X151936666Y-128408095D01*
X151889047Y-128550952D01*
X151317619Y-129122380D01*
X151936666Y-129122380D01*
X138041142Y-69921380D02*
X137707809Y-69445190D01*
X137469714Y-69921380D02*
X137469714Y-68921380D01*
X137850666Y-68921380D01*
X137945904Y-68969000D01*
X137993523Y-69016619D01*
X138041142Y-69111857D01*
X138041142Y-69254714D01*
X137993523Y-69349952D01*
X137945904Y-69397571D01*
X137850666Y-69445190D01*
X137469714Y-69445190D01*
X138993523Y-69921380D02*
X138422095Y-69921380D01*
X138707809Y-69921380D02*
X138707809Y-68921380D01*
X138612571Y-69064238D01*
X138517333Y-69159476D01*
X138422095Y-69207095D01*
X139945904Y-69921380D02*
X139374476Y-69921380D01*
X139660190Y-69921380D02*
X139660190Y-68921380D01*
X139564952Y-69064238D01*
X139469714Y-69159476D01*
X139374476Y-69207095D01*
X130120833Y-127222380D02*
X129787500Y-126746190D01*
X129549404Y-127222380D02*
X129549404Y-126222380D01*
X129930357Y-126222380D01*
X130025595Y-126270000D01*
X130073214Y-126317619D01*
X130120833Y-126412857D01*
X130120833Y-126555714D01*
X130073214Y-126650952D01*
X130025595Y-126698571D01*
X129930357Y-126746190D01*
X129549404Y-126746190D01*
X130501785Y-126317619D02*
X130549404Y-126270000D01*
X130644642Y-126222380D01*
X130882738Y-126222380D01*
X130977976Y-126270000D01*
X131025595Y-126317619D01*
X131073214Y-126412857D01*
X131073214Y-126508095D01*
X131025595Y-126650952D01*
X130454166Y-127222380D01*
X131073214Y-127222380D01*
X121033333Y-80882380D02*
X120700000Y-80406190D01*
X120461904Y-80882380D02*
X120461904Y-79882380D01*
X120842857Y-79882380D01*
X120938095Y-79930000D01*
X120985714Y-79977619D01*
X121033333Y-80072857D01*
X121033333Y-80215714D01*
X120985714Y-80310952D01*
X120938095Y-80358571D01*
X120842857Y-80406190D01*
X120461904Y-80406190D01*
X121938095Y-79882380D02*
X121461904Y-79882380D01*
X121414285Y-80358571D01*
X121461904Y-80310952D01*
X121557142Y-80263333D01*
X121795238Y-80263333D01*
X121890476Y-80310952D01*
X121938095Y-80358571D01*
X121985714Y-80453809D01*
X121985714Y-80691904D01*
X121938095Y-80787142D01*
X121890476Y-80834761D01*
X121795238Y-80882380D01*
X121557142Y-80882380D01*
X121461904Y-80834761D01*
X121414285Y-80787142D01*
X146238095Y-123277380D02*
X146238095Y-124086904D01*
X146285714Y-124182142D01*
X146333333Y-124229761D01*
X146428571Y-124277380D01*
X146619047Y-124277380D01*
X146714285Y-124229761D01*
X146761904Y-124182142D01*
X146809523Y-124086904D01*
X146809523Y-123277380D01*
X147761904Y-123277380D02*
X147285714Y-123277380D01*
X147238095Y-123753571D01*
X147285714Y-123705952D01*
X147380952Y-123658333D01*
X147619047Y-123658333D01*
X147714285Y-123705952D01*
X147761904Y-123753571D01*
X147809523Y-123848809D01*
X147809523Y-124086904D01*
X147761904Y-124182142D01*
X147714285Y-124229761D01*
X147619047Y-124277380D01*
X147380952Y-124277380D01*
X147285714Y-124229761D01*
X147238095Y-124182142D01*
X145883333Y-78176380D02*
X145550000Y-77700190D01*
X145311904Y-78176380D02*
X145311904Y-77176380D01*
X145692857Y-77176380D01*
X145788095Y-77224000D01*
X145835714Y-77271619D01*
X145883333Y-77366857D01*
X145883333Y-77509714D01*
X145835714Y-77604952D01*
X145788095Y-77652571D01*
X145692857Y-77700190D01*
X145311904Y-77700190D01*
X146454761Y-77604952D02*
X146359523Y-77557333D01*
X146311904Y-77509714D01*
X146264285Y-77414476D01*
X146264285Y-77366857D01*
X146311904Y-77271619D01*
X146359523Y-77224000D01*
X146454761Y-77176380D01*
X146645238Y-77176380D01*
X146740476Y-77224000D01*
X146788095Y-77271619D01*
X146835714Y-77366857D01*
X146835714Y-77414476D01*
X146788095Y-77509714D01*
X146740476Y-77557333D01*
X146645238Y-77604952D01*
X146454761Y-77604952D01*
X146359523Y-77652571D01*
X146311904Y-77700190D01*
X146264285Y-77795428D01*
X146264285Y-77985904D01*
X146311904Y-78081142D01*
X146359523Y-78128761D01*
X146454761Y-78176380D01*
X146645238Y-78176380D01*
X146740476Y-78128761D01*
X146788095Y-78081142D01*
X146835714Y-77985904D01*
X146835714Y-77795428D01*
X146788095Y-77700190D01*
X146740476Y-77652571D01*
X146645238Y-77604952D01*
X126103142Y-90019142D02*
X126055523Y-90066761D01*
X125912666Y-90114380D01*
X125817428Y-90114380D01*
X125674571Y-90066761D01*
X125579333Y-89971523D01*
X125531714Y-89876285D01*
X125484095Y-89685809D01*
X125484095Y-89542952D01*
X125531714Y-89352476D01*
X125579333Y-89257238D01*
X125674571Y-89162000D01*
X125817428Y-89114380D01*
X125912666Y-89114380D01*
X126055523Y-89162000D01*
X126103142Y-89209619D01*
X127055523Y-90114380D02*
X126484095Y-90114380D01*
X126769809Y-90114380D02*
X126769809Y-89114380D01*
X126674571Y-89257238D01*
X126579333Y-89352476D01*
X126484095Y-89400095D01*
X127388857Y-89114380D02*
X128007904Y-89114380D01*
X127674571Y-89495333D01*
X127817428Y-89495333D01*
X127912666Y-89542952D01*
X127960285Y-89590571D01*
X128007904Y-89685809D01*
X128007904Y-89923904D01*
X127960285Y-90019142D01*
X127912666Y-90066761D01*
X127817428Y-90114380D01*
X127531714Y-90114380D01*
X127436476Y-90066761D01*
X127388857Y-90019142D01*
X130167142Y-66365380D02*
X129833809Y-65889190D01*
X129595714Y-66365380D02*
X129595714Y-65365380D01*
X129976666Y-65365380D01*
X130071904Y-65413000D01*
X130119523Y-65460619D01*
X130167142Y-65555857D01*
X130167142Y-65698714D01*
X130119523Y-65793952D01*
X130071904Y-65841571D01*
X129976666Y-65889190D01*
X129595714Y-65889190D01*
X131119523Y-66365380D02*
X130548095Y-66365380D01*
X130833809Y-66365380D02*
X130833809Y-65365380D01*
X130738571Y-65508238D01*
X130643333Y-65603476D01*
X130548095Y-65651095D01*
X131976666Y-65365380D02*
X131786190Y-65365380D01*
X131690952Y-65413000D01*
X131643333Y-65460619D01*
X131548095Y-65603476D01*
X131500476Y-65793952D01*
X131500476Y-66174904D01*
X131548095Y-66270142D01*
X131595714Y-66317761D01*
X131690952Y-66365380D01*
X131881428Y-66365380D01*
X131976666Y-66317761D01*
X132024285Y-66270142D01*
X132071904Y-66174904D01*
X132071904Y-65936809D01*
X132024285Y-65841571D01*
X131976666Y-65793952D01*
X131881428Y-65746333D01*
X131690952Y-65746333D01*
X131595714Y-65793952D01*
X131548095Y-65841571D01*
X131500476Y-65936809D01*
X143597333Y-69921380D02*
X143264000Y-69445190D01*
X143025904Y-69921380D02*
X143025904Y-68921380D01*
X143406857Y-68921380D01*
X143502095Y-68969000D01*
X143549714Y-69016619D01*
X143597333Y-69111857D01*
X143597333Y-69254714D01*
X143549714Y-69349952D01*
X143502095Y-69397571D01*
X143406857Y-69445190D01*
X143025904Y-69445190D01*
X144073523Y-69921380D02*
X144264000Y-69921380D01*
X144359238Y-69873761D01*
X144406857Y-69826142D01*
X144502095Y-69683285D01*
X144549714Y-69492809D01*
X144549714Y-69111857D01*
X144502095Y-69016619D01*
X144454476Y-68969000D01*
X144359238Y-68921380D01*
X144168761Y-68921380D01*
X144073523Y-68969000D01*
X144025904Y-69016619D01*
X143978285Y-69111857D01*
X143978285Y-69349952D01*
X144025904Y-69445190D01*
X144073523Y-69492809D01*
X144168761Y-69540428D01*
X144359238Y-69540428D01*
X144454476Y-69492809D01*
X144502095Y-69445190D01*
X144549714Y-69349952D01*
X142232142Y-56745142D02*
X142184523Y-56792761D01*
X142041666Y-56840380D01*
X141946428Y-56840380D01*
X141803571Y-56792761D01*
X141708333Y-56697523D01*
X141660714Y-56602285D01*
X141613095Y-56411809D01*
X141613095Y-56268952D01*
X141660714Y-56078476D01*
X141708333Y-55983238D01*
X141803571Y-55888000D01*
X141946428Y-55840380D01*
X142041666Y-55840380D01*
X142184523Y-55888000D01*
X142232142Y-55935619D01*
X143184523Y-56840380D02*
X142613095Y-56840380D01*
X142898809Y-56840380D02*
X142898809Y-55840380D01*
X142803571Y-55983238D01*
X142708333Y-56078476D01*
X142613095Y-56126095D01*
X144089285Y-55840380D02*
X143613095Y-55840380D01*
X143565476Y-56316571D01*
X143613095Y-56268952D01*
X143708333Y-56221333D01*
X143946428Y-56221333D01*
X144041666Y-56268952D01*
X144089285Y-56316571D01*
X144136904Y-56411809D01*
X144136904Y-56649904D01*
X144089285Y-56745142D01*
X144041666Y-56792761D01*
X143946428Y-56840380D01*
X143708333Y-56840380D01*
X143613095Y-56792761D01*
X143565476Y-56745142D01*
X117721142Y-62428380D02*
X117387809Y-61952190D01*
X117149714Y-62428380D02*
X117149714Y-61428380D01*
X117530666Y-61428380D01*
X117625904Y-61476000D01*
X117673523Y-61523619D01*
X117721142Y-61618857D01*
X117721142Y-61761714D01*
X117673523Y-61856952D01*
X117625904Y-61904571D01*
X117530666Y-61952190D01*
X117149714Y-61952190D01*
X118102095Y-61523619D02*
X118149714Y-61476000D01*
X118244952Y-61428380D01*
X118483047Y-61428380D01*
X118578285Y-61476000D01*
X118625904Y-61523619D01*
X118673523Y-61618857D01*
X118673523Y-61714095D01*
X118625904Y-61856952D01*
X118054476Y-62428380D01*
X118673523Y-62428380D01*
X119292571Y-61428380D02*
X119387809Y-61428380D01*
X119483047Y-61476000D01*
X119530666Y-61523619D01*
X119578285Y-61618857D01*
X119625904Y-61809333D01*
X119625904Y-62047428D01*
X119578285Y-62237904D01*
X119530666Y-62333142D01*
X119483047Y-62380761D01*
X119387809Y-62428380D01*
X119292571Y-62428380D01*
X119197333Y-62380761D01*
X119149714Y-62333142D01*
X119102095Y-62237904D01*
X119054476Y-62047428D01*
X119054476Y-61809333D01*
X119102095Y-61618857D01*
X119149714Y-61523619D01*
X119197333Y-61476000D01*
X119292571Y-61428380D01*
X135247142Y-69921380D02*
X134913809Y-69445190D01*
X134675714Y-69921380D02*
X134675714Y-68921380D01*
X135056666Y-68921380D01*
X135151904Y-68969000D01*
X135199523Y-69016619D01*
X135247142Y-69111857D01*
X135247142Y-69254714D01*
X135199523Y-69349952D01*
X135151904Y-69397571D01*
X135056666Y-69445190D01*
X134675714Y-69445190D01*
X135628095Y-69016619D02*
X135675714Y-68969000D01*
X135770952Y-68921380D01*
X136009047Y-68921380D01*
X136104285Y-68969000D01*
X136151904Y-69016619D01*
X136199523Y-69111857D01*
X136199523Y-69207095D01*
X136151904Y-69349952D01*
X135580476Y-69921380D01*
X136199523Y-69921380D01*
X137056666Y-69254714D02*
X137056666Y-69921380D01*
X136818571Y-68873761D02*
X136580476Y-69588047D01*
X137199523Y-69588047D01*
X119594333Y-93557142D02*
X119546714Y-93604761D01*
X119403857Y-93652380D01*
X119308619Y-93652380D01*
X119165761Y-93604761D01*
X119070523Y-93509523D01*
X119022904Y-93414285D01*
X118975285Y-93223809D01*
X118975285Y-93080952D01*
X119022904Y-92890476D01*
X119070523Y-92795238D01*
X119165761Y-92700000D01*
X119308619Y-92652380D01*
X119403857Y-92652380D01*
X119546714Y-92700000D01*
X119594333Y-92747619D01*
X120070523Y-93652380D02*
X120261000Y-93652380D01*
X120356238Y-93604761D01*
X120403857Y-93557142D01*
X120499095Y-93414285D01*
X120546714Y-93223809D01*
X120546714Y-92842857D01*
X120499095Y-92747619D01*
X120451476Y-92700000D01*
X120356238Y-92652380D01*
X120165761Y-92652380D01*
X120070523Y-92700000D01*
X120022904Y-92747619D01*
X119975285Y-92842857D01*
X119975285Y-93080952D01*
X120022904Y-93176190D01*
X120070523Y-93223809D01*
X120165761Y-93271428D01*
X120356238Y-93271428D01*
X120451476Y-93223809D01*
X120499095Y-93176190D01*
X120546714Y-93080952D01*
X143170833Y-106527142D02*
X143123214Y-106574761D01*
X142980357Y-106622380D01*
X142885119Y-106622380D01*
X142742261Y-106574761D01*
X142647023Y-106479523D01*
X142599404Y-106384285D01*
X142551785Y-106193809D01*
X142551785Y-106050952D01*
X142599404Y-105860476D01*
X142647023Y-105765238D01*
X142742261Y-105670000D01*
X142885119Y-105622380D01*
X142980357Y-105622380D01*
X143123214Y-105670000D01*
X143170833Y-105717619D01*
X144027976Y-105955714D02*
X144027976Y-106622380D01*
X143789880Y-105574761D02*
X143551785Y-106289047D01*
X144170833Y-106289047D01*
X126039666Y-129849571D02*
X125706333Y-129849571D01*
X125706333Y-130373380D02*
X125706333Y-129373380D01*
X126182523Y-129373380D01*
X126896809Y-129849571D02*
X127039666Y-129897190D01*
X127087285Y-129944809D01*
X127134904Y-130040047D01*
X127134904Y-130182904D01*
X127087285Y-130278142D01*
X127039666Y-130325761D01*
X126944428Y-130373380D01*
X126563476Y-130373380D01*
X126563476Y-129373380D01*
X126896809Y-129373380D01*
X126992047Y-129421000D01*
X127039666Y-129468619D01*
X127087285Y-129563857D01*
X127087285Y-129659095D01*
X127039666Y-129754333D01*
X126992047Y-129801952D01*
X126896809Y-129849571D01*
X126563476Y-129849571D01*
X128087285Y-130373380D02*
X127515857Y-130373380D01*
X127801571Y-130373380D02*
X127801571Y-129373380D01*
X127706333Y-129516238D01*
X127611095Y-129611476D01*
X127515857Y-129659095D01*
X125095095Y-115784380D02*
X125095095Y-116593904D01*
X125142714Y-116689142D01*
X125190333Y-116736761D01*
X125285571Y-116784380D01*
X125476047Y-116784380D01*
X125571285Y-116736761D01*
X125618904Y-116689142D01*
X125666523Y-116593904D01*
X125666523Y-115784380D01*
X126047476Y-115784380D02*
X126666523Y-115784380D01*
X126333190Y-116165333D01*
X126476047Y-116165333D01*
X126571285Y-116212952D01*
X126618904Y-116260571D01*
X126666523Y-116355809D01*
X126666523Y-116593904D01*
X126618904Y-116689142D01*
X126571285Y-116736761D01*
X126476047Y-116784380D01*
X126190333Y-116784380D01*
X126095095Y-116736761D01*
X126047476Y-116689142D01*
X146313142Y-91929357D02*
X146360761Y-91976976D01*
X146408380Y-92119833D01*
X146408380Y-92215071D01*
X146360761Y-92357928D01*
X146265523Y-92453166D01*
X146170285Y-92500785D01*
X145979809Y-92548404D01*
X145836952Y-92548404D01*
X145646476Y-92500785D01*
X145551238Y-92453166D01*
X145456000Y-92357928D01*
X145408380Y-92215071D01*
X145408380Y-92119833D01*
X145456000Y-91976976D01*
X145503619Y-91929357D01*
X146408380Y-90976976D02*
X146408380Y-91548404D01*
X146408380Y-91262690D02*
X145408380Y-91262690D01*
X145551238Y-91357928D01*
X145646476Y-91453166D01*
X145694095Y-91548404D01*
X146408380Y-90500785D02*
X146408380Y-90310309D01*
X146360761Y-90215071D01*
X146313142Y-90167452D01*
X146170285Y-90072214D01*
X145979809Y-90024595D01*
X145598857Y-90024595D01*
X145503619Y-90072214D01*
X145456000Y-90119833D01*
X145408380Y-90215071D01*
X145408380Y-90405547D01*
X145456000Y-90500785D01*
X145503619Y-90548404D01*
X145598857Y-90596023D01*
X145836952Y-90596023D01*
X145932190Y-90548404D01*
X145979809Y-90500785D01*
X146027428Y-90405547D01*
X146027428Y-90215071D01*
X145979809Y-90119833D01*
X145932190Y-90072214D01*
X145836952Y-90024595D01*
X125144642Y-69682380D02*
X124811309Y-69206190D01*
X124573214Y-69682380D02*
X124573214Y-68682380D01*
X124954166Y-68682380D01*
X125049404Y-68730000D01*
X125097023Y-68777619D01*
X125144642Y-68872857D01*
X125144642Y-69015714D01*
X125097023Y-69110952D01*
X125049404Y-69158571D01*
X124954166Y-69206190D01*
X124573214Y-69206190D01*
X126097023Y-69682380D02*
X125525595Y-69682380D01*
X125811309Y-69682380D02*
X125811309Y-68682380D01*
X125716071Y-68825238D01*
X125620833Y-68920476D01*
X125525595Y-68968095D01*
X126668452Y-69110952D02*
X126573214Y-69063333D01*
X126525595Y-69015714D01*
X126477976Y-68920476D01*
X126477976Y-68872857D01*
X126525595Y-68777619D01*
X126573214Y-68730000D01*
X126668452Y-68682380D01*
X126858928Y-68682380D01*
X126954166Y-68730000D01*
X127001785Y-68777619D01*
X127049404Y-68872857D01*
X127049404Y-68920476D01*
X127001785Y-69015714D01*
X126954166Y-69063333D01*
X126858928Y-69110952D01*
X126668452Y-69110952D01*
X126573214Y-69158571D01*
X126525595Y-69206190D01*
X126477976Y-69301428D01*
X126477976Y-69491904D01*
X126525595Y-69587142D01*
X126573214Y-69634761D01*
X126668452Y-69682380D01*
X126858928Y-69682380D01*
X126954166Y-69634761D01*
X127001785Y-69587142D01*
X127049404Y-69491904D01*
X127049404Y-69301428D01*
X127001785Y-69206190D01*
X126954166Y-69158571D01*
X126858928Y-69110952D01*
X121020833Y-91003380D02*
X120687500Y-90527190D01*
X120449404Y-91003380D02*
X120449404Y-90003380D01*
X120830357Y-90003380D01*
X120925595Y-90051000D01*
X120973214Y-90098619D01*
X121020833Y-90193857D01*
X121020833Y-90336714D01*
X120973214Y-90431952D01*
X120925595Y-90479571D01*
X120830357Y-90527190D01*
X120449404Y-90527190D01*
X121354166Y-90003380D02*
X121973214Y-90003380D01*
X121639880Y-90384333D01*
X121782738Y-90384333D01*
X121877976Y-90431952D01*
X121925595Y-90479571D01*
X121973214Y-90574809D01*
X121973214Y-90812904D01*
X121925595Y-90908142D01*
X121877976Y-90955761D01*
X121782738Y-91003380D01*
X121497023Y-91003380D01*
X121401785Y-90955761D01*
X121354166Y-90908142D01*
X122547142Y-71699380D02*
X122213809Y-71223190D01*
X121975714Y-71699380D02*
X121975714Y-70699380D01*
X122356666Y-70699380D01*
X122451904Y-70747000D01*
X122499523Y-70794619D01*
X122547142Y-70889857D01*
X122547142Y-71032714D01*
X122499523Y-71127952D01*
X122451904Y-71175571D01*
X122356666Y-71223190D01*
X121975714Y-71223190D01*
X123499523Y-71699380D02*
X122928095Y-71699380D01*
X123213809Y-71699380D02*
X123213809Y-70699380D01*
X123118571Y-70842238D01*
X123023333Y-70937476D01*
X122928095Y-70985095D01*
X123832857Y-70699380D02*
X124499523Y-70699380D01*
X124070952Y-71699380D01*
X144744142Y-93272142D02*
X144696523Y-93319761D01*
X144553666Y-93367380D01*
X144458428Y-93367380D01*
X144315571Y-93319761D01*
X144220333Y-93224523D01*
X144172714Y-93129285D01*
X144125095Y-92938809D01*
X144125095Y-92795952D01*
X144172714Y-92605476D01*
X144220333Y-92510238D01*
X144315571Y-92415000D01*
X144458428Y-92367380D01*
X144553666Y-92367380D01*
X144696523Y-92415000D01*
X144744142Y-92462619D01*
X145696523Y-93367380D02*
X145125095Y-93367380D01*
X145410809Y-93367380D02*
X145410809Y-92367380D01*
X145315571Y-92510238D01*
X145220333Y-92605476D01*
X145125095Y-92653095D01*
X146648904Y-93367380D02*
X146077476Y-93367380D01*
X146363190Y-93367380D02*
X146363190Y-92367380D01*
X146267952Y-92510238D01*
X146172714Y-92605476D01*
X146077476Y-92653095D01*
X128868780Y-109839733D02*
X129583066Y-109839733D01*
X129725923Y-109887352D01*
X129821161Y-109982590D01*
X129868780Y-110125447D01*
X129868780Y-110220685D01*
X129868780Y-109363542D02*
X128868780Y-109363542D01*
X128868780Y-108982590D01*
X128916400Y-108887352D01*
X128964019Y-108839733D01*
X129059257Y-108792114D01*
X129202114Y-108792114D01*
X129297352Y-108839733D01*
X129344971Y-108887352D01*
X129392590Y-108982590D01*
X129392590Y-109363542D01*
X129868780Y-107839733D02*
X129868780Y-108411161D01*
X129868780Y-108125447D02*
X128868780Y-108125447D01*
X129011638Y-108220685D01*
X129106876Y-108315923D01*
X129154495Y-108411161D01*
X125991666Y-136698571D02*
X125658333Y-136698571D01*
X125658333Y-137222380D02*
X125658333Y-136222380D01*
X126134523Y-136222380D01*
X126848809Y-136698571D02*
X126991666Y-136746190D01*
X127039285Y-136793809D01*
X127086904Y-136889047D01*
X127086904Y-137031904D01*
X127039285Y-137127142D01*
X126991666Y-137174761D01*
X126896428Y-137222380D01*
X126515476Y-137222380D01*
X126515476Y-136222380D01*
X126848809Y-136222380D01*
X126944047Y-136270000D01*
X126991666Y-136317619D01*
X127039285Y-136412857D01*
X127039285Y-136508095D01*
X126991666Y-136603333D01*
X126944047Y-136650952D01*
X126848809Y-136698571D01*
X126515476Y-136698571D01*
X127467857Y-136317619D02*
X127515476Y-136270000D01*
X127610714Y-136222380D01*
X127848809Y-136222380D01*
X127944047Y-136270000D01*
X127991666Y-136317619D01*
X128039285Y-136412857D01*
X128039285Y-136508095D01*
X127991666Y-136650952D01*
X127420238Y-137222380D01*
X128039285Y-137222380D01*
X146177095Y-124547380D02*
X146177095Y-125356904D01*
X146224714Y-125452142D01*
X146272333Y-125499761D01*
X146367571Y-125547380D01*
X146558047Y-125547380D01*
X146653285Y-125499761D01*
X146700904Y-125452142D01*
X146748523Y-125356904D01*
X146748523Y-124547380D01*
X147177095Y-124642619D02*
X147224714Y-124595000D01*
X147319952Y-124547380D01*
X147558047Y-124547380D01*
X147653285Y-124595000D01*
X147700904Y-124642619D01*
X147748523Y-124737857D01*
X147748523Y-124833095D01*
X147700904Y-124975952D01*
X147129476Y-125547380D01*
X147748523Y-125547380D01*
X140708142Y-69921380D02*
X140374809Y-69445190D01*
X140136714Y-69921380D02*
X140136714Y-68921380D01*
X140517666Y-68921380D01*
X140612904Y-68969000D01*
X140660523Y-69016619D01*
X140708142Y-69111857D01*
X140708142Y-69254714D01*
X140660523Y-69349952D01*
X140612904Y-69397571D01*
X140517666Y-69445190D01*
X140136714Y-69445190D01*
X141660523Y-69921380D02*
X141089095Y-69921380D01*
X141374809Y-69921380D02*
X141374809Y-68921380D01*
X141279571Y-69064238D01*
X141184333Y-69159476D01*
X141089095Y-69207095D01*
X142517666Y-69254714D02*
X142517666Y-69921380D01*
X142279571Y-68873761D02*
X142041476Y-69588047D01*
X142660523Y-69588047D01*
X144232333Y-83257142D02*
X144184714Y-83304761D01*
X144041857Y-83352380D01*
X143946619Y-83352380D01*
X143803761Y-83304761D01*
X143708523Y-83209523D01*
X143660904Y-83114285D01*
X143613285Y-82923809D01*
X143613285Y-82780952D01*
X143660904Y-82590476D01*
X143708523Y-82495238D01*
X143803761Y-82400000D01*
X143946619Y-82352380D01*
X144041857Y-82352380D01*
X144184714Y-82400000D01*
X144232333Y-82447619D01*
X144565666Y-82352380D02*
X145232333Y-82352380D01*
X144803761Y-83352380D01*
X148804333Y-69921380D02*
X148471000Y-69445190D01*
X148232904Y-69921380D02*
X148232904Y-68921380D01*
X148613857Y-68921380D01*
X148709095Y-68969000D01*
X148756714Y-69016619D01*
X148804333Y-69111857D01*
X148804333Y-69254714D01*
X148756714Y-69349952D01*
X148709095Y-69397571D01*
X148613857Y-69445190D01*
X148232904Y-69445190D01*
X149137666Y-68921380D02*
X149804333Y-68921380D01*
X149375761Y-69921380D01*
X109238095Y-50652380D02*
X109238095Y-49652380D01*
X109238095Y-50128571D02*
X109809523Y-50128571D01*
X109809523Y-50652380D02*
X109809523Y-49652380D01*
X110238095Y-49747619D02*
X110285714Y-49700000D01*
X110380952Y-49652380D01*
X110619047Y-49652380D01*
X110714285Y-49700000D01*
X110761904Y-49747619D01*
X110809523Y-49842857D01*
X110809523Y-49938095D01*
X110761904Y-50080952D01*
X110190476Y-50652380D01*
X110809523Y-50652380D01*
X120515142Y-57348380D02*
X120181809Y-56872190D01*
X119943714Y-57348380D02*
X119943714Y-56348380D01*
X120324666Y-56348380D01*
X120419904Y-56396000D01*
X120467523Y-56443619D01*
X120515142Y-56538857D01*
X120515142Y-56681714D01*
X120467523Y-56776952D01*
X120419904Y-56824571D01*
X120324666Y-56872190D01*
X119943714Y-56872190D01*
X121467523Y-57348380D02*
X120896095Y-57348380D01*
X121181809Y-57348380D02*
X121181809Y-56348380D01*
X121086571Y-56491238D01*
X120991333Y-56586476D01*
X120896095Y-56634095D01*
X121943714Y-57348380D02*
X122134190Y-57348380D01*
X122229428Y-57300761D01*
X122277047Y-57253142D01*
X122372285Y-57110285D01*
X122419904Y-56919809D01*
X122419904Y-56538857D01*
X122372285Y-56443619D01*
X122324666Y-56396000D01*
X122229428Y-56348380D01*
X122038952Y-56348380D01*
X121943714Y-56396000D01*
X121896095Y-56443619D01*
X121848476Y-56538857D01*
X121848476Y-56776952D01*
X121896095Y-56872190D01*
X121943714Y-56919809D01*
X122038952Y-56967428D01*
X122229428Y-56967428D01*
X122324666Y-56919809D01*
X122372285Y-56872190D01*
X122419904Y-56776952D01*
X149129809Y-92305190D02*
X149129809Y-92781380D01*
X148796476Y-91781380D02*
X149129809Y-92305190D01*
X149463142Y-91781380D01*
X150320285Y-92781380D02*
X149748857Y-92781380D01*
X150034571Y-92781380D02*
X150034571Y-91781380D01*
X149939333Y-91924238D01*
X149844095Y-92019476D01*
X149748857Y-92067095D01*
X132103904Y-134818380D02*
X132103904Y-133818380D01*
X132342000Y-133818380D01*
X132484857Y-133866000D01*
X132580095Y-133961238D01*
X132627714Y-134056476D01*
X132675333Y-134246952D01*
X132675333Y-134389809D01*
X132627714Y-134580285D01*
X132580095Y-134675523D01*
X132484857Y-134770761D01*
X132342000Y-134818380D01*
X132103904Y-134818380D01*
X133627714Y-134818380D02*
X133056285Y-134818380D01*
X133342000Y-134818380D02*
X133342000Y-133818380D01*
X133246761Y-133961238D01*
X133151523Y-134056476D01*
X133056285Y-134104095D01*
X132852380Y-130851904D02*
X131852380Y-130851904D01*
X132852380Y-130280476D02*
X132280952Y-130709047D01*
X131852380Y-130280476D02*
X132423809Y-130851904D01*
X125722142Y-109069142D02*
X125674523Y-109116761D01*
X125531666Y-109164380D01*
X125436428Y-109164380D01*
X125293571Y-109116761D01*
X125198333Y-109021523D01*
X125150714Y-108926285D01*
X125103095Y-108735809D01*
X125103095Y-108592952D01*
X125150714Y-108402476D01*
X125198333Y-108307238D01*
X125293571Y-108212000D01*
X125436428Y-108164380D01*
X125531666Y-108164380D01*
X125674523Y-108212000D01*
X125722142Y-108259619D01*
X126674523Y-109164380D02*
X126103095Y-109164380D01*
X126388809Y-109164380D02*
X126388809Y-108164380D01*
X126293571Y-108307238D01*
X126198333Y-108402476D01*
X126103095Y-108450095D01*
X127531666Y-108497714D02*
X127531666Y-109164380D01*
X127293571Y-108116761D02*
X127055476Y-108831047D01*
X127674523Y-108831047D01*
X119086333Y-121769142D02*
X119038714Y-121816761D01*
X118895857Y-121864380D01*
X118800619Y-121864380D01*
X118657761Y-121816761D01*
X118562523Y-121721523D01*
X118514904Y-121626285D01*
X118467285Y-121435809D01*
X118467285Y-121292952D01*
X118514904Y-121102476D01*
X118562523Y-121007238D01*
X118657761Y-120912000D01*
X118800619Y-120864380D01*
X118895857Y-120864380D01*
X119038714Y-120912000D01*
X119086333Y-120959619D01*
X119991095Y-120864380D02*
X119514904Y-120864380D01*
X119467285Y-121340571D01*
X119514904Y-121292952D01*
X119610142Y-121245333D01*
X119848238Y-121245333D01*
X119943476Y-121292952D01*
X119991095Y-121340571D01*
X120038714Y-121435809D01*
X120038714Y-121673904D01*
X119991095Y-121769142D01*
X119943476Y-121816761D01*
X119848238Y-121864380D01*
X119610142Y-121864380D01*
X119514904Y-121816761D01*
X119467285Y-121769142D01*
X121045833Y-100882380D02*
X120712500Y-100406190D01*
X120474404Y-100882380D02*
X120474404Y-99882380D01*
X120855357Y-99882380D01*
X120950595Y-99930000D01*
X120998214Y-99977619D01*
X121045833Y-100072857D01*
X121045833Y-100215714D01*
X120998214Y-100310952D01*
X120950595Y-100358571D01*
X120855357Y-100406190D01*
X120474404Y-100406190D01*
X121902976Y-100215714D02*
X121902976Y-100882380D01*
X121664880Y-99834761D02*
X121426785Y-100549047D01*
X122045833Y-100549047D01*
X134993142Y-78303380D02*
X134659809Y-77827190D01*
X134421714Y-78303380D02*
X134421714Y-77303380D01*
X134802666Y-77303380D01*
X134897904Y-77351000D01*
X134945523Y-77398619D01*
X134993142Y-77493857D01*
X134993142Y-77636714D01*
X134945523Y-77731952D01*
X134897904Y-77779571D01*
X134802666Y-77827190D01*
X134421714Y-77827190D01*
X135945523Y-78303380D02*
X135374095Y-78303380D01*
X135659809Y-78303380D02*
X135659809Y-77303380D01*
X135564571Y-77446238D01*
X135469333Y-77541476D01*
X135374095Y-77589095D01*
X136326476Y-77398619D02*
X136374095Y-77351000D01*
X136469333Y-77303380D01*
X136707428Y-77303380D01*
X136802666Y-77351000D01*
X136850285Y-77398619D01*
X136897904Y-77493857D01*
X136897904Y-77589095D01*
X136850285Y-77731952D01*
X136278857Y-78303380D01*
X136897904Y-78303380D01*
X117252380Y-133533333D02*
X117966666Y-133533333D01*
X118109523Y-133580952D01*
X118204761Y-133676190D01*
X118252380Y-133819047D01*
X118252380Y-133914285D01*
X118252380Y-132533333D02*
X118252380Y-133104761D01*
X118252380Y-132819047D02*
X117252380Y-132819047D01*
X117395238Y-132914285D01*
X117490476Y-133009523D01*
X117538095Y-133104761D01*
X141565333Y-114784142D02*
X141517714Y-114831761D01*
X141374857Y-114879380D01*
X141279619Y-114879380D01*
X141136761Y-114831761D01*
X141041523Y-114736523D01*
X140993904Y-114641285D01*
X140946285Y-114450809D01*
X140946285Y-114307952D01*
X140993904Y-114117476D01*
X141041523Y-114022238D01*
X141136761Y-113927000D01*
X141279619Y-113879380D01*
X141374857Y-113879380D01*
X141517714Y-113927000D01*
X141565333Y-113974619D01*
X141898666Y-113879380D02*
X142517714Y-113879380D01*
X142184380Y-114260333D01*
X142327238Y-114260333D01*
X142422476Y-114307952D01*
X142470095Y-114355571D01*
X142517714Y-114450809D01*
X142517714Y-114688904D01*
X142470095Y-114784142D01*
X142422476Y-114831761D01*
X142327238Y-114879380D01*
X142041523Y-114879380D01*
X141946285Y-114831761D01*
X141898666Y-114784142D01*
X126103142Y-88368142D02*
X126055523Y-88415761D01*
X125912666Y-88463380D01*
X125817428Y-88463380D01*
X125674571Y-88415761D01*
X125579333Y-88320523D01*
X125531714Y-88225285D01*
X125484095Y-88034809D01*
X125484095Y-87891952D01*
X125531714Y-87701476D01*
X125579333Y-87606238D01*
X125674571Y-87511000D01*
X125817428Y-87463380D01*
X125912666Y-87463380D01*
X126055523Y-87511000D01*
X126103142Y-87558619D01*
X127055523Y-88463380D02*
X126484095Y-88463380D01*
X126769809Y-88463380D02*
X126769809Y-87463380D01*
X126674571Y-87606238D01*
X126579333Y-87701476D01*
X126484095Y-87749095D01*
X127436476Y-87558619D02*
X127484095Y-87511000D01*
X127579333Y-87463380D01*
X127817428Y-87463380D01*
X127912666Y-87511000D01*
X127960285Y-87558619D01*
X128007904Y-87653857D01*
X128007904Y-87749095D01*
X127960285Y-87891952D01*
X127388857Y-88463380D01*
X128007904Y-88463380D01*
X116927142Y-83404166D02*
X116974761Y-83451785D01*
X117022380Y-83594642D01*
X117022380Y-83689880D01*
X116974761Y-83832738D01*
X116879523Y-83927976D01*
X116784285Y-83975595D01*
X116593809Y-84023214D01*
X116450952Y-84023214D01*
X116260476Y-83975595D01*
X116165238Y-83927976D01*
X116070000Y-83832738D01*
X116022380Y-83689880D01*
X116022380Y-83594642D01*
X116070000Y-83451785D01*
X116117619Y-83404166D01*
X116450952Y-82832738D02*
X116403333Y-82927976D01*
X116355714Y-82975595D01*
X116260476Y-83023214D01*
X116212857Y-83023214D01*
X116117619Y-82975595D01*
X116070000Y-82927976D01*
X116022380Y-82832738D01*
X116022380Y-82642261D01*
X116070000Y-82547023D01*
X116117619Y-82499404D01*
X116212857Y-82451785D01*
X116260476Y-82451785D01*
X116355714Y-82499404D01*
X116403333Y-82547023D01*
X116450952Y-82642261D01*
X116450952Y-82832738D01*
X116498571Y-82927976D01*
X116546190Y-82975595D01*
X116641428Y-83023214D01*
X116831904Y-83023214D01*
X116927142Y-82975595D01*
X116974761Y-82927976D01*
X117022380Y-82832738D01*
X117022380Y-82642261D01*
X116974761Y-82547023D01*
X116927142Y-82499404D01*
X116831904Y-82451785D01*
X116641428Y-82451785D01*
X116546190Y-82499404D01*
X116498571Y-82547023D01*
X116450952Y-82642261D01*
X134231142Y-56386142D02*
X134183523Y-56433761D01*
X134040666Y-56481380D01*
X133945428Y-56481380D01*
X133802571Y-56433761D01*
X133707333Y-56338523D01*
X133659714Y-56243285D01*
X133612095Y-56052809D01*
X133612095Y-55909952D01*
X133659714Y-55719476D01*
X133707333Y-55624238D01*
X133802571Y-55529000D01*
X133945428Y-55481380D01*
X134040666Y-55481380D01*
X134183523Y-55529000D01*
X134231142Y-55576619D01*
X135183523Y-56481380D02*
X134612095Y-56481380D01*
X134897809Y-56481380D02*
X134897809Y-55481380D01*
X134802571Y-55624238D01*
X134707333Y-55719476D01*
X134612095Y-55767095D01*
X136040666Y-55481380D02*
X135850190Y-55481380D01*
X135754952Y-55529000D01*
X135707333Y-55576619D01*
X135612095Y-55719476D01*
X135564476Y-55909952D01*
X135564476Y-56290904D01*
X135612095Y-56386142D01*
X135659714Y-56433761D01*
X135754952Y-56481380D01*
X135945428Y-56481380D01*
X136040666Y-56433761D01*
X136088285Y-56386142D01*
X136135904Y-56290904D01*
X136135904Y-56052809D01*
X136088285Y-55957571D01*
X136040666Y-55909952D01*
X135945428Y-55862333D01*
X135754952Y-55862333D01*
X135659714Y-55909952D01*
X135612095Y-55957571D01*
X135564476Y-56052809D01*
X145661142Y-69921380D02*
X145327809Y-69445190D01*
X145089714Y-69921380D02*
X145089714Y-68921380D01*
X145470666Y-68921380D01*
X145565904Y-68969000D01*
X145613523Y-69016619D01*
X145661142Y-69111857D01*
X145661142Y-69254714D01*
X145613523Y-69349952D01*
X145565904Y-69397571D01*
X145470666Y-69445190D01*
X145089714Y-69445190D01*
X146042095Y-69016619D02*
X146089714Y-68969000D01*
X146184952Y-68921380D01*
X146423047Y-68921380D01*
X146518285Y-68969000D01*
X146565904Y-69016619D01*
X146613523Y-69111857D01*
X146613523Y-69207095D01*
X146565904Y-69349952D01*
X145994476Y-69921380D01*
X146613523Y-69921380D01*
X146946857Y-68921380D02*
X147565904Y-68921380D01*
X147232571Y-69302333D01*
X147375428Y-69302333D01*
X147470666Y-69349952D01*
X147518285Y-69397571D01*
X147565904Y-69492809D01*
X147565904Y-69730904D01*
X147518285Y-69826142D01*
X147470666Y-69873761D01*
X147375428Y-69921380D01*
X147089714Y-69921380D01*
X146994476Y-69873761D01*
X146946857Y-69826142D01*
X149566333Y-107926142D02*
X149518714Y-107973761D01*
X149375857Y-108021380D01*
X149280619Y-108021380D01*
X149137761Y-107973761D01*
X149042523Y-107878523D01*
X148994904Y-107783285D01*
X148947285Y-107592809D01*
X148947285Y-107449952D01*
X148994904Y-107259476D01*
X149042523Y-107164238D01*
X149137761Y-107069000D01*
X149280619Y-107021380D01*
X149375857Y-107021380D01*
X149518714Y-107069000D01*
X149566333Y-107116619D01*
X150518714Y-108021380D02*
X149947285Y-108021380D01*
X150233000Y-108021380D02*
X150233000Y-107021380D01*
X150137761Y-107164238D01*
X150042523Y-107259476D01*
X149947285Y-107307095D01*
X130294142Y-62809380D02*
X129960809Y-62333190D01*
X129722714Y-62809380D02*
X129722714Y-61809380D01*
X130103666Y-61809380D01*
X130198904Y-61857000D01*
X130246523Y-61904619D01*
X130294142Y-61999857D01*
X130294142Y-62142714D01*
X130246523Y-62237952D01*
X130198904Y-62285571D01*
X130103666Y-62333190D01*
X129722714Y-62333190D01*
X131246523Y-62809380D02*
X130675095Y-62809380D01*
X130960809Y-62809380D02*
X130960809Y-61809380D01*
X130865571Y-61952238D01*
X130770333Y-62047476D01*
X130675095Y-62095095D01*
X132151285Y-61809380D02*
X131675095Y-61809380D01*
X131627476Y-62285571D01*
X131675095Y-62237952D01*
X131770333Y-62190333D01*
X132008428Y-62190333D01*
X132103666Y-62237952D01*
X132151285Y-62285571D01*
X132198904Y-62380809D01*
X132198904Y-62618904D01*
X132151285Y-62714142D01*
X132103666Y-62761761D01*
X132008428Y-62809380D01*
X131770333Y-62809380D01*
X131675095Y-62761761D01*
X131627476Y-62714142D01*
X122936095Y-60031380D02*
X122936095Y-60840904D01*
X122983714Y-60936142D01*
X123031333Y-60983761D01*
X123126571Y-61031380D01*
X123317047Y-61031380D01*
X123412285Y-60983761D01*
X123459904Y-60936142D01*
X123507523Y-60840904D01*
X123507523Y-60031380D01*
X124412285Y-60364714D02*
X124412285Y-61031380D01*
X124174190Y-59983761D02*
X123936095Y-60698047D01*
X124555142Y-60698047D01*
X144232333Y-86719642D02*
X144184714Y-86767261D01*
X144041857Y-86814880D01*
X143946619Y-86814880D01*
X143803761Y-86767261D01*
X143708523Y-86672023D01*
X143660904Y-86576785D01*
X143613285Y-86386309D01*
X143613285Y-86243452D01*
X143660904Y-86052976D01*
X143708523Y-85957738D01*
X143803761Y-85862500D01*
X143946619Y-85814880D01*
X144041857Y-85814880D01*
X144184714Y-85862500D01*
X144232333Y-85910119D01*
X145089476Y-85814880D02*
X144899000Y-85814880D01*
X144803761Y-85862500D01*
X144756142Y-85910119D01*
X144660904Y-86052976D01*
X144613285Y-86243452D01*
X144613285Y-86624404D01*
X144660904Y-86719642D01*
X144708523Y-86767261D01*
X144803761Y-86814880D01*
X144994238Y-86814880D01*
X145089476Y-86767261D01*
X145137095Y-86719642D01*
X145184714Y-86624404D01*
X145184714Y-86386309D01*
X145137095Y-86291071D01*
X145089476Y-86243452D01*
X144994238Y-86195833D01*
X144803761Y-86195833D01*
X144708523Y-86243452D01*
X144660904Y-86291071D01*
X144613285Y-86386309D01*
X140327142Y-78303380D02*
X139993809Y-77827190D01*
X139755714Y-78303380D02*
X139755714Y-77303380D01*
X140136666Y-77303380D01*
X140231904Y-77351000D01*
X140279523Y-77398619D01*
X140327142Y-77493857D01*
X140327142Y-77636714D01*
X140279523Y-77731952D01*
X140231904Y-77779571D01*
X140136666Y-77827190D01*
X139755714Y-77827190D01*
X141279523Y-78303380D02*
X140708095Y-78303380D01*
X140993809Y-78303380D02*
X140993809Y-77303380D01*
X140898571Y-77446238D01*
X140803333Y-77541476D01*
X140708095Y-77589095D01*
X141898571Y-77303380D02*
X141993809Y-77303380D01*
X142089047Y-77351000D01*
X142136666Y-77398619D01*
X142184285Y-77493857D01*
X142231904Y-77684333D01*
X142231904Y-77922428D01*
X142184285Y-78112904D01*
X142136666Y-78208142D01*
X142089047Y-78255761D01*
X141993809Y-78303380D01*
X141898571Y-78303380D01*
X141803333Y-78255761D01*
X141755714Y-78208142D01*
X141708095Y-78112904D01*
X141660476Y-77922428D01*
X141660476Y-77684333D01*
X141708095Y-77493857D01*
X141755714Y-77398619D01*
X141803333Y-77351000D01*
X141898571Y-77303380D01*
X117340142Y-71350142D02*
X117292523Y-71397761D01*
X117149666Y-71445380D01*
X117054428Y-71445380D01*
X116911571Y-71397761D01*
X116816333Y-71302523D01*
X116768714Y-71207285D01*
X116721095Y-71016809D01*
X116721095Y-70873952D01*
X116768714Y-70683476D01*
X116816333Y-70588238D01*
X116911571Y-70493000D01*
X117054428Y-70445380D01*
X117149666Y-70445380D01*
X117292523Y-70493000D01*
X117340142Y-70540619D01*
X118292523Y-71445380D02*
X117721095Y-71445380D01*
X118006809Y-71445380D02*
X118006809Y-70445380D01*
X117911571Y-70588238D01*
X117816333Y-70683476D01*
X117721095Y-70731095D01*
X118911571Y-70445380D02*
X119006809Y-70445380D01*
X119102047Y-70493000D01*
X119149666Y-70540619D01*
X119197285Y-70635857D01*
X119244904Y-70826333D01*
X119244904Y-71064428D01*
X119197285Y-71254904D01*
X119149666Y-71350142D01*
X119102047Y-71397761D01*
X119006809Y-71445380D01*
X118911571Y-71445380D01*
X118816333Y-71397761D01*
X118768714Y-71350142D01*
X118721095Y-71254904D01*
X118673476Y-71064428D01*
X118673476Y-70826333D01*
X118721095Y-70635857D01*
X118768714Y-70540619D01*
X118816333Y-70493000D01*
X118911571Y-70445380D01*
D13*
X116140200Y-101430900D02*
X115710768Y-101430900D01*
X116140200Y-101430900D02*
X116140200Y-94064900D01*
X116140200Y-94064900D02*
X115710768Y-94064900D01*
X112000000Y-92667900D02*
X112000000Y-93937900D01*
X113267632Y-101430900D02*
X109282200Y-101430900D01*
X112635000Y-93302900D02*
X111365000Y-93302900D01*
X113267632Y-94064900D02*
X109282200Y-94064900D01*
X109282200Y-101430900D02*
X109282200Y-94064900D01*
X116140200Y-91430900D02*
X115710768Y-91430900D01*
X116140200Y-91430900D02*
X116140200Y-84064900D01*
X116140200Y-84064900D02*
X115710768Y-84064900D01*
X112000000Y-82667900D02*
X112000000Y-83937900D01*
X113267632Y-91430900D02*
X109282200Y-91430900D01*
X112635000Y-83302900D02*
X111365000Y-83302900D01*
X113267632Y-84064900D02*
X109282200Y-84064900D01*
X109282200Y-91430900D02*
X109282200Y-84064900D01*
X116140200Y-81430900D02*
X115710768Y-81430900D01*
X116140200Y-81430900D02*
X116140200Y-74064900D01*
X116140200Y-74064900D02*
X115710768Y-74064900D01*
X112000000Y-72667900D02*
X112000000Y-73937900D01*
X113267632Y-81430900D02*
X109282200Y-81430900D01*
X112635000Y-73302900D02*
X111365000Y-73302900D01*
X113267632Y-74064900D02*
X109282200Y-74064900D01*
X109282200Y-81430900D02*
X109282200Y-74064900D01*
X117504000Y-120651500D02*
X117074568Y-120651500D01*
X117504000Y-120651500D02*
X117504000Y-113285500D01*
X117504000Y-113285500D02*
X117074568Y-113285500D01*
X113363800Y-111888500D02*
X113363800Y-113158500D01*
X114631432Y-120651500D02*
X110646000Y-120651500D01*
X113998800Y-112523500D02*
X112728800Y-112523500D01*
X114631432Y-113285500D02*
X110646000Y-113285500D01*
X110646000Y-120651500D02*
X110646000Y-113285500D01*
X111710000Y-76480000D02*
X111710000Y-76480000D01*
X111710000Y-80310000D02*
X111710000Y-80710000D01*
X111710000Y-79020000D02*
X116920000Y-79020000D01*
X110590000Y-80310000D02*
X111710000Y-80310000D01*
X111710000Y-75190000D02*
X111710000Y-80310000D01*
X116920000Y-76480000D02*
X116920000Y-76480000D01*
X116920000Y-79020000D02*
X111710000Y-79020000D01*
X111710000Y-75190000D02*
X105550000Y-75190000D01*
X110590000Y-80710000D02*
X110590000Y-80310000D01*
X111710000Y-80710000D02*
X110590000Y-80710000D01*
X111710000Y-79020000D02*
X111710000Y-79020000D01*
X111710000Y-76480000D02*
X116920000Y-76480000D01*
X111710000Y-80310000D02*
X105550000Y-80310000D01*
X116920000Y-79020000D02*
X116920000Y-79020000D01*
X116920000Y-76480000D02*
X111710000Y-76480000D01*
X105550000Y-75190000D02*
G75*
G03*
X105550000Y-80310000I0J-2560000D01*
G01*
X111710000Y-96480000D02*
X111710000Y-96480000D01*
X111710000Y-100310000D02*
X111710000Y-100710000D01*
X111710000Y-99020000D02*
X116920000Y-99020000D01*
X110590000Y-100310000D02*
X111710000Y-100310000D01*
X111710000Y-95190000D02*
X111710000Y-100310000D01*
X116920000Y-96480000D02*
X116920000Y-96480000D01*
X116920000Y-99020000D02*
X111710000Y-99020000D01*
X111710000Y-95190000D02*
X105550000Y-95190000D01*
X110590000Y-100710000D02*
X110590000Y-100310000D01*
X111710000Y-100710000D02*
X110590000Y-100710000D01*
X111710000Y-99020000D02*
X111710000Y-99020000D01*
X111710000Y-96480000D02*
X116920000Y-96480000D01*
X111710000Y-100310000D02*
X105550000Y-100310000D01*
X116920000Y-99020000D02*
X116920000Y-99020000D01*
X116920000Y-96480000D02*
X111710000Y-96480000D01*
X105550000Y-95190000D02*
G75*
G03*
X105550000Y-100310000I0J-2560000D01*
G01*
X111710000Y-86480000D02*
X111710000Y-86480000D01*
X111710000Y-90310000D02*
X111710000Y-90710000D01*
X111710000Y-89020000D02*
X116920000Y-89020000D01*
X110590000Y-90310000D02*
X111710000Y-90310000D01*
X111710000Y-85190000D02*
X111710000Y-90310000D01*
X116920000Y-86480000D02*
X116920000Y-86480000D01*
X116920000Y-89020000D02*
X111710000Y-89020000D01*
X111710000Y-85190000D02*
X105550000Y-85190000D01*
X110590000Y-90710000D02*
X110590000Y-90310000D01*
X111710000Y-90710000D02*
X110590000Y-90710000D01*
X111710000Y-89020000D02*
X111710000Y-89020000D01*
X111710000Y-86480000D02*
X116920000Y-86480000D01*
X111710000Y-90310000D02*
X105550000Y-90310000D01*
X116920000Y-89020000D02*
X116920000Y-89020000D01*
X116920000Y-86480000D02*
X111710000Y-86480000D01*
X105550000Y-85190000D02*
G75*
G03*
X105550000Y-90310000I0J-2560000D01*
G01*
D12*
X141674000Y-86418000D02*
X141349000Y-86418000D01*
X141674000Y-93668000D02*
X141674000Y-93443000D01*
X141674000Y-93668000D02*
X141349000Y-93668000D01*
X134424000Y-93668000D02*
X134749000Y-93668000D01*
X134424000Y-93668000D02*
X134424000Y-93343000D01*
X134424000Y-86418000D02*
X134424000Y-86743000D01*
X134424000Y-86418000D02*
X134749000Y-86418000D01*
X141674000Y-86418000D02*
X141674000Y-86743000D01*
X141674000Y-93443000D02*
X143099000Y-93443000D01*
D13*
X135271000Y-105773000D02*
X137271000Y-105773000D01*
X135271000Y-109873000D02*
X135271000Y-105773000D01*
X137271000Y-109873000D02*
X135271000Y-109873000D01*
X137271000Y-105773000D02*
X137271000Y-109873000D01*
X129977500Y-75754724D02*
X129977500Y-75245276D01*
X131022500Y-75754724D02*
X131022500Y-75245276D01*
X129977500Y-72129724D02*
X129977500Y-71620276D01*
X131022500Y-72129724D02*
X131022500Y-71620276D01*
X133200224Y-107075500D02*
X132690776Y-107075500D01*
X133200224Y-106030500D02*
X132690776Y-106030500D01*
X126710000Y-59608767D02*
X126710000Y-59316233D01*
X125690000Y-59608767D02*
X125690000Y-59316233D01*
X132577500Y-72154724D02*
X132577500Y-71645276D01*
X133622500Y-72154724D02*
X133622500Y-71645276D01*
X120554724Y-116522500D02*
X120045276Y-116522500D01*
X120554724Y-115477500D02*
X120045276Y-115477500D01*
D12*
X107000000Y-70400000D02*
X115600000Y-70400000D01*
X115600000Y-70400000D02*
X115600000Y-59600000D01*
X115600000Y-59600000D02*
X107000000Y-59600000D01*
X107000000Y-59600000D02*
X107000000Y-70400000D01*
X107000000Y-69000000D02*
X102000000Y-69000000D01*
X102000000Y-69000000D02*
X102000000Y-61000000D01*
X102000000Y-61000000D02*
X107000000Y-61000000D01*
X107000000Y-61000000D02*
X107000000Y-69000000D01*
D13*
X113360000Y-107840000D02*
X107360000Y-107840000D01*
X113360000Y-109960000D02*
X107360000Y-109960000D01*
X113360000Y-110380000D02*
X107360000Y-110380000D01*
X118890000Y-110380000D02*
X118502929Y-110380000D01*
X116020000Y-106190000D02*
X113360000Y-106190000D01*
X118957071Y-104540000D02*
X118502929Y-104540000D01*
X118890000Y-109620000D02*
X118502929Y-109620000D01*
X107360000Y-104540000D02*
X113360000Y-104540000D01*
X113360000Y-105300000D02*
X107360000Y-105300000D01*
X116417071Y-104540000D02*
X116020000Y-104540000D01*
X116020000Y-111330000D02*
X116020000Y-103590000D01*
X107360000Y-107840000D02*
X107360000Y-107080000D01*
X107360000Y-105300000D02*
X107360000Y-104540000D01*
X113360000Y-111330000D02*
X116020000Y-111330000D01*
X107360000Y-107080000D02*
X113360000Y-107080000D01*
X121270000Y-111270000D02*
X120000000Y-111270000D01*
X113360000Y-103590000D02*
X113360000Y-111330000D01*
X116417071Y-107840000D02*
X116020000Y-107840000D01*
X118957071Y-105300000D02*
X118502929Y-105300000D01*
X113360000Y-109720000D02*
X107360000Y-109720000D01*
X121270000Y-110000000D02*
X121270000Y-111270000D01*
X113360000Y-109840000D02*
X107360000Y-109840000D01*
X113360000Y-110200000D02*
X107360000Y-110200000D01*
X116417071Y-105300000D02*
X116020000Y-105300000D01*
X118957071Y-107840000D02*
X118502929Y-107840000D01*
X113360000Y-110320000D02*
X107360000Y-110320000D01*
X116020000Y-108730000D02*
X113360000Y-108730000D01*
X116020000Y-103590000D02*
X113360000Y-103590000D01*
X116417071Y-110380000D02*
X116020000Y-110380000D01*
X107360000Y-110380000D02*
X107360000Y-109620000D01*
X107360000Y-109620000D02*
X113360000Y-109620000D01*
X116417071Y-107080000D02*
X116020000Y-107080000D01*
X118957071Y-107080000D02*
X118502929Y-107080000D01*
X116417071Y-109620000D02*
X116020000Y-109620000D01*
X113360000Y-110080000D02*
X107360000Y-110080000D01*
X120690000Y-68491233D02*
X120690000Y-68783767D01*
X121710000Y-68491233D02*
X121710000Y-68783767D01*
X126910000Y-124983767D02*
X126910000Y-124691233D01*
X125890000Y-124983767D02*
X125890000Y-124691233D01*
X148670000Y-129670000D02*
X150000000Y-129670000D01*
X153870000Y-129670000D02*
X153870000Y-142490000D01*
X148670000Y-132270000D02*
X148670000Y-142490000D01*
X148670000Y-132270000D02*
X151270000Y-132270000D01*
X151270000Y-132270000D02*
X151270000Y-129670000D01*
X148670000Y-142490000D02*
X153870000Y-142490000D01*
X148670000Y-131000000D02*
X148670000Y-129670000D01*
X151270000Y-129670000D02*
X153870000Y-129670000D01*
X138822500Y-72154724D02*
X138822500Y-71645276D01*
X137777500Y-72154724D02*
X137777500Y-71645276D01*
X130032776Y-127677500D02*
X130542224Y-127677500D01*
X130032776Y-128722500D02*
X130542224Y-128722500D01*
X121454724Y-79522500D02*
X120945276Y-79522500D01*
X121454724Y-78477500D02*
X120945276Y-78477500D01*
X152120000Y-116684000D02*
X141880000Y-116684000D01*
X152120000Y-119815000D02*
X141880000Y-119815000D01*
X141880000Y-121325000D02*
X141880000Y-116684000D01*
X152120000Y-121325000D02*
X152120000Y-116684000D01*
X148850000Y-121325000D02*
X148850000Y-119815000D01*
X152120000Y-121325000D02*
X141880000Y-121325000D01*
X145149000Y-121325000D02*
X145149000Y-119815000D01*
X145577500Y-75629724D02*
X145577500Y-75120276D01*
X146622500Y-75629724D02*
X146622500Y-75120276D01*
X130046267Y-90110000D02*
X129753733Y-90110000D01*
X130046267Y-89090000D02*
X129753733Y-89090000D01*
X128177500Y-65632776D02*
X128177500Y-66142224D01*
X129222500Y-65632776D02*
X129222500Y-66142224D01*
X144222500Y-72154724D02*
X144222500Y-71645276D01*
X143177500Y-72154724D02*
X143177500Y-71645276D01*
X145875000Y-61123000D02*
X145375000Y-61123000D01*
X144070563Y-57303000D02*
X140615000Y-57303000D01*
X145625000Y-61373000D02*
X145625000Y-60873000D01*
X145135000Y-60758563D02*
X145135000Y-60623000D01*
X144070563Y-61823000D02*
X140615000Y-61823000D01*
X145135000Y-60758563D02*
X144070563Y-61823000D01*
X140615000Y-61823000D02*
X140615000Y-60623000D01*
X145135000Y-58367437D02*
X144070563Y-57303000D01*
X145135000Y-58367437D02*
X145135000Y-58503000D01*
X140615000Y-57303000D02*
X140615000Y-58503000D01*
X118077500Y-64145276D02*
X118077500Y-64654724D01*
X119122500Y-64145276D02*
X119122500Y-64654724D01*
X136222500Y-72154724D02*
X136222500Y-71645276D01*
X135177500Y-72154724D02*
X135177500Y-71645276D01*
X117490000Y-93346267D02*
X117490000Y-93053733D01*
X118510000Y-93346267D02*
X118510000Y-93053733D01*
X143191233Y-107090000D02*
X143483767Y-107090000D01*
X143191233Y-108110000D02*
X143483767Y-108110000D01*
X126653733Y-127690000D02*
X126996267Y-127690000D01*
X126653733Y-128710000D02*
X126996267Y-128710000D01*
X137550000Y-113740000D02*
X127270000Y-113740000D01*
X127270000Y-113740000D02*
X127270000Y-114990000D01*
X137550000Y-118240000D02*
X137550000Y-113740000D01*
X127270000Y-116990000D02*
X127270000Y-118240000D01*
X127270000Y-118240000D02*
X137550000Y-118240000D01*
X127270000Y-116990000D02*
G75*
G03*
X127270000Y-114990000I0J1000000D01*
G01*
X144016000Y-91140233D02*
X144016000Y-91432767D01*
X145036000Y-91140233D02*
X145036000Y-91432767D01*
X126042224Y-68322500D02*
X125532776Y-68322500D01*
X126042224Y-67277500D02*
X125532776Y-67277500D01*
X121442224Y-88477500D02*
X120932776Y-88477500D01*
X121442224Y-89522500D02*
X120932776Y-89522500D01*
X123722500Y-68954724D02*
X123722500Y-68445276D01*
X122677500Y-68954724D02*
X122677500Y-68445276D01*
X145242233Y-89410000D02*
X145534767Y-89410000D01*
X145242233Y-88390000D02*
X145534767Y-88390000D01*
X132216400Y-107606400D02*
X132216400Y-110406400D01*
X132216400Y-110406400D02*
X130216400Y-110406400D01*
X130216400Y-110406400D02*
X130216400Y-107606400D01*
X130216400Y-107606400D02*
X132216400Y-107606400D01*
X126653733Y-138710000D02*
X126996267Y-138710000D01*
X126653733Y-137690000D02*
X126996267Y-137690000D01*
X143690000Y-120310000D02*
X144950000Y-120310000D01*
X150510000Y-120310000D02*
X149250000Y-120310000D01*
X143690000Y-116550000D02*
X143690000Y-120310000D01*
X150510000Y-114300000D02*
X150510000Y-120310000D01*
X141522500Y-72129724D02*
X141522500Y-71620276D01*
X140477500Y-72129724D02*
X140477500Y-71620276D01*
X145590000Y-82753733D02*
X145590000Y-83046267D01*
X146610000Y-82753733D02*
X146610000Y-83046267D01*
X148177500Y-72129724D02*
X148177500Y-71620276D01*
X149222500Y-72129724D02*
X149222500Y-71620276D01*
X120677500Y-59257776D02*
X120677500Y-59767224D01*
X121722500Y-59257776D02*
X121722500Y-59767224D01*
X152250000Y-90450000D02*
X152250000Y-77850000D01*
X147150000Y-77850000D02*
X147150000Y-90450000D01*
X152250000Y-77850000D02*
X147150000Y-77850000D01*
X130600000Y-137170000D02*
X130600000Y-136520000D01*
X131720000Y-133000000D02*
X129480000Y-133000000D01*
X131720000Y-132280000D02*
X129480000Y-132280000D01*
X131720000Y-132880000D02*
X129480000Y-132880000D01*
X131720000Y-136520000D02*
X131720000Y-132280000D01*
X129480000Y-136520000D02*
X131720000Y-136520000D01*
X130600000Y-131630000D02*
X130600000Y-132280000D01*
X129480000Y-132280000D02*
X129480000Y-136520000D01*
X131720000Y-133120000D02*
X129480000Y-133120000D01*
X128090000Y-108708767D02*
X128090000Y-108416233D01*
X129110000Y-108708767D02*
X129110000Y-108416233D01*
X119910000Y-118791233D02*
X119910000Y-119083767D01*
X118890000Y-118791233D02*
X118890000Y-119083767D01*
X121467224Y-98477500D02*
X120957776Y-98477500D01*
X121467224Y-99522500D02*
X120957776Y-99522500D01*
X136222500Y-75742224D02*
X136222500Y-75232776D01*
X135177500Y-75742224D02*
X135177500Y-75232776D01*
D12*
X124800000Y-122700000D02*
X124800000Y-143700000D01*
X124800000Y-143700000D02*
X105800000Y-143700000D01*
X105800000Y-143700000D02*
X105800000Y-122700000D01*
X105800000Y-122700000D02*
X124800000Y-122700000D01*
D13*
X145260000Y-113360000D02*
X145260000Y-112160000D01*
X140740000Y-112295563D02*
X140740000Y-112160000D01*
X141804437Y-108840000D02*
X145260000Y-108840000D01*
X140000000Y-109540000D02*
X140500000Y-109540000D01*
X140740000Y-109904437D02*
X140740000Y-110040000D01*
X145260000Y-108840000D02*
X145260000Y-110040000D01*
X140250000Y-109290000D02*
X140250000Y-109790000D01*
X141804437Y-113360000D02*
X145260000Y-113360000D01*
X140740000Y-109904437D02*
X141804437Y-108840000D01*
X140740000Y-112295563D02*
X141804437Y-113360000D01*
X130083767Y-88510000D02*
X129791233Y-88510000D01*
X130083767Y-87490000D02*
X129791233Y-87490000D01*
X117490000Y-83383767D02*
X117490000Y-83091233D01*
X118510000Y-83383767D02*
X118510000Y-83091233D01*
X133064000Y-63097000D02*
X133564000Y-63097000D01*
X133678437Y-62607000D02*
X133814000Y-62607000D01*
X137134000Y-61542563D02*
X137134000Y-58087000D01*
X133678437Y-62607000D02*
X132614000Y-61542563D01*
X136069563Y-62607000D02*
X137134000Y-61542563D01*
X136069563Y-62607000D02*
X135934000Y-62607000D01*
X137134000Y-58087000D02*
X135934000Y-58087000D01*
X132614000Y-61542563D02*
X132614000Y-58087000D01*
X132614000Y-58087000D02*
X133814000Y-58087000D01*
X133314000Y-63347000D02*
X133314000Y-62847000D01*
X146622500Y-72142224D02*
X146622500Y-71632776D01*
X145577500Y-72142224D02*
X145577500Y-71632776D01*
X152260000Y-112295563D02*
X151195563Y-113360000D01*
X152750000Y-112910000D02*
X152750000Y-112410000D01*
X152260000Y-112295563D02*
X152260000Y-112160000D01*
X151195563Y-108840000D02*
X147740000Y-108840000D01*
X152260000Y-109904437D02*
X152260000Y-110040000D01*
X147740000Y-113360000D02*
X147740000Y-112160000D01*
X151195563Y-113360000D02*
X147740000Y-113360000D01*
X152260000Y-109904437D02*
X151195563Y-108840000D01*
X147740000Y-108840000D02*
X147740000Y-110040000D01*
X153000000Y-112660000D02*
X152500000Y-112660000D01*
X128177500Y-62145276D02*
X128177500Y-62654724D01*
X129222500Y-62145276D02*
X129222500Y-62654724D01*
X123700000Y-66672500D02*
X121750000Y-66672500D01*
X123700000Y-61552500D02*
X125650000Y-61552500D01*
X123700000Y-66672500D02*
X127150000Y-66672500D01*
X123700000Y-61552500D02*
X121750000Y-61552500D01*
X145590000Y-86508767D02*
X145590000Y-86216233D01*
X146610000Y-86508767D02*
X146610000Y-86216233D01*
X141522500Y-75654724D02*
X141522500Y-75145276D01*
X140477500Y-75654724D02*
X140477500Y-75145276D01*
X117490000Y-73446267D02*
X117490000Y-73153733D01*
X118510000Y-73446267D02*
X118510000Y-73153733D01*
%LPC*%
D14*
X112000000Y-95500000D03*
X112000000Y-99995800D03*
D15*
X114489200Y-94242700D03*
X114489200Y-101253100D03*
D14*
X112000000Y-85500000D03*
X112000000Y-89995800D03*
D15*
X114489200Y-84242700D03*
X114489200Y-91253100D03*
D14*
X112000000Y-75500000D03*
X112000000Y-79995800D03*
D15*
X114489200Y-74242700D03*
X114489200Y-81253100D03*
D14*
X113363800Y-114720600D03*
X113363800Y-119216400D03*
D15*
X115853000Y-113463300D03*
X115853000Y-120473700D03*
D16*
X118000000Y-76480000D03*
D17*
X118000000Y-79020000D03*
D16*
X118000000Y-96480000D03*
D17*
X118000000Y-99020000D03*
D16*
X118000000Y-86480000D03*
D17*
X118000000Y-89020000D03*
D18*
X142299000Y-92843000D03*
X142299000Y-92043000D03*
X142299000Y-91243000D03*
X142299000Y-90443000D03*
X142299000Y-89643000D03*
X142299000Y-88843000D03*
X142299000Y-88043000D03*
X142299000Y-87243000D03*
D19*
X140849000Y-85793000D03*
X140049000Y-85793000D03*
X139249000Y-85793000D03*
X138449000Y-85793000D03*
X137649000Y-85793000D03*
X136849000Y-85793000D03*
X136049000Y-85793000D03*
X135249000Y-85793000D03*
D18*
X133799000Y-87243000D03*
X133799000Y-88043000D03*
X133799000Y-88843000D03*
X133799000Y-89643000D03*
X133799000Y-90443000D03*
X133799000Y-91243000D03*
X133799000Y-92043000D03*
X133799000Y-92843000D03*
D19*
X135249000Y-94293000D03*
X136049000Y-94293000D03*
X136849000Y-94293000D03*
X137649000Y-94293000D03*
X138449000Y-94293000D03*
X139249000Y-94293000D03*
X140049000Y-94293000D03*
X140849000Y-94293000D03*
D20*
X136271000Y-106523000D03*
X136271000Y-107823000D03*
X136271000Y-109123000D03*
D21*
X130500000Y-76412500D03*
X130500000Y-74587500D03*
D22*
X110000000Y-148000000D03*
D23*
X110000000Y-148000000D03*
D21*
X130500000Y-72787500D03*
X130500000Y-70962500D03*
D24*
X133858000Y-106553000D03*
X132033000Y-106553000D03*
D25*
X126200000Y-60325000D03*
X126200000Y-58600000D03*
D21*
X133100000Y-72812500D03*
X133100000Y-70987500D03*
D24*
X121212500Y-116000000D03*
X119387500Y-116000000D03*
D23*
X154000000Y-54000000D03*
D22*
X154000000Y-54000000D03*
D26*
X109400000Y-60300000D03*
X109400000Y-69700000D03*
X113200000Y-69700000D03*
X113200000Y-60300000D03*
D27*
X120000000Y-110000000D03*
D28*
X117460000Y-110000000D03*
X120000000Y-107460000D03*
X117460000Y-107460000D03*
X120000000Y-104920000D03*
X117460000Y-104920000D03*
D29*
X121200000Y-67775000D03*
X121200000Y-69500000D03*
D25*
X126400000Y-125700000D03*
X126400000Y-123975000D03*
D22*
X154000000Y-148000000D03*
D23*
X154000000Y-148000000D03*
D27*
X150000000Y-131000000D03*
D28*
X152540000Y-131000000D03*
X150000000Y-133540000D03*
X152540000Y-133540000D03*
X150000000Y-136080000D03*
X152540000Y-136080000D03*
X150000000Y-138620000D03*
X152540000Y-138620000D03*
X150000000Y-141160000D03*
X152540000Y-141160000D03*
D21*
X138300000Y-72812500D03*
X138300000Y-70987500D03*
D30*
X129375000Y-128200000D03*
X131200000Y-128200000D03*
D24*
X122112500Y-79000000D03*
X120287500Y-79000000D03*
D31*
X149540000Y-118055000D03*
D32*
X147000000Y-118055000D03*
X144460000Y-118055000D03*
D21*
X146100000Y-76287500D03*
X146100000Y-74462500D03*
D33*
X130762500Y-89600000D03*
X129037500Y-89600000D03*
D34*
X128700000Y-64975000D03*
X128700000Y-66800000D03*
D21*
X143700000Y-72812500D03*
X143700000Y-70987500D03*
D35*
X144675000Y-59563000D03*
X141075000Y-59563000D03*
D34*
X118600000Y-63487500D03*
X118600000Y-65312500D03*
D21*
X135700000Y-72812500D03*
X135700000Y-70987500D03*
D25*
X118000000Y-94062500D03*
X118000000Y-92337500D03*
D36*
X142475000Y-107600000D03*
X144200000Y-107600000D03*
D37*
X125950000Y-128200000D03*
X127700000Y-128200000D03*
D38*
X128600000Y-119800000D03*
D39*
X131140000Y-119800000D03*
X133680000Y-119800000D03*
X136220000Y-119800000D03*
X136220000Y-112180000D03*
X133680000Y-112180000D03*
X131140000Y-112180000D03*
X128600000Y-112180000D03*
D29*
X144526000Y-90424000D03*
X144526000Y-92149000D03*
D24*
X126700000Y-67800000D03*
X124875000Y-67800000D03*
X122100000Y-89000000D03*
X120275000Y-89000000D03*
D21*
X123200000Y-69612500D03*
X123200000Y-67787500D03*
D36*
X144526000Y-88900000D03*
X146251000Y-88900000D03*
D20*
X131216400Y-109656400D03*
X131216400Y-108356400D03*
D37*
X125950000Y-138200000D03*
X127700000Y-138200000D03*
D40*
X149400000Y-115250000D03*
X147100000Y-115250000D03*
D41*
X147100000Y-121550000D03*
D40*
X144800000Y-115250000D03*
D21*
X141000000Y-72787500D03*
X141000000Y-70962500D03*
D29*
X146100000Y-82037500D03*
X146100000Y-83762500D03*
D21*
X148700000Y-72787500D03*
X148700000Y-70962500D03*
D22*
X110000000Y-54000000D03*
D23*
X110000000Y-54000000D03*
D34*
X121200000Y-58600000D03*
X121200000Y-60425000D03*
D42*
X149700000Y-80300000D03*
X149700000Y-88800000D03*
D43*
X130600000Y-130590000D03*
D44*
X130600000Y-138210000D03*
D25*
X128600000Y-109425000D03*
X128600000Y-107700000D03*
D29*
X119400000Y-118075000D03*
X119400000Y-119800000D03*
D24*
X122125000Y-99000000D03*
X120300000Y-99000000D03*
D21*
X135700000Y-76400000D03*
X135700000Y-74575000D03*
D45*
X118300000Y-133200000D03*
X118300000Y-125700000D03*
X118300000Y-140700000D03*
X120800000Y-128200000D03*
X120800000Y-138200000D03*
X108300000Y-138200000D03*
X108300000Y-128200000D03*
D46*
X141200000Y-111100000D03*
X144800000Y-111100000D03*
D33*
X130800000Y-88000000D03*
X129075000Y-88000000D03*
D25*
X118000000Y-84100000D03*
X118000000Y-82375000D03*
D47*
X134874000Y-62147000D03*
X134874000Y-58547000D03*
D21*
X146100000Y-72800000D03*
X146100000Y-70975000D03*
D35*
X151800000Y-111100000D03*
X148200000Y-111100000D03*
D34*
X128700000Y-61487500D03*
X128700000Y-63312500D03*
D48*
X126175000Y-66017500D03*
X126175000Y-64747500D03*
X126175000Y-63477500D03*
X126175000Y-62207500D03*
X121225000Y-62207500D03*
X121225000Y-63477500D03*
X121225000Y-64747500D03*
X121225000Y-66017500D03*
D25*
X146100000Y-87225000D03*
X146100000Y-85500000D03*
D21*
X141000000Y-76312500D03*
X141000000Y-74487500D03*
D25*
X118000000Y-74162500D03*
X118000000Y-72437500D03*
M02*
