%FSLAX45Y45*%
G04 Gerber Fmt 4.5, Leading zero omitted, Abs format (unit mm)*
G04 Created by KiCad (PCBNEW (6.0.2)) date 2022-03-15 10:05:38*
%MOMM*%
%LPD*%
G01*
G04 APERTURE LIST*
%TA.AperFunction,Profile*%
%ADD10C,0.100000*%
%TD*%
%ADD11C,0.200000*%
G04 APERTURE END LIST*
D10*
X15600000Y-15100000D02*
G75*
G03*
X15700000Y-15000000I0J100000D01*
G01*
X15700000Y-5200000D02*
G75*
G03*
X15600000Y-5100000I-100000J0D01*
G01*
X10800000Y-5100000D02*
G75*
G03*
X10700000Y-5200000I0J-100000D01*
G01*
X15600000Y-15100000D02*
X10800000Y-15100000D01*
X15700000Y-5200000D02*
X15700000Y-15000000D01*
X10700000Y-15000000D02*
G75*
G03*
X10800000Y-15100000I100000J0D01*
G01*
X10700000Y-15000000D02*
X10700000Y-5200000D01*
X10800000Y-5100000D02*
X15600000Y-5100000D01*
D11*
X10952619Y-15415476D02*
X10952619Y-15215476D01*
X11000238Y-15215476D01*
X11028810Y-15225000D01*
X11047857Y-15244048D01*
X11057381Y-15263095D01*
X11066905Y-15301190D01*
X11066905Y-15329762D01*
X11057381Y-15367857D01*
X11047857Y-15386905D01*
X11028810Y-15405952D01*
X11000238Y-15415476D01*
X10952619Y-15415476D01*
X11152619Y-15415476D02*
X11152619Y-15282143D01*
X11152619Y-15320238D02*
X11162143Y-15301190D01*
X11171667Y-15291667D01*
X11190714Y-15282143D01*
X11209762Y-15282143D01*
X11276428Y-15415476D02*
X11276428Y-15282143D01*
X11276428Y-15215476D02*
X11266905Y-15225000D01*
X11276428Y-15234524D01*
X11285952Y-15225000D01*
X11276428Y-15215476D01*
X11276428Y-15234524D01*
X11400238Y-15415476D02*
X11381190Y-15405952D01*
X11371667Y-15386905D01*
X11371667Y-15215476D01*
X11505000Y-15415476D02*
X11485952Y-15405952D01*
X11476428Y-15386905D01*
X11476428Y-15215476D01*
X11733571Y-15415476D02*
X11733571Y-15215476D01*
X11800238Y-15358333D01*
X11866905Y-15215476D01*
X11866905Y-15415476D01*
X12047857Y-15415476D02*
X12047857Y-15310714D01*
X12038333Y-15291667D01*
X12019286Y-15282143D01*
X11981190Y-15282143D01*
X11962143Y-15291667D01*
X12047857Y-15405952D02*
X12028809Y-15415476D01*
X11981190Y-15415476D01*
X11962143Y-15405952D01*
X11952619Y-15386905D01*
X11952619Y-15367857D01*
X11962143Y-15348809D01*
X11981190Y-15339286D01*
X12028809Y-15339286D01*
X12047857Y-15329762D01*
X12143095Y-15282143D02*
X12143095Y-15482143D01*
X12143095Y-15291667D02*
X12162143Y-15282143D01*
X12200238Y-15282143D01*
X12219286Y-15291667D01*
X12228809Y-15301190D01*
X12238333Y-15320238D01*
X12238333Y-15377381D01*
X12228809Y-15396428D01*
X12219286Y-15405952D01*
X12200238Y-15415476D01*
X12162143Y-15415476D01*
X12143095Y-15405952D01*
X12324048Y-15396428D02*
X12333571Y-15405952D01*
X12324048Y-15415476D01*
X12314524Y-15405952D01*
X12324048Y-15396428D01*
X12324048Y-15415476D01*
X12324048Y-15291667D02*
X12333571Y-15301190D01*
X12324048Y-15310714D01*
X12314524Y-15301190D01*
X12324048Y-15291667D01*
X12324048Y-15310714D01*
M02*
